<?xml version="1.0" encoding="UTF-8"?>
<!DOCTYPE svg PUBLIC "-//W3C//DTD SVG 1.1//EN" "http://www.w3.org/Graphics/SVG/1.1/DTD/svg11.dtd">
<svg xmlns="http://www.w3.org/2000/svg" version="1.1" width="512px" height="512px" style="shape-rendering:geometricPrecision; text-rendering:geometricPrecision; image-rendering:optimizeQuality; fill-rule:evenodd; clip-rule:evenodd" xmlns:xlink="http://www.w3.org/1999/xlink">
<g><path style="opacity:0.049" fill="#6f0011" d="M 141.5,-0.5 C 148.5,-0.5 155.5,-0.5 162.5,-0.5C 109.221,54.7792 54.8874,109.113 -0.5,162.5C -0.5,155.5 -0.5,148.5 -0.5,141.5C 46.473,93.8604 93.8063,46.527 141.5,-0.5 Z"/></g>
<g><path style="opacity:0.047" fill="#6f0011" d="M 231.5,-0.5 C 238.5,-0.5 245.5,-0.5 252.5,-0.5C 247.142,5.02273 241.976,10.6894 237,16.5C 158.088,95.2224 78.9216,173.889 -0.5,252.5C -0.5,245.5 -0.5,238.5 -0.5,231.5C 76.8063,154.194 154.14,76.8604 231.5,-0.5 Z"/></g>
<g><path style="opacity:0.044" fill="#700012" d="M 501.5,-0.5 C 504.833,-0.5 508.167,-0.5 511.5,-0.5C 511.5,3.5 511.5,7.5 511.5,11.5C 469.093,54.741 426.259,97.4076 383,139.5C 382.487,140.527 381.987,141.527 381.5,142.5C 380.833,142.5 380.5,142.167 380.5,141.5C 416.082,104.417 452.248,67.7504 489,31.5C 490.146,29.3562 491.646,27.5228 493.5,26C 492.728,21.613 490.228,18.7797 486,17.5C 447.916,56.0847 409.416,94.0847 370.5,131.5C 369.833,131.5 369.5,131.167 369.5,130.5C 413.527,86.8062 457.527,43.1395 501.5,-0.5 Z"/></g>
<g><path style="opacity:0.095" fill="#720012" d="M 51.5,-0.5 C 58.5,-0.5 65.5,-0.5 72.5,-0.5C 67.1425,5.02273 61.9758,10.6894 57,16.5C 38.0865,35.2222 18.9198,53.8889 -0.5,72.5C -0.5,65.5 -0.5,58.5 -0.5,51.5C 16.8063,34.1937 34.1396,16.8604 51.5,-0.5 Z"/></g>
<g><path style="opacity:0.097" fill="#730012" d="M 126.5,16.5 C 131.844,16.334 137.177,16.5006 142.5,17C 101.306,59.527 59.473,101.36 17,142.5C 16.3333,137.167 16.3333,131.833 17,126.5C 53.7015,89.9654 90.2015,53.2987 126.5,16.5 Z"/></g>
<g><path style="opacity:0.097" fill="#730012" d="M 216.5,16.5 C 221.844,16.334 227.177,16.5006 232.5,17C 161.306,89.527 89.473,161.36 17,232.5C 16.3333,227.167 16.3333,221.833 17,216.5C 83.7013,149.965 150.201,83.2988 216.5,16.5 Z"/></g>
<g><path style="opacity:0.096" fill="#720012" d="M 321.5,-0.5 C 328.5,-0.5 335.5,-0.5 342.5,-0.5C 325.243,17.101 308.243,34.7677 291.5,52.5C 287.167,48.8333 283.167,44.8333 279.5,40.5C 293.831,27.1686 307.831,13.502 321.5,-0.5 Z"/></g>
<g><path style="opacity:0.097" fill="#730012" d="M 411.5,-0.5 C 418.5,-0.5 425.5,-0.5 432.5,-0.5C 400.062,31.9362 368.062,64.6028 336.5,97.5C 332.167,93.8333 328.167,89.8333 324.5,85.5C 353.5,56.8333 382.5,28.1667 411.5,-0.5 Z"/></g>
<g><path style="opacity:0.097" fill="#740013" d="M 380.5,141.5 C 376.833,138.5 373.5,135.167 370.5,131.5C 409.416,94.0847 447.916,56.0847 486,17.5C 490.228,18.7797 492.728,21.613 493.5,26C 491.646,27.5228 490.146,29.3562 489,31.5C 452.248,67.7504 416.082,104.417 380.5,141.5 Z"/></g>
<g><path style="opacity:0.98" fill="#a1001a" d="M 279.5,40.5 C 276.098,40.3424 272.764,40.6758 269.5,41.5C 269.611,40.8826 269.944,40.3826 270.5,40C 273.696,39.1955 276.696,39.3622 279.5,40.5 Z"/></g>
<g><path style="opacity:1" fill="#da0023" d="M 279.5,40.5 C 283.167,44.8333 287.167,48.8333 291.5,52.5C 302.833,63.1667 313.833,74.1667 324.5,85.5C 328.167,89.8333 332.167,93.8333 336.5,97.5C 347.833,108.167 358.833,119.167 369.5,130.5C 369.5,131.167 369.833,131.5 370.5,131.5C 373.5,135.167 376.833,138.5 380.5,141.5C 380.5,142.167 380.833,142.5 381.5,142.5C 392.833,153.167 403.833,164.167 414.5,175.5C 418.167,179.833 422.167,183.833 426.5,187.5C 437.833,198.167 448.833,209.167 459.5,220.5C 463.528,224.859 467.528,229.193 471.5,233.5C 471.663,235.857 471.497,238.19 471,240.5C 470.617,241.056 470.117,241.389 469.5,241.5C 468.094,241.973 467.427,242.973 467.5,244.5C 419.368,293.132 371.035,341.632 322.5,390C 319.44,391.663 316.44,391.83 313.5,390.5C 309.526,386.862 305.526,383.195 301.5,379.5C 290.167,368.833 279.167,357.833 268.5,346.5C 264.5,341.833 260.167,337.5 255.5,333.5C 244.167,322.833 233.167,311.833 222.5,300.5C 219.167,296.5 215.5,292.833 211.5,289.5C 200.167,278.833 189.167,267.833 178.5,256.5C 173.758,251.091 168.758,246.091 163.5,241.5C 163.5,239.5 162.5,238.5 160.5,238.5C 160.5,236.5 159.5,235.5 157.5,235.5C 155.164,233.996 153.331,231.996 152,229.5C 151.5,216.838 151.333,204.171 151.5,191.5C 151.5,184.5 151.5,177.5 151.5,170.5C 151.185,166.629 151.518,162.962 152.5,159.5C 153.906,159.027 154.573,158.027 154.5,156.5C 159.833,153.167 164.167,148.833 167.5,143.5C 170.5,142.5 172.5,140.5 173.5,137.5C 175.833,134.5 178.5,131.833 181.5,129.5C 192.413,120.091 202.913,110.091 213,99.5C 213.464,98.9056 213.631,98.2389 213.5,97.5C 215.833,94.5 218.5,91.8333 221.5,89.5C 228.833,84.1667 235.167,77.8333 240.5,70.5C 245.5,67.5 249.5,63.5 252.5,58.5C 257.833,52.5 263.5,46.8333 269.5,41.5C 272.764,40.6758 276.098,40.3424 279.5,40.5 Z M 280.5,64.5 C 291.167,75.8333 302.167,86.8333 313.5,97.5C 268.769,142.38 223.769,187.046 178.5,231.5C 176.481,229.81 174.481,228.144 172.5,226.5C 180.742,216.754 189.575,207.421 199,198.5C 199.667,195.833 199.667,193.167 199,190.5C 198.617,189.944 198.117,189.611 197.5,189.5C 191.224,181.555 184.224,174.222 176.5,167.5C 177.504,166.317 178.338,164.984 179,163.5C 211.5,131 244,98.5 276.5,66C 277.745,65.2086 279.078,64.7086 280.5,64.5 Z M 324.5,108.5 C 335.167,119.833 346.167,130.833 357.5,141.5C 357.297,143.044 356.63,144.378 355.5,145.5C 312.833,187.5 270.5,229.833 228.5,272.5C 226.736,274.278 224.736,275.611 222.5,276.5C 212.167,265.5 201.5,254.833 190.5,244.5C 190.351,243.448 190.517,242.448 191,241.5C 194.067,239.249 196.9,236.916 199.5,234.5C 199.5,234.833 199.5,235.167 199.5,235.5C 199.973,236.906 200.973,237.573 202.5,237.5C 205.71,239.764 209.044,239.598 212.5,237C 247.368,202.299 282.035,167.465 316.5,132.5C 317.906,132.027 318.573,131.027 318.5,129.5C 320.345,125.116 319.345,121.449 315.5,118.5C 318.257,114.953 321.257,111.62 324.5,108.5 Z M 370.5,154.5 C 381.167,165.833 392.167,176.833 403.5,187.5C 359.215,231.785 314.881,276.119 270.5,320.5C 269.583,321.127 268.583,321.461 267.5,321.5C 256.833,310.167 245.833,299.167 234.5,288.5C 236.973,286.857 238.973,284.69 240.5,282C 242.025,280.991 243.692,280.491 245.5,280.5C 249.178,281.996 252.511,281.329 255.5,278.5C 257.167,277.5 258.5,276.167 259.5,274.5C 260.5,274.167 261.167,273.5 261.5,272.5C 262.167,272.5 262.5,272.167 262.5,271.5C 278.885,256.116 294.552,240.116 309.5,223.5C 326.799,206.702 343.965,189.702 361,172.5C 361.273,170.899 361.773,169.399 362.5,168C 361.901,166.378 361.234,164.878 360.5,163.5C 362.612,161.207 364.612,158.707 366.5,156C 367.745,155.209 369.078,154.709 370.5,154.5 Z M 169.5,184.5 C 171.833,187.5 174.5,190.167 177.5,192.5C 177.804,193.15 178.137,193.817 178.5,194.5C 177.143,196.186 175.81,197.852 174.5,199.5C 172.5,200.833 170.833,202.5 169.5,204.5C 168.167,197.833 168.167,191.167 169.5,184.5 Z M 447.5,232.5 C 402.833,277.833 357.833,322.833 312.5,367.5C 308.5,362.833 304.167,358.5 299.5,354.5C 293.929,347.423 287.762,340.756 281,334.5C 280.333,333.5 280.333,332.5 281,331.5C 284.383,329.619 286.883,326.952 288.5,323.5C 290.857,323.663 293.19,323.497 295.5,323C 332.085,286.916 368.085,250.416 403.5,213.5C 404.114,210.692 405.281,208.025 407,205.5C 409.643,204.024 411.81,202.024 413.5,199.5C 424.854,210.521 436.187,221.521 447.5,232.5 Z"/></g>
<g><path style="opacity:0.097" fill="#780013" d="M 278.5,62.5 C 243.45,96.5494 209.117,131.216 175.5,166.5C 173.243,165.438 172.077,163.772 172,161.5C 206.333,127.167 240.667,92.8333 275,58.5C 276.376,59.7051 277.542,61.0384 278.5,62.5 Z"/></g>
<g><path style="opacity:1" fill="#ba001e" d="M 252.5,58.5 C 249.5,63.5 245.5,67.5 240.5,70.5C 244.167,66.1667 248.167,62.1667 252.5,58.5 Z"/></g>
<g><path style="opacity:0.038" fill="#700012" d="M 278.5,62.5 C 279.5,62.8333 280.167,63.5 280.5,64.5C 279.078,64.7086 277.745,65.2086 276.5,66C 244,98.5 211.5,131 179,163.5C 178.338,164.984 177.504,166.317 176.5,167.5C 175.833,167.5 175.5,167.167 175.5,166.5C 209.117,131.216 243.45,96.5494 278.5,62.5 Z"/></g>
<g><path style="opacity:1" fill="#b9001e" d="M 240.5,70.5 C 235.167,77.8333 228.833,84.1667 221.5,89.5C 227.5,82.8333 233.833,76.5 240.5,70.5 Z"/></g>
<g><path style="opacity:0.101" fill="#730012" d="M 313.5,97.5 C 317.5,100.833 321.167,104.5 324.5,108.5C 321.257,111.62 318.257,114.953 315.5,118.5C 311.838,116.866 308.505,117.366 305.5,120C 270.667,154.833 235.833,189.667 201,224.5C 198.366,227.505 197.866,230.838 199.5,234.5C 196.9,236.916 194.067,239.249 191,241.5C 190.517,242.448 190.351,243.448 190.5,244.5C 186.002,240.17 181.335,236.003 176.5,232C 174.536,230.549 173.203,228.716 172.5,226.5C 174.481,228.144 176.481,229.81 178.5,231.5C 223.769,187.046 268.769,142.38 313.5,97.5 Z"/></g>
<g><path style="opacity:0.097" fill="#720012" d="M 511.5,80.5 C 511.5,87.5 511.5,94.5 511.5,101.5C 485.119,128.714 458.286,155.381 431,181.5C 429.612,183.702 428.112,185.702 426.5,187.5C 422.167,183.833 418.167,179.833 414.5,175.5C 446.079,144.551 477.412,113.384 508.5,82C 509.527,81.4867 510.527,80.9867 511.5,80.5 Z"/></g>
<g><path style="opacity:0.996" fill="#b7001d" d="M 213.5,97.5 C 213.631,98.2389 213.464,98.9056 213,99.5C 202.913,110.091 192.413,120.091 181.5,129.5C 191.833,118.5 202.5,107.833 213.5,97.5 Z"/></g>
<g><path style="opacity:1" fill="#d60022" d="M 315.5,118.5 C 319.345,121.449 320.345,125.116 318.5,129.5C 317.094,129.973 316.427,130.973 316.5,132.5C 282.035,167.465 247.368,202.299 212.5,237C 209.044,239.598 205.71,239.764 202.5,237.5C 202.027,236.094 201.027,235.427 199.5,235.5C 199.5,235.167 199.5,234.833 199.5,234.5C 197.866,230.838 198.366,227.505 201,224.5C 235.833,189.667 270.667,154.833 305.5,120C 308.505,117.366 311.838,116.866 315.5,118.5 Z"/></g>
<g><path style="opacity:0.016" fill="#810014" d="M 318.5,129.5 C 318.573,131.027 317.906,132.027 316.5,132.5C 316.427,130.973 317.094,129.973 318.5,129.5 Z"/></g>
<g><path style="opacity:1" fill="#d60022" d="M 337.5,140.5 C 339.178,143.552 339.845,146.885 339.5,150.5C 304.418,187.083 268.752,223.25 232.5,259C 229.881,260.696 227.214,260.863 224.5,259.5C 223.738,257.738 222.404,256.738 220.5,256.5C 220.5,256.167 220.5,255.833 220.5,255.5C 220.368,252.43 220.701,249.43 221.5,246.5C 256.632,210.868 291.965,175.368 327.5,140C 331.066,137.883 334.4,138.05 337.5,140.5 Z"/></g>
<g><path style="opacity:0.996" fill="#b1001d" d="M 173.5,137.5 C 172.5,140.5 170.5,142.5 167.5,143.5C 169.167,141.167 171.167,139.167 173.5,137.5 Z"/></g>
<g><path style="opacity:0.098" fill="#740012" d="M 357.5,141.5 C 362.167,145.5 366.5,149.833 370.5,154.5C 369.078,154.709 367.745,155.209 366.5,156C 364.612,158.707 362.612,161.207 360.5,163.5C 356.868,160.284 352.868,159.784 348.5,162C 313.333,197.167 278.167,232.333 243,267.5C 240.467,272.649 241.3,276.982 245.5,280.5C 243.692,280.491 242.025,280.991 240.5,282C 238.973,284.69 236.973,286.857 234.5,288.5C 230.5,284.833 226.5,281.167 222.5,277.5C 222.5,277.167 222.5,276.833 222.5,276.5C 224.736,275.611 226.736,274.278 228.5,272.5C 270.5,229.833 312.833,187.5 355.5,145.5C 356.63,144.378 357.297,143.044 357.5,141.5 Z"/></g>
<g><path style="opacity:0.949" fill="#a6001a" d="M 337.5,140.5 C 338.458,140.953 339.292,141.619 340,142.5C 340.801,145.367 340.634,148.034 339.5,150.5C 339.845,146.885 339.178,143.552 337.5,140.5 Z"/></g>
<g><path style="opacity:0.996" fill="#b2001d" d="M 167.5,143.5 C 164.167,148.833 159.833,153.167 154.5,156.5C 158.5,151.833 162.833,147.5 167.5,143.5 Z"/></g>
<g><path style="opacity:0.886" fill="#9e0019" d="M 154.5,156.5 C 154.573,158.027 153.906,159.027 152.5,159.5C 152.427,157.973 153.094,156.973 154.5,156.5 Z"/></g>
<g><path style="opacity:1" fill="#db0023" d="M 360.5,163.5 C 361.234,164.878 361.901,166.378 362.5,168C 361.773,169.399 361.273,170.899 361,172.5C 343.965,189.702 326.799,206.702 309.5,223.5C 293.115,238.884 277.448,254.884 262.5,271.5C 262.5,272.167 262.167,272.5 261.5,272.5C 260.167,272.5 259.5,273.167 259.5,274.5C 257.167,274.833 255.833,276.167 255.5,278.5C 252.511,281.329 249.178,281.996 245.5,280.5C 241.3,276.982 240.467,272.649 243,267.5C 278.167,232.333 313.333,197.167 348.5,162C 352.868,159.784 356.868,160.284 360.5,163.5 Z"/></g>
<g><path style="opacity:0.918" fill="#8c0016" d="M 176.5,167.5 C 184.224,174.222 191.224,181.555 197.5,189.5C 189.776,182.778 182.776,175.445 176.5,167.5 Z"/></g>
<g><path style="opacity:0.097" fill="#730012" d="M 151.5,170.5 C 151.5,177.5 151.5,184.5 151.5,191.5C 141.199,202.634 130.366,213.3 119,223.5C 118.536,224.094 118.369,224.761 118.5,225.5C 117.078,225.709 115.745,226.209 114.5,227C 108.667,232.833 102.833,238.667 97,244.5C 96.502,247.482 96.3354,250.482 96.5,253.5C 95.6909,251.708 95.1909,249.708 95,247.5C 90.5145,252.953 85.6812,258.119 80.5,263C 81.7375,263.232 82.7375,263.732 83.5,264.5C 80.6802,264.248 78.0135,264.748 75.5,266C 64.3333,277.167 53.1667,288.333 42,299.5C 40.7114,302.351 40.2114,305.351 40.5,308.5C 39.71,307.391 39.21,306.058 39,304.5C 26.1072,317.244 12.9405,329.911 -0.5,342.5C -0.5,335.5 -0.5,328.5 -0.5,321.5C 49.4951,270.505 100.162,220.172 151.5,170.5 Z"/></g>
<g><path style="opacity:1" fill="#d70022" d="M 266.5,301.5 C 266.027,300.094 265.027,299.427 263.5,299.5C 260.833,296.167 260.833,292.833 263.5,289.5C 299.5,254.167 335.167,218.5 370.5,182.5C 377.503,179.305 381.836,181.638 383.5,189.5C 382.946,191.61 382.112,193.61 381,195.5C 345.833,230.667 310.667,265.833 275.5,301C 272.44,302.663 269.44,302.83 266.5,301.5 Z"/></g>
<g><path style="opacity:0.502" fill="#830015" d="M 169.5,184.5 C 168.167,191.167 168.167,197.833 169.5,204.5C 169.217,205.289 168.717,205.956 168,206.5C 167.333,198.5 167.333,190.5 168,182.5C 168.717,183.044 169.217,183.711 169.5,184.5 Z"/></g>
<g><path style="opacity:0.045" fill="#760013" d="M 403.5,187.5 C 418.833,202.167 433.833,217.167 448.5,232.5C 448.167,232.5 447.833,232.5 447.5,232.5C 436.187,221.521 424.854,210.521 413.5,199.5C 411.81,202.024 409.643,204.024 407,205.5C 405.281,208.025 404.114,210.692 403.5,213.5C 403.969,204.457 399.969,201.29 391.5,204C 356,239.5 320.5,275 285,310.5C 282.348,315.961 283.514,320.294 288.5,323.5C 286.883,326.952 284.383,329.619 281,331.5C 280.333,332.5 280.333,333.5 281,334.5C 287.762,340.756 293.929,347.423 299.5,354.5C 288.5,344.167 277.833,333.5 267.5,322.5C 267.5,322.167 267.5,321.833 267.5,321.5C 268.583,321.461 269.583,321.127 270.5,320.5C 314.881,276.119 359.215,231.785 403.5,187.5 Z"/></g>
<g><path style="opacity:0.096" fill="#720012" d="M 511.5,170.5 C 511.5,177.5 511.5,184.5 511.5,191.5C 498.454,204.046 485.621,216.713 473,229.5C 472.209,230.745 471.709,232.078 471.5,233.5C 467.528,229.193 463.528,224.859 459.5,220.5C 476.556,203.442 493.89,186.775 511.5,170.5 Z"/></g>
<g><path style="opacity:1" fill="#ad001c" d="M 177.5,192.5 C 179.344,193.204 179.844,194.537 179,196.5C 177.871,198.141 176.371,199.141 174.5,199.5C 175.81,197.852 177.143,196.186 178.5,194.5C 178.137,193.817 177.804,193.15 177.5,192.5 Z"/></g>
<g><path style="opacity:1" fill="#da0023" d="M 403.5,213.5 C 368.085,250.416 332.085,286.916 295.5,323C 293.19,323.497 290.857,323.663 288.5,323.5C 283.514,320.294 282.348,315.961 285,310.5C 320.5,275 356,239.5 391.5,204C 399.969,201.29 403.969,204.457 403.5,213.5 Z"/></g>
<g><path style="opacity:1" fill="#d90023" d="M 118.5,225.5 C 126.124,225.972 128.957,229.972 127,237.5C 126.617,238.056 126.117,238.389 125.5,238.5C 119.5,243.833 113.833,249.5 108.5,255.5C 108.389,256.117 108.056,256.617 107.5,257C 102.916,258.337 99.2493,257.171 96.5,253.5C 96.3354,250.482 96.502,247.482 97,244.5C 102.833,238.667 108.667,232.833 114.5,227C 115.745,226.209 117.078,225.709 118.5,225.5 Z"/></g>
<g><path style="opacity:0.11" fill="#730012" d="M 447.5,232.5 C 447.833,232.5 448.167,232.5 448.5,232.5C 450.914,233.406 451.747,235.072 451,237.5C 406.5,282 362,326.5 317.5,371C 315.228,370.923 313.562,369.757 312.5,367.5C 357.833,322.833 402.833,277.833 447.5,232.5 Z"/></g>
<g><path style="opacity:0.961" fill="#950018" d="M 157.5,235.5 C 159.5,235.5 160.5,236.5 160.5,238.5C 159.167,237.833 158.167,236.833 157.5,235.5 Z"/></g>
<g><path style="opacity:0.973" fill="#9d0019" d="M 199.5,235.5 C 201.027,235.427 202.027,236.094 202.5,237.5C 200.973,237.573 199.973,236.906 199.5,235.5 Z"/></g>
<g><path style="opacity:0.961" fill="#950018" d="M 160.5,238.5 C 162.5,238.5 163.5,239.5 163.5,241.5C 162.167,240.833 161.167,239.833 160.5,238.5 Z"/></g>
<g><path style="opacity:0.031" fill="#840015" d="M 469.5,241.5 C 469.573,243.027 468.906,244.027 467.5,244.5C 467.427,242.973 468.094,241.973 469.5,241.5 Z"/></g>
<g><path style="opacity:0.098" fill="#730012" d="M 163.5,241.5 C 168.758,246.091 173.758,251.091 178.5,256.5C 177.078,256.709 175.745,257.209 174.5,258C 171.419,261.513 168.419,265.013 165.5,268.5C 161.948,265.16 157.948,264.66 153.5,267C 134.333,286.167 115.167,305.333 96,324.5C 92.6582,328.632 92.8249,332.632 96.5,336.5C 94.525,339.306 92.025,341.639 89,343.5C 88.2086,344.745 87.7086,346.078 87.5,347.5C 83.5796,343.013 79.2463,342.513 74.5,346C 63.3333,357.167 52.1667,368.333 41,379.5C 38.7039,384.187 39.5372,388.187 43.5,391.5C 41.0947,392.687 38.7613,394.187 36.5,396C 24.4328,408.232 12.0995,420.399 -0.5,432.5C -0.5,425.5 -0.5,418.5 -0.5,411.5C 54.7851,355.881 110.118,300.215 165.5,244.5C 164.807,243.482 164.141,242.482 163.5,241.5 Z"/></g>
<g><path style="opacity:0.922" fill="#8e0016" d="M 190.5,244.5 C 201.5,254.833 212.167,265.5 222.5,276.5C 222.5,276.833 222.5,277.167 222.5,277.5C 211.113,267.114 200.446,256.114 190.5,244.5 Z"/></g>
<g><path style="opacity:0.008" fill="#7f0014" d="M 125.5,238.5 C 120.833,245.167 115.167,250.833 108.5,255.5C 113.833,249.5 119.5,243.833 125.5,238.5 Z"/></g>
<g><path style="opacity:0.933" fill="#9f0019" d="M 221.5,246.5 C 220.701,249.43 220.368,252.43 220.5,255.5C 219.366,253.034 219.199,250.367 220,247.5C 220.383,246.944 220.883,246.611 221.5,246.5 Z"/></g>
<g><path style="opacity:0.973" fill="#970018" d="M 220.5,256.5 C 222.404,256.738 223.738,257.738 224.5,259.5C 222.596,259.262 221.262,258.262 220.5,256.5 Z"/></g>
<g><path style="opacity:0.871" fill="#930017" d="M 370.5,182.5 C 335.167,218.5 299.5,254.167 263.5,289.5C 297.915,253.584 332.915,218.084 368.5,183C 369.094,182.536 369.761,182.369 370.5,182.5 Z"/></g>
<g><path style="opacity:0.016" fill="#7f0014" d="M 309.5,223.5 C 294.552,240.116 278.885,256.116 262.5,271.5C 277.448,254.884 293.115,238.884 309.5,223.5 Z"/></g>
<g><path style="opacity:0.048" fill="#6f0011" d="M 511.5,260.5 C 511.5,267.5 511.5,274.5 511.5,281.5C 434.527,357.806 357.86,434.473 281.5,511.5C 274.5,511.5 267.5,511.5 260.5,511.5C 260.369,510.761 260.536,510.094 261,509.5C 344.068,425.993 427.568,342.993 511.5,260.5 Z"/></g>
<g><path style="opacity:1" fill="#db0023" d="M 83.5,264.5 C 87.3377,265.684 89.3377,268.351 89.5,272.5C 89.2427,274.692 88.2427,276.359 86.5,277.5C 74.8333,288.5 63.5,299.833 52.5,311.5C 49.5,314.167 46.5,314.167 43.5,311.5C 42.8333,310.167 41.8333,309.167 40.5,308.5C 40.2114,305.351 40.7114,302.351 42,299.5C 53.1667,288.333 64.3333,277.167 75.5,266C 78.0135,264.748 80.6802,264.248 83.5,264.5 Z"/></g>
<g><path style="opacity:1" fill="#d60022" d="M 165.5,268.5 C 168.167,271.5 168.167,274.5 165.5,277.5C 164.094,277.973 163.427,278.973 163.5,280.5C 145.368,299.132 127.035,317.632 108.5,336C 105.199,338.374 101.533,339.04 97.5,338C 96.944,337.617 96.6107,337.117 96.5,336.5C 92.8249,332.632 92.6582,328.632 96,324.5C 115.167,305.333 134.333,286.167 153.5,267C 157.948,264.66 161.948,265.16 165.5,268.5 Z"/></g>
<g><path style="opacity:0.024" fill="#7c0014" d="M 261.5,272.5 C 261.167,273.5 260.5,274.167 259.5,274.5C 259.5,273.167 260.167,272.5 261.5,272.5 Z"/></g>
<g><path style="opacity:0.024" fill="#7f0014" d="M 259.5,274.5 C 258.5,276.167 257.167,277.5 255.5,278.5C 255.833,276.167 257.167,274.833 259.5,274.5 Z"/></g>
<g><path style="opacity:0.031" fill="#830015" d="M 165.5,277.5 C 165.573,279.027 164.906,280.027 163.5,280.5C 163.427,278.973 164.094,277.973 165.5,277.5 Z"/></g>
<g><path style="opacity:0.097" fill="#730012" d="M 492.5,280.5 C 493.812,282.743 494.478,285.41 494.5,288.5C 494.333,291.167 494.167,293.833 494,296.5C 428.347,362.32 362.513,427.987 296.5,493.5C 290.863,494.663 285.196,494.83 279.5,494C 350.701,422.965 421.701,351.799 492.5,280.5 Z"/></g>
<g><path style="opacity:0.89" fill="#8a0016" d="M 234.5,288.5 C 245.833,299.167 256.833,310.167 267.5,321.5C 267.5,321.833 267.5,322.167 267.5,322.5C 255.78,311.781 244.78,300.448 234.5,288.5 Z"/></g>
<g><path style="opacity:0.099" fill="#730012" d="M 211.5,289.5 C 215.5,292.833 219.167,296.5 222.5,300.5C 216.86,306.806 210.86,312.806 204.5,318.5C 208.08,310.331 205.414,305.664 196.5,304.5C 201.306,299.272 206.306,294.272 211.5,289.5 Z"/></g>
<g><path style="opacity:0.008" fill="#7f0014" d="M 86.5,277.5 C 76.4235,289.08 65.7568,300.247 54.5,311C 53.9056,311.464 53.2389,311.631 52.5,311.5C 63.5,299.833 74.8333,288.5 86.5,277.5 Z"/></g>
<g><path style="opacity:0.863" fill="#990018" d="M 263.5,299.5 C 265.027,299.427 266.027,300.094 266.5,301.5C 264.973,301.573 263.973,300.906 263.5,299.5 Z"/></g>
<g><path style="opacity:1" fill="#d80022" d="M 196.5,304.5 C 205.414,305.664 208.08,310.331 204.5,318.5C 189.116,334.885 173.116,350.552 156.5,365.5C 147.833,366.833 144.167,363.167 145.5,354.5C 162.167,338.5 178.5,322.167 194.5,305.5C 194.842,304.662 195.508,304.328 196.5,304.5 Z"/></g>
<g><path style="opacity:0.008" fill="#850015" d="M 40.5,308.5 C 41.8333,309.167 42.8333,310.167 43.5,311.5C 41.5,311.5 40.5,310.5 40.5,308.5 Z"/></g>
<g><path style="opacity:0.097" fill="#730012" d="M 255.5,333.5 C 260.167,337.5 264.5,341.833 268.5,346.5C 267.078,346.709 265.745,347.209 264.5,348C 210.741,402.926 156.407,457.426 101.5,511.5C 94.5,511.5 87.5,511.5 80.5,511.5C 93.2171,497.279 106.55,483.446 120.5,470C 119.748,469.329 119.414,468.496 119.5,467.5C 122.723,471.712 126.723,472.545 131.5,470C 139.667,461.833 147.833,453.667 156,445.5C 158.998,441.889 159.165,438.222 156.5,434.5C 159.902,431.105 162.902,427.438 165.5,423.5C 169.292,427.273 173.292,427.44 177.5,424C 199.667,401.833 221.833,379.667 244,357.5C 246.34,353.052 245.84,349.052 242.5,345.5C 243.93,345.579 245.264,345.246 246.5,344.5C 249.955,341.061 252.955,337.394 255.5,333.5 Z"/></g>
<g><path style="opacity:0.937" fill="#9a0019" d="M 194.5,305.5 C 178.5,322.167 162.167,338.5 145.5,354.5C 160.579,337.919 176.246,321.752 192.5,306C 193.094,305.536 193.761,305.369 194.5,305.5 Z"/></g>
<g><path style="opacity:1" fill="#d60022" d="M 87.5,347.5 C 89.1132,350.854 88.7798,353.854 86.5,356.5C 85.0937,356.973 84.427,357.973 84.5,359.5C 74.3688,370.132 64.0355,380.632 53.5,391C 50.1056,392.684 46.7723,392.851 43.5,391.5C 39.5372,388.187 38.7039,384.187 41,379.5C 52.1667,368.333 63.3333,357.167 74.5,346C 79.2463,342.513 83.5796,343.013 87.5,347.5 Z"/></g>
<g><path style="opacity:1" fill="#dc0023" d="M 242.5,345.5 C 245.84,349.052 246.34,353.052 244,357.5C 221.833,379.667 199.667,401.833 177.5,424C 173.292,427.44 169.292,427.273 165.5,423.5C 164.883,423.389 164.383,423.056 164,422.5C 163.333,419.833 163.333,417.167 164,414.5C 164.383,413.944 164.883,413.611 165.5,413.5C 188.5,391.167 211.167,368.5 233.5,345.5C 236.5,342.833 239.5,342.833 242.5,345.5 Z"/></g>
<g><path style="opacity:0.049" fill="#6f0011" d="M 511.5,350.5 C 511.5,357.5 511.5,364.5 511.5,371.5C 465.194,418.473 418.527,465.14 371.5,511.5C 364.5,511.5 357.5,511.5 350.5,511.5C 402.583,457.917 455.249,404.75 508.5,352C 509.527,351.487 510.527,350.987 511.5,350.5 Z"/></g>
<g><path style="opacity:0.039" fill="#840015" d="M 86.5,356.5 C 86.573,358.027 85.9063,359.027 84.5,359.5C 84.427,357.973 85.0937,356.973 86.5,356.5 Z"/></g>
<g><path style="opacity:0.098" fill="#740012" d="M 145.5,354.5 C 144.167,363.167 147.833,366.833 156.5,365.5C 155.496,366.683 154.662,368.016 154,369.5C 148.752,374.858 143.252,379.858 137.5,384.5C 138.321,376.99 134.988,373.323 127.5,373.5C 133.528,367.14 139.528,360.807 145.5,354.5 Z"/></g>
<g><path style="opacity:0.097" fill="#730012" d="M 492.5,370.5 C 493.812,372.743 494.478,375.41 494.5,378.5C 494.333,381.167 494.167,383.833 494,386.5C 458.347,422.32 422.513,457.987 386.5,493.5C 380.863,494.663 375.196,494.83 369.5,494C 410.701,452.965 451.701,411.799 492.5,370.5 Z"/></g>
<g><path style="opacity:1" fill="#d80022" d="M 127.5,373.5 C 134.988,373.323 138.321,376.99 137.5,384.5C 110.196,413.471 82.1958,441.804 53.5,469.5C 44.0672,472.627 39.7339,469.294 40.5,459.5C 69.1667,431.5 97.5,403.167 125.5,374.5C 125.842,373.662 126.508,373.328 127.5,373.5 Z"/></g>
<g><path style="opacity:0.097" fill="#730012" d="M 301.5,379.5 C 305.526,383.195 309.526,386.862 313.5,390.5C 312.761,390.369 312.094,390.536 311.5,391C 271.407,430.927 231.407,471.093 191.5,511.5C 184.5,511.5 177.5,511.5 170.5,511.5C 182.55,497.946 195.217,484.779 208.5,472C 208.272,471.601 207.938,471.435 207.5,471.5C 218.05,462.456 228.216,452.789 238,442.5C 239.289,439.649 239.789,436.649 239.5,433.5C 240.314,435.631 240.814,437.964 241,440.5C 244.985,436.015 249.151,431.682 253.5,427.5C 253.376,426.893 253.043,426.56 252.5,426.5C 252.5,426.167 252.5,425.833 252.5,425.5C 253.552,425.649 254.552,425.483 255.5,425C 266.122,414.883 276.122,404.383 285.5,393.5C 285.435,393.938 285.601,394.272 286,394.5C 291.146,389.369 296.312,384.369 301.5,379.5 Z"/></g>
<g><path style="opacity:0.925" fill="#9b0019" d="M 281.5,384.5 C 278.43,384.368 275.43,384.701 272.5,385.5C 272.611,384.883 272.944,384.383 273.5,384C 276.367,383.199 279.034,383.366 281.5,384.5 Z"/></g>
<g><path style="opacity:1" fill="#dc0023" d="M 281.5,384.5 C 285.008,386.425 286.341,389.425 285.5,393.5C 276.122,404.383 266.122,414.883 255.5,425C 254.552,425.483 253.552,425.649 252.5,425.5C 250.097,425.552 247.764,425.219 245.5,424.5C 243.32,422.969 242.32,420.802 242.5,418C 242.307,415.992 242.974,414.492 244.5,413.5C 254.167,404.5 263.5,395.167 272.5,385.5C 275.43,384.701 278.43,384.368 281.5,384.5 Z"/></g>
<g><path style="opacity:0.878" fill="#920017" d="M 233.5,345.5 C 211.167,368.5 188.5,391.167 165.5,413.5C 186.914,390.584 208.914,368.084 231.5,346C 232.094,345.536 232.761,345.369 233.5,345.5 Z"/></g>
<g><path style="opacity:0.816" fill="#8d0016" d="M 272.5,385.5 C 263.5,395.167 254.167,404.5 244.5,413.5C 252.575,403.921 261.242,394.754 270.5,386C 271.094,385.536 271.761,385.369 272.5,385.5 Z"/></g>
<g><path style="opacity:0.937" fill="#9b0019" d="M 125.5,374.5 C 97.5,403.167 69.1667,431.5 40.5,459.5C 67.5811,430.917 95.2478,402.751 123.5,375C 124.094,374.536 124.761,374.369 125.5,374.5 Z"/></g>
<g><path style="opacity:0.937" fill="#a6001a" d="M 245.5,424.5 C 247.764,425.219 250.097,425.552 252.5,425.5C 252.5,425.833 252.5,426.167 252.5,426.5C 250.473,426.662 248.473,426.495 246.5,426C 245.944,425.617 245.611,425.117 245.5,424.5 Z"/></g>
<g><path style="opacity:1" fill="#db0023" d="M 236.5,430.5 C 237.167,431.833 238.167,432.833 239.5,433.5C 239.789,436.649 239.289,439.649 238,442.5C 228.216,452.789 218.05,462.456 207.5,471.5C 199.359,471.519 196.192,467.519 198,459.5C 198.383,458.944 198.883,458.611 199.5,458.5C 208.833,449.833 217.833,440.833 226.5,431.5C 229.552,428.021 232.886,427.687 236.5,430.5 Z"/></g>
<g><path style="opacity:0.071" fill="#860015" d="M 236.5,430.5 C 238.5,430.5 239.5,431.5 239.5,433.5C 238.167,432.833 237.167,431.833 236.5,430.5 Z"/></g>
<g><path style="opacity:1" fill="#db0023" d="M 156.5,434.5 C 159.165,438.222 158.998,441.889 156,445.5C 147.833,453.667 139.667,461.833 131.5,470C 126.723,472.545 122.723,471.712 119.5,467.5C 118.167,464.833 118.167,462.167 119.5,459.5C 128.833,450.833 137.833,441.833 146.5,432.5C 148.966,431.366 151.633,431.199 154.5,432C 155.381,432.708 156.047,433.542 156.5,434.5 Z"/></g>
<g><path style="opacity:0.816" fill="#8d0016" d="M 226.5,431.5 C 217.833,440.833 208.833,449.833 199.5,458.5C 207.241,449.254 215.574,440.421 224.5,432C 225.094,431.536 225.761,431.369 226.5,431.5 Z"/></g>
<g><path style="opacity:0.054" fill="#710012" d="M 511.5,440.5 C 511.5,447.5 511.5,454.5 511.5,461.5C 494.527,477.806 477.86,494.473 461.5,511.5C 454.5,511.5 447.5,511.5 440.5,511.5C 440.369,510.761 440.536,510.094 441,509.5C 464.07,485.991 487.57,462.991 511.5,440.5 Z"/></g>
<g><path style="opacity:0.898" fill="#950017" d="M 146.5,432.5 C 137.833,441.833 128.833,450.833 119.5,459.5C 127.241,450.254 135.574,441.421 144.5,433C 145.094,432.536 145.761,432.369 146.5,432.5 Z"/></g>
<g><path style="opacity:0.047" fill="#710012" d="M 40.5,459.5 C 39.7339,469.294 44.0672,472.627 53.5,469.5C 39.9415,483.725 25.9415,497.725 11.5,511.5C 7.5,511.5 3.5,511.5 -0.5,511.5C -0.5,508.167 -0.5,504.833 -0.5,501.5C 13.1579,487.542 26.8246,473.542 40.5,459.5 Z"/></g>
</svg>
