<?xml version="1.0" encoding="UTF-8"?>
<!DOCTYPE svg PUBLIC "-//W3C//DTD SVG 1.1//EN" "http://www.w3.org/Graphics/SVG/1.1/DTD/svg11.dtd">
<svg xmlns="http://www.w3.org/2000/svg" version="1.1" width="128px" height="128px" style="shape-rendering:geometricPrecision; text-rendering:geometricPrecision; image-rendering:optimizeQuality; fill-rule:evenodd; clip-rule:evenodd" xmlns:xlink="http://www.w3.org/1999/xlink">
<g><path style="opacity:0.044" fill="#700012" d="M 57.5,-0.5 C 59.1667,-0.5 60.8333,-0.5 62.5,-0.5C 60.8333,1.5 59.1667,3.5 57.5,5.5C 55.5,5.5 53.5,5.5 51.5,5.5C 53.1939,3.13942 55.1939,1.13942 57.5,-0.5 Z"/></g>
<g><path style="opacity:0.041" fill="#700012" d="M 79.5,-0.5 C 81.1667,-0.5 82.8333,-0.5 84.5,-0.5C 83.5849,1.75405 82.2516,3.75405 80.5,5.5C 78.5,5.5 76.5,5.5 74.5,5.5C 76.1667,3.5 77.8333,1.5 79.5,-0.5 Z"/></g>
<g><path style="opacity:0.044" fill="#700012" d="M 102.5,-0.5 C 104.167,-0.5 105.833,-0.5 107.5,-0.5C 105.833,1.5 104.167,3.5 102.5,5.5C 100.5,5.5 98.5,5.5 96.5,5.5C 98.1939,3.13942 100.194,1.13942 102.5,-0.5 Z"/></g>
<g><path style="opacity:0.036" fill="#710012" d="M 124.5,-0.5 C 125.5,-0.5 126.5,-0.5 127.5,-0.5C 127.5,0.5 127.5,1.5 127.5,2.5C 125.567,4.93737 123.4,7.27071 121,9.5C 120.517,10.448 120.351,11.448 120.5,12.5C 119.197,10.8577 117.864,9.19107 116.5,7.5C 119.5,5.16667 122.167,2.5 124.5,-0.5 Z"/></g>
<g><path style="opacity:0.096" fill="#730012" d="M 34.5,-0.5 C 36.1667,-0.5 37.8333,-0.5 39.5,-0.5C 38.7974,1.71572 37.4641,3.54905 35.5,5C 35.7284,5.39877 36.0618,5.56544 36.5,5.5C 32.8797,7.45279 29.8797,10.1195 27.5,13.5C 26.8333,13.5 26.5,13.8333 26.5,14.5C 17.7804,23.2228 8.78041,31.5561 -0.5,39.5C -0.5,37.8333 -0.5,36.1667 -0.5,34.5C 11.5,23.1667 23.1667,11.5 34.5,-0.5 Z"/></g>
<g><path style="opacity:0.096" fill="#710012" d="M 12.5,-0.5 C 14.1667,-0.5 15.8333,-0.5 17.5,-0.5C 11.8333,5.83333 5.83333,11.8333 -0.5,17.5C -0.5,15.5 -0.5,13.5 -0.5,11.5C 3.85934,7.47183 8.19268,3.47183 12.5,-0.5 Z"/></g>
<g><path style="opacity:1" fill="#d90023" d="M 36.5,5.5 C 41.5,5.5 46.5,5.5 51.5,5.5C 53.5,5.5 55.5,5.5 57.5,5.5C 63.1667,5.5 68.8333,5.5 74.5,5.5C 76.5,5.5 78.5,5.5 80.5,5.5C 85.8333,5.5 91.1667,5.5 96.5,5.5C 98.5,5.5 100.5,5.5 102.5,5.5C 106.514,5.33449 110.514,5.50115 114.5,6C 115.416,6.27842 116.082,6.77842 116.5,7.5C 117.864,9.19107 119.197,10.8577 120.5,12.5C 121.483,16.2984 121.817,20.2984 121.5,24.5C 121.5,26.5 121.5,28.5 121.5,30.5C 121.5,36.1667 121.5,41.8333 121.5,47.5C 121.5,49.5 121.5,51.5 121.5,53.5C 121.5,58.8333 121.5,64.1667 121.5,69.5C 121.5,71.5 121.5,73.5 121.5,75.5C 121.666,79.5138 121.499,83.5138 121,87.5C 120.722,88.4158 120.222,89.0825 119.5,89.5C 118.167,90.1667 117.167,91.1667 116.5,92.5C 115.713,94.1042 114.38,94.7709 112.5,94.5C 89.5,94.5 66.5,94.5 43.5,94.5C 42.1667,93.1667 42.1667,91.8333 43.5,90.5C 66.3395,90.8308 89.0061,90.4975 111.5,89.5C 114.626,87.8404 116.293,85.1737 116.5,81.5C 116.5,79.5 116.5,77.5 116.5,75.5C 116.5,70.1667 116.5,64.8333 116.5,59.5C 116.5,57.5 116.5,55.5 116.5,53.5C 116.5,47.8333 116.5,42.1667 116.5,36.5C 116.5,34.5 116.5,32.5 116.5,30.5C 116.5,29.8333 116.5,29.1667 116.5,28.5C 88.3382,27.502 60.0049,27.1687 31.5,27.5C 31.5,45.8333 31.5,64.1667 31.5,82.5C 29.8716,83.8528 28.5383,83.5195 27.5,81.5C 27.5,81.1667 27.5,80.8333 27.5,80.5C 27.5,58.5 27.5,36.5 27.5,14.5C 27.5,14.1667 27.5,13.8333 27.5,13.5C 29.8797,10.1195 32.8797,7.45279 36.5,5.5 Z M 45.5,10.5 C 44.4726,12.1942 43.1392,13.5275 41.5,14.5C 39.2703,17.3966 36.6036,20.0633 33.5,22.5C 32.5258,20.2573 32.1924,17.924 32.5,15.5C 35.6814,11.3207 40.0147,9.65399 45.5,10.5 Z M 51.5,10.5 C 57.1667,10.5 62.8333,10.5 68.5,10.5C 67.4154,12.5869 65.7488,13.9202 63.5,14.5C 62.3478,13.375 61.3478,13.375 60.5,14.5C 58.2554,15.8278 57.9221,17.6612 59.5,20C 58.8333,20.6667 58.1667,21.3333 57.5,22C 51.8333,22.6667 46.1667,22.6667 40.5,22C 41.9555,20.3743 43.6221,19.2076 45.5,18.5C 45.5,18.1667 45.5,17.8333 45.5,17.5C 47.4707,15.1918 49.4707,12.8585 51.5,10.5 Z M 96.5,10.5 C 101.895,10.2665 107.228,10.5998 112.5,11.5C 109.371,15.1309 106.037,18.6309 102.5,22C 96.8333,22.6667 91.1667,22.6667 85.5,22C 89.3705,18.2977 93.0371,14.4643 96.5,10.5 Z M 116.5,17.5 C 116.5,19.1667 116.5,20.8333 116.5,22.5C 113.813,22.6641 111.146,22.4974 108.5,22C 110.667,19.8333 112.833,17.6667 115,15.5C 115.278,16.4158 115.778,17.0825 116.5,17.5 Z M 74.5,10.5 C 79.8333,10.5 85.1667,10.5 90.5,10.5C 87.0371,14.4643 83.3705,18.2977 79.5,22C 74.1667,22.6667 68.8333,22.6667 63.5,22C 67.3705,18.2977 71.0371,14.4643 74.5,10.5 Z M 50.5,28.5 C 44.8333,34.8333 38.8333,40.8333 32.5,46.5C 32.3339,40.8236 32.5006,35.1569 33,29.5C 38.7412,28.5251 44.5746,28.1918 50.5,28.5 Z M 56.5,28.5 C 61.8333,28.5 67.1667,28.5 72.5,28.5C 59.5,42.1667 46.1667,55.5 32.5,68.5C 32.5,63.1667 32.5,57.8333 32.5,52.5C 40.8333,44.8333 48.8333,36.8333 56.5,28.5 Z"/></g>
<g><path style="opacity:0.099" fill="#730012" d="M 45.5,10.5 C 47.5,10.5 49.5,10.5 51.5,10.5C 49.4707,12.8585 47.4707,15.1918 45.5,17.5C 45.3059,15.0882 43.9726,14.0882 41.5,14.5C 43.1392,13.5275 44.4726,12.1942 45.5,10.5 Z"/></g>
<g><path style="opacity:1" fill="#be001e" d="M 53.5,14.5 C 54.2341,15.7079 54.5674,17.0413 54.5,18.5C 53.0536,19.6129 51.3869,19.7796 49.5,19C 47.9682,15.9917 48.9682,14.1583 52.5,13.5C 53.1067,13.6236 53.44,13.9569 53.5,14.5 Z"/></g>
<g><path style="opacity:1" fill="#ca0020" d="M 63.5,14.5 C 65.1106,16.8334 64.6106,18.5001 62,19.5C 59.3894,18.5001 58.8894,16.8334 60.5,14.5C 61.3478,13.375 62.3478,13.375 63.5,14.5 Z"/></g>
<g><path style="opacity:0.042" fill="#700012" d="M 127.5,20.5 C 127.5,22.1667 127.5,23.8333 127.5,25.5C 125.5,27.1667 123.5,28.8333 121.5,30.5C 121.5,28.5 121.5,26.5 121.5,24.5C 123.246,22.7484 125.246,21.4151 127.5,20.5 Z"/></g>
<g><path style="opacity:0.361" fill="#780013" d="M 68.5,10.5 C 70.5,10.5 72.5,10.5 74.5,10.5C 71.0371,14.4643 67.3705,18.2977 63.5,22C 68.8333,22.6667 74.1667,22.6667 79.5,22C 83.3705,18.2977 87.0371,14.4643 90.5,10.5C 92.5,10.5 94.5,10.5 96.5,10.5C 93.0371,14.4643 89.3705,18.2977 85.5,22C 91.1667,22.6667 96.8333,22.6667 102.5,22C 106.037,18.6309 109.371,15.1309 112.5,11.5C 115.292,12.3918 116.625,14.3918 116.5,17.5C 115.778,17.0825 115.278,16.4158 115,15.5C 112.833,17.6667 110.667,19.8333 108.5,22C 111.146,22.4974 113.813,22.6641 116.5,22.5C 88.3382,23.498 60.0049,23.8313 31.5,23.5C 31.1936,20.6146 31.5269,17.9479 32.5,15.5C 32.1924,17.924 32.5258,20.2573 33.5,22.5C 36.6036,20.0633 39.2703,17.3966 41.5,14.5C 40.7659,15.7079 40.4326,17.0413 40.5,18.5C 42.1667,18.5 43.8333,18.5 45.5,18.5C 43.6221,19.2076 41.9555,20.3743 40.5,22C 46.1667,22.6667 51.8333,22.6667 57.5,22C 58.1667,21.3333 58.8333,20.6667 59.5,20C 57.9221,17.6612 58.2554,15.8278 60.5,14.5C 58.8894,16.8334 59.3894,18.5001 62,19.5C 64.6106,18.5001 65.1106,16.8334 63.5,14.5C 65.7488,13.9202 67.4154,12.5869 68.5,10.5 Z M 74.5,10.5 C 79.8333,10.5 85.1667,10.5 90.5,10.5C 87.0371,14.4643 83.3705,18.2977 79.5,22C 74.1667,22.6667 68.8333,22.6667 63.5,22C 67.3705,18.2977 71.0371,14.4643 74.5,10.5 Z"/></g>
<g><path style="opacity:0.008" fill="#830015" d="M 53.5,14.5 C 54.5862,14.62 55.2528,15.2867 55.5,16.5C 55.4573,17.4164 55.1239,18.0831 54.5,18.5C 54.5674,17.0413 54.2341,15.7079 53.5,14.5 Z"/></g>
<g><path style="opacity:1" fill="#d90023" d="M 41.5,14.5 C 43.9726,14.0882 45.3059,15.0882 45.5,17.5C 45.5,17.8333 45.5,18.1667 45.5,18.5C 43.8333,18.5 42.1667,18.5 40.5,18.5C 40.4326,17.0413 40.7659,15.7079 41.5,14.5 Z"/></g>
<g><path style="opacity:0.792" fill="#9d0019" d="M 116.5,28.5 C 111.5,28.5 106.5,28.5 101.5,28.5C 99.5,28.5 97.5,28.5 95.5,28.5C 89.8333,28.5 84.1667,28.5 78.5,28.5C 76.5,28.5 74.5,28.5 72.5,28.5C 67.1667,28.5 61.8333,28.5 56.5,28.5C 54.5,28.5 52.5,28.5 50.5,28.5C 44.5746,28.1918 38.7412,28.5251 33,29.5C 32.5006,35.1569 32.3339,40.8236 32.5,46.5C 32.5,48.5 32.5,50.5 32.5,52.5C 32.5,57.8333 32.5,63.1667 32.5,68.5C 32.5,70.5 32.5,72.5 32.5,74.5C 32.8064,77.3854 32.4731,80.0521 31.5,82.5C 31.5,64.1667 31.5,45.8333 31.5,27.5C 60.0049,27.1687 88.3382,27.502 116.5,28.5 Z"/></g>
<g><path style="opacity:0.096" fill="#720012" d="M 50.5,28.5 C 52.5,28.5 54.5,28.5 56.5,28.5C 48.8333,36.8333 40.8333,44.8333 32.5,52.5C 32.5,50.5 32.5,48.5 32.5,46.5C 38.8333,40.8333 44.8333,34.8333 50.5,28.5 Z"/></g>
<g><path style="opacity:0.098" fill="#720012" d="M 72.5,28.5 C 74.5,28.5 76.5,28.5 78.5,28.5C 63.5,44.1667 48.1667,59.5 32.5,74.5C 32.5,72.5 32.5,70.5 32.5,68.5C 46.1667,55.5 59.5,42.1667 72.5,28.5 Z"/></g>
<g><path style="opacity:0.096" fill="#720012" d="M 95.5,28.5 C 97.5,28.5 99.5,28.5 101.5,28.5C 86.2018,44.2986 70.7018,59.9652 55,75.5C 54.8171,78.3647 54.3171,81.0314 53.5,83.5C 53.7633,79.3998 53.4299,75.3998 52.5,71.5C 67.1667,57.5 81.5,43.1667 95.5,28.5 Z"/></g>
<g><path style="opacity:0.098" fill="#720012" d="M 116.5,30.5 C 116.5,32.5 116.5,34.5 116.5,36.5C 98.5,53.8333 80.8333,71.5 63.5,89.5C 61.5,89.5 59.5,89.5 57.5,89.5C 76.8333,69.5 96.5,49.8333 116.5,30.5 Z"/></g>
<g><path style="opacity:0.5" fill="#800014" d="M 26.5,14.5 C 26.8333,14.5 27.1667,14.5 27.5,14.5C 27.5,36.5 27.5,58.5 27.5,80.5C 26.5489,79.0813 26.2155,77.4147 26.5,75.5C 26.5,70.1667 26.5,64.8333 26.5,59.5C 26.5,57.5 26.5,55.5 26.5,53.5C 26.6661,47.8236 26.4994,42.1569 26,36.5C 24.264,38.0632 22.764,39.7299 21.5,41.5C 21.5,40.1667 21.5,38.8333 21.5,37.5C 18.8333,37.5 16.1667,37.5 13.5,37.5C 26.0314,35.0959 30.3647,27.4293 26.5,14.5 Z"/></g>
<g><path style="opacity:1" fill="#d60022" d="M 13.5,37.5 C 16.1667,37.5 18.8333,37.5 21.5,37.5C 21.5,38.8333 21.5,40.1667 21.5,41.5C 13.9904,40.6782 10.3237,44.0116 10.5,51.5C 10.5,52.5 10.5,53.5 10.5,54.5C 13.9619,55.4816 17.6286,55.815 21.5,55.5C 21.5,56.5 21.5,57.5 21.5,58.5C 21.1583,59.3382 20.4916,59.6716 19.5,59.5C 16.5,59.5 13.5,59.5 10.5,59.5C 10.5,62.5 10.5,65.5 10.5,68.5C 10.5,70.5 10.5,72.5 10.5,74.5C 10.5,79.8333 10.5,85.1667 10.5,90.5C 10.5,92.5 10.5,94.5 10.5,96.5C 10.3243,101.88 10.6576,107.213 11.5,112.5C 12.1293,114.997 13.796,116.33 16.5,116.5C 21.1667,116.5 25.8333,116.5 30.5,116.5C 32.5,116.5 34.5,116.5 36.5,116.5C 42.1667,116.5 47.8333,116.5 53.5,116.5C 55.5,116.5 57.5,116.5 59.5,116.5C 64.8333,116.5 70.1667,116.5 75.5,116.5C 77.5,116.5 79.5,116.5 81.5,116.5C 86.9853,117.346 91.3186,115.679 94.5,111.5C 95.4816,108.038 95.815,104.371 95.5,100.5C 96.8333,100.5 98.1667,100.5 99.5,100.5C 100.833,104.5 100.833,108.5 99.5,112.5C 97.9449,115.404 95.9449,118.07 93.5,120.5C 92.8333,120.5 92.5,120.833 92.5,121.5C 86.8333,121.5 81.1667,121.5 75.5,121.5C 73.5,121.5 71.5,121.5 69.5,121.5C 64.1667,121.5 58.8333,121.5 53.5,121.5C 51.5,121.5 49.5,121.5 47.5,121.5C 41.8333,121.5 36.1667,121.5 30.5,121.5C 28.5,121.5 26.5,121.5 24.5,121.5C 20.2984,121.817 16.2984,121.483 12.5,120.5C 10.8577,119.197 9.19107,117.864 7.5,116.5C 6.77842,116.082 6.27842,115.416 6,114.5C 5.50115,110.514 5.33449,106.514 5.5,102.5C 5.5,100.5 5.5,98.5 5.5,96.5C 5.5,91.1667 5.5,85.8333 5.5,80.5C 5.5,78.5 5.5,76.5 5.5,74.5C 5.5,68.8333 5.5,63.1667 5.5,57.5C 5.5,55.5 5.5,53.5 5.5,51.5C 5.06786,48.1226 5.73452,45.1226 7.5,42.5C 9.16667,41.5 10.5,40.1667 11.5,38.5C 11.8417,37.6618 12.5084,37.3284 13.5,37.5 Z M 94.5,111.5 C 91.3186,115.679 86.9853,117.346 81.5,116.5C 85.4632,112.036 89.6298,107.702 94,103.5C 94.4974,106.146 94.6641,108.813 94.5,111.5 Z"/></g>
<g><path style="opacity:0.929" fill="#980018" d="M 11.5,38.5 C 10.5,40.1667 9.16667,41.5 7.5,42.5C 7.83333,40.1667 9.16667,38.8333 11.5,38.5 Z"/></g>
<g><path style="opacity:0.1" fill="#770013" d="M 21.5,41.5 C 17.8592,44.8049 14.1925,48.1383 10.5,51.5C 10.3237,44.0116 13.9904,40.6782 21.5,41.5 Z"/></g>
<g><path style="opacity:0.042" fill="#700012" d="M 127.5,42.5 C 127.5,44.1667 127.5,45.8333 127.5,47.5C 125.861,49.8061 123.861,51.8061 121.5,53.5C 121.5,51.5 121.5,49.5 121.5,47.5C 123.5,45.8333 125.5,44.1667 127.5,42.5 Z"/></g>
<g><path style="opacity:1" fill="#b3001d" d="M 18.5,45.5 C 22.909,44.899 24.2424,46.5657 22.5,50.5C 18.3169,51.3087 16.9836,49.642 18.5,45.5 Z"/></g>
<g><path style="opacity:0.043" fill="#700012" d="M 5.5,51.5 C 5.5,53.5 5.5,55.5 5.5,57.5C 3.5,59.1667 1.5,60.8333 -0.5,62.5C -0.5,60.5 -0.5,58.5 -0.5,56.5C 1.5,54.8333 3.5,53.1667 5.5,51.5 Z"/></g>
<g><path style="opacity:0.96" fill="#b1001c" d="M 10.5,54.5 C 14.9707,53.9106 18.9707,54.5772 22.5,56.5C 22.6716,57.4916 22.3382,58.1583 21.5,58.5C 21.5,57.5 21.5,56.5 21.5,55.5C 17.6286,55.815 13.9619,55.4816 10.5,54.5 Z"/></g>
<g><path style="opacity:0.096" fill="#720012" d="M 26.5,53.5 C 26.5,55.5 26.5,57.5 26.5,59.5C 21.1667,64.5 15.8333,69.5 10.5,74.5C 10.5,72.5 10.5,70.5 10.5,68.5C 13.8333,65.8333 16.8333,62.8333 19.5,59.5C 20.4916,59.6716 21.1583,59.3382 21.5,58.5C 22.3382,58.1583 22.6716,57.4916 22.5,56.5C 23.8333,55.5 25.1667,54.5 26.5,53.5 Z"/></g>
<g><path style="opacity:0.096" fill="#720012" d="M 116.5,53.5 C 116.5,55.5 116.5,57.5 116.5,59.5C 106.167,69.1667 96.1667,79.1667 86.5,89.5C 84.5,89.5 82.5,89.5 80.5,89.5C 92.1667,77.1667 104.167,65.1667 116.5,53.5 Z"/></g>
<g><path style="opacity:0.042" fill="#700012" d="M 127.5,65.5 C 127.5,67.1667 127.5,68.8333 127.5,70.5C 125.5,72.1667 123.5,73.8333 121.5,75.5C 121.5,73.5 121.5,71.5 121.5,69.5C 123.246,67.7484 125.246,66.4151 127.5,65.5 Z"/></g>
<g><path style="opacity:1" fill="#d50022" d="M 52.5,71.5 C 53.4299,75.3998 53.7633,79.3998 53.5,83.5C 52.2921,84.2341 50.9587,84.5674 49.5,84.5C 49.7852,82.712 49.4519,81.0453 48.5,79.5C 40.715,85.7827 33.3817,92.6161 26.5,100C 27.9007,100.41 29.234,100.91 30.5,101.5C 31.7911,102.542 31.7911,103.708 30.5,105C 28.5273,105.495 26.5273,105.662 24.5,105.5C 22.5,105.5 20.5,105.5 18.5,105.5C 17.564,101.265 17.2307,96.9315 17.5,92.5C 18.8333,91.1667 20.1667,91.1667 21.5,92.5C 21.3398,94.1992 21.5065,95.8659 22,97.5C 22.7172,96.9558 23.2172,96.2891 23.5,95.5C 26.4274,94.2427 28.7607,92.2427 30.5,89.5C 30.8333,88.5 31.5,87.8333 32.5,87.5C 36.7706,84.8991 40.4372,81.5658 43.5,77.5C 44.0431,77.44 44.3764,77.1067 44.5,76.5C 43.3112,75.5713 41.9778,75.238 40.5,75.5C 39.1991,74.1155 39.1991,72.6155 40.5,71C 44.6888,70.1881 48.6888,70.3547 52.5,71.5 Z"/></g>
<g><path style="opacity:0.78" fill="#930018" d="M 40.5,75.5 C 41.9778,75.238 43.3112,75.5713 44.5,76.5C 44.3764,77.1067 44.0431,77.44 43.5,77.5C 42.5,76.8333 41.5,76.1667 40.5,75.5 Z"/></g>
<g><path style="opacity:0.041" fill="#700012" d="M 5.5,74.5 C 5.5,76.5 5.5,78.5 5.5,80.5C 3.75405,82.2516 1.75405,83.5849 -0.5,84.5C -0.5,82.8333 -0.5,81.1667 -0.5,79.5C 1.5,77.8333 3.5,76.1667 5.5,74.5 Z"/></g>
<g><path style="opacity:0.098" fill="#720012" d="M 26.5,75.5 C 26.2155,77.4147 26.5489,79.0813 27.5,80.5C 27.5,80.8333 27.5,81.1667 27.5,81.5C 21.5563,86.1057 15.8896,91.1057 10.5,96.5C 10.5,94.5 10.5,92.5 10.5,90.5C 15.8333,85.5 21.1667,80.5 26.5,75.5 Z"/></g>
<g><path style="opacity:0.098" fill="#7b0014" d="M 116.5,75.5 C 116.5,77.5 116.5,79.5 116.5,81.5C 113.703,83.795 111.036,86.295 108.5,89C 109.448,89.4828 110.448,89.6495 111.5,89.5C 89.0061,90.4975 66.3395,90.8308 43.5,90.5C 47.97,89.5139 52.6367,89.1805 57.5,89.5C 59.5,89.5 61.5,89.5 63.5,89.5C 69.1667,89.5 74.8333,89.5 80.5,89.5C 82.5,89.5 84.5,89.5 86.5,89.5C 91.8437,89.666 97.1771,89.4994 102.5,89C 107.035,84.2967 111.702,79.7967 116.5,75.5 Z"/></g>
<g><path style="opacity:0.008" fill="#810014" d="M 53.5,83.5 C 53.38,84.5862 52.7133,85.2528 51.5,85.5C 50.5836,85.4573 49.9169,85.1239 49.5,84.5C 50.9587,84.5674 52.2921,84.2341 53.5,83.5 Z"/></g>
<g><path style="opacity:0.996" fill="#ab001b" d="M 43.5,77.5 C 40.4372,81.5658 36.7706,84.8991 32.5,87.5C 35.5628,83.4342 39.2294,80.1009 43.5,77.5 Z"/></g>
<g><path style="opacity:0.099" fill="#780013" d="M 49.5,84.5 C 48.7784,84.0825 48.2784,83.4158 48,82.5C 41.5706,88.4234 35.7373,94.7568 30.5,101.5C 29.234,100.91 27.9007,100.41 26.5,100C 33.3817,92.6161 40.715,85.7827 48.5,79.5C 49.4519,81.0453 49.7852,82.712 49.5,84.5 Z"/></g>
<g><path style="opacity:0.031" fill="#810014" d="M 119.5,89.5 C 119.5,91.5 118.5,92.5 116.5,92.5C 117.167,91.1667 118.167,90.1667 119.5,89.5 Z"/></g>
<g><path style="opacity:0.933" fill="#990019" d="M 30.5,89.5 C 28.7607,92.2427 26.4274,94.2427 23.5,95.5C 25.2393,92.7573 27.5726,90.7573 30.5,89.5 Z"/></g>
<g><path style="opacity:0.096" fill="#720012" d="M 127.5,87.5 C 127.5,89.1667 127.5,90.8333 127.5,92.5C 116.167,104.5 104.5,116.167 92.5,127.5C 90.8333,127.5 89.1667,127.5 87.5,127.5C 89.1667,125.5 90.8333,123.5 92.5,121.5C 93.1667,121.5 93.5,121.167 93.5,120.5C 95.9449,118.07 97.9449,115.404 99.5,112.5C 99.369,113.239 99.5357,113.906 100,114.5C 109.035,105.298 118.202,96.2977 127.5,87.5 Z"/></g>
<g><path style="opacity:0.827" fill="#970018" d="M 17.5,92.5 C 17.2307,96.9315 17.564,101.265 18.5,105.5C 17.1999,103.777 16.5332,101.61 16.5,99C 16.5039,96.6392 16.8373,94.4726 17.5,92.5 Z"/></g>
<g><path style="opacity:0.431" fill="#7e0014" d="M 21.5,92.5 C 22.1667,93.5 22.8333,94.5 23.5,95.5C 23.2172,96.2891 22.7172,96.9558 22,97.5C 21.5065,95.8659 21.3398,94.1992 21.5,92.5 Z"/></g>
<g><path style="opacity:0.098" fill="#720012" d="M 50.5,95.5 C 52.5,95.5 54.5,95.5 56.5,95.5C 49.8333,102.5 43.1667,109.5 36.5,116.5C 34.5,116.5 32.5,116.5 30.5,116.5C 37.1667,109.5 43.8333,102.5 50.5,95.5 Z"/></g>
<g><path style="opacity:0.096" fill="#720012" d="M 73.5,95.5 C 75.5,95.5 77.5,95.5 79.5,95.5C 72.8333,102.5 66.1667,109.5 59.5,116.5C 57.5,116.5 55.5,116.5 53.5,116.5C 60.1667,109.5 66.8333,102.5 73.5,95.5 Z"/></g>
<g><path style="opacity:0.098" fill="#7b0014" d="M 43.5,94.5 C 66.5,94.5 89.5,94.5 112.5,94.5C 109.023,95.3227 105.356,95.8227 101.5,96C 99.3498,97.1923 98.6832,98.6923 99.5,100.5C 98.1667,100.5 96.8333,100.5 95.5,100.5C 95.815,104.371 95.4816,108.038 94.5,111.5C 94.6641,108.813 94.4974,106.146 94,103.5C 89.6298,107.702 85.4632,112.036 81.5,116.5C 79.5,116.5 77.5,116.5 75.5,116.5C 81.964,109.535 88.6307,102.702 95.5,96C 90.1771,95.5006 84.8437,95.334 79.5,95.5C 77.5,95.5 75.5,95.5 73.5,95.5C 67.8333,95.5 62.1667,95.5 56.5,95.5C 54.5,95.5 52.5,95.5 50.5,95.5C 47.9407,95.8016 45.6074,95.4682 43.5,94.5 Z"/></g>
<g><path style="opacity:0.043" fill="#700012" d="M 5.5,96.5 C 5.5,98.5 5.5,100.5 5.5,102.5C 3.5,104.167 1.5,105.833 -0.5,107.5C -0.5,105.5 -0.5,103.5 -0.5,101.5C 1.5,99.8333 3.5,98.1667 5.5,96.5 Z"/></g>
<g><path style="opacity:0.096" fill="#740013" d="M 18.5,105.5 C 20.5,105.5 22.5,105.5 24.5,105.5C 21.7044,108.797 18.7044,111.964 15.5,115C 16.056,115.383 16.3893,115.883 16.5,116.5C 13.796,116.33 12.1293,114.997 11.5,112.5C 14.1667,110.5 16.5,108.167 18.5,105.5 Z"/></g>
<g><path style="opacity:0.096" fill="#710012" d="M 127.5,110.5 C 127.5,112.167 127.5,113.833 127.5,115.5C 123.167,119.167 119.167,123.167 115.5,127.5C 113.5,127.5 111.5,127.5 109.5,127.5C 114.89,121.108 120.89,115.441 127.5,110.5 Z"/></g>
<g><path style="opacity:0.037" fill="#710012" d="M 7.5,116.5 C 9.19107,117.864 10.8577,119.197 12.5,120.5C 11.448,120.351 10.448,120.517 9.5,121C 7.27071,123.4 4.93737,125.567 2.5,127.5C 1.5,127.5 0.5,127.5 -0.5,127.5C -0.5,126.5 -0.5,125.5 -0.5,124.5C 2.5,122.167 5.16667,119.5 7.5,116.5 Z"/></g>
<g><path style="opacity:0.041" fill="#700012" d="M 24.5,121.5 C 26.5,121.5 28.5,121.5 30.5,121.5C 28.8333,123.5 27.1667,125.5 25.5,127.5C 23.5,127.5 21.5,127.5 19.5,127.5C 21.1667,125.5 22.8333,123.5 24.5,121.5 Z"/></g>
<g><path style="opacity:0.043" fill="#700012" d="M 47.5,121.5 C 49.5,121.5 51.5,121.5 53.5,121.5C 51.8061,123.861 49.8061,125.861 47.5,127.5C 45.8333,127.5 44.1667,127.5 42.5,127.5C 44.1667,125.5 45.8333,123.5 47.5,121.5 Z"/></g>
<g><path style="opacity:0.041" fill="#700012" d="M 69.5,121.5 C 71.5,121.5 73.5,121.5 75.5,121.5C 73.8333,123.5 72.1667,125.5 70.5,127.5C 68.5,127.5 66.5,127.5 64.5,127.5C 66.1667,125.5 67.8333,123.5 69.5,121.5 Z"/></g>
</svg>
