<?xml version="1.0" encoding="UTF-8"?>
<!DOCTYPE svg PUBLIC "-//W3C//DTD SVG 1.1//EN" "http://www.w3.org/Graphics/SVG/1.1/DTD/svg11.dtd">
<svg xmlns="http://www.w3.org/2000/svg" version="1.1" width="2133px" height="2133px" style="shape-rendering:geometricPrecision; text-rendering:geometricPrecision; image-rendering:optimizeQuality; fill-rule:evenodd; clip-rule:evenodd" xmlns:xlink="http://www.w3.org/1999/xlink">
<g><path style="opacity:0.988" fill="#e61010" d="M 510.5,109.5 C 512.833,115.167 516.833,119.167 522.5,121.5C 531.247,125.988 536.914,132.988 539.5,142.5C 538.383,149.281 541.05,153.614 547.5,155.5C 559.004,170.189 566.504,186.856 570,205.5C 578.644,259.18 578.644,312.846 570,366.5C 540.062,458.413 476.729,507.746 380,514.5C 354.039,513.211 329.206,507.545 305.5,497.5C 303.614,491.05 299.281,488.383 292.5,489.5C 286.031,488.932 280.698,486.266 276.5,481.5C 274.9,474.847 270.566,471.847 263.5,472.5C 259.167,471.5 256.5,468.833 255.5,464.5C 252.673,456.574 247.006,452.24 238.5,451.5C 208.606,421.073 191.439,384.406 187,341.5C 183.69,303.164 183.69,264.83 187,226.5C 190.424,202.728 197.924,180.394 209.5,159.5C 213.833,158.5 216.5,155.833 217.5,151.5C 218.254,147.737 220.588,145.237 224.5,144C 228.269,140.294 230.269,135.794 230.5,130.5C 230.167,127.5 231.5,126.167 234.5,126.5C 243.188,121.145 250.188,114.145 255.5,105.5C 299.768,65.2528 351.768,49.4195 411.5,58C 450.175,64.6676 483.175,81.8342 510.5,109.5 Z M 451.5,143.5 C 454.369,150.688 459.702,155.022 467.5,156.5C 469.117,159.952 471.617,162.619 475,164.5C 476.386,171.213 480.053,176.213 486,179.5C 501.715,206.856 509.882,236.356 510.5,268C 509.95,288.516 509.117,309.016 508,329.5C 505.16,348.53 499.994,366.863 492.5,384.5C 486.56,386.696 483.894,391.03 484.5,397.5C 474.895,404.104 466.561,412.104 459.5,421.5C 453.239,421.767 448.906,424.767 446.5,430.5C 382.265,459.119 325.932,448.119 277.5,397.5C 277.679,390.83 274.679,386.496 268.5,384.5C 268.467,377.768 265.801,372.434 260.5,368.5C 259.663,357.992 256.996,347.992 252.5,338.5C 251.177,301.479 252.01,264.479 255,227.5C 272.308,163.371 314.141,128.371 380.5,122.5C 405.252,125.937 428.919,132.937 451.5,143.5 Z"/></g>
<g><path style="opacity:0.785" fill="#a20c0c" d="M 255.5,105.5 C 250.188,114.145 243.188,121.145 234.5,126.5C 237.167,115.167 244.167,108.167 255.5,105.5 Z"/></g>
<g><path style="opacity:0.014" fill="#920b0a" d="M 510.5,109.5 C 518.184,109.85 522.184,113.85 522.5,121.5C 516.833,119.167 512.833,115.167 510.5,109.5 Z"/></g>
<g><path style="opacity:0.845" fill="#af0d0d" d="M 230.5,130.5 C 230.269,135.794 228.269,140.294 224.5,144C 220.588,145.237 218.254,147.737 217.5,151.5C 217.5,150.167 217.5,148.833 217.5,147.5C 218.475,139.2 222.809,133.533 230.5,130.5 Z"/></g>
<g><path style="opacity:0.788" fill="#ab0c0d" d="M 539.5,142.5 C 545.453,144.791 548.119,149.124 547.5,155.5C 541.05,153.614 538.383,149.281 539.5,142.5 Z"/></g>
<g><path style="opacity:0.894" fill="#ac0c0c" d="M 451.5,143.5 C 460.101,144.099 465.435,148.432 467.5,156.5C 459.702,155.022 454.369,150.688 451.5,143.5 Z"/></g>
<g><path style="opacity:0.526" fill="#950b0b" d="M 217.5,147.5 C 217.5,148.833 217.5,150.167 217.5,151.5C 216.5,155.833 213.833,158.5 209.5,159.5C 208.727,153.094 211.394,149.094 217.5,147.5 Z"/></g>
<g><path style="opacity:0.989" fill="#e81010" d="M 1205.5,288.5 C 1206.24,297.006 1210.57,302.673 1218.5,305.5C 1234.1,322.745 1243.27,343.078 1246,366.5C 1258.97,465.963 1217.81,530.629 1122.5,560.5C 1118.37,559.515 1114.03,559.182 1109.5,559.5C 1106.75,671.454 1109.41,783.121 1117.5,894.5C 1118.42,898.064 1118.76,901.731 1118.5,905.5C 1154.94,909.682 1183.94,926.349 1205.5,955.5C 1205.27,961.052 1207.61,965.052 1212.5,967.5C 1213.57,970.534 1214.73,973.534 1216,976.5C 1217.64,978.734 1219.8,980.067 1222.5,980.5C 1230.09,985.332 1234.43,992.332 1235.5,1001.5C 1233.31,1011.27 1235.98,1019.61 1243.5,1026.5C 1260.11,1132.68 1217.11,1200.68 1114.5,1230.5C 1114.17,1344.17 1114.5,1457.84 1115.5,1571.5C 1144.68,1575.76 1169.35,1588.42 1189.5,1609.5C 1191.83,1615.17 1195.83,1619.17 1201.5,1621.5C 1206.17,1622.83 1209.17,1625.83 1210.5,1630.5C 1210.33,1638.73 1214.33,1644.39 1222.5,1647.5C 1236.43,1666.44 1244.6,1687.77 1247,1711.5C 1248.94,1731.56 1248.61,1751.56 1246,1771.5C 1241.06,1795.71 1230.56,1817.04 1214.5,1835.5C 1208.36,1837.1 1205.69,1841.1 1206.5,1847.5C 1152.4,1901.69 1089.07,1916.19 1016.5,1891C 1007.94,1886.89 999.938,1882.06 992.5,1876.5C 992.938,1876.57 993.272,1876.4 993.5,1876C 989.727,1868.61 983.727,1864.45 975.5,1863.5C 971.431,1857.1 966.098,1852.1 959.5,1848.5C 923.622,1812.71 908.456,1769.38 914,1718.5C 917.098,1690.66 926.598,1665.33 942.5,1642.5C 950.901,1640.06 955.235,1634.4 955.5,1625.5C 957.833,1619.83 961.833,1615.83 967.5,1613.5C 976.977,1612.03 983.977,1607.03 988.5,1598.5C 989.949,1597.83 991.282,1597.16 992.5,1596.5C 997.385,1595.95 1000.38,1593.28 1001.5,1588.5C 1014.84,1579.71 1029.51,1574.05 1045.5,1571.5C 1046.5,1457.84 1046.83,1344.17 1046.5,1230.5C 1030.13,1228.71 1015.13,1223.38 1001.5,1214.5C 998.68,1206.58 993.013,1202.24 984.5,1201.5C 947.767,1177.54 924.933,1143.88 916,1100.5C 910.866,1065.98 914.199,1032.31 926,999.5C 930.051,990.708 935.551,983.041 942.5,976.5C 949.026,974.636 952.026,970.303 951.5,963.5C 961.291,956.876 969.625,948.709 976.5,939C 976.272,938.601 975.938,938.435 975.5,938.5C 975.989,935.676 977.656,934.343 980.5,934.5C 987.303,935.026 991.636,932.026 993.5,925.5C 1007.8,914.192 1024.14,907.525 1042.5,905.5C 1042.39,901.452 1042.73,897.452 1043.5,893.5C 1054.23,782.453 1053.9,671.453 1042.5,560.5C 1028.55,560.297 1016.22,555.964 1005.5,547.5C 1003.61,541.05 999.281,538.383 992.5,539.5C 984.548,538.869 979.214,534.869 976.5,527.5C 973.972,519.069 968.305,514.735 959.5,514.5C 959.454,508.138 956.454,504.138 950.5,502.5C 920.748,467.387 908.582,426.72 914,380.5C 916.149,355.878 924.316,333.544 938.5,313.5C 944.716,312.128 947.883,308.128 948,301.5C 953.575,299.024 956.075,294.691 955.5,288.5C 967.778,284.01 977.445,276.177 984.5,265C 991.056,264.735 995.39,261.568 997.5,255.5C 1038.64,230.022 1082.64,223.855 1129.5,237C 1161.29,245.032 1186.63,262.198 1205.5,288.5 Z M 1126.5,306.5 C 1128.39,312.125 1132.39,314.791 1138.5,314.5C 1141.75,321.962 1147.42,326.295 1155.5,327.5C 1188.66,371.872 1189.99,417.205 1159.5,463.5C 1150.83,468.833 1143.83,475.833 1138.5,484.5C 1087.87,509.006 1042.21,502.006 1001.5,463.5C 1002.31,457.104 999.642,453.104 993.5,451.5C 966.713,378.93 989.046,328.43 1060.5,300C 1083.06,296.86 1105.06,299.026 1126.5,306.5 Z M 1142.5,984.5 C 1143.64,988.134 1146.14,990.134 1150,990.5C 1149.98,994.412 1151.81,996.745 1155.5,997.5C 1185.56,1036.3 1189.56,1077.63 1167.5,1121.5C 1166.2,1124.99 1164.37,1128.33 1162,1131.5C 1160.5,1132.33 1159.33,1133.5 1158.5,1135C 1157.55,1135.48 1156.55,1135.65 1155.5,1135.5C 1155.5,1136.5 1155.5,1137.5 1155.5,1138.5C 1152.66,1138.34 1150.99,1139.68 1150.5,1142.5C 1147.08,1144.07 1144.42,1146.57 1142.5,1150C 1137.92,1149.33 1135.26,1151.16 1134.5,1155.5C 1103.98,1169.86 1072.98,1171.02 1041.5,1159C 1033.81,1155.16 1026.14,1151.32 1018.5,1147.5C 1017.84,1144.35 1015.84,1142.85 1012.5,1143C 1010.33,1140.83 1008.17,1138.67 1006,1136.5C 1005.12,1133.3 1003.45,1130.63 1001,1128.5C 1000.18,1127.18 999.017,1126.51 997.5,1126.5C 996.888,1122.96 995.721,1119.62 994,1116.5C 992.729,1115.12 991.229,1114.12 989.5,1113.5C 967.44,1030.27 998.606,980.601 1083,964.5C 1103.98,967.881 1123.81,974.548 1142.5,984.5 Z M 1134.5,1647.5 C 1136.5,1653.68 1140.83,1656.68 1147.5,1656.5C 1152.48,1663.48 1157.82,1670.15 1163.5,1676.5C 1165.35,1681.34 1168.01,1685.68 1171.5,1689.5C 1176.38,1705.18 1180.71,1721.01 1184.5,1737C 1180.71,1752.99 1176.38,1768.82 1171.5,1784.5C 1165.88,1786.39 1163.21,1790.39 1163.5,1796.5C 1154.83,1801.83 1147.83,1808.83 1142.5,1817.5C 1138.69,1816.77 1136.03,1818.11 1134.5,1821.5C 1127.89,1821.3 1123.56,1824.3 1121.5,1830.5C 1092.4,1838.91 1063.73,1837.58 1035.5,1826.5C 1032.05,1822.27 1027.71,1819.27 1022.5,1817.5C 1017.47,1813.15 1012.14,1809.15 1006.5,1805.5C 1005.53,1797.2 1001.2,1791.54 993.5,1788.5C 974.368,1746.57 978.201,1706.9 1005,1669.5C 1010.48,1666.35 1014.98,1662.18 1018.5,1657C 1055.32,1632.05 1093.98,1628.89 1134.5,1647.5 Z"/></g>
<g><path style="opacity:0.995" fill="#ed1010" d="M 1914.5,555.5 C 1729.49,556.075 1544.49,555.242 1359.5,553C 1356.1,548.964 1351.76,547.131 1346.5,547.5C 1344.32,547.16 1342.49,546.16 1341,544.5C 1337.39,448.147 1337.89,351.814 1342.5,255.5C 1348.5,252.833 1352.83,248.5 1355.5,242.5C 1541.82,237.93 1728.16,237.43 1914.5,241C 1919,245.5 1923.5,250 1928,254.5C 1928.33,256.167 1928.67,257.833 1929,259.5C 1931,352.5 1931,445.5 1929,538.5C 1926.93,546.411 1922.1,552.078 1914.5,555.5 Z M 1863.5,301.5 C 1863.5,365.167 1863.5,428.833 1863.5,492.5C 1710.83,492.5 1558.17,492.5 1405.5,492.5C 1405.5,430.167 1405.5,367.833 1405.5,305.5C 1405.5,304.167 1405.5,302.833 1405.5,301.5C 1558.17,301.5 1710.83,301.5 1863.5,301.5 Z"/></g>
<g><path style="opacity:0.566" fill="#930a0b" d="M 1355.5,242.5 C 1352.83,248.5 1348.5,252.833 1342.5,255.5C 1342.48,246.851 1346.82,242.517 1355.5,242.5 Z"/></g>
<g><path style="opacity:0.885" fill="#b50c0d" d="M 997.5,255.5 C 995.39,261.568 991.056,264.735 984.5,265C 977.445,276.177 967.778,284.01 955.5,288.5C 962.169,277.334 971.502,269.167 983.5,264C 985.834,257.333 990.501,254.499 997.5,255.5 Z"/></g>
<g><path style="opacity:0.897" fill="#b10d0d" d="M 1205.5,288.5 C 1213.19,291.533 1217.53,297.2 1218.5,305.5C 1210.57,302.673 1206.24,297.006 1205.5,288.5 Z"/></g>
<g><path style="opacity:0.74" fill="#a80c0c" d="M 955.5,288.5 C 956.075,294.691 953.575,299.024 948,301.5C 947.883,308.128 944.716,312.128 938.5,313.5C 938.273,307.948 940.606,303.948 945.5,301.5C 946.567,298.466 947.734,295.466 949,292.5C 950.638,290.266 952.805,288.933 955.5,288.5 Z"/></g>
<g><path style="opacity:0.887" fill="#ba0d0d" d="M 1140.5,314.5 C 1139.83,314.5 1139.17,314.5 1138.5,314.5C 1132.39,314.791 1128.39,312.125 1126.5,306.5C 1129.6,305.212 1132.6,305.712 1135.5,308C 1137.07,310.326 1138.73,312.492 1140.5,314.5 Z"/></g>
<g><path style="opacity:0.881" fill="#a60c0c" d="M 1138.5,314.5 C 1139.17,314.5 1139.83,314.5 1140.5,314.5C 1148.32,315.652 1153.32,319.985 1155.5,327.5C 1147.42,326.295 1141.75,321.962 1138.5,314.5 Z"/></g>
<g><path style="opacity:0.958" fill="#bb0d0d" d="M 1863.5,301.5 C 1865.93,330.962 1867.43,360.629 1868,390.5C 1868.5,426.165 1868.67,461.832 1868.5,497.5C 1712.83,497.5 1557.17,497.5 1401.5,497.5C 1399.39,433.281 1400.73,369.281 1405.5,305.5C 1405.5,367.833 1405.5,430.167 1405.5,492.5C 1558.17,492.5 1710.83,492.5 1863.5,492.5C 1863.5,428.833 1863.5,365.167 1863.5,301.5 Z"/></g>
<g><path style="opacity:0.879" fill="#b30d0d" d="M 252.5,338.5 C 256.996,347.992 259.663,357.992 260.5,368.5C 256.406,364.654 253.573,359.987 252,354.5C 251.663,351.139 251.163,347.806 250.5,344.5C 250.878,342.283 251.545,340.283 252.5,338.5 Z"/></g>
<g><path style="opacity:0.857" fill="#b00c0d" d="M 268.5,384.5 C 274.679,386.496 277.679,390.83 277.5,397.5C 270.827,395.848 267.827,391.514 268.5,384.5 Z"/></g>
<g><path style="opacity:0.884" fill="#b40d0d" d="M 492.5,384.5 C 493.765,390.936 491.098,395.269 484.5,397.5C 483.894,391.03 486.56,386.696 492.5,384.5 Z"/></g>
<g><path style="opacity:0.874" fill="#b00d0d" d="M 459.5,421.5 C 458.199,428.629 453.865,431.629 446.5,430.5C 448.906,424.767 453.239,421.767 459.5,421.5 Z"/></g>
<g><path style="opacity:0.867" fill="#a60c0c" d="M 238.5,451.5 C 247.006,452.24 252.673,456.574 255.5,464.5C 247.2,463.525 241.533,459.192 238.5,451.5 Z"/></g>
<g><path style="opacity:0.908" fill="#ad0c0c" d="M 993.5,451.5 C 999.642,453.104 1002.31,457.104 1001.5,463.5C 995.67,462.24 993.004,458.24 993.5,451.5 Z"/></g>
<g><path style="opacity:0.87" fill="#bb0e0e" d="M 1159.5,463.5 C 1157.49,475.514 1150.49,482.514 1138.5,484.5C 1143.83,475.833 1150.83,468.833 1159.5,463.5 Z"/></g>
<g><path style="opacity:0.673" fill="#a10b0c" d="M 263.5,472.5 C 270.566,471.847 274.9,474.847 276.5,481.5C 269.837,481.682 265.503,478.682 263.5,472.5 Z"/></g>
<g><path style="opacity:0.522" fill="#990b0b" d="M 292.5,489.5 C 299.281,488.383 303.614,491.05 305.5,497.5C 299.124,498.119 294.791,495.453 292.5,489.5 Z"/></g>
<g><path style="opacity:0.007" fill="#8c0a0a" d="M 950.5,502.5 C 956.454,504.138 959.454,508.138 959.5,514.5C 954.22,512.218 951.22,508.218 950.5,502.5 Z"/></g>
<g><path style="opacity:0.861" fill="#a60c0c" d="M 959.5,514.5 C 968.305,514.735 973.972,519.069 976.5,527.5C 968.385,526.285 962.718,521.952 959.5,514.5 Z"/></g>
<g><path style="opacity:0.989" fill="#e61010" d="M 264.5,526.5 C 263.712,532.948 266.378,536.948 272.5,538.5C 270.376,550.199 273.376,560.199 281.5,568.5C 286.911,584.478 290.911,600.812 293.5,617.5C 291.814,627.014 293.647,636.014 299,644.5C 299.708,645.381 300.542,646.047 301.5,646.5C 306.516,658.233 309.516,670.566 310.5,683.5C 310.299,686.765 311.466,689.431 314,691.5C 316.544,688.339 317.711,684.673 317.5,680.5C 320.866,671.9 323.533,663.066 325.5,654C 315.29,619.995 305.623,585.828 296.5,551.5C 301.184,538.984 309.517,529.818 321.5,524C 362.5,520.667 403.5,520.667 444.5,524C 449.299,524.896 453.299,527.063 456.5,530.5C 455.268,537.012 457.935,541.345 464.5,543.5C 466.446,545.734 467.613,548.401 468,551.5C 468.667,555.5 468.667,559.5 468,563.5C 458.386,595.504 448.886,627.504 439.5,659.5C 438.925,665.691 441.425,670.024 447,672.5C 447.399,672.272 447.565,671.938 447.5,671.5C 452.175,675.853 455.175,681.187 456.5,687.5C 454.73,691.64 455.73,694.974 459.5,697.5C 464.093,694.023 465.426,689.689 463.5,684.5C 474.09,634.745 488.09,586.078 505.5,538.5C 510.759,537.381 513.759,534.048 514.5,528.5C 514.457,527.584 514.124,526.917 513.5,526.5C 572.528,511.152 629.195,517.652 683.5,546C 688.014,549.091 692.347,552.425 696.5,556C 700.032,560.36 703.699,564.527 707.5,568.5C 712.167,576.5 718.5,582.833 726.5,587.5C 733.896,591.237 738.229,597.237 739.5,605.5C 738.254,611.98 740.921,616.313 747.5,618.5C 747.161,625.202 750.161,629.202 756.5,630.5C 767.63,650.728 773.797,672.394 775,695.5C 777,846.833 777,998.167 775,1149.5C 774.667,1152.17 774.333,1154.83 774,1157.5C 732.495,1217.34 689.828,1276.34 646,1334.5C 632.867,1532.02 622.534,1729.69 615,1927.5C 613.065,1951.11 609.398,1974.44 604,1997.5C 585.338,2040.48 552.838,2065.98 506.5,2074C 426.501,2077.33 346.501,2077.33 266.5,2074C 249.783,2071.63 234.783,2065.46 221.5,2055.5C 222.043,2055.44 222.376,2055.11 222.5,2054.5C 219.782,2049.31 215.449,2046.97 209.5,2047.5C 183.83,2028.53 167.997,2003.2 162,1971.5C 151.436,1760.79 140.103,1550.13 128,1339.5C 86.1225,1280.39 43.2892,1222.06 -0.5,1164.5C -0.5,1001.17 -0.5,837.833 -0.5,674.5C 0.166667,673.833 0.833333,673.167 1.5,672.5C 8.22107,665.341 10.8877,657.008 9.5,647.5C 12.5449,634.744 18.2115,623.41 26.5,613.5C 29.3425,612.828 31.8425,611.494 34,609.5C 36.3772,605.71 38.3772,601.71 40,597.5C 46.867,593.814 50.7003,588.147 51.5,580.5C 62.5702,576.764 70.9035,569.764 76.5,559.5C 108.873,530.98 146.873,517.146 190.5,518C 212.547,517.159 234.547,517.826 256.5,520C 260.199,521.001 262.866,523.168 264.5,526.5 Z M 584.5,585.5 C 607.435,589.145 629.435,595.812 650.5,605.5C 658.95,609.274 665.95,614.94 671.5,622.5C 688.91,644.325 700.743,668.991 707,696.5C 710.329,842.5 710.329,988.5 707,1134.5C 701.145,1142.21 696.312,1150.54 692.5,1159.5C 685.238,1162.33 681.072,1167.66 680,1175.5C 674.54,1178.13 671.706,1182.46 671.5,1188.5C 664.314,1191.86 660.314,1197.52 659.5,1205.5C 652.273,1208.4 647.939,1213.74 646.5,1221.5C 640.549,1223.79 637.883,1228.12 638.5,1234.5C 631.112,1237.27 627.112,1242.6 626.5,1250.5C 618.889,1253.62 614.389,1259.29 613,1267.5C 607.425,1269.98 604.925,1274.31 605.5,1280.5C 597.872,1283.06 593.539,1288.39 592.5,1296.5C 585.38,1299.95 581.38,1305.62 580.5,1313.5C 567.411,1533.18 553.911,1752.85 540,1972.5C 530.514,1990.32 516.014,2001.82 496.5,2007C 419.063,2010.42 341.73,2009.59 264.5,2004.5C 260.678,2001.01 256.345,1998.35 251.5,1996.5C 247.833,1989.5 242.5,1984.17 235.5,1980.5C 230.721,1964.16 227.555,1947.5 226,1930.5C 216.918,1727.45 206.918,1524.45 196,1321.5C 193.839,1309.16 187.672,1299.49 177.5,1292.5C 177.381,1286.24 174.381,1282.24 168.5,1280.5C 167.651,1272.8 163.817,1267.13 157,1263.5C 155.342,1255.49 150.842,1249.82 143.5,1246.5C 142.869,1238.55 138.869,1233.21 131.5,1230.5C 131.62,1224.4 128.953,1220.06 123.5,1217.5C 122.16,1210.16 118.16,1204.83 111.5,1201.5C 110.032,1197.23 108.032,1193.23 105.5,1189.5C 103.33,1186.99 100.663,1185.32 97.5,1184.5C 91.4761,1171.48 83.1428,1160.14 72.5,1150.5C 73.3087,1144.1 70.642,1140.1 64.5,1138.5C 62.6636,983.112 64.8303,827.778 71,672.5C 100.398,611.203 149.231,582.37 217.5,586C 234.27,652.912 251.436,719.745 269,786.5C 278.581,808.452 294.915,815.785 318,808.5C 320.922,807.245 323.589,805.578 326,803.5C 345.519,769.133 364.019,734.133 381.5,698.5C 384.079,699.706 386.579,701.039 389,702.5C 405.832,734.842 423.666,766.508 442.5,797.5C 446.929,807.604 454.762,811.938 466,810.5C 472.732,810.184 479.232,808.851 485.5,806.5C 492.105,806.068 496.605,802.735 499,796.5C 519.263,729.111 538.43,661.445 556.5,593.5C 556.335,590.15 556.502,586.817 557,583.5C 559.885,581.395 562.885,581.395 566,583.5C 568.109,583.434 570.275,583.101 572.5,582.5C 576.303,584.261 580.303,585.261 584.5,585.5 Z M 376.5,583.5 C 380.578,583.618 384.745,583.618 389,583.5C 394.008,586.87 395.675,591.537 394,597.5C 393.821,604.936 390.321,609.936 383.5,612.5C 376.193,609.859 371.193,604.859 368.5,597.5C 368.174,593.784 369.007,590.118 371,586.5C 372.876,585.391 374.709,584.391 376.5,583.5 Z"/></g>
<g><path style="opacity:0.636" fill="#9e0c0c" d="M 264.5,526.5 C 270.642,528.104 273.309,532.104 272.5,538.5C 266.378,536.948 263.712,532.948 264.5,526.5 Z"/></g>
<g><path style="opacity:0.741" fill="#a90c0c" d="M 513.5,526.5 C 514.124,526.917 514.457,527.584 514.5,528.5C 513.759,534.048 510.759,537.381 505.5,538.5C 504.691,532.104 507.358,528.104 513.5,526.5 Z"/></g>
<g><path style="opacity:0.625" fill="#9f0b0c" d="M 456.5,530.5 C 462.427,532.665 465.093,536.998 464.5,543.5C 457.935,541.345 455.268,537.012 456.5,530.5 Z"/></g>
<g><path style="opacity:0.858" fill="#b10d0d" d="M 272.5,538.5 C 277.65,547.745 280.65,557.745 281.5,568.5C 273.376,560.199 270.376,550.199 272.5,538.5 Z"/></g>
<g><path style="opacity:0.506" fill="#9a0b0b" d="M 992.5,539.5 C 999.281,538.383 1003.61,541.05 1005.5,547.5C 999.07,548.123 994.737,545.456 992.5,539.5 Z"/></g>
<g><path style="opacity:0.76" fill="#af0c0c" d="M 1346.5,547.5 C 1351.76,547.131 1356.1,548.964 1359.5,553C 1544.49,555.242 1729.49,556.075 1914.5,555.5C 1728.02,561.032 1541.35,561.865 1354.5,558C 1350.97,555.099 1348.31,551.599 1346.5,547.5 Z"/></g>
<g><path style="opacity:0.864" fill="#b30d0d" d="M 76.5,559.5 C 70.9035,569.764 62.5702,576.764 51.5,580.5C 55.2612,572.238 61.2612,566.071 69.5,562C 71.743,560.864 74.0763,560.03 76.5,559.5 Z"/></g>
<g><path style="opacity:0.779" fill="#ac0c0c" d="M 1122.5,560.5 C 1113.88,671.722 1112.21,783.055 1117.5,894.5C 1109.41,783.121 1106.75,671.454 1109.5,559.5C 1114.03,559.182 1118.37,559.515 1122.5,560.5 Z"/></g>
<g><path style="opacity:0.007" fill="#910b0a" d="M 707.5,568.5 C 717.474,571.14 723.807,577.473 726.5,587.5C 718.5,582.833 712.167,576.5 707.5,568.5 Z"/></g>
<g><path style="opacity:0.46" fill="#910b0b" d="M 1042.5,560.5 C 1053.9,671.453 1054.23,782.453 1043.5,893.5C 1047.78,782.481 1047.45,671.481 1042.5,560.5 Z"/></g>
<g><path style="opacity:0.332" fill="#bf0e0e" d="M 584.5,585.5 C 580.303,585.261 576.303,584.261 572.5,582.5C 570.275,583.101 568.109,583.434 566,583.5C 562.885,581.395 559.885,581.395 557,583.5C 556.502,586.817 556.335,590.15 556.5,593.5C 555.515,589.366 555.182,585.032 555.5,580.5C 561.176,580.334 566.843,580.501 572.5,581C 576.952,581.601 580.952,583.101 584.5,585.5 Z"/></g>
<g><path style="opacity:0.867" fill="#ae0d0d" d="M 51.5,580.5 C 50.7003,588.147 46.867,593.814 40,597.5C 38.3772,601.71 36.3772,605.71 34,609.5C 31.8425,611.494 29.3425,612.828 26.5,613.5C 26.9735,606.018 30.6402,600.685 37.5,597.5C 39.0064,592.8 41.173,588.466 44,584.5C 46.1575,582.506 48.6575,581.172 51.5,580.5 Z"/></g>
<g><path style="opacity:0.797" fill="#b30d0d" d="M 739.5,605.5 C 745.642,607.104 748.309,611.104 747.5,617.5C 747.5,617.833 747.5,618.167 747.5,618.5C 740.921,616.313 738.254,611.98 739.5,605.5 Z"/></g>
<g><path style="opacity:0.199" fill="#a70c0c" d="M 650.5,605.5 C 661.091,607.481 668.091,613.148 671.5,622.5C 665.95,614.94 658.95,609.274 650.5,605.5 Z"/></g>
<g><path style="opacity:0.459" fill="#980b0b" d="M 747.5,617.5 C 753.693,619.535 756.693,623.869 756.5,630.5C 750.161,629.202 747.161,625.202 747.5,618.5C 747.5,618.167 747.5,617.833 747.5,617.5 Z"/></g>
<g><path style="opacity:0.875" fill="#ad0d0d" d="M 293.5,617.5 C 298.501,626.503 301.168,636.169 301.5,646.5C 300.542,646.047 299.708,645.381 299,644.5C 293.647,636.014 291.814,627.014 293.5,617.5 Z"/></g>
<g><path style="opacity:0.865" fill="#ac0d0d" d="M 9.5,647.5 C 10.8877,657.008 8.22107,665.341 1.5,672.5C 0.987407,663.041 3.65407,654.708 9.5,647.5 Z"/></g>
<g><path style="opacity:0.499" fill="#980b0b" d="M 439.5,659.5 C 445.642,661.104 448.309,665.104 447.5,671.5C 447.565,671.938 447.399,672.272 447,672.5C 441.425,670.024 438.925,665.691 439.5,659.5 Z"/></g>
<g><path style="opacity:0.867" fill="#aa0d0d" d="M 317.5,680.5 C 317.711,684.673 316.544,688.339 314,691.5C 311.466,689.431 310.299,686.765 310.5,683.5C 312.713,682.227 315.046,681.227 317.5,680.5 Z"/></g>
<g><path style="opacity:0.816" fill="#a50c0c" d="M 463.5,684.5 C 465.426,689.689 464.093,694.023 459.5,697.5C 455.73,694.974 454.73,691.64 456.5,687.5C 458.954,686.773 461.287,685.773 463.5,684.5 Z"/></g>
<g><path style="opacity:0.872" fill="#c00e0e" d="M 442.5,797.5 C 456.181,804.175 470.514,807.175 485.5,806.5C 479.232,808.851 472.732,810.184 466,810.5C 454.762,811.938 446.929,807.604 442.5,797.5 Z"/></g>
<g><path style="opacity:0.994" fill="#ec1010" d="M 1342.5,1199.5 C 1341.74,1107.45 1343.41,1015.45 1347.5,923.5C 1347.5,921.304 1347.16,919.304 1346.5,917.5C 1348.67,913.16 1352.01,909.994 1356.5,908C 1363.17,907.667 1369.83,907.333 1376.5,907C 1577.83,905.485 1779.16,905.152 1980.5,906C 2024.18,906.113 2067.85,906.78 2111.5,908C 2118.02,911.427 2124.02,915.594 2129.5,920.5C 2130.67,1017.5 2130.83,1114.5 2130,1211.5C 2127.11,1217.39 2122.61,1221.56 2116.5,1224C 2109.83,1224.33 2103.17,1224.67 2096.5,1225C 1855.17,1227 1613.83,1227 1372.5,1225C 1364.76,1224.9 1357.09,1224.23 1349.5,1223C 1346.13,1220.64 1343.96,1217.47 1343,1213.5C 1342.5,1208.85 1342.33,1204.18 1342.5,1199.5 Z M 2067.5,972.5 C 2067.5,1036.17 2067.5,1099.83 2067.5,1163.5C 1847.17,1163.5 1626.83,1163.5 1406.5,1163.5C 1406.5,1099.83 1406.5,1036.17 1406.5,972.5C 1626.83,972.5 1847.17,972.5 2067.5,972.5 Z"/></g>
<g><path style="opacity:0.852" fill="#bc0d0d" d="M 1346.5,917.5 C 1347.16,919.304 1347.5,921.304 1347.5,923.5C 1343.41,1015.45 1341.74,1107.45 1342.5,1199.5C 1340.64,1170.35 1339.47,1141.02 1339,1111.5C 1338.33,1065.5 1338.33,1019.5 1339,973.5C 1339.25,956.148 1339.91,938.815 1341,921.5C 1342.38,919.558 1344.22,918.225 1346.5,917.5 Z"/></g>
<g><path style="opacity:0.858" fill="#aa0c0c" d="M 993.5,925.5 C 991.636,932.026 987.303,935.026 980.5,934.5C 982.503,928.318 986.837,925.318 993.5,925.5 Z"/></g>
<g><path style="opacity:0.78" fill="#9f0c0c" d="M 975.5,938.5 C 975.938,938.435 976.272,938.601 976.5,939C 969.625,948.709 961.291,956.876 951.5,963.5C 955.401,951.265 963.401,942.931 975.5,938.5 Z"/></g>
<g><path style="opacity:0.796" fill="#b00d0d" d="M 951.5,963.5 C 952.026,970.303 949.026,974.636 942.5,976.5C 941.994,969.681 944.994,965.348 951.5,963.5 Z"/></g>
<g><path style="opacity:0.817" fill="#ad0c0c" d="M 1205.5,955.5 C 1211.71,956.853 1214.88,960.853 1215,967.5C 1220.61,970.054 1223.11,974.387 1222.5,980.5C 1219.8,980.067 1217.64,978.734 1216,976.5C 1214.73,973.534 1213.57,970.534 1212.5,967.5C 1207.61,965.052 1205.27,961.052 1205.5,955.5 Z"/></g>
<g><path style="opacity:0.954" fill="#d50f0f" d="M 2067.5,972.5 C 1847.17,972.5 1626.83,972.5 1406.5,972.5C 1406.5,1036.17 1406.5,1099.83 1406.5,1163.5C 1405.68,1161.03 1405.18,1158.36 1405,1155.5C 1400.71,1092.99 1399.54,1030.49 1401.5,968C 1623.68,966.671 1845.68,968.171 2067.5,972.5 Z"/></g>
<g><path style="opacity:0.714" fill="#b20d0d" d="M 1142.5,984.5 C 1151.17,984.5 1155.5,988.833 1155.5,997.5C 1151.81,996.745 1149.98,994.412 1150,990.5C 1146.14,990.134 1143.64,988.134 1142.5,984.5 Z"/></g>
<g><path style="opacity:0.89" fill="#ab0d0d" d="M 1235.5,1001.5 C 1240.56,1009.02 1243.23,1017.35 1243.5,1026.5C 1235.98,1019.61 1233.31,1011.27 1235.5,1001.5 Z"/></g>
<g><path style="opacity:0.656" fill="#b80d0e" d="M 989.5,1113.5 C 991.229,1114.12 992.729,1115.12 994,1116.5C 995.721,1119.62 996.888,1122.96 997.5,1126.5C 990.927,1124.33 988.261,1119.99 989.5,1113.5 Z"/></g>
<g><path style="opacity:0.417" fill="#a80c0c" d="M 1167.5,1121.5 C 1167.57,1129.8 1163.57,1135.47 1155.5,1138.5C 1155.5,1137.5 1155.5,1136.5 1155.5,1135.5C 1156.55,1135.65 1157.55,1135.48 1158.5,1135C 1159.33,1133.5 1160.5,1132.33 1162,1131.5C 1164.37,1128.33 1166.2,1124.99 1167.5,1121.5 Z"/></g>
<g><path style="opacity:0.63" fill="#a50c0c" d="M 997.5,1126.5 C 999.017,1126.51 1000.18,1127.18 1001,1128.5C 1003.45,1130.63 1005.12,1133.3 1006,1136.5C 1008.17,1138.67 1010.33,1140.83 1012.5,1143C 1015.84,1142.85 1017.84,1144.35 1018.5,1147.5C 1007.17,1144.83 1000.17,1137.83 997.5,1126.5 Z"/></g>
<g><path style="opacity:0.876" fill="#b40d0d" d="M 64.5,1138.5 C 70.642,1140.1 73.3087,1144.1 72.5,1150.5C 69.942,1151.15 67.7753,1150.15 66,1147.5C 64.7114,1144.65 64.2114,1141.65 64.5,1138.5 Z"/></g>
<g><path style="opacity:0.526" fill="#af0c0c" d="M 1150.5,1142.5 C 1151.04,1142.56 1151.38,1142.89 1151.5,1143.5C 1148.12,1150.69 1142.45,1154.69 1134.5,1155.5C 1135.26,1151.16 1137.92,1149.33 1142.5,1150C 1144.42,1146.57 1147.08,1144.07 1150.5,1142.5 Z"/></g>
<g><path style="opacity:0.86" fill="#b10d0d" d="M 692.5,1159.5 C 692.732,1167.51 688.899,1173.18 681,1176.5C 681.292,1183.36 678.126,1187.36 671.5,1188.5C 671.706,1182.46 674.54,1178.13 680,1175.5C 681.072,1167.66 685.238,1162.33 692.5,1159.5 Z"/></g>
<g><path style="opacity:0.894" fill="#ae0c0c" d="M 97.5,1184.5 C 100.663,1185.32 103.33,1186.99 105.5,1189.5C 108.032,1193.23 110.032,1197.23 111.5,1201.5C 118.16,1204.83 122.16,1210.16 123.5,1217.5C 128.953,1220.06 131.62,1224.4 131.5,1230.5C 125.284,1229.13 122.117,1225.13 122,1218.5C 115.037,1214.94 110.704,1209.27 109,1201.5C 102.185,1197.88 98.3518,1192.21 97.5,1184.5 Z"/></g>
<g><path style="opacity:0.844" fill="#ab0d0d" d="M 984.5,1201.5 C 993.013,1202.24 998.68,1206.58 1001.5,1214.5C 993.2,1213.53 987.533,1209.19 984.5,1201.5 Z"/></g>
<g><path style="opacity:0.89" fill="#b20d0d" d="M 659.5,1205.5 C 658.658,1213.18 654.825,1218.85 648,1222.5C 647.877,1229.15 644.71,1233.15 638.5,1234.5C 637.883,1228.12 640.549,1223.79 646.5,1221.5C 647.939,1213.74 652.273,1208.4 659.5,1205.5 Z"/></g>
<g><path style="opacity:0.876" fill="#ad0c0c" d="M 143.5,1246.5 C 150.842,1249.82 155.342,1255.49 157,1263.5C 163.817,1267.13 167.651,1272.8 168.5,1280.5C 161.273,1277.6 156.939,1272.26 155.5,1264.5C 147.981,1260.78 143.981,1254.78 143.5,1246.5 Z"/></g>
<g><path style="opacity:0.897" fill="#b20d0d" d="M 626.5,1250.5 C 626.009,1258.81 622.009,1264.81 614.5,1268.5C 614.378,1274.77 611.378,1278.77 605.5,1280.5C 604.925,1274.31 607.425,1269.98 613,1267.5C 614.389,1259.29 618.889,1253.62 626.5,1250.5 Z"/></g>
<g><path style="opacity:0.894" fill="#b00d0d" d="M 168.5,1280.5 C 174.381,1282.24 177.381,1286.24 177.5,1292.5C 170.792,1291.44 167.792,1287.44 168.5,1280.5 Z"/></g>
<g><path style="opacity:0.905" fill="#af0d0d" d="M 592.5,1296.5 C 592.616,1304.77 588.616,1310.43 580.5,1313.5C 581.38,1305.62 585.38,1299.95 592.5,1296.5 Z"/></g>
<g><path style="opacity:0.991" fill="#e81010" d="M 1366.5,1571.5 C 1545.51,1571.07 1724.51,1571.9 1903.5,1574C 1914.1,1575.88 1922.26,1581.38 1928,1590.5C 1928.33,1594.17 1928.67,1597.83 1929,1601.5C 1929.64,1651.67 1930.47,1701.84 1931.5,1752C 1931.22,1796.97 1928.72,1841.8 1924,1886.5C 1920.38,1890.12 1916.21,1892.95 1911.5,1895C 1883.51,1896.07 1855.51,1896.73 1827.5,1897C 1668.44,1899.08 1509.44,1897.08 1350.5,1891C 1347.33,1887.83 1344.17,1884.67 1341,1881.5C 1337.67,1784.83 1337.67,1688.17 1341,1591.5C 1347.34,1581.98 1355.84,1575.31 1366.5,1571.5 Z M 1868.5,1817.5 C 1867.51,1822.98 1867.18,1828.64 1867.5,1834.5C 1712.17,1834.5 1556.83,1834.5 1401.5,1834.5C 1400.65,1769.12 1401.98,1703.78 1405.5,1638.5C 1558.17,1638.5 1710.83,1638.5 1863.5,1638.5C 1867.04,1698.11 1868.71,1757.77 1868.5,1817.5 Z"/></g>
<g><path style="opacity:0.849" fill="#a80c0d" d="M 1001.5,1588.5 C 1000.38,1593.28 997.385,1595.95 992.5,1596.5C 991.167,1596.5 989.833,1596.5 988.5,1596.5C 990.696,1590.56 995.03,1587.89 1001.5,1588.5 Z"/></g>
<g><path style="opacity:0.88" fill="#b80d0e" d="M 988.5,1596.5 C 989.833,1596.5 991.167,1596.5 992.5,1596.5C 991.282,1597.16 989.949,1597.83 988.5,1598.5C 983.977,1607.03 976.977,1612.03 967.5,1613.5C 971.993,1604.75 978.993,1599.08 988.5,1596.5 Z"/></g>
<g><path style="opacity:0.061" fill="#960b0b" d="M 1189.5,1609.5 C 1197.83,1609.17 1201.83,1613.17 1201.5,1621.5C 1195.83,1619.17 1191.83,1615.17 1189.5,1609.5 Z"/></g>
<g><path style="opacity:0.865" fill="#ac0d0d" d="M 955.5,1625.5 C 955.235,1634.4 950.901,1640.06 942.5,1642.5C 943.707,1634.41 948.04,1628.74 955.5,1625.5 Z"/></g>
<g><path style="opacity:0.85" fill="#b00d0d" d="M 1210.5,1630.5 C 1218.17,1633.47 1222.17,1639.14 1222.5,1647.5C 1214.33,1644.39 1210.33,1638.73 1210.5,1630.5 Z"/></g>
<g><path style="opacity:0.883" fill="#aa0c0c" d="M 1134.5,1647.5 C 1141.5,1646.82 1145.84,1649.82 1147.5,1656.5C 1140.83,1656.68 1136.5,1653.68 1134.5,1647.5 Z"/></g>
<g><path style="opacity:0.863" fill="#ad0d0d" d="M 1163.5,1676.5 C 1171.07,1677.99 1173.74,1682.32 1171.5,1689.5C 1168.01,1685.68 1165.35,1681.34 1163.5,1676.5 Z"/></g>
<g><path style="opacity:0.87" fill="#b20d0d" d="M 1171.5,1784.5 C 1172.84,1790.47 1170.51,1794.47 1164.5,1796.5C 1164.17,1796.5 1163.83,1796.5 1163.5,1796.5C 1163.21,1790.39 1165.88,1786.39 1171.5,1784.5 Z"/></g>
<g><path style="opacity:0.883" fill="#a60c0c" d="M 993.5,1788.5 C 1001.2,1791.54 1005.53,1797.2 1006.5,1805.5C 998.081,1803.01 993.748,1797.34 993.5,1788.5 Z"/></g>
<g><path style="opacity:0.884" fill="#bf0e0e" d="M 1163.5,1796.5 C 1163.83,1796.5 1164.17,1796.5 1164.5,1796.5C 1161.69,1808.31 1154.36,1815.31 1142.5,1817.5C 1147.83,1808.83 1154.83,1801.83 1163.5,1796.5 Z"/></g>
<g><path style="opacity:0.841" fill="#af0d0d" d="M 1022.5,1817.5 C 1027.71,1819.27 1032.05,1822.27 1035.5,1826.5C 1028.14,1827.8 1023.8,1824.8 1022.5,1817.5 Z"/></g>
<g><path style="opacity:0.869" fill="#a90c0c" d="M 1134.5,1821.5 C 1132.9,1828.15 1128.57,1831.15 1121.5,1830.5C 1123.56,1824.3 1127.89,1821.3 1134.5,1821.5 Z"/></g>
<g><path style="opacity:0.439" fill="#d80f0f" d="M 1868.5,1817.5 C 1868.5,1823.5 1868.5,1829.5 1868.5,1835.5C 1712.67,1835.83 1557,1835.5 1401.5,1834.5C 1556.83,1834.5 1712.17,1834.5 1867.5,1834.5C 1867.18,1828.64 1867.51,1822.98 1868.5,1817.5 Z"/></g>
<g><path style="opacity:0.021" fill="#8e0a0a" d="M 1214.5,1835.5 C 1214.62,1841.38 1211.95,1845.38 1206.5,1847.5C 1205.69,1841.1 1208.36,1837.1 1214.5,1835.5 Z"/></g>
<g><path style="opacity:0.007" fill="#900b0a" d="M 959.5,1848.5 C 966.098,1852.1 971.431,1857.1 975.5,1863.5C 975.5,1863.83 975.5,1864.17 975.5,1864.5C 966.504,1862.84 961.171,1857.5 959.5,1848.5 Z"/></g>
<g><path style="opacity:0.82" fill="#aa0c0c" d="M 975.5,1864.5 C 975.5,1864.17 975.5,1863.83 975.5,1863.5C 983.727,1864.45 989.727,1868.61 993.5,1876C 993.272,1876.4 992.938,1876.57 992.5,1876.5C 984.598,1875.59 978.931,1871.59 975.5,1864.5 Z"/></g>
<g><path style="opacity:0.874" fill="#a20c0c" d="M 235.5,1980.5 C 242.5,1984.17 247.833,1989.5 251.5,1996.5C 250.833,1996.5 250.167,1996.5 249.5,1996.5C 240.681,1994.89 236.014,1989.56 235.5,1980.5 Z"/></g>
<g><path style="opacity:0.848" fill="#b20d0e" d="M 249.5,1996.5 C 250.167,1996.5 250.833,1996.5 251.5,1996.5C 256.345,1998.35 260.678,2001.01 264.5,2004.5C 261.56,2005.83 258.56,2005.66 255.5,2004C 253.361,2001.52 251.361,1999.02 249.5,1996.5 Z"/></g>
<g><path style="opacity:0.625" fill="#9a0b0b" d="M 209.5,2047.5 C 215.449,2046.97 219.782,2049.31 222.5,2054.5C 222.376,2055.11 222.043,2055.44 221.5,2055.5C 215.104,2056.31 211.104,2053.64 209.5,2047.5 Z"/></g>
</svg>
