<?xml version="1.0" encoding="UTF-8"?>
<!DOCTYPE svg PUBLIC "-//W3C//DTD SVG 1.1//EN" "http://www.w3.org/Graphics/SVG/1.1/DTD/svg11.dtd">
<svg xmlns="http://www.w3.org/2000/svg" version="1.1" width="512px" height="512px" style="shape-rendering:geometricPrecision; text-rendering:geometricPrecision; image-rendering:optimizeQuality; fill-rule:evenodd; clip-rule:evenodd" xmlns:xlink="http://www.w3.org/1999/xlink">
<g><path style="opacity:1" fill="#e71111" d="M 122.5,26.5 C 123.167,27.8333 124.167,28.8333 125.5,29.5C 127.587,30.5846 128.92,32.2512 129.5,34.5C 129.427,36.0269 130.094,37.0269 131.5,37.5C 134.383,41.2939 136.216,45.6272 137,50.5C 138.943,62.8258 138.943,75.1592 137,87.5C 129.987,109.669 114.82,121.669 91.5,123.5C 85.2388,123.138 79.2388,121.805 73.5,119.5C 73.0269,118.094 72.0269,117.427 70.5,117.5C 68.847,117.34 67.5137,116.674 66.5,115.5C 66.0269,114.094 65.0269,113.427 63.5,113.5C 62.5,113.167 61.8333,112.5 61.5,111.5C 60.7377,109.738 59.4044,108.738 57.5,108.5C 49.9777,100.804 45.811,91.4702 45,80.5C 44.3333,72.1667 44.3333,63.8333 45,55.5C 45.7633,49.3792 47.5967,43.7125 50.5,38.5C 51.9063,38.0269 52.573,37.0269 52.5,35.5C 54.2624,34.7377 55.2624,33.4044 55.5,31.5C 55.5,30.8333 55.8333,30.5 56.5,30.5C 58.5,29.1667 60.1667,27.5 61.5,25.5C 69.8849,17.8086 79.8849,13.8086 91.5,13.5C 103.677,13.7716 114.01,18.1049 122.5,26.5 Z M 108.5,34.5 C 109.262,36.2624 110.596,37.2624 112.5,37.5C 112.833,38.5 113.5,39.1667 114.5,39.5C 114.427,41.0269 115.094,42.0269 116.5,42.5C 121.326,50.4736 123.326,59.1402 122.5,68.5C 123.094,76.8594 121.76,84.8594 118.5,92.5C 117.094,92.9731 116.427,93.9731 116.5,95.5C 114.167,97.1667 112.167,99.1667 110.5,101.5C 108.973,101.427 107.973,102.094 107.5,103.5C 91.9052,110.516 78.2385,107.85 66.5,95.5C 66.573,93.9731 65.9063,92.9731 64.5,92.5C 64.3404,90.847 63.6737,89.5137 62.5,88.5C 62.2785,85.9327 61.6118,83.5994 60.5,81.5C 60.3336,72.8269 60.5002,64.1603 61,55.5C 64.8278,39.512 74.9945,30.8454 91.5,29.5C 97.4906,30.1646 103.157,31.8312 108.5,34.5 Z"/></g>
<g><path style="opacity:0.894" fill="#a10c0c" d="M 61.5,25.5 C 60.1667,27.5 58.5,29.1667 56.5,30.5C 57.1667,27.8333 58.8333,26.1667 61.5,25.5 Z"/></g>
<g><path style="opacity:0.016" fill="#930b0b" d="M 122.5,26.5 C 124.5,26.5 125.5,27.5 125.5,29.5C 124.167,28.8333 123.167,27.8333 122.5,26.5 Z"/></g>
<g><path style="opacity:0.953" fill="#ae0d0d" d="M 55.5,31.5 C 55.2624,33.4044 54.2624,34.7377 52.5,35.5C 52.7376,33.5956 53.7376,32.2623 55.5,31.5 Z"/></g>
<g><path style="opacity:0.91" fill="#a50c0c" d="M 108.5,34.5 C 110.404,34.7376 111.738,35.7376 112.5,37.5C 110.596,37.2624 109.262,36.2624 108.5,34.5 Z"/></g>
<g><path style="opacity:0.875" fill="#ab0c0d" d="M 129.5,34.5 C 130.906,34.9731 131.573,35.9731 131.5,37.5C 130.094,37.0269 129.427,36.0269 129.5,34.5 Z"/></g>
<g><path style="opacity:0.6" fill="#950b0b" d="M 52.5,35.5 C 52.573,37.0269 51.9063,38.0269 50.5,38.5C 50.427,36.9731 51.0937,35.9731 52.5,35.5 Z"/></g>
<g><path style="opacity:0.024" fill="#8f0a0b" d="M 114.5,39.5 C 115.906,39.9731 116.573,40.9731 116.5,42.5C 115.094,42.0269 114.427,41.0269 114.5,39.5 Z"/></g>
<g><path style="opacity:1" fill="#e91111" d="M 289.5,69.5 C 289.738,71.4044 290.738,72.7377 292.5,73.5C 295.974,77.4534 298.14,82.12 299,87.5C 302.288,111.62 292.455,127.287 269.5,134.5C 268.5,134.5 267.5,134.5 266.5,134.5C 265.842,162.52 266.508,190.187 268.5,217.5C 277.176,218.669 284.176,222.669 289.5,229.5C 289.427,231.027 290.094,232.027 291.5,232.5C 291.427,234.027 292.094,235.027 293.5,235.5C 295.25,236.659 296.25,238.326 296.5,240.5C 296.259,242.898 296.926,244.898 298.5,246.5C 302.402,271.917 292.069,288.25 267.5,295.5C 267.5,322.833 267.5,350.167 267.5,377.5C 274.635,378.401 280.635,381.401 285.5,386.5C 286.167,387.833 287.167,388.833 288.5,389.5C 289.5,389.833 290.167,390.5 290.5,391.5C 290.738,393.404 291.738,394.738 293.5,395.5C 297.812,401.735 299.812,408.735 299.5,416.5C 300.182,425.763 297.515,433.763 291.5,440.5C 290.094,440.973 289.427,441.973 289.5,443.5C 278.846,454.55 265.846,458.717 250.5,456C 246.05,454.939 242.05,453.105 238.5,450.5C 237.738,448.738 236.404,447.738 234.5,447.5C 233.5,445.833 232.167,444.5 230.5,443.5C 224.664,438.166 221.164,431.5 220,423.5C 218.329,412.806 220.496,403.139 226.5,394.5C 228.262,393.738 229.262,392.404 229.5,390.5C 230.167,389.167 231.167,388.167 232.5,387.5C 234.749,386.92 236.415,385.587 237.5,383.5C 239.027,383.573 240.027,382.906 240.5,381.5C 243.797,379.399 247.463,378.065 251.5,377.5C 251.5,350.167 251.5,322.833 251.5,295.5C 247.534,294.956 243.867,293.623 240.5,291.5C 239.738,289.738 238.404,288.738 236.5,288.5C 227.532,282.593 222.032,274.26 220,263.5C 218.989,256 219.655,248.667 222,241.5C 223.026,238.761 224.526,236.428 226.5,234.5C 227.906,234.027 228.573,233.027 228.5,231.5C 230.833,229.833 232.833,227.833 234.5,225.5C 234.5,224.833 234.833,224.5 235.5,224.5C 237.027,224.573 238.027,223.906 238.5,222.5C 241.983,219.763 245.983,218.097 250.5,217.5C 251.833,204.017 252.499,190.183 252.5,176C 252.499,161.817 251.833,147.983 250.5,134.5C 247.084,134.472 244.084,133.472 241.5,131.5C 241.027,130.094 240.027,129.427 238.5,129.5C 236.596,129.262 235.262,128.262 234.5,126.5C 233.738,124.738 232.404,123.738 230.5,123.5C 230.573,121.973 229.906,120.973 228.5,120.5C 222.267,113.646 219.267,105.479 219.5,96C 219.312,88.3775 221.312,81.5442 225.5,75.5C 226.906,75.0269 227.573,74.0269 227.5,72.5C 228.906,72.0269 229.573,71.0269 229.5,69.5C 232.427,68.2427 234.761,66.2427 236.5,63.5C 238.027,63.573 239.027,62.9063 239.5,61.5C 252.088,54.0439 265.088,53.5439 278.5,60C 282.949,62.2843 286.616,65.4509 289.5,69.5 Z M 270.5,73.5 C 270.973,74.9063 271.973,75.573 273.5,75.5C 274.262,77.2624 275.596,78.2624 277.5,78.5C 285.73,89.4317 286.063,100.432 278.5,111.5C 276.5,112.833 274.833,114.5 273.5,116.5C 261.318,122.463 250.318,120.796 240.5,111.5C 240.573,109.973 239.906,108.973 238.5,108.5C 231.947,91.1063 237.281,78.9396 254.5,72C 259.963,71.2464 265.296,71.7464 270.5,73.5 Z M 274.5,236.5 C 275.167,237.833 276.167,238.833 277.5,239.5C 284.859,248.956 285.859,258.956 280.5,269.5C 278.738,270.262 277.738,271.596 277.5,273.5C 276.833,273.5 276.5,273.833 276.5,274.5C 274.596,274.738 273.262,275.738 272.5,277.5C 262.786,281.995 253.452,281.328 244.5,275.5C 243.167,273.5 241.5,271.833 239.5,270.5C 239.573,268.973 238.906,267.973 237.5,267.5C 232.153,247.365 239.653,235.365 260,231.5C 265.172,232.279 270.005,233.946 274.5,236.5 Z M 272.5,395.5 C 272.973,396.906 273.973,397.573 275.5,397.5C 276.864,399.191 278.197,400.858 279.5,402.5C 279.932,403.71 280.599,404.71 281.5,405.5C 282.661,409.309 283.661,413.143 284.5,417C 283.661,420.857 282.661,424.691 281.5,428.5C 280.094,428.973 279.427,429.973 279.5,431.5C 277.5,432.833 275.833,434.5 274.5,436.5C 273.508,436.328 272.842,436.662 272.5,437.5C 270.973,437.427 269.973,438.094 269.5,439.5C 262.519,441.741 255.519,441.408 248.5,438.5C 247.71,437.599 246.71,436.932 245.5,436.5C 244.205,435.512 242.872,434.512 241.5,433.5C 241.262,431.596 240.262,430.262 238.5,429.5C 233.802,419.168 234.802,409.502 241.5,400.5C 242.5,400.167 243.167,399.5 243.5,398.5C 252.502,391.802 262.168,390.802 272.5,395.5 Z"/></g>
<g><path style="opacity:1" fill="#ee1111" d="M 459.5,133.5 C 415.165,133.667 370.832,133.5 326.5,133C 325.756,131.961 324.756,131.461 323.5,131.5C 322.883,131.389 322.383,131.056 322,130.5C 321.17,107.33 321.337,84.3297 322.5,61.5C 323.833,60.8333 324.833,59.8333 325.5,58.5C 369.998,57.3352 414.665,57.1685 459.5,58C 460.667,59.1667 461.833,60.3333 463,61.5C 463.667,84.5 463.667,107.5 463,130.5C 461.961,131.71 460.794,132.71 459.5,133.5 Z M 337.5,72.5 C 374.167,72.5 410.833,72.5 447.5,72.5C 447.5,87.8333 447.5,103.167 447.5,118.5C 410.833,118.5 374.167,118.5 337.5,118.5C 337.5,103.167 337.5,87.8333 337.5,72.5 Z"/></g>
<g><path style="opacity:0.655" fill="#910a0b" d="M 325.5,58.5 C 324.833,59.8333 323.833,60.8333 322.5,61.5C 322.5,59.5 323.5,58.5 325.5,58.5 Z"/></g>
<g><path style="opacity:0.973" fill="#ab0c0c" d="M 239.5,61.5 C 239.027,62.9063 238.027,63.573 236.5,63.5C 236.973,62.0937 237.973,61.427 239.5,61.5 Z"/></g>
<g><path style="opacity:0.992" fill="#b60d0e" d="M 236.5,63.5 C 234.761,66.2427 232.427,68.2427 229.5,69.5C 231.239,66.7573 233.573,64.7573 236.5,63.5 Z"/></g>
<g><path style="opacity:0.996" fill="#af0d0d" d="M 289.5,69.5 C 291.262,70.2623 292.262,71.5956 292.5,73.5C 290.738,72.7377 289.738,71.4044 289.5,69.5 Z"/></g>
<g><path style="opacity:0.816" fill="#a20c0c" d="M 229.5,69.5 C 229.573,71.0269 228.906,72.0269 227.5,72.5C 227.427,70.9731 228.094,69.9731 229.5,69.5 Z"/></g>
<g><path style="opacity:0.855" fill="#a80c0c" d="M 227.5,72.5 C 227.573,74.0269 226.906,75.0269 225.5,75.5C 225.427,73.9731 226.094,72.9731 227.5,72.5 Z"/></g>
<g><path style="opacity:0.6" fill="#990b0b" d="M 270.5,73.5 C 272.027,73.427 273.027,74.0937 273.5,75.5C 271.973,75.573 270.973,74.9063 270.5,73.5 Z"/></g>
<g><path style="opacity:0.965" fill="#a20c0c" d="M 273.5,75.5 C 275.404,75.7376 276.738,76.7376 277.5,78.5C 275.596,78.2624 274.262,77.2624 273.5,75.5 Z"/></g>
<g><path style="opacity:1" fill="#b10d0d" d="M 60.5,81.5 C 61.6118,83.5994 62.2785,85.9327 62.5,88.5C 60.8372,86.5615 60.1706,84.2282 60.5,81.5 Z"/></g>
<g><path style="opacity:0.776" fill="#a00b0c" d="M 64.5,92.5 C 65.9063,92.9731 66.573,93.9731 66.5,95.5C 65.0937,95.0269 64.427,94.0269 64.5,92.5 Z"/></g>
<g><path style="opacity:0.878" fill="#ab0c0d" d="M 118.5,92.5 C 118.573,94.0269 117.906,95.0269 116.5,95.5C 116.427,93.9731 117.094,92.9731 118.5,92.5 Z"/></g>
<g><path style="opacity:0.98" fill="#af0d0d" d="M 110.5,101.5 C 110.027,102.906 109.027,103.573 107.5,103.5C 107.973,102.094 108.973,101.427 110.5,101.5 Z"/></g>
<g><path style="opacity:0.976" fill="#a50c0c" d="M 57.5,108.5 C 59.4044,108.738 60.7377,109.738 61.5,111.5C 59.5956,111.262 58.2623,110.262 57.5,108.5 Z"/></g>
<g><path style="opacity:0.753" fill="#990b0b" d="M 238.5,108.5 C 239.906,108.973 240.573,109.973 240.5,111.5C 239.094,111.027 238.427,110.027 238.5,108.5 Z"/></g>
<g><path style="opacity:0.796" fill="#9f0b0c" d="M 63.5,113.5 C 65.0269,113.427 66.0269,114.094 66.5,115.5C 64.9731,115.573 63.9731,114.906 63.5,113.5 Z"/></g>
<g><path style="opacity:1" fill="#ba0e0e" d="M 278.5,111.5 C 277.833,114.167 276.167,115.833 273.5,116.5C 274.833,114.5 276.5,112.833 278.5,111.5 Z"/></g>
<g><path style="opacity:0.58" fill="#970b0b" d="M 70.5,117.5 C 72.0269,117.427 73.0269,118.094 73.5,119.5C 71.9731,119.573 70.9731,118.906 70.5,117.5 Z"/></g>
<g><path style="opacity:0.486" fill="#890a0a" d="M 337.5,72.5 C 337.5,87.8333 337.5,103.167 337.5,118.5C 374.167,118.5 410.833,118.5 447.5,118.5C 447.5,103.167 447.5,87.8333 447.5,72.5C 448.496,87.9911 448.83,103.658 448.5,119.5C 411.167,119.5 373.833,119.5 336.5,119.5C 336.17,103.658 336.504,87.9911 337.5,72.5 Z M 337.5,72.5 C 374.167,72.5 410.833,72.5 447.5,72.5C 447.5,87.8333 447.5,103.167 447.5,118.5C 410.833,118.5 374.167,118.5 337.5,118.5C 337.5,103.167 337.5,87.8333 337.5,72.5 Z"/></g>
<g><path style="opacity:0.008" fill="#8d0a0b" d="M 228.5,120.5 C 229.906,120.973 230.573,121.973 230.5,123.5C 229.094,123.027 228.427,122.027 228.5,120.5 Z"/></g>
<g><path style="opacity:0.973" fill="#a50c0c" d="M 230.5,123.5 C 232.404,123.738 233.738,124.738 234.5,126.5C 232.596,126.262 231.262,125.262 230.5,123.5 Z"/></g>
<g><path style="opacity:1" fill="#e71111" d="M 63.5,126.5 C 63.427,128.027 64.0937,129.027 65.5,129.5C 65.1706,132.228 65.8372,134.562 67.5,136.5C 68.8084,140.4 69.8084,144.4 70.5,148.5C 70.1706,151.228 70.8372,153.562 72.5,155.5C 73.6336,158.37 74.3003,161.37 74.5,164.5C 75.3013,166.793 75.968,166.46 76.5,163.5C 77.3004,161.393 77.9671,159.226 78.5,157C 75.9317,148.892 73.5984,140.726 71.5,132.5C 72.6367,129.53 74.6367,127.364 77.5,126C 87.1667,125.333 96.8333,125.333 106.5,126C 107.737,126.232 108.737,126.732 109.5,127.5C 109.427,129.027 110.094,130.027 111.5,130.5C 112.622,132.288 112.789,134.288 112,136.5C 109.725,143.822 107.559,151.155 105.5,158.5C 105.427,160.027 106.094,161.027 107.5,161.5C 108.674,162.514 109.34,163.847 109.5,165.5C 109.369,166.376 109.702,167.043 110.5,167.5C 111.386,166.675 111.719,165.675 111.5,164.5C 114.076,152.517 117.409,140.85 121.5,129.5C 122.906,129.027 123.573,128.027 123.5,126.5C 136.403,123.152 149.069,124.319 161.5,130C 164.787,131.467 167.454,133.634 169.5,136.5C 170.833,138.5 172.5,140.167 174.5,141.5C 176.262,142.262 177.262,143.596 177.5,145.5C 177.427,147.027 178.094,148.027 179.5,148.5C 179.427,150.027 180.094,151.027 181.5,151.5C 183.905,155.756 185.405,160.423 186,165.5C 186.667,202.833 186.667,240.167 186,277.5C 175.912,292.01 165.578,306.343 155,320.5C 152.098,364.778 149.764,409.111 148,453.5C 147.974,462.299 146.974,470.966 145,479.5C 140.213,490.144 132.046,496.31 120.5,498C 102.167,498.667 83.8333,498.667 65.5,498C 61.0002,497.559 57.0002,496.059 53.5,493.5C 53.0269,492.094 52.0269,491.427 50.5,491.5C 44.137,486.787 40.3037,480.453 39,472.5C 36.5547,422.149 33.8881,371.815 31,321.5C 20.6368,306.984 10.1368,292.651 -0.5,278.5C -0.5,239.833 -0.5,201.167 -0.5,162.5C 0.166667,162.5 0.5,162.167 0.5,161.5C 2.07394,159.898 2.74061,157.898 2.5,155.5C 3.32567,152.515 4.659,149.849 6.5,147.5C 8.26242,146.738 9.26242,145.404 9.5,143.5C 11.2624,142.738 12.2624,141.404 12.5,139.5C 15.0892,138.581 17.0892,136.914 18.5,134.5C 24.421,129.211 31.421,126.044 39.5,125C 46.8333,124.333 54.1667,124.333 61.5,125C 62.4158,125.278 63.0825,125.778 63.5,126.5 Z M 91.5,167.5 C 92.1667,167.833 92.8333,168.167 93.5,168.5C 97.5956,176.364 101.929,184.031 106.5,191.5C 106.953,192.458 107.619,193.292 108.5,194C 111.367,194.801 114.034,194.634 116.5,193.5C 118.411,193.426 119.578,192.426 120,190.5C 124.815,174.57 129.315,158.57 133.5,142.5C 135.456,140.852 137.789,140.185 140.5,140.5C 146.092,141.364 151.425,143.031 156.5,145.5C 157.585,147.587 159.251,148.92 161.5,149.5C 165.665,154.832 168.498,160.832 170,167.5C 170.667,202.5 170.667,237.5 170,272.5C 168.579,274.405 167.412,276.405 166.5,278.5C 164.738,279.262 163.738,280.596 163.5,282.5C 162.094,282.973 161.427,283.973 161.5,285.5C 159.738,286.262 158.738,287.596 158.5,289.5C 156.738,290.262 155.738,291.596 155.5,293.5C 154.094,293.973 153.427,294.973 153.5,296.5C 151.738,297.262 150.738,298.596 150.5,300.5C 148.738,301.262 147.738,302.596 147.5,304.5C 146.094,304.973 145.427,305.973 145.5,307.5C 143.738,308.262 142.738,309.596 142.5,311.5C 140.738,312.262 139.738,313.596 139.5,315.5C 136.417,368.048 133.25,420.714 130,473.5C 127.685,477.817 124.185,480.65 119.5,482C 100.802,482.795 82.1355,482.628 63.5,481.5C 62.7095,480.599 61.7095,479.932 60.5,479.5C 59.5,477.833 58.1667,476.5 56.5,475.5C 54.8812,470.006 54.0478,464.339 54,458.5C 51.8883,411.155 49.555,363.821 47,316.5C 46.2082,313.894 44.7082,311.894 42.5,310.5C 42.573,308.973 41.9063,307.973 40.5,307.5C 40.2624,305.596 39.2624,304.262 37.5,303.5C 37.2624,301.596 36.2624,300.262 34.5,299.5C 34.2624,297.596 33.2624,296.262 31.5,295.5C 31.573,293.973 30.9063,292.973 29.5,292.5C 29.2624,290.596 28.2624,289.262 26.5,288.5C 26.2624,286.596 25.2624,285.262 23.5,284.5C 21.984,281.467 19.984,278.8 17.5,276.5C 17.573,274.973 16.9063,273.973 15.5,273.5C 15.025,236.118 15.525,198.785 17,161.5C 24.1593,146.668 35.9926,139.668 52.5,140.5C 56.506,156.857 60.6726,173.19 65,189.5C 67.4353,194.224 71.2686,195.724 76.5,194C 77.3081,193.692 77.9747,193.192 78.5,192.5C 83.1142,184.27 87.4475,175.937 91.5,167.5 Z M 90.5,142.5 C 91.9473,141.115 92.9473,141.448 93.5,143.5C 92.8333,144.167 92.1667,144.833 91.5,145.5C 91.7373,144.209 91.404,143.209 90.5,142.5 Z"/></g>
<g><path style="opacity:0.702" fill="#9d0c0c" d="M 63.5,126.5 C 64.9063,126.973 65.573,127.973 65.5,129.5C 64.0937,129.027 63.427,128.027 63.5,126.5 Z"/></g>
<g><path style="opacity:0.827" fill="#a70c0c" d="M 123.5,126.5 C 123.573,128.027 122.906,129.027 121.5,129.5C 121.427,127.973 122.094,126.973 123.5,126.5 Z"/></g>
<g><path style="opacity:0.725" fill="#9d0b0c" d="M 109.5,127.5 C 110.906,127.973 111.573,128.973 111.5,130.5C 110.094,130.027 109.427,129.027 109.5,127.5 Z"/></g>
<g><path style="opacity:0.565" fill="#980b0b" d="M 238.5,129.5 C 240.027,129.427 241.027,130.094 241.5,131.5C 239.973,131.573 238.973,130.906 238.5,129.5 Z"/></g>
<g><path style="opacity:1" fill="#b00d0d" d="M 65.5,129.5 C 66.6118,131.599 67.2785,133.933 67.5,136.5C 65.8372,134.562 65.1706,132.228 65.5,129.5 Z"/></g>
<g><path style="opacity:0.863" fill="#ad0c0c" d="M 323.5,131.5 C 324.756,131.461 325.756,131.961 326.5,133C 370.832,133.5 415.165,133.667 459.5,133.5C 415.002,134.665 370.335,134.831 325.5,134C 324.619,133.292 323.953,132.458 323.5,131.5 Z"/></g>
<g><path style="opacity:0.529" fill="#8f0b0b" d="M 250.5,134.5 C 251.833,147.983 252.499,161.817 252.5,176C 252.499,190.183 251.833,204.017 250.5,217.5C 251.833,189.833 251.833,162.167 250.5,134.5 Z"/></g>
<g><path style="opacity:0.835" fill="#aa0c0c" d="M 269.5,134.5 C 267.172,162.014 266.839,189.681 268.5,217.5C 266.508,190.187 265.842,162.52 266.5,134.5C 267.5,134.5 268.5,134.5 269.5,134.5 Z"/></g>
<g><path style="opacity:0.008" fill="#920b0b" d="M 169.5,136.5 C 172.167,137.167 173.833,138.833 174.5,141.5C 172.5,140.167 170.833,138.5 169.5,136.5 Z"/></g>
<g><path style="opacity:0.988" fill="#b30d0d" d="M 18.5,134.5 C 17.0892,136.914 15.0892,138.581 12.5,139.5C 13.9108,137.086 15.9108,135.419 18.5,134.5 Z"/></g>
<g><path style="opacity:0.439" fill="#8d0a0a" d="M 140.5,140.5 C 137.789,140.185 135.456,140.852 133.5,142.5C 133.5,141.5 133.5,140.5 133.5,139.5C 136.059,139.198 138.393,139.532 140.5,140.5 Z"/></g>
<g><path style="opacity:0.984" fill="#aa0d0d" d="M 12.5,139.5 C 12.2624,141.404 11.2624,142.738 9.5,143.5C 9.73758,141.596 10.7376,140.262 12.5,139.5 Z"/></g>
<g><path style="opacity:0.722" fill="#a60c0c" d="M 93.5,143.5 C 92.9473,141.448 91.9473,141.115 90.5,142.5C 89.9569,142.44 89.6236,142.107 89.5,141.5C 91.0453,140.548 92.712,140.215 94.5,140.5C 94.7373,141.791 94.404,142.791 93.5,143.5 Z"/></g>
<g><path style="opacity:0.957" fill="#af0d0d" d="M 9.5,143.5 C 9.26242,145.404 8.26242,146.738 6.5,147.5C 6.73758,145.596 7.73758,144.262 9.5,143.5 Z"/></g>
<g><path style="opacity:0.973" fill="#a10c0c" d="M 156.5,145.5 C 158.749,146.08 160.415,147.413 161.5,149.5C 159.251,148.92 157.585,147.587 156.5,145.5 Z"/></g>
<g><path style="opacity:0.565" fill="#8f0a0b" d="M 93.5,143.5 C 93.6882,145.103 93.1882,146.437 92,147.5C 91.5357,146.906 91.369,146.239 91.5,145.5C 92.1667,144.833 92.8333,144.167 93.5,143.5 Z"/></g>
<g><path style="opacity:0.91" fill="#b10d0d" d="M 177.5,145.5 C 178.906,145.973 179.573,146.973 179.5,148.5C 178.094,148.027 177.427,147.027 177.5,145.5 Z"/></g>
<g><path style="opacity:0.545" fill="#960b0b" d="M 179.5,148.5 C 180.906,148.973 181.573,149.973 181.5,151.5C 180.094,151.027 179.427,150.027 179.5,148.5 Z"/></g>
<g><path style="opacity:1" fill="#ab0d0d" d="M 70.5,148.5 C 71.6118,150.599 72.2785,152.933 72.5,155.5C 70.8372,153.562 70.1706,151.228 70.5,148.5 Z"/></g>
<g><path style="opacity:0.996" fill="#aa0d0d" d="M 2.5,155.5 C 2.74061,157.898 2.07394,159.898 0.5,161.5C 0.594955,159.214 1.26162,157.214 2.5,155.5 Z"/></g>
<g><path style="opacity:0.58" fill="#960b0b" d="M 105.5,158.5 C 106.906,158.973 107.573,159.973 107.5,161.5C 106.094,161.027 105.427,160.027 105.5,158.5 Z"/></g>
<g><path style="opacity:0.961" fill="#a90d0d" d="M 76.5,163.5 C 75.968,166.46 75.3013,166.793 74.5,164.5C 75.1667,164.167 75.8333,163.833 76.5,163.5 Z"/></g>
<g><path style="opacity:0.078" fill="#860a0a" d="M 93.5,168.5 C 92.8333,168.167 92.1667,167.833 91.5,167.5C 92.3013,165.207 92.968,165.54 93.5,168.5 Z"/></g>
<g><path style="opacity:0.859" fill="#a20c0c" d="M 111.5,164.5 C 111.719,165.675 111.386,166.675 110.5,167.5C 109.702,167.043 109.369,166.376 109.5,165.5C 110.167,165.167 110.833,164.833 111.5,164.5 Z"/></g>
<g><path style="opacity:0.992" fill="#c00e0e" d="M 106.5,191.5 C 109.552,193.178 112.885,193.845 116.5,193.5C 114.034,194.634 111.367,194.801 108.5,194C 107.619,193.292 106.953,192.458 106.5,191.5 Z"/></g>
<g><path style="opacity:1" fill="#ed1111" d="M 511.5,221.5 C 511.5,244.5 511.5,267.5 511.5,290.5C 510.684,292.144 509.35,293.31 507.5,294C 446.833,294.667 386.167,294.667 325.5,294C 323.574,293.578 322.574,292.411 322.5,290.5C 322.187,267.122 322.52,243.788 323.5,220.5C 324.058,219.21 325.058,218.377 326.5,218C 386.5,217.333 446.5,217.333 506.5,218C 508.323,218.997 509.99,220.164 511.5,221.5 Z M 496.5,233.5 C 496.5,248.833 496.5,264.167 496.5,279.5C 443.5,279.5 390.5,279.5 337.5,279.5C 337.5,264.167 337.5,248.833 337.5,233.5C 390.5,233.5 443.5,233.5 496.5,233.5 Z"/></g>
<g><path style="opacity:0.965" fill="#a90c0c" d="M 238.5,222.5 C 238.027,223.906 237.027,224.573 235.5,224.5C 235.973,223.094 236.973,222.427 238.5,222.5 Z"/></g>
<g><path style="opacity:0.937" fill="#bc0d0d" d="M 323.5,220.5 C 322.52,243.788 322.187,267.122 322.5,290.5C 321.337,267.67 321.17,244.67 322,221.5C 322.383,220.944 322.883,220.611 323.5,220.5 Z"/></g>
<g><path style="opacity:0.882" fill="#9e0c0c" d="M 234.5,225.5 C 232.833,227.833 230.833,229.833 228.5,231.5C 229.5,228.5 231.5,226.5 234.5,225.5 Z"/></g>
<g><path style="opacity:0.863" fill="#a50c0c" d="M 289.5,229.5 C 290.906,229.973 291.573,230.973 291.5,232.5C 290.094,232.027 289.427,231.027 289.5,229.5 Z"/></g>
<g><path style="opacity:0.91" fill="#af0d0d" d="M 228.5,231.5 C 228.573,233.027 227.906,234.027 226.5,234.5C 226.427,232.973 227.094,231.973 228.5,231.5 Z"/></g>
<g><path style="opacity:0.235" fill="#890a0a" d="M 496.5,233.5 C 443.5,233.5 390.5,233.5 337.5,233.5C 337.5,248.833 337.5,264.167 337.5,279.5C 336.504,264.009 336.17,248.342 336.5,232.5C 390.003,232.168 443.336,232.501 496.5,233.5 Z"/></g>
<g><path style="opacity:0.918" fill="#af0d0d" d="M 291.5,232.5 C 292.906,232.973 293.573,233.973 293.5,235.5C 292.094,235.027 291.427,234.027 291.5,232.5 Z"/></g>
<g><path style="opacity:0.996" fill="#b00d0d" d="M 274.5,236.5 C 276.5,236.5 277.5,237.5 277.5,239.5C 276.167,238.833 275.167,237.833 274.5,236.5 Z"/></g>
<g><path style="opacity:0.996" fill="#aa0d0d" d="M 296.5,240.5 C 297.738,242.214 298.405,244.214 298.5,246.5C 296.926,244.898 296.259,242.898 296.5,240.5 Z"/></g>
<g><path style="opacity:0.655" fill="#9b0b0c" d="M 237.5,267.5 C 238.906,267.973 239.573,268.973 239.5,270.5C 238.094,270.027 237.427,269.027 237.5,267.5 Z"/></g>
<g><path style="opacity:0.965" fill="#a10c0c" d="M 280.5,269.5 C 280.262,271.404 279.262,272.738 277.5,273.5C 277.738,271.596 278.738,270.262 280.5,269.5 Z"/></g>
<g><path style="opacity:0.988" fill="#a30c0c" d="M 239.5,270.5 C 241.5,271.833 243.167,273.5 244.5,275.5C 241.833,274.833 240.167,273.167 239.5,270.5 Z"/></g>
<g><path style="opacity:0.914" fill="#ae0d0d" d="M 15.5,273.5 C 16.9063,273.973 17.573,274.973 17.5,276.5C 16.0937,276.027 15.427,275.027 15.5,273.5 Z"/></g>
<g><path style="opacity:0.929" fill="#a80c0c" d="M 276.5,274.5 C 275.738,276.262 274.404,277.262 272.5,277.5C 273.262,275.738 274.596,274.738 276.5,274.5 Z"/></g>
<g><path style="opacity:0.945" fill="#ad0d0d" d="M 166.5,278.5 C 166.262,280.404 165.262,281.738 163.5,282.5C 163.738,280.596 164.738,279.262 166.5,278.5 Z"/></g>
<g><path style="opacity:0.906" fill="#ab0d0d" d="M 163.5,282.5 C 163.573,284.027 162.906,285.027 161.5,285.5C 161.427,283.973 162.094,282.973 163.5,282.5 Z"/></g>
<g><path style="opacity:0.945" fill="#ab0d0d" d="M 23.5,284.5 C 25.2624,285.262 26.2624,286.596 26.5,288.5C 24.7376,287.738 23.7376,286.404 23.5,284.5 Z"/></g>
<g><path style="opacity:0.945" fill="#a90d0d" d="M 236.5,288.5 C 238.404,288.738 239.738,289.738 240.5,291.5C 238.596,291.262 237.262,290.262 236.5,288.5 Z"/></g>
<g><path style="opacity:0.918" fill="#a60c0c" d="M 26.5,288.5 C 28.2624,289.262 29.2624,290.596 29.5,292.5C 27.7376,291.738 26.7376,290.404 26.5,288.5 Z"/></g>
<g><path style="opacity:0.945" fill="#ad0d0d" d="M 158.5,289.5 C 158.262,291.404 157.262,292.738 155.5,293.5C 155.738,291.596 156.738,290.262 158.5,289.5 Z"/></g>
<g><path style="opacity:0.875" fill="#a90c0c" d="M 29.5,292.5 C 30.9063,292.973 31.573,293.973 31.5,295.5C 30.0937,295.027 29.427,294.027 29.5,292.5 Z"/></g>
<g><path style="opacity:0.906" fill="#ac0d0d" d="M 155.5,293.5 C 155.573,295.027 154.906,296.027 153.5,296.5C 153.427,294.973 154.094,293.973 155.5,293.5 Z"/></g>
<g><path style="opacity:0.945" fill="#ad0d0d" d="M 34.5,299.5 C 36.2624,300.262 37.2624,301.596 37.5,303.5C 35.7376,302.738 34.7376,301.404 34.5,299.5 Z"/></g>
<g><path style="opacity:0.949" fill="#ad0d0d" d="M 150.5,300.5 C 150.262,302.404 149.262,303.738 147.5,304.5C 147.738,302.596 148.738,301.262 150.5,300.5 Z"/></g>
<g><path style="opacity:0.918" fill="#a60c0c" d="M 37.5,303.5 C 39.2624,304.262 40.2624,305.596 40.5,307.5C 38.7376,306.738 37.7376,305.404 37.5,303.5 Z"/></g>
<g><path style="opacity:0.906" fill="#ac0d0d" d="M 147.5,304.5 C 147.573,306.027 146.906,307.027 145.5,307.5C 145.427,305.973 146.094,304.973 147.5,304.5 Z"/></g>
<g><path style="opacity:0.878" fill="#a80c0c" d="M 40.5,307.5 C 41.9063,307.973 42.573,308.973 42.5,310.5C 41.0937,310.027 40.427,309.027 40.5,307.5 Z"/></g>
<g><path style="opacity:0.949" fill="#ab0d0d" d="M 142.5,311.5 C 142.262,313.404 141.262,314.738 139.5,315.5C 139.738,313.596 140.738,312.262 142.5,311.5 Z"/></g>
<g><path style="opacity:1" fill="#e91111" d="M 328.5,377.5 C 371.168,377.333 413.835,377.5 456.5,378C 459.494,378.406 461.661,379.906 463,382.5C 463.167,393.833 463.333,405.167 463.5,416.5C 463.647,428.592 463.147,440.592 462,452.5C 461.097,453.701 459.931,454.535 458.5,455C 413.75,455.989 369.083,455.656 324.5,454C 323.667,453.167 322.833,452.333 322,451.5C 321.333,428.5 321.333,405.5 322,382.5C 323.563,379.977 325.73,378.31 328.5,377.5 Z M 337.5,393.5 C 374.167,393.5 410.833,393.5 447.5,393.5C 447.5,408.833 447.5,424.167 447.5,439.5C 410.833,439.5 374.167,439.5 337.5,439.5C 337.5,424.167 337.5,408.833 337.5,393.5 Z"/></g>
<g><path style="opacity:0.973" fill="#a80c0d" d="M 240.5,381.5 C 240.027,382.906 239.027,383.573 237.5,383.5C 237.973,382.094 238.973,381.427 240.5,381.5 Z"/></g>
<g><path style="opacity:1" fill="#b80d0e" d="M 237.5,383.5 C 236.415,385.587 234.749,386.92 232.5,387.5C 233.585,385.413 235.251,384.08 237.5,383.5 Z"/></g>
<g><path style="opacity:0.071" fill="#950b0b" d="M 285.5,386.5 C 287.5,386.5 288.5,387.5 288.5,389.5C 287.167,388.833 286.167,387.833 285.5,386.5 Z"/></g>
<g><path style="opacity:0.992" fill="#ab0d0d" d="M 229.5,390.5 C 229.262,392.404 228.262,393.738 226.5,394.5C 226.738,392.596 227.738,391.262 229.5,390.5 Z"/></g>
<g><path style="opacity:0.953" fill="#ae0d0d" d="M 290.5,391.5 C 292.262,392.262 293.262,393.596 293.5,395.5C 291.738,394.738 290.738,393.404 290.5,391.5 Z"/></g>
<g><path style="opacity:0.957" fill="#a50c0c" d="M 272.5,395.5 C 274.027,395.427 275.027,396.094 275.5,397.5C 273.973,397.573 272.973,396.906 272.5,395.5 Z"/></g>
<g><path style="opacity:0.016" fill="#840a0a" d="M 243.5,398.5 C 243.167,399.5 242.5,400.167 241.5,400.5C 241.5,399.167 242.167,398.5 243.5,398.5 Z"/></g>
<g><path style="opacity:0.996" fill="#ac0d0d" d="M 279.5,402.5 C 281.048,402.821 281.715,403.821 281.5,405.5C 280.599,404.71 279.932,403.71 279.5,402.5 Z"/></g>
<g><path style="opacity:0.965" fill="#a30c0c" d="M 238.5,429.5 C 240.262,430.262 241.262,431.596 241.5,433.5C 239.738,432.738 238.738,431.404 238.5,429.5 Z"/></g>
<g><path style="opacity:0.796" fill="#a30c0c" d="M 281.5,428.5 C 281.573,430.027 280.906,431.027 279.5,431.5C 279.427,429.973 280.094,428.973 281.5,428.5 Z"/></g>
<g><path style="opacity:0.992" fill="#bf0e0e" d="M 279.5,431.5 C 278.833,434.167 277.167,435.833 274.5,436.5C 275.833,434.5 277.5,432.833 279.5,431.5 Z"/></g>
<g><path style="opacity:1" fill="#ae0d0d" d="M 245.5,436.5 C 246.71,436.932 247.71,437.599 248.5,438.5C 246.821,438.715 245.821,438.048 245.5,436.5 Z"/></g>
<g><path style="opacity:0.961" fill="#a50c0c" d="M 272.5,437.5 C 272.027,438.906 271.027,439.573 269.5,439.5C 269.973,438.094 270.973,437.427 272.5,437.5 Z"/></g>
<g><path style="opacity:0.753" fill="#960b0b" d="M 337.5,393.5 C 337.5,408.833 337.5,424.167 337.5,439.5C 374.167,439.5 410.833,439.5 447.5,439.5C 447.5,424.167 447.5,408.833 447.5,393.5C 448.496,408.991 448.83,424.658 448.5,440.5C 411.167,440.5 373.833,440.5 336.5,440.5C 336.17,424.658 336.504,408.991 337.5,393.5 Z M 337.5,393.5 C 374.167,393.5 410.833,393.5 447.5,393.5C 447.5,408.833 447.5,424.167 447.5,439.5C 410.833,439.5 374.167,439.5 337.5,439.5C 337.5,424.167 337.5,408.833 337.5,393.5 Z"/></g>
<g><path style="opacity:0.024" fill="#8f0a0b" d="M 291.5,440.5 C 291.573,442.027 290.906,443.027 289.5,443.5C 289.427,441.973 290.094,440.973 291.5,440.5 Z"/></g>
<g><path style="opacity:0.008" fill="#910b0b" d="M 230.5,443.5 C 232.167,444.5 233.5,445.833 234.5,447.5C 232.167,447.167 230.833,445.833 230.5,443.5 Z"/></g>
<g><path style="opacity:0.925" fill="#a80c0c" d="M 234.5,447.5 C 236.404,447.738 237.738,448.738 238.5,450.5C 236.596,450.262 235.262,449.262 234.5,447.5 Z"/></g>
<g><path style="opacity:0.969" fill="#9f0c0c" d="M 56.5,475.5 C 58.1667,476.5 59.5,477.833 60.5,479.5C 58.1667,479.167 56.8333,477.833 56.5,475.5 Z"/></g>
<g><path style="opacity:1" fill="#b10d0e" d="M 60.5,479.5 C 61.7095,479.932 62.7095,480.599 63.5,481.5C 61.8212,481.715 60.8212,481.048 60.5,479.5 Z"/></g>
<g><path style="opacity:0.722" fill="#980b0b" d="M 50.5,491.5 C 52.0269,491.427 53.0269,492.094 53.5,493.5C 51.9731,493.573 50.9731,492.906 50.5,491.5 Z"/></g>
</svg>
