<svg width="450" height="450" viewBox="0 0 450 450" fill="none" xmlns="http://www.w3.org/2000/svg">
<path d="M355.135 25.8242C317.005 25.8242 286.095 56.7347 286.095 94.8647C286.095 132.995 317.005 163.905 355.135 163.905C393.265 163.905 424.176 132.995 424.176 94.8647L424.176 25.8242L355.135 25.8242Z" stroke="#C5184F" stroke-width="3"/>
<circle cx="251.212" cy="89.2115" r="5.21125" fill="#A9A4A4"/>
<circle cx="251.211" cy="126.469" r="5.21125" fill="#A9A4A4"/>
<circle cx="251.854" cy="163.726" r="5.21125" fill="#A9A4A4"/>
<circle cx="251.854" cy="200.984" r="5.21125" fill="#A9A4A4"/>
<circle cx="288.469" cy="89.2113" r="5.21125" fill="#A9A4A4"/>
<circle cx="288.469" cy="126.469" r="5.21125" fill="#A9A4A4"/>
<circle cx="289.111" cy="163.726" r="5.21125" fill="#A9A4A4"/>
<circle cx="289.111" cy="200.984" r="5.21125" fill="#A9A4A4"/>
<circle cx="325.726" cy="89.2113" r="5.21125" fill="#A9A4A4"/>
<circle cx="325.726" cy="126.469" r="5.21125" fill="#A9A4A4"/>
<circle cx="326.369" cy="163.726" r="5.21125" fill="#A9A4A4"/>
<circle cx="326.369" cy="200.984" r="5.21125" fill="#A9A4A4"/>
<circle cx="362.984" cy="89.2113" r="5.21125" fill="#A9A4A4"/>
<circle cx="362.984" cy="126.469" r="5.21125" fill="#A9A4A4"/>
<circle cx="363.626" cy="163.726" r="5.21125" fill="#A9A4A4"/>
<circle cx="363.626" cy="200.984" r="5.21125" fill="#A9A4A4"/>
<circle cx="251.212" cy="239.212" r="5.21125" fill="#A9A4A4"/>
<circle cx="251.211" cy="276.469" r="5.21125" fill="#A9A4A4"/>
<circle cx="251.854" cy="313.726" r="5.21125" fill="#A9A4A4"/>
<circle cx="251.854" cy="350.984" r="5.21125" fill="#A9A4A4"/>
<circle cx="288.469" cy="239.211" r="5.21125" fill="#A9A4A4"/>
<circle cx="288.469" cy="276.469" r="5.21125" fill="#A9A4A4"/>
<circle cx="289.111" cy="313.726" r="5.21125" fill="#A9A4A4"/>
<circle cx="289.111" cy="350.984" r="5.21125" fill="#A9A4A4"/>
<circle cx="325.726" cy="239.211" r="5.21125" fill="#A9A4A4"/>
<circle cx="325.726" cy="276.469" r="5.21125" fill="#A9A4A4"/>
<circle cx="326.369" cy="313.726" r="5.21125" fill="#A9A4A4"/>
<circle cx="326.369" cy="350.984" r="5.21125" fill="#A9A4A4"/>
<circle cx="362.984" cy="239.211" r="5.21125" fill="#A9A4A4"/>
<circle cx="362.984" cy="276.469" r="5.21125" fill="#A9A4A4"/>
<circle cx="363.626" cy="313.726" r="5.21125" fill="#A9A4A4"/>
<circle cx="363.626" cy="350.984" r="5.21125" fill="#A9A4A4"/>
</svg>
