<svg width="450" height="450" viewBox="0 0 450 450" fill="none" xmlns="http://www.w3.org/2000/svg">
<path d="M158.5 329C158.5 276.249 201.04 233.5 253.5 233.5C305.96 233.5 348.5 276.249 348.5 329C348.5 381.751 305.96 424.5 253.5 424.5L158.5 424.5L158.5 329Z" stroke="#C5184F" stroke-width="3"/>
<path d="M190.5 329C190.5 293.93 218.93 265.5 254 265.5C289.07 265.5 317.5 293.93 317.5 329C317.5 364.07 289.07 392.5 254 392.5L190.5 392.5L190.5 329Z" stroke="#C5184F" stroke-width="3"/>
<circle cx="105.212" cy="187.212" r="5.21125" fill="#A9A4A4"/>
<circle cx="105.211" cy="224.469" r="5.21125" fill="#A9A4A4"/>
<circle cx="105.854" cy="261.726" r="5.21125" fill="#A9A4A4"/>
<circle cx="105.854" cy="298.984" r="5.21125" fill="#A9A4A4"/>
<circle cx="106.211" cy="336.211" r="5.21125" fill="#A9A4A4"/>
<circle cx="142.469" cy="187.211" r="5.21125" fill="#A9A4A4"/>
<circle cx="142.469" cy="224.469" r="5.21125" fill="#A9A4A4"/>
<circle cx="143.111" cy="261.726" r="5.21125" fill="#A9A4A4"/>
<circle cx="143.111" cy="298.984" r="5.21125" fill="#A9A4A4"/>
<circle cx="143.469" cy="336.211" r="5.21125" fill="#A9A4A4"/>
<circle cx="179.726" cy="187.211" r="5.21125" fill="#A9A4A4"/>
<circle cx="179.726" cy="224.469" r="5.21125" fill="#A9A4A4"/>
<circle cx="180.369" cy="261.726" r="5.21125" fill="#A9A4A4"/>
<circle cx="180.369" cy="298.984" r="5.21125" fill="#A9A4A4"/>
<circle cx="180.726" cy="336.211" r="5.21125" fill="#A9A4A4"/>
<circle cx="216.984" cy="187.211" r="5.21125" fill="#A9A4A4"/>
<circle cx="254.211" cy="187.211" r="5.21125" fill="#A9A4A4"/>
<circle cx="216.984" cy="224.469" r="5.21125" fill="#A9A4A4"/>
<circle cx="254.211" cy="224.469" r="5.21125" fill="#A9A4A4"/>
<circle cx="217.626" cy="261.726" r="5.21125" fill="#A9A4A4"/>
<circle cx="254.853" cy="261.726" r="5.21125" fill="#A9A4A4"/>
<circle cx="217.626" cy="298.984" r="5.21125" fill="#A9A4A4"/>
<circle cx="217.984" cy="336.211" r="5.21125" fill="#A9A4A4"/>
<circle cx="254.853" cy="298.984" r="5.21125" fill="#A9A4A4"/>
<circle cx="255.211" cy="336.211" r="5.21125" fill="#A9A4A4"/>
</svg>
