<svg width="450" height="450" viewBox="0 0 450 450" fill="none" xmlns="http://www.w3.org/2000/svg">
<rect x="37.9863" y="39.2026" width="312" height="312" stroke="#C5184F" stroke-width="3"/>
<circle cx="200.212" cy="200.212" r="5.21125" fill="#A9A4A4"/>
<circle cx="200.211" cy="237.469" r="5.21125" fill="#A9A4A4"/>
<circle cx="200.854" cy="274.726" r="5.21125" fill="#A9A4A4"/>
<circle cx="200.854" cy="311.984" r="5.21125" fill="#A9A4A4"/>
<circle cx="201.211" cy="349.211" r="5.21125" fill="#A9A4A4"/>
<circle cx="201.211" cy="386.211" r="5.21125" fill="#A9A4A4"/>
<circle cx="237.469" cy="200.211" r="5.21125" fill="#A9A4A4"/>
<circle cx="237.469" cy="237.469" r="5.21125" fill="#A9A4A4"/>
<circle cx="238.111" cy="274.726" r="5.21125" fill="#A9A4A4"/>
<circle cx="238.111" cy="311.984" r="5.21125" fill="#A9A4A4"/>
<circle cx="238.469" cy="349.211" r="5.21125" fill="#A9A4A4"/>
<circle cx="238.469" cy="386.211" r="5.21125" fill="#A9A4A4"/>
<circle cx="274.726" cy="200.211" r="5.21125" fill="#A9A4A4"/>
<circle cx="274.726" cy="237.469" r="5.21125" fill="#A9A4A4"/>
<circle cx="275.369" cy="274.726" r="5.21125" fill="#A9A4A4"/>
<circle cx="275.369" cy="311.984" r="5.21125" fill="#A9A4A4"/>
<circle cx="275.726" cy="349.211" r="5.21125" fill="#A9A4A4"/>
<circle cx="275.726" cy="386.211" r="5.21125" fill="#A9A4A4"/>
<circle cx="311.984" cy="200.211" r="5.21125" fill="#A9A4A4"/>
<circle cx="349.211" cy="200.211" r="5.21125" fill="#A9A4A4"/>
<circle cx="387.211" cy="200.211" r="5.21125" fill="#A9A4A4"/>
<circle cx="311.984" cy="237.469" r="5.21125" fill="#A9A4A4"/>
<circle cx="349.211" cy="237.469" r="5.21125" fill="#A9A4A4"/>
<circle cx="387.211" cy="237.469" r="5.21125" fill="#A9A4A4"/>
<circle cx="312.626" cy="274.726" r="5.21125" fill="#A9A4A4"/>
<circle cx="349.853" cy="274.726" r="5.21125" fill="#A9A4A4"/>
<circle cx="387.853" cy="274.726" r="5.21125" fill="#A9A4A4"/>
<circle cx="312.626" cy="311.984" r="5.21125" fill="#A9A4A4"/>
<circle cx="312.984" cy="349.211" r="5.21125" fill="#A9A4A4"/>
<circle cx="312.984" cy="386.211" r="5.21125" fill="#A9A4A4"/>
<circle cx="349.853" cy="311.984" r="5.21125" fill="#A9A4A4"/>
<circle cx="350.211" cy="349.211" r="5.21125" fill="#A9A4A4"/>
<circle cx="350.211" cy="386.211" r="5.21125" fill="#A9A4A4"/>
<circle cx="387.853" cy="311.984" r="5.21125" fill="#A9A4A4"/>
<circle cx="388.211" cy="349.211" r="5.21125" fill="#A9A4A4"/>
<circle cx="388.211" cy="386.211" r="5.21125" fill="#A9A4A4"/>
</svg>
