<svg width="450" height="450" viewBox="0 0 450 450" fill="none" xmlns="http://www.w3.org/2000/svg">
<path d="M224.068 329.595C224.068 284.086 261.23 247.176 307.095 247.176C352.959 247.176 390.122 284.086 390.122 329.595C390.122 375.103 352.959 412.014 307.095 412.014C261.23 412.014 224.068 375.103 224.068 329.595Z" stroke="#C5184F" stroke-width="3"/>
<path d="M278.797 328.987C278.797 313.358 291.467 300.689 307.095 300.689C322.723 300.689 335.392 313.358 335.392 328.987C335.392 344.615 322.723 357.284 307.095 357.284C291.467 357.284 278.797 344.615 278.797 328.987Z" stroke="#C5184F" stroke-width="3"/>
<circle cx="173.212" cy="252.211" r="5.21125" fill="#A9A4A4"/>
<circle cx="173.211" cy="289.469" r="5.21125" fill="#A9A4A4"/>
<circle cx="173.854" cy="326.726" r="5.21125" fill="#A9A4A4"/>
<circle cx="173.854" cy="363.984" r="5.21125" fill="#A9A4A4"/>
<circle cx="210.469" cy="252.211" r="5.21125" fill="#A9A4A4"/>
<circle cx="210.469" cy="289.469" r="5.21125" fill="#A9A4A4"/>
<circle cx="211.111" cy="326.726" r="5.21125" fill="#A9A4A4"/>
<circle cx="211.111" cy="363.984" r="5.21125" fill="#A9A4A4"/>
<circle cx="247.727" cy="252.211" r="5.21125" fill="#A9A4A4"/>
<circle cx="247.727" cy="289.469" r="5.21125" fill="#A9A4A4"/>
<circle cx="248.369" cy="326.726" r="5.21125" fill="#A9A4A4"/>
<circle cx="248.369" cy="363.984" r="5.21125" fill="#A9A4A4"/>
<circle cx="284.984" cy="252.211" r="5.21125" fill="#A9A4A4"/>
<circle cx="284.984" cy="289.469" r="5.21125" fill="#A9A4A4"/>
<circle cx="285.627" cy="326.726" r="5.21125" fill="#A9A4A4"/>
<circle cx="285.627" cy="363.984" r="5.21125" fill="#A9A4A4"/>
<circle cx="323.211" cy="252.211" r="5.21125" fill="#A9A4A4"/>
<circle cx="323.211" cy="289.469" r="5.21125" fill="#A9A4A4"/>
<circle cx="323.854" cy="326.726" r="5.21125" fill="#A9A4A4"/>
<circle cx="323.854" cy="363.984" r="5.21125" fill="#A9A4A4"/>
<circle cx="360.469" cy="252.211" r="5.21125" fill="#A9A4A4"/>
<circle cx="360.469" cy="289.469" r="5.21125" fill="#A9A4A4"/>
<circle cx="361.111" cy="326.726" r="5.21125" fill="#A9A4A4"/>
<circle cx="361.111" cy="363.984" r="5.21125" fill="#A9A4A4"/>
<circle cx="397.727" cy="252.211" r="5.21125" fill="#A9A4A4"/>
<circle cx="397.727" cy="289.469" r="5.21125" fill="#A9A4A4"/>
<circle cx="398.369" cy="326.726" r="5.21125" fill="#A9A4A4"/>
<circle cx="398.369" cy="363.984" r="5.21125" fill="#A9A4A4"/>
</svg>
