<?xml version="1.0" encoding="UTF-8"?>
<!DOCTYPE svg PUBLIC "-//W3C//DTD SVG 1.1//EN" "http://www.w3.org/Graphics/SVG/1.1/DTD/svg11.dtd">
<svg xmlns="http://www.w3.org/2000/svg" version="1.1" width="1965px" height="1965px" style="shape-rendering:geometricPrecision; text-rendering:geometricPrecision; image-rendering:optimizeQuality; fill-rule:evenodd; clip-rule:evenodd" xmlns:xlink="http://www.w3.org/1999/xlink">
<g><path style="opacity:1" fill="#fdfdfd" d="M 936.5,-0.5 C 966.833,-0.5 997.167,-0.5 1027.5,-0.5C 1265.97,13.2904 1473.31,99.7904 1649.5,259C 1661.06,270.729 1672.73,282.229 1684.5,293.5C 1684.43,295.027 1685.09,296.027 1686.5,296.5C 1692.5,301.833 1698.17,307.5 1703.5,313.5C 1703.43,315.027 1704.09,316.027 1705.5,316.5C 1707.83,318.167 1709.83,320.167 1711.5,322.5C 1712.08,324.749 1713.41,326.415 1715.5,327.5C 1720.19,331.222 1724.19,335.555 1727.5,340.5C 1727.43,342.027 1728.09,343.027 1729.5,343.5C 1732.96,346.415 1735.96,349.748 1738.5,353.5C 1738.43,355.027 1739.09,356.027 1740.5,356.5C 1745.87,361.575 1750.54,367.241 1754.5,373.5C 1754.43,375.027 1755.09,376.027 1756.5,376.5C 1757.17,376.5 1757.5,376.833 1757.5,377.5C 1757.74,379.404 1758.74,380.738 1760.5,381.5C 1761.17,381.5 1761.5,381.833 1761.5,382.5C 1761.43,384.027 1762.09,385.027 1763.5,385.5C 1764.17,385.5 1764.5,385.833 1764.5,386.5C 1764.43,388.027 1765.09,389.027 1766.5,389.5C 1767.17,389.5 1767.5,389.833 1767.5,390.5C 1767.43,392.027 1768.09,393.027 1769.5,393.5C 1770.17,393.5 1770.5,393.833 1770.5,394.5C 1770.43,396.027 1771.09,397.027 1772.5,397.5C 1773.17,397.5 1773.5,397.833 1773.5,398.5C 1773.43,400.027 1774.09,401.027 1775.5,401.5C 1776.17,401.5 1776.5,401.833 1776.5,402.5C 1776.43,404.027 1777.09,405.027 1778.5,405.5C 1779.97,406.436 1780.97,407.77 1781.5,409.5C 1781.43,411.027 1782.09,412.027 1783.5,412.5C 1783.43,414.027 1784.09,415.027 1785.5,415.5C 1786.17,415.5 1786.5,415.833 1786.5,416.5C 1786.43,418.027 1787.09,419.027 1788.5,419.5C 1788.43,421.027 1789.09,422.027 1790.5,422.5C 1790.43,424.027 1791.09,425.027 1792.5,425.5C 1795.31,428.446 1797.65,431.779 1799.5,435.5C 1799.43,437.027 1800.09,438.027 1801.5,438.5C 1803.66,440.822 1805.33,443.489 1806.5,446.5C 1806.43,448.027 1807.09,449.027 1808.5,449.5C 1809.91,449.973 1810.57,450.973 1810.5,452.5C 1810.43,454.027 1811.09,455.027 1812.5,455.5C 1815.92,459.323 1818.58,463.657 1820.5,468.5C 1820.43,470.027 1821.09,471.027 1822.5,471.5C 1824.59,473.336 1825.92,475.669 1826.5,478.5C 1826.43,480.027 1827.09,481.027 1828.5,481.5C 1832,486.502 1835,491.835 1837.5,497.5C 1837.43,499.027 1838.09,500.027 1839.5,500.5C 1841.01,502.181 1842.01,504.181 1842.5,506.5C 1842.43,508.027 1843.09,509.027 1844.5,509.5C 1917.19,642.93 1957.19,785.596 1964.5,937.5C 1964.5,967.167 1964.5,996.833 1964.5,1026.5C 1950.2,1275.68 1857.37,1490.01 1686,1669.5C 1504.17,1850.97 1284.34,1949.3 1026.5,1964.5C 996.833,1964.5 967.167,1964.5 937.5,1964.5C 785.596,1957.19 642.93,1917.19 509.5,1844.5C 509.027,1843.09 508.027,1842.43 506.5,1842.5C 504.181,1842.01 502.181,1841.01 500.5,1839.5C 500.027,1838.09 499.027,1837.43 497.5,1837.5C 491.835,1835 486.502,1832 481.5,1828.5C 481.027,1827.09 480.027,1826.43 478.5,1826.5C 475.669,1825.92 473.336,1824.59 471.5,1822.5C 471.027,1821.09 470.027,1820.43 468.5,1820.5C 463.657,1818.58 459.323,1815.92 455.5,1812.5C 455.027,1811.09 454.027,1810.43 452.5,1810.5C 450.973,1810.57 449.973,1809.91 449.5,1808.5C 449.027,1807.09 448.027,1806.43 446.5,1806.5C 443.489,1805.33 440.822,1803.66 438.5,1801.5C 438.027,1800.09 437.027,1799.43 435.5,1799.5C 435.027,1798.09 434.027,1797.43 432.5,1797.5C 429.865,1796.19 427.531,1794.52 425.5,1792.5C 425.027,1791.09 424.027,1790.43 422.5,1790.5C 422.027,1789.09 421.027,1788.43 419.5,1788.5C 419.027,1787.09 418.027,1786.43 416.5,1786.5C 415.833,1786.5 415.5,1786.17 415.5,1785.5C 415.027,1784.09 414.027,1783.43 412.5,1783.5C 412.027,1782.09 411.027,1781.43 409.5,1781.5C 407.77,1780.97 406.436,1779.97 405.5,1778.5C 405.027,1777.09 404.027,1776.43 402.5,1776.5C 401.833,1776.5 401.5,1776.17 401.5,1775.5C 401.027,1774.09 400.027,1773.43 398.5,1773.5C 397.833,1773.5 397.5,1773.17 397.5,1772.5C 397.027,1771.09 396.027,1770.43 394.5,1770.5C 393.833,1770.5 393.5,1770.17 393.5,1769.5C 393.027,1768.09 392.027,1767.43 390.5,1767.5C 389.833,1767.5 389.5,1767.17 389.5,1766.5C 389.027,1765.09 388.027,1764.43 386.5,1764.5C 385.833,1764.5 385.5,1764.17 385.5,1763.5C 385.027,1762.09 384.027,1761.43 382.5,1761.5C 381.833,1761.5 381.5,1761.17 381.5,1760.5C 380.738,1758.74 379.404,1757.74 377.5,1757.5C 376.833,1757.5 376.5,1757.17 376.5,1756.5C 376.027,1755.09 375.027,1754.43 373.5,1754.5C 367.241,1750.54 361.575,1745.87 356.5,1740.5C 356.027,1739.09 355.027,1738.43 353.5,1738.5C 349.748,1735.96 346.415,1732.96 343.5,1729.5C 343.027,1728.09 342.027,1727.43 340.5,1727.5C 335.555,1724.19 331.222,1720.19 327.5,1715.5C 326.415,1713.41 324.749,1712.08 322.5,1711.5C 320.167,1709.83 318.167,1707.83 316.5,1705.5C 316.027,1704.09 315.027,1703.43 313.5,1703.5C 307.5,1698.17 301.833,1692.5 296.5,1686.5C 296.027,1685.09 295.027,1684.43 293.5,1684.5C 133.54,1525.58 38.0402,1333.58 7,1108.5C 3.71648,1081.08 1.21648,1053.75 -0.5,1026.5C -0.5,996.833 -0.5,967.167 -0.5,937.5C 7.12092,782.005 48.7876,636.338 124.5,500.5C 125.906,500.027 126.573,499.027 126.5,497.5C 128.997,491.835 131.997,486.502 135.5,481.5C 136.906,481.027 137.573,480.027 137.5,478.5C 138.079,475.669 139.412,473.336 141.5,471.5C 142.906,471.027 143.573,470.027 143.5,468.5C 148.42,458.986 154.086,449.986 160.5,441.5C 161.906,441.027 162.573,440.027 162.5,438.5C 163.906,438.027 164.573,437.027 164.5,435.5C 165.906,435.027 166.573,434.027 166.5,432.5C 167.811,429.865 169.478,427.531 171.5,425.5C 172.906,425.027 173.573,424.027 173.5,422.5C 174.906,422.027 175.573,421.027 175.5,419.5C 176.906,419.027 177.573,418.027 177.5,416.5C 178.026,414.77 179.026,413.436 180.5,412.5C 181.906,412.027 182.573,411.027 182.5,409.5C 183.026,407.77 184.026,406.436 185.5,405.5C 186.906,405.027 187.573,404.027 187.5,402.5C 187.5,401.833 187.833,401.5 188.5,401.5C 189.906,401.027 190.573,400.027 190.5,398.5C 190.5,397.833 190.833,397.5 191.5,397.5C 192.906,397.027 193.573,396.027 193.5,394.5C 194.124,392.246 195.457,390.579 197.5,389.5C 198.906,389.027 199.573,388.027 199.5,386.5C 199.5,385.833 199.833,385.5 200.5,385.5C 201.906,385.027 202.573,384.027 202.5,382.5C 202.5,381.833 202.833,381.5 203.5,381.5C 205.262,380.738 206.262,379.404 206.5,377.5C 206.5,376.833 206.833,376.5 207.5,376.5C 208.906,376.027 209.573,375.027 209.5,373.5C 213.461,367.241 218.127,361.575 223.5,356.5C 224.906,356.027 225.573,355.027 225.5,353.5C 228.041,349.748 231.041,346.415 234.5,343.5C 235.906,343.027 236.573,342.027 236.5,340.5C 243.493,332.174 250.826,324.174 258.5,316.5C 260.587,315.415 261.92,313.749 262.5,311.5C 266.833,306.5 271.5,301.833 276.5,297.5C 283.833,290.833 290.833,283.833 297.5,276.5C 300.5,272.833 303.833,269.5 307.5,266.5C 311.1,264.57 314.1,261.903 316.5,258.5C 317.5,256.833 318.833,255.5 320.5,254.5C 323.427,253.243 325.761,251.243 327.5,248.5C 328.167,247.167 329.167,246.167 330.5,245.5C 332.749,244.92 334.415,243.587 335.5,241.5C 336.167,240.167 337.167,239.167 338.5,238.5C 340.749,237.92 342.415,236.587 343.5,234.5C 345.549,231.45 348.216,229.117 351.5,227.5C 353.749,226.92 355.415,225.587 356.5,223.5C 361.575,218.127 367.241,213.461 373.5,209.5C 375.027,209.573 376.027,208.906 376.5,207.5C 376.5,206.833 376.833,206.5 377.5,206.5C 379.404,206.262 380.738,205.262 381.5,203.5C 381.5,202.833 381.833,202.5 382.5,202.5C 384.027,202.573 385.027,201.906 385.5,200.5C 390.858,195.814 396.525,191.481 402.5,187.5C 404.027,187.573 405.027,186.906 405.5,185.5C 406.436,184.026 407.77,183.026 409.5,182.5C 411.027,182.573 412.027,181.906 412.5,180.5C 413.436,179.026 414.77,178.026 416.5,177.5C 418.027,177.573 419.027,176.906 419.5,175.5C 423.535,172.143 427.868,169.143 432.5,166.5C 434.027,166.573 435.027,165.906 435.5,164.5C 437.027,164.573 438.027,163.906 438.5,162.5C 440.027,162.573 441.027,161.906 441.5,160.5C 449.986,154.086 458.986,148.42 468.5,143.5C 470.027,143.573 471.027,142.906 471.5,141.5C 479.832,135.998 488.499,130.998 497.5,126.5C 499.027,126.573 500.027,125.906 500.5,124.5C 636.027,48.9486 781.36,7.28192 936.5,-0.5 Z M 1404.5,215.5 C 1404.97,216.906 1405.97,217.573 1407.5,217.5C 1413.17,221.337 1419.17,224.67 1425.5,227.5C 1425.97,228.906 1426.97,229.573 1428.5,229.5C 1428.84,230.338 1429.51,230.672 1430.5,230.5C 1430.97,231.906 1431.97,232.573 1433.5,232.5C 1433.84,233.338 1434.51,233.672 1435.5,233.5C 1435.97,234.906 1436.97,235.573 1438.5,235.5C 1441.49,238 1444.83,240 1448.5,241.5C 1448.97,242.906 1449.97,243.573 1451.5,243.5C 1451.97,244.906 1452.97,245.573 1454.5,245.5C 1455.9,246.89 1457.57,247.89 1459.5,248.5C 1459.97,249.906 1460.97,250.573 1462.5,250.5C 1462.97,251.906 1463.97,252.573 1465.5,252.5C 1465.97,253.906 1466.97,254.573 1468.5,254.5C 1468.97,255.906 1469.97,256.573 1471.5,256.5C 1471.97,257.906 1472.97,258.573 1474.5,258.5C 1475.44,259.974 1476.77,260.974 1478.5,261.5C 1478.97,262.906 1479.97,263.573 1481.5,263.5C 1481.97,264.906 1482.97,265.573 1484.5,265.5C 1485.44,266.974 1486.77,267.974 1488.5,268.5C 1488.97,269.906 1489.97,270.573 1491.5,270.5C 1492.44,271.974 1493.77,272.974 1495.5,273.5C 1495.97,274.906 1496.97,275.573 1498.5,275.5C 1498.5,276.167 1498.83,276.5 1499.5,276.5C 1499.97,277.906 1500.97,278.573 1502.5,278.5C 1503.26,280.262 1504.6,281.262 1506.5,281.5C 1507.26,283.262 1508.6,284.262 1510.5,284.5C 1511.26,286.262 1512.6,287.262 1514.5,287.5C 1514.5,288.167 1514.83,288.5 1515.5,288.5C 1515.97,289.906 1516.97,290.573 1518.5,290.5C 1518.5,291.167 1518.83,291.5 1519.5,291.5C 1520.26,293.262 1521.6,294.262 1523.5,294.5C 1523.5,295.167 1523.83,295.5 1524.5,295.5C 1525.26,297.262 1526.6,298.262 1528.5,298.5C 1528.5,299.167 1528.83,299.5 1529.5,299.5C 1530.26,301.262 1531.6,302.262 1533.5,302.5C 1535.23,305.2 1537.57,307.2 1540.5,308.5C 1541.26,310.262 1542.6,311.262 1544.5,311.5C 1545.5,313.167 1546.83,314.5 1548.5,315.5C 1548.97,316.906 1549.97,317.573 1551.5,317.5C 1552.5,319.167 1553.83,320.5 1555.5,321.5C 1555.97,322.906 1556.97,323.573 1558.5,323.5C 1562.89,328.854 1567.89,333.52 1573.5,337.5C 1574.91,339.914 1576.91,341.581 1579.5,342.5C 1759.7,516.713 1852.03,729.88 1856.5,982C 1855.7,1126.71 1822.03,1263.21 1755.5,1391.5C 1754.09,1391.97 1753.43,1392.97 1753.5,1394.5C 1744.42,1410.99 1735.09,1427.32 1725.5,1443.5C 1724.09,1443.97 1723.43,1444.97 1723.5,1446.5C 1722.11,1447.9 1721.11,1449.57 1720.5,1451.5C 1719.09,1451.97 1718.43,1452.97 1718.5,1454.5C 1716.34,1456.82 1714.67,1459.49 1713.5,1462.5C 1712.09,1462.97 1711.43,1463.97 1711.5,1465.5C 1710.09,1465.97 1709.43,1466.97 1709.5,1468.5C 1708.09,1468.97 1707.43,1469.97 1707.5,1471.5C 1705.48,1473.53 1703.81,1475.86 1702.5,1478.5C 1701.09,1478.97 1700.43,1479.97 1700.5,1481.5C 1699.09,1481.97 1698.43,1482.97 1698.5,1484.5C 1697.03,1485.44 1696.03,1486.77 1695.5,1488.5C 1694.09,1488.97 1693.43,1489.97 1693.5,1491.5C 1692.03,1492.44 1691.03,1493.77 1690.5,1495.5C 1689.09,1495.97 1688.43,1496.97 1688.5,1498.5C 1687.83,1498.5 1687.5,1498.83 1687.5,1499.5C 1686.09,1499.97 1685.43,1500.97 1685.5,1502.5C 1683.74,1503.26 1682.74,1504.6 1682.5,1506.5C 1680.74,1507.26 1679.74,1508.6 1679.5,1510.5C 1678.83,1510.5 1678.5,1510.83 1678.5,1511.5C 1677.09,1511.97 1676.43,1512.97 1676.5,1514.5C 1674.46,1515.58 1673.12,1517.25 1672.5,1519.5C 1670.74,1520.26 1669.74,1521.6 1669.5,1523.5C 1668.83,1523.5 1668.5,1523.83 1668.5,1524.5C 1666.74,1525.26 1665.74,1526.6 1665.5,1528.5C 1664.83,1528.5 1664.5,1528.83 1664.5,1529.5C 1662.74,1530.26 1661.74,1531.6 1661.5,1533.5C 1656.82,1538.18 1652.49,1543.18 1648.5,1548.5C 1647.09,1548.97 1646.43,1549.97 1646.5,1551.5C 1642.38,1555.08 1638.71,1559.08 1635.5,1563.5C 1633.74,1564.26 1632.74,1565.6 1632.5,1567.5C 1629.83,1569.5 1627.5,1571.83 1625.5,1574.5C 1623.41,1575.58 1622.08,1577.25 1621.5,1579.5C 1618.17,1582.17 1615.17,1585.17 1612.5,1588.5C 1604.17,1596.17 1596.17,1604.17 1588.5,1612.5C 1585.17,1615.17 1582.17,1618.17 1579.5,1621.5C 1576.24,1623.09 1573.57,1625.43 1571.5,1628.5C 1569.83,1629.5 1568.5,1630.83 1567.5,1632.5C 1564.91,1633.42 1562.91,1635.09 1561.5,1637.5C 1560.17,1638.17 1559.17,1639.17 1558.5,1640.5C 1556.25,1641.08 1554.58,1642.41 1553.5,1644.5C 1552.5,1644.83 1551.83,1645.5 1551.5,1646.5C 1549.25,1647.08 1547.58,1648.41 1546.5,1650.5C 1541.85,1653.82 1537.51,1657.49 1533.5,1661.5C 1531.6,1661.74 1530.26,1662.74 1529.5,1664.5C 1528.83,1664.5 1528.5,1664.83 1528.5,1665.5C 1526.6,1665.74 1525.26,1666.74 1524.5,1668.5C 1523.83,1668.5 1523.5,1668.83 1523.5,1669.5C 1521.6,1669.74 1520.26,1670.74 1519.5,1672.5C 1517.25,1673.12 1515.58,1674.46 1514.5,1676.5C 1512.97,1676.43 1511.97,1677.09 1511.5,1678.5C 1510.83,1678.5 1510.5,1678.83 1510.5,1679.5C 1508.6,1679.74 1507.26,1680.74 1506.5,1682.5C 1504.97,1682.43 1503.97,1683.09 1503.5,1684.5C 1502.83,1684.5 1502.5,1684.83 1502.5,1685.5C 1500.97,1685.43 1499.97,1686.09 1499.5,1687.5C 1496.53,1689.15 1493.86,1691.15 1491.5,1693.5C 1489.97,1693.43 1488.97,1694.09 1488.5,1695.5C 1485.86,1696.81 1483.53,1698.48 1481.5,1700.5C 1479.97,1700.43 1478.97,1701.09 1478.5,1702.5C 1467.8,1709.51 1457.13,1716.51 1446.5,1723.5C 1444.97,1723.43 1443.97,1724.09 1443.5,1725.5C 1427.32,1735.09 1410.99,1744.42 1394.5,1753.5C 1392.97,1753.43 1391.97,1754.09 1391.5,1755.5C 1198.94,1853.79 996.942,1879.96 785.5,1834C 612.998,1793.11 465.998,1708.94 344.5,1581.5C 344.573,1579.97 343.906,1578.97 342.5,1578.5C 336.472,1572.14 330.472,1565.81 324.5,1559.5C 324.573,1557.97 323.906,1556.97 322.5,1556.5C 321.167,1554.5 319.5,1552.83 317.5,1551.5C 317.262,1549.6 316.262,1548.26 314.5,1547.5C 314.167,1546.5 313.5,1545.83 312.5,1545.5C 312.573,1543.97 311.906,1542.97 310.5,1542.5C 309.833,1541.17 308.833,1540.17 307.5,1539.5C 307.262,1537.6 306.262,1536.26 304.5,1535.5C 301.514,1531.18 298.18,1527.18 294.5,1523.5C 294.573,1521.97 293.906,1520.97 292.5,1520.5C 292.5,1519.83 292.167,1519.5 291.5,1519.5C 291.262,1517.6 290.262,1516.26 288.5,1515.5C 288.5,1514.83 288.167,1514.5 287.5,1514.5C 287.573,1512.97 286.906,1511.97 285.5,1511.5C 285.5,1510.83 285.167,1510.5 284.5,1510.5C 284.573,1508.97 283.906,1507.97 282.5,1507.5C 282.5,1506.83 282.167,1506.5 281.5,1506.5C 281.573,1504.97 280.906,1503.97 279.5,1503.5C 279.5,1502.83 279.167,1502.5 278.5,1502.5C 278.573,1500.97 277.906,1499.97 276.5,1499.5C 275.974,1497.77 274.974,1496.44 273.5,1495.5C 273.573,1493.97 272.906,1492.97 271.5,1492.5C 271.5,1491.83 271.167,1491.5 270.5,1491.5C 270.573,1489.97 269.906,1488.97 268.5,1488.5C 268.573,1486.97 267.906,1485.97 266.5,1485.5C 266.5,1484.83 266.167,1484.5 265.5,1484.5C 265.573,1482.97 264.906,1481.97 263.5,1481.5C 263.573,1479.97 262.906,1478.97 261.5,1478.5C 261.573,1476.97 260.906,1475.97 259.5,1475.5C 255.859,1469.21 251.859,1463.21 247.5,1457.5C 247.573,1455.97 246.906,1454.97 245.5,1454.5C 245.573,1452.97 244.906,1451.97 243.5,1451.5C 237.89,1441.23 231.89,1431.23 225.5,1421.5C 225.573,1419.97 224.906,1418.97 223.5,1418.5C 223.34,1416.85 222.674,1415.51 221.5,1414.5C 221.573,1412.97 220.906,1411.97 219.5,1411.5C 219.008,1409.18 218.008,1407.18 216.5,1405.5C 216.573,1403.97 215.906,1402.97 214.5,1402.5C 111.389,1207.22 83.2225,1001.55 130,785.5C 176.871,590.812 277.038,429.979 430.5,303C 617.313,155.432 829.979,91.7657 1068.5,112C 1187.46,124.266 1299.46,158.766 1404.5,215.5 Z"/></g>
<g><path style="opacity:0.984" fill="#bbbbbb" d="M 500.5,124.5 C 500.027,125.906 499.027,126.573 497.5,126.5C 497.973,125.094 498.973,124.427 500.5,124.5 Z"/></g>
<g><path style="opacity:0.984" fill="#bababa" d="M 471.5,141.5 C 471.027,142.906 470.027,143.573 468.5,143.5C 468.973,142.094 469.973,141.427 471.5,141.5 Z"/></g>
<g><path style="opacity:0.984" fill="#b9b9b9" d="M 441.5,160.5 C 441.027,161.906 440.027,162.573 438.5,162.5C 438.973,161.094 439.973,160.427 441.5,160.5 Z"/></g>
<g><path style="opacity:0.984" fill="#bababa" d="M 438.5,162.5 C 438.027,163.906 437.027,164.573 435.5,164.5C 435.973,163.094 436.973,162.427 438.5,162.5 Z"/></g>
<g><path style="opacity:0.984" fill="#b9b9b9" d="M 435.5,164.5 C 435.027,165.906 434.027,166.573 432.5,166.5C 432.973,165.094 433.973,164.427 435.5,164.5 Z"/></g>
<g><path style="opacity:0.984" fill="#b9b9b9" d="M 419.5,175.5 C 419.027,176.906 418.027,177.573 416.5,177.5C 416.973,176.094 417.973,175.427 419.5,175.5 Z"/></g>
<g><path style="opacity:0.984" fill="#bebebe" d="M 412.5,180.5 C 412.027,181.906 411.027,182.573 409.5,182.5C 409.973,181.094 410.973,180.427 412.5,180.5 Z"/></g>
<g><path style="opacity:0.984" fill="#bbbbbb" d="M 405.5,185.5 C 405.027,186.906 404.027,187.573 402.5,187.5C 402.973,186.094 403.973,185.427 405.5,185.5 Z"/></g>
<g><path style="opacity:0.984" fill="#bfbfbf" d="M 385.5,200.5 C 385.027,201.906 384.027,202.573 382.5,202.5C 382.973,201.094 383.973,200.427 385.5,200.5 Z"/></g>
<g><path style="opacity:0.965" fill="#bcbcbc" d="M 381.5,203.5 C 380.738,205.262 379.404,206.262 377.5,206.5C 378.262,204.738 379.596,203.738 381.5,203.5 Z"/></g>
<g><path style="opacity:0.984" fill="#bfbfbf" d="M 376.5,207.5 C 376.027,208.906 375.027,209.573 373.5,209.5C 373.973,208.094 374.973,207.427 376.5,207.5 Z"/></g>
<g><path style="opacity:0.753" fill="#acacac" d="M 1404.5,215.5 C 1406.03,215.427 1407.03,216.094 1407.5,217.5C 1405.97,217.573 1404.97,216.906 1404.5,215.5 Z"/></g>
<g><path style="opacity:0.996" fill="#c7c7c7" d="M 356.5,223.5 C 355.415,225.587 353.749,226.92 351.5,227.5C 352.585,225.413 354.251,224.08 356.5,223.5 Z"/></g>
<g><path style="opacity:0.753" fill="#acacac" d="M 1425.5,227.5 C 1427.03,227.427 1428.03,228.094 1428.5,229.5C 1426.97,229.573 1425.97,228.906 1425.5,227.5 Z"/></g>
<g><path style="opacity:0.753" fill="#ababab" d="M 1430.5,230.5 C 1432.03,230.427 1433.03,231.094 1433.5,232.5C 1431.97,232.573 1430.97,231.906 1430.5,230.5 Z"/></g>
<g><path style="opacity:0.808" fill="#aeaeae" d="M 1435.5,233.5 C 1437.03,233.427 1438.03,234.094 1438.5,235.5C 1436.97,235.573 1435.97,234.906 1435.5,233.5 Z"/></g>
<g><path style="opacity:0.996" fill="#c7c7c7" d="M 343.5,234.5 C 342.415,236.587 340.749,237.92 338.5,238.5C 339.585,236.413 341.251,235.08 343.5,234.5 Z"/></g>
<g><path style="opacity:0.902" fill="#b9b9b9" d="M 1448.5,241.5 C 1450.03,241.427 1451.03,242.094 1451.5,243.5C 1449.97,243.573 1448.97,242.906 1448.5,241.5 Z"/></g>
<g><path style="opacity:0.996" fill="#c9c9c9" d="M 335.5,241.5 C 334.415,243.587 332.749,244.92 330.5,245.5C 331.585,243.413 333.251,242.08 335.5,241.5 Z"/></g>
<g><path style="opacity:0.808" fill="#aeaeae" d="M 1451.5,243.5 C 1453.03,243.427 1454.03,244.094 1454.5,245.5C 1452.97,245.573 1451.97,244.906 1451.5,243.5 Z"/></g>
<g><path style="opacity:0.937" fill="#bfbfbf" d="M 1459.5,248.5 C 1461.03,248.427 1462.03,249.094 1462.5,250.5C 1460.97,250.573 1459.97,249.906 1459.5,248.5 Z"/></g>
<g><path style="opacity:0.937" fill="#bfbfbf" d="M 1462.5,250.5 C 1464.03,250.427 1465.03,251.094 1465.5,252.5C 1463.97,252.573 1462.97,251.906 1462.5,250.5 Z"/></g>
<g><path style="opacity:0.996" fill="#c6c6c6" d="M 327.5,248.5 C 325.761,251.243 323.427,253.243 320.5,254.5C 322.239,251.757 324.573,249.757 327.5,248.5 Z"/></g>
<g><path style="opacity:0.937" fill="#bfbfbf" d="M 1465.5,252.5 C 1467.03,252.427 1468.03,253.094 1468.5,254.5C 1466.97,254.573 1465.97,253.906 1465.5,252.5 Z"/></g>
<g><path style="opacity:0.937" fill="#bfbfbf" d="M 1468.5,254.5 C 1470.03,254.427 1471.03,255.094 1471.5,256.5C 1469.97,256.573 1468.97,255.906 1468.5,254.5 Z"/></g>
<g><path style="opacity:0.937" fill="#bfbfbf" d="M 1471.5,256.5 C 1473.03,256.427 1474.03,257.094 1474.5,258.5C 1472.97,258.573 1471.97,257.906 1471.5,256.5 Z"/></g>
<g><path style="opacity:0.808" fill="#adadad" d="M 1478.5,261.5 C 1480.03,261.427 1481.03,262.094 1481.5,263.5C 1479.97,263.573 1478.97,262.906 1478.5,261.5 Z"/></g>
<g><path style="opacity:0.996" fill="#c7c7c7" d="M 316.5,258.5 C 314.1,261.903 311.1,264.57 307.5,266.5C 309.9,263.097 312.9,260.43 316.5,258.5 Z"/></g>
<g><path style="opacity:0.902" fill="#b8b8b8" d="M 1481.5,263.5 C 1483.03,263.427 1484.03,264.094 1484.5,265.5C 1482.97,265.573 1481.97,264.906 1481.5,263.5 Z"/></g>
<g><path style="opacity:0.859" fill="#b1b1b1" d="M 1488.5,268.5 C 1490.03,268.427 1491.03,269.094 1491.5,270.5C 1489.97,270.573 1488.97,269.906 1488.5,268.5 Z"/></g>
<g><path style="opacity:0.902" fill="#b8b8b8" d="M 1495.5,273.5 C 1497.03,273.427 1498.03,274.094 1498.5,275.5C 1496.97,275.573 1495.97,274.906 1495.5,273.5 Z"/></g>
<g><path style="opacity:0.859" fill="#aeaeae" d="M 1499.5,276.5 C 1501.03,276.427 1502.03,277.094 1502.5,278.5C 1500.97,278.573 1499.97,277.906 1499.5,276.5 Z"/></g>
<g><path style="opacity:0.996" fill="#bdbdbd" d="M 1502.5,278.5 C 1504.4,278.738 1505.74,279.738 1506.5,281.5C 1504.6,281.262 1503.26,280.262 1502.5,278.5 Z"/></g>
<g><path style="opacity:0.965" fill="#b9b9b9" d="M 297.5,276.5 C 290.833,283.833 283.833,290.833 276.5,297.5C 276.369,296.761 276.536,296.094 277,295.5C 283.423,288.572 290.256,282.238 297.5,276.5 Z"/></g>
<g><path style="opacity:0.996" fill="#bdbdbd" d="M 1506.5,281.5 C 1508.4,281.738 1509.74,282.738 1510.5,284.5C 1508.6,284.262 1507.26,283.262 1506.5,281.5 Z"/></g>
<g><path style="opacity:0.996" fill="#bfbfbf" d="M 1510.5,284.5 C 1512.4,284.738 1513.74,285.738 1514.5,287.5C 1512.6,287.262 1511.26,286.262 1510.5,284.5 Z"/></g>
<g><path style="opacity:0.937" fill="#bcbcbc" d="M 1515.5,288.5 C 1517.03,288.427 1518.03,289.094 1518.5,290.5C 1516.97,290.573 1515.97,289.906 1515.5,288.5 Z"/></g>
<g><path style="opacity:0.996" fill="#bebebe" d="M 1519.5,291.5 C 1521.4,291.738 1522.74,292.738 1523.5,294.5C 1521.6,294.262 1520.26,293.262 1519.5,291.5 Z"/></g>
<g><path style="opacity:0.965" fill="#b2b2b2" d="M 1684.5,293.5 C 1685.91,293.973 1686.57,294.973 1686.5,296.5C 1685.09,296.027 1684.43,295.027 1684.5,293.5 Z"/></g>
<g><path style="opacity:0.996" fill="#bbbbbb" d="M 1524.5,295.5 C 1526.4,295.738 1527.74,296.738 1528.5,298.5C 1526.6,298.262 1525.26,297.262 1524.5,295.5 Z"/></g>
<g><path style="opacity:0.996" fill="#bbbbbb" d="M 1529.5,299.5 C 1531.4,299.738 1532.74,300.738 1533.5,302.5C 1531.6,302.262 1530.26,301.262 1529.5,299.5 Z"/></g>
<g><path style="opacity:0.996" fill="#bbbbbb" d="M 1540.5,308.5 C 1542.4,308.738 1543.74,309.738 1544.5,311.5C 1542.6,311.262 1541.26,310.262 1540.5,308.5 Z"/></g>
<g><path style="opacity:0.965" fill="#b6b6b6" d="M 262.5,311.5 C 261.92,313.749 260.587,315.415 258.5,316.5C 259.08,314.251 260.413,312.585 262.5,311.5 Z"/></g>
<g><path style="opacity:0.859" fill="#adadad" d="M 1703.5,313.5 C 1704.91,313.973 1705.57,314.973 1705.5,316.5C 1704.09,316.027 1703.43,315.027 1703.5,313.5 Z"/></g>
<g><path style="opacity:0.859" fill="#adadad" d="M 1548.5,315.5 C 1550.03,315.427 1551.03,316.094 1551.5,317.5C 1549.97,317.573 1548.97,316.906 1548.5,315.5 Z"/></g>
<g><path style="opacity:0.965" fill="#b2b2b2" d="M 1555.5,321.5 C 1557.03,321.427 1558.03,322.094 1558.5,323.5C 1556.97,323.573 1555.97,322.906 1555.5,321.5 Z"/></g>
<g><path style="opacity:0.996" fill="#b6b6b6" d="M 1711.5,322.5 C 1713.59,323.585 1714.92,325.251 1715.5,327.5C 1713.41,326.415 1712.08,324.749 1711.5,322.5 Z"/></g>
<g><path style="opacity:0.996" fill="#b4b4b4" d="M 1573.5,337.5 C 1576.09,338.419 1578.09,340.086 1579.5,342.5C 1576.91,341.581 1574.91,339.914 1573.5,337.5 Z"/></g>
<g><path style="opacity:0.965" fill="#b0b0b0" d="M 236.5,340.5 C 236.573,342.027 235.906,343.027 234.5,343.5C 234.427,341.973 235.094,340.973 236.5,340.5 Z"/></g>
<g><path style="opacity:0.965" fill="#b0b0b0" d="M 1727.5,340.5 C 1728.91,340.973 1729.57,341.973 1729.5,343.5C 1728.09,343.027 1727.43,342.027 1727.5,340.5 Z"/></g>
<g><path style="opacity:0.859" fill="#adadad" d="M 225.5,353.5 C 225.573,355.027 224.906,356.027 223.5,356.5C 223.427,354.973 224.094,353.973 225.5,353.5 Z"/></g>
<g><path style="opacity:0.859" fill="#adadad" d="M 1738.5,353.5 C 1739.91,353.973 1740.57,354.973 1740.5,356.5C 1739.09,356.027 1738.43,355.027 1738.5,353.5 Z"/></g>
<g><path style="opacity:0.984" fill="#b9b9b9" d="M 209.5,373.5 C 209.573,375.027 208.906,376.027 207.5,376.5C 207.427,374.973 208.094,373.973 209.5,373.5 Z"/></g>
<g><path style="opacity:0.984" fill="#b9b9b9" d="M 1754.5,373.5 C 1755.91,373.973 1756.57,374.973 1756.5,376.5C 1755.09,376.027 1754.43,375.027 1754.5,373.5 Z"/></g>
<g><path style="opacity:0.996" fill="#bdbdbd" d="M 206.5,377.5 C 206.262,379.404 205.262,380.738 203.5,381.5C 203.738,379.596 204.738,378.262 206.5,377.5 Z"/></g>
<g><path style="opacity:0.996" fill="#bdbdbd" d="M 1757.5,377.5 C 1759.26,378.262 1760.26,379.596 1760.5,381.5C 1758.74,380.738 1757.74,379.404 1757.5,377.5 Z"/></g>
<g><path style="opacity:0.984" fill="#b9b9b9" d="M 202.5,382.5 C 202.573,384.027 201.906,385.027 200.5,385.5C 200.427,383.973 201.094,382.973 202.5,382.5 Z"/></g>
<g><path style="opacity:0.902" fill="#b5b5b5" d="M 1761.5,382.5 C 1762.91,382.973 1763.57,383.973 1763.5,385.5C 1762.09,385.027 1761.43,384.027 1761.5,382.5 Z"/></g>
<g><path style="opacity:0.937" fill="#bcbcbc" d="M 199.5,386.5 C 199.573,388.027 198.906,389.027 197.5,389.5C 197.427,387.973 198.094,386.973 199.5,386.5 Z"/></g>
<g><path style="opacity:0.937" fill="#bcbcbc" d="M 1764.5,386.5 C 1765.91,386.973 1766.57,387.973 1766.5,389.5C 1765.09,389.027 1764.43,388.027 1764.5,386.5 Z"/></g>
<g><path style="opacity:0.937" fill="#bcbcbc" d="M 1767.5,390.5 C 1768.91,390.973 1769.57,391.973 1769.5,393.5C 1768.09,393.027 1767.43,392.027 1767.5,390.5 Z"/></g>
<g><path style="opacity:0.937" fill="#bcbcbc" d="M 193.5,394.5 C 193.573,396.027 192.906,397.027 191.5,397.5C 191.427,395.973 192.094,394.973 193.5,394.5 Z"/></g>
<g><path style="opacity:0.937" fill="#bcbcbc" d="M 1770.5,394.5 C 1771.91,394.973 1772.57,395.973 1772.5,397.5C 1771.09,397.027 1770.43,396.027 1770.5,394.5 Z"/></g>
<g><path style="opacity:0.902" fill="#b8b8b8" d="M 190.5,398.5 C 190.573,400.027 189.906,401.027 188.5,401.5C 188.427,399.973 189.094,398.973 190.5,398.5 Z"/></g>
<g><path style="opacity:0.902" fill="#b8b8b8" d="M 1773.5,398.5 C 1774.91,398.973 1775.57,399.973 1775.5,401.5C 1774.09,401.027 1773.43,400.027 1773.5,398.5 Z"/></g>
<g><path style="opacity:0.859" fill="#b1b1b1" d="M 187.5,402.5 C 187.573,404.027 186.906,405.027 185.5,405.5C 185.427,403.973 186.094,402.973 187.5,402.5 Z"/></g>
<g><path style="opacity:0.859" fill="#aeaeae" d="M 1776.5,402.5 C 1777.91,402.973 1778.57,403.973 1778.5,405.5C 1777.09,405.027 1776.43,404.027 1776.5,402.5 Z"/></g>
<g><path style="opacity:0.902" fill="#b5b5b5" d="M 182.5,409.5 C 182.573,411.027 181.906,412.027 180.5,412.5C 180.427,410.973 181.094,409.973 182.5,409.5 Z"/></g>
<g><path style="opacity:0.902" fill="#b5b5b5" d="M 1781.5,409.5 C 1782.91,409.973 1783.57,410.973 1783.5,412.5C 1782.09,412.027 1781.43,411.027 1781.5,409.5 Z"/></g>
<g><path style="opacity:0.937" fill="#bebebe" d="M 1783.5,412.5 C 1784.91,412.973 1785.57,413.973 1785.5,415.5C 1784.09,415.027 1783.43,414.027 1783.5,412.5 Z"/></g>
<g><path style="opacity:0.808" fill="#adadad" d="M 177.5,416.5 C 177.573,418.027 176.906,419.027 175.5,419.5C 175.427,417.973 176.094,416.973 177.5,416.5 Z"/></g>
<g><path style="opacity:0.808" fill="#adadad" d="M 1786.5,416.5 C 1787.91,416.973 1788.57,417.973 1788.5,419.5C 1787.09,419.027 1786.43,418.027 1786.5,416.5 Z"/></g>
<g><path style="opacity:0.902" fill="#b8b8b8" d="M 175.5,419.5 C 175.573,421.027 174.906,422.027 173.5,422.5C 173.427,420.973 174.094,419.973 175.5,419.5 Z"/></g>
<g><path style="opacity:0.902" fill="#b8b8b8" d="M 1788.5,419.5 C 1789.91,419.973 1790.57,420.973 1790.5,422.5C 1789.09,422.027 1788.43,421.027 1788.5,419.5 Z"/></g>
<g><path style="opacity:0.937" fill="#bebebe" d="M 173.5,422.5 C 173.573,424.027 172.906,425.027 171.5,425.5C 171.427,423.973 172.094,422.973 173.5,422.5 Z"/></g>
<g><path style="opacity:0.937" fill="#bebebe" d="M 1790.5,422.5 C 1791.91,422.973 1792.57,423.973 1792.5,425.5C 1791.09,425.027 1790.43,424.027 1790.5,422.5 Z"/></g>
<g><path style="opacity:0.808" fill="#adadad" d="M 166.5,432.5 C 166.573,434.027 165.906,435.027 164.5,435.5C 164.427,433.973 165.094,432.973 166.5,432.5 Z"/></g>
<g><path style="opacity:0.808" fill="#aeaeae" d="M 164.5,435.5 C 164.573,437.027 163.906,438.027 162.5,438.5C 162.427,436.973 163.094,435.973 164.5,435.5 Z"/></g>
<g><path style="opacity:0.808" fill="#aeaeae" d="M 1799.5,435.5 C 1800.91,435.973 1801.57,436.973 1801.5,438.5C 1800.09,438.027 1799.43,437.027 1799.5,435.5 Z"/></g>
<g><path style="opacity:0.753" fill="#aaaaaa" d="M 162.5,438.5 C 162.573,440.027 161.906,441.027 160.5,441.5C 160.427,439.973 161.094,438.973 162.5,438.5 Z"/></g>
<g><path style="opacity:0.937" fill="#bfbfbf" d="M 1806.5,446.5 C 1807.91,446.973 1808.57,447.973 1808.5,449.5C 1807.09,449.027 1806.43,448.027 1806.5,446.5 Z"/></g>
<g><path style="opacity:0.808" fill="#aeaeae" d="M 1810.5,452.5 C 1811.91,452.973 1812.57,453.973 1812.5,455.5C 1811.09,455.027 1810.43,454.027 1810.5,452.5 Z"/></g>
<g><path style="opacity:0.753" fill="#ababab" d="M 143.5,468.5 C 143.573,470.027 142.906,471.027 141.5,471.5C 141.427,469.973 142.094,468.973 143.5,468.5 Z"/></g>
<g><path style="opacity:0.753" fill="#ababab" d="M 1820.5,468.5 C 1821.91,468.973 1822.57,469.973 1822.5,471.5C 1821.09,471.027 1820.43,470.027 1820.5,468.5 Z"/></g>
<g><path style="opacity:0.753" fill="#acacac" d="M 137.5,478.5 C 137.573,480.027 136.906,481.027 135.5,481.5C 135.427,479.973 136.094,478.973 137.5,478.5 Z"/></g>
<g><path style="opacity:0.753" fill="#ababab" d="M 1826.5,478.5 C 1827.91,478.973 1828.57,479.973 1828.5,481.5C 1827.09,481.027 1826.43,480.027 1826.5,478.5 Z"/></g>
<g><path style="opacity:0.753" fill="#acacac" d="M 126.5,497.5 C 126.573,499.027 125.906,500.027 124.5,500.5C 124.427,498.973 125.094,497.973 126.5,497.5 Z"/></g>
<g><path style="opacity:0.753" fill="#acacac" d="M 1837.5,497.5 C 1838.91,497.973 1839.57,498.973 1839.5,500.5C 1838.09,500.027 1837.43,499.027 1837.5,497.5 Z"/></g>
<g><path style="opacity:0.753" fill="#acacac" d="M 1842.5,506.5 C 1843.91,506.973 1844.57,507.973 1844.5,509.5C 1843.09,509.027 1842.43,508.027 1842.5,506.5 Z"/></g>
<g><path style="opacity:0.753" fill="#acacac" d="M 1755.5,1391.5 C 1755.57,1393.03 1754.91,1394.03 1753.5,1394.5C 1753.43,1392.97 1754.09,1391.97 1755.5,1391.5 Z"/></g>
<g><path style="opacity:0.753" fill="#acacac" d="M 214.5,1402.5 C 215.906,1402.97 216.573,1403.97 216.5,1405.5C 215.094,1405.03 214.427,1404.03 214.5,1402.5 Z"/></g>
<g><path style="opacity:0.753" fill="#acacac" d="M 219.5,1411.5 C 220.906,1411.97 221.573,1412.97 221.5,1414.5C 220.094,1414.03 219.427,1413.03 219.5,1411.5 Z"/></g>
<g><path style="opacity:0.753" fill="#acacac" d="M 223.5,1418.5 C 224.906,1418.97 225.573,1419.97 225.5,1421.5C 224.094,1421.03 223.427,1420.03 223.5,1418.5 Z"/></g>
<g><path style="opacity:0.753" fill="#aaaaaa" d="M 1725.5,1443.5 C 1725.57,1445.03 1724.91,1446.03 1723.5,1446.5C 1723.43,1444.97 1724.09,1443.97 1725.5,1443.5 Z"/></g>
<g><path style="opacity:0.902" fill="#b9b9b9" d="M 243.5,1451.5 C 244.906,1451.97 245.573,1452.97 245.5,1454.5C 244.094,1454.03 243.427,1453.03 243.5,1451.5 Z"/></g>
<g><path style="opacity:0.808" fill="#aeaeae" d="M 1720.5,1451.5 C 1720.57,1453.03 1719.91,1454.03 1718.5,1454.5C 1718.43,1452.97 1719.09,1451.97 1720.5,1451.5 Z"/></g>
<g><path style="opacity:0.808" fill="#aeaeae" d="M 245.5,1454.5 C 246.906,1454.97 247.573,1455.97 247.5,1457.5C 246.094,1457.03 245.427,1456.03 245.5,1454.5 Z"/></g>
<g><path style="opacity:0.937" fill="#bfbfbf" d="M 1713.5,1462.5 C 1713.57,1464.03 1712.91,1465.03 1711.5,1465.5C 1711.43,1463.97 1712.09,1462.97 1713.5,1462.5 Z"/></g>
<g><path style="opacity:0.937" fill="#bfbfbf" d="M 1711.5,1465.5 C 1711.57,1467.03 1710.91,1468.03 1709.5,1468.5C 1709.43,1466.97 1710.09,1465.97 1711.5,1465.5 Z"/></g>
<g><path style="opacity:0.937" fill="#bfbfbf" d="M 1709.5,1468.5 C 1709.57,1470.03 1708.91,1471.03 1707.5,1471.5C 1707.43,1469.97 1708.09,1468.97 1709.5,1468.5 Z"/></g>
<g><path style="opacity:0.808" fill="#aeaeae" d="M 259.5,1475.5 C 260.906,1475.97 261.573,1476.97 261.5,1478.5C 260.094,1478.03 259.427,1477.03 259.5,1475.5 Z"/></g>
<g><path style="opacity:0.902" fill="#b8b8b8" d="M 261.5,1478.5 C 262.906,1478.97 263.573,1479.97 263.5,1481.5C 262.094,1481.03 261.427,1480.03 261.5,1478.5 Z"/></g>
<g><path style="opacity:0.808" fill="#aeaeae" d="M 1702.5,1478.5 C 1702.57,1480.03 1701.91,1481.03 1700.5,1481.5C 1700.43,1479.97 1701.09,1478.97 1702.5,1478.5 Z"/></g>
<g><path style="opacity:0.937" fill="#bebebe" d="M 263.5,1481.5 C 264.906,1481.97 265.573,1482.97 265.5,1484.5C 264.094,1484.03 263.427,1483.03 263.5,1481.5 Z"/></g>
<g><path style="opacity:0.902" fill="#b8b8b8" d="M 1700.5,1481.5 C 1700.57,1483.03 1699.91,1484.03 1698.5,1484.5C 1698.43,1482.97 1699.09,1481.97 1700.5,1481.5 Z"/></g>
<g><path style="opacity:0.808" fill="#aaaaaa" d="M 266.5,1485.5 C 267.906,1485.97 268.573,1486.97 268.5,1488.5C 267.094,1488.03 266.427,1487.03 266.5,1485.5 Z"/></g>
<g><path style="opacity:0.937" fill="#bdbdbd" d="M 268.5,1488.5 C 269.906,1488.97 270.573,1489.97 270.5,1491.5C 269.094,1491.03 268.427,1490.03 268.5,1488.5 Z"/></g>
<g><path style="opacity:0.902" fill="#b5b5b5" d="M 1695.5,1488.5 C 1695.57,1490.03 1694.91,1491.03 1693.5,1491.5C 1693.43,1489.97 1694.09,1488.97 1695.5,1488.5 Z"/></g>
<g><path style="opacity:0.859" fill="#aeaeae" d="M 271.5,1492.5 C 272.906,1492.97 273.573,1493.97 273.5,1495.5C 272.094,1495.03 271.427,1494.03 271.5,1492.5 Z"/></g>
<g><path style="opacity:0.937" fill="#bcbcbc" d="M 1690.5,1495.5 C 1690.57,1497.03 1689.91,1498.03 1688.5,1498.5C 1688.43,1496.97 1689.09,1495.97 1690.5,1495.5 Z"/></g>
<g><path style="opacity:0.937" fill="#bcbcbc" d="M 276.5,1499.5 C 277.906,1499.97 278.573,1500.97 278.5,1502.5C 277.094,1502.03 276.427,1501.03 276.5,1499.5 Z"/></g>
<g><path style="opacity:0.902" fill="#b5b5b5" d="M 1687.5,1499.5 C 1687.57,1501.03 1686.91,1502.03 1685.5,1502.5C 1685.43,1500.97 1686.09,1499.97 1687.5,1499.5 Z"/></g>
<g><path style="opacity:0.996" fill="#bebebe" d="M 1685.5,1502.5 C 1685.26,1504.4 1684.26,1505.74 1682.5,1506.5C 1682.74,1504.6 1683.74,1503.26 1685.5,1502.5 Z"/></g>
<g><path style="opacity:0.902" fill="#b5b5b5" d="M 279.5,1503.5 C 280.906,1503.97 281.573,1504.97 281.5,1506.5C 280.094,1506.03 279.427,1505.03 279.5,1503.5 Z"/></g>
<g><path style="opacity:0.996" fill="#bdbdbd" d="M 1682.5,1506.5 C 1682.26,1508.4 1681.26,1509.74 1679.5,1510.5C 1679.74,1508.6 1680.74,1507.26 1682.5,1506.5 Z"/></g>
<g><path style="opacity:0.984" fill="#b9b9b9" d="M 282.5,1507.5 C 283.906,1507.97 284.573,1508.97 284.5,1510.5C 283.094,1510.03 282.427,1509.03 282.5,1507.5 Z"/></g>
<g><path style="opacity:0.937" fill="#bcbcbc" d="M 285.5,1511.5 C 286.906,1511.97 287.573,1512.97 287.5,1514.5C 286.094,1514.03 285.427,1513.03 285.5,1511.5 Z"/></g>
<g><path style="opacity:0.902" fill="#b5b5b5" d="M 1678.5,1511.5 C 1678.57,1513.03 1677.91,1514.03 1676.5,1514.5C 1676.43,1512.97 1677.09,1511.97 1678.5,1511.5 Z"/></g>
<g><path style="opacity:0.996" fill="#bcbcbc" d="M 288.5,1515.5 C 290.262,1516.26 291.262,1517.6 291.5,1519.5C 289.738,1518.74 288.738,1517.4 288.5,1515.5 Z"/></g>
<g><path style="opacity:0.996" fill="#bfbfbf" d="M 1672.5,1519.5 C 1672.26,1521.4 1671.26,1522.74 1669.5,1523.5C 1669.74,1521.6 1670.74,1520.26 1672.5,1519.5 Z"/></g>
<g><path style="opacity:0.937" fill="#bcbcbc" d="M 292.5,1520.5 C 293.906,1520.97 294.573,1521.97 294.5,1523.5C 293.094,1523.03 292.427,1522.03 292.5,1520.5 Z"/></g>
<g><path style="opacity:0.996" fill="#bcbcbc" d="M 1668.5,1524.5 C 1668.26,1526.4 1667.26,1527.74 1665.5,1528.5C 1665.74,1526.6 1666.74,1525.26 1668.5,1524.5 Z"/></g>
<g><path style="opacity:0.996" fill="#bdbdbd" d="M 1664.5,1529.5 C 1664.26,1531.4 1663.26,1532.74 1661.5,1533.5C 1661.74,1531.6 1662.74,1530.26 1664.5,1529.5 Z"/></g>
<g><path style="opacity:0.996" fill="#bababa" d="M 304.5,1535.5 C 306.262,1536.26 307.262,1537.6 307.5,1539.5C 305.738,1538.74 304.738,1537.4 304.5,1535.5 Z"/></g>
<g><path style="opacity:0.859" fill="#adadad" d="M 310.5,1542.5 C 311.906,1542.97 312.573,1543.97 312.5,1545.5C 311.094,1545.03 310.427,1544.03 310.5,1542.5 Z"/></g>
<g><path style="opacity:0.996" fill="#bcbcbc" d="M 314.5,1547.5 C 316.262,1548.26 317.262,1549.6 317.5,1551.5C 315.738,1550.74 314.738,1549.4 314.5,1547.5 Z"/></g>
<g><path style="opacity:0.965" fill="#b0b0b0" d="M 1648.5,1548.5 C 1648.57,1550.03 1647.91,1551.03 1646.5,1551.5C 1646.43,1549.97 1647.09,1548.97 1648.5,1548.5 Z"/></g>
<g><path style="opacity:0.965" fill="#b0b0b0" d="M 322.5,1556.5 C 323.906,1556.97 324.573,1557.97 324.5,1559.5C 323.094,1559.03 322.427,1558.03 322.5,1556.5 Z"/></g>
<g><path style="opacity:0.984" fill="#b9b9b9" d="M 1635.5,1563.5 C 1635.26,1565.4 1634.26,1566.74 1632.5,1567.5C 1632.74,1565.6 1633.74,1564.26 1635.5,1563.5 Z"/></g>
<g><path style="opacity:0.965" fill="#b9b9b9" d="M 1625.5,1574.5 C 1624.92,1576.75 1623.59,1578.42 1621.5,1579.5C 1622.08,1577.25 1623.41,1575.58 1625.5,1574.5 Z"/></g>
<g><path style="opacity:0.859" fill="#adadad" d="M 342.5,1578.5 C 343.906,1578.97 344.573,1579.97 344.5,1581.5C 343.094,1581.03 342.427,1580.03 342.5,1578.5 Z"/></g>
<g><path style="opacity:0.996" fill="#cdcdcd" d="M 1612.5,1588.5 C 1605.76,1596.74 1598.43,1604.58 1590.5,1612C 1589.91,1612.46 1589.24,1612.63 1588.5,1612.5C 1596.17,1604.17 1604.17,1596.17 1612.5,1588.5 Z"/></g>
<g><path style="opacity:0.996" fill="#c7c7c7" d="M 1579.5,1621.5 C 1577.43,1624.57 1574.76,1626.91 1571.5,1628.5C 1573.57,1625.43 1576.24,1623.09 1579.5,1621.5 Z"/></g>
<g><path style="opacity:0.996" fill="#c7c7c7" d="M 1567.5,1632.5 C 1566.09,1634.91 1564.09,1636.58 1561.5,1637.5C 1562.91,1635.09 1564.91,1633.42 1567.5,1632.5 Z"/></g>
<g><path style="opacity:0.996" fill="#c9c9c9" d="M 1558.5,1640.5 C 1557.42,1642.59 1555.75,1643.92 1553.5,1644.5C 1554.58,1642.41 1556.25,1641.08 1558.5,1640.5 Z"/></g>
<g><path style="opacity:0.996" fill="#c7c7c7" d="M 1551.5,1646.5 C 1550.42,1648.59 1548.75,1649.92 1546.5,1650.5C 1547.58,1648.41 1549.25,1647.08 1551.5,1646.5 Z"/></g>
<g><path style="opacity:0.965" fill="#bdbdbd" d="M 1533.5,1661.5 C 1532.74,1663.26 1531.4,1664.26 1529.5,1664.5C 1530.26,1662.74 1531.6,1661.74 1533.5,1661.5 Z"/></g>
<g><path style="opacity:0.965" fill="#bbbbbb" d="M 1528.5,1665.5 C 1527.74,1667.26 1526.4,1668.26 1524.5,1668.5C 1525.26,1666.74 1526.6,1665.74 1528.5,1665.5 Z"/></g>
<g><path style="opacity:0.965" fill="#bebebe" d="M 1523.5,1669.5 C 1522.74,1671.26 1521.4,1672.26 1519.5,1672.5C 1520.26,1670.74 1521.6,1669.74 1523.5,1669.5 Z"/></g>
<g><path style="opacity:0.984" fill="#bdbdbd" d="M 1514.5,1676.5 C 1514.03,1677.91 1513.03,1678.57 1511.5,1678.5C 1511.97,1677.09 1512.97,1676.43 1514.5,1676.5 Z"/></g>
<g><path style="opacity:0.965" fill="#bdbdbd" d="M 1510.5,1679.5 C 1509.74,1681.26 1508.4,1682.26 1506.5,1682.5C 1507.26,1680.74 1508.6,1679.74 1510.5,1679.5 Z"/></g>
<g><path style="opacity:0.965" fill="#b6b6b6" d="M 1506.5,1682.5 C 1506.03,1683.91 1505.03,1684.57 1503.5,1684.5C 1503.97,1683.09 1504.97,1682.43 1506.5,1682.5 Z"/></g>
<g><path style="opacity:0.965" fill="#b2b2b2" d="M 293.5,1684.5 C 295.027,1684.43 296.027,1685.09 296.5,1686.5C 294.973,1686.57 293.973,1685.91 293.5,1684.5 Z"/></g>
<g><path style="opacity:0.984" fill="#bdbdbd" d="M 1502.5,1685.5 C 1502.03,1686.91 1501.03,1687.57 1499.5,1687.5C 1499.97,1686.09 1500.97,1685.43 1502.5,1685.5 Z"/></g>
<g><path style="opacity:0.984" fill="#bebebe" d="M 1491.5,1693.5 C 1491.03,1694.91 1490.03,1695.57 1488.5,1695.5C 1488.97,1694.09 1489.97,1693.43 1491.5,1693.5 Z"/></g>
<g><path style="opacity:0.984" fill="#bababa" d="M 1481.5,1700.5 C 1481.03,1701.91 1480.03,1702.57 1478.5,1702.5C 1478.97,1701.09 1479.97,1700.43 1481.5,1700.5 Z"/></g>
<g><path style="opacity:0.859" fill="#adadad" d="M 313.5,1703.5 C 315.027,1703.43 316.027,1704.09 316.5,1705.5C 314.973,1705.57 313.973,1704.91 313.5,1703.5 Z"/></g>
<g><path style="opacity:0.996" fill="#b6b6b6" d="M 322.5,1711.5 C 324.749,1712.08 326.415,1713.41 327.5,1715.5C 325.251,1714.92 323.585,1713.59 322.5,1711.5 Z"/></g>
<g><path style="opacity:0.984" fill="#b9b9b9" d="M 1446.5,1723.5 C 1446.03,1724.91 1445.03,1725.57 1443.5,1725.5C 1443.97,1724.09 1444.97,1723.43 1446.5,1723.5 Z"/></g>
<g><path style="opacity:0.965" fill="#b0b0b0" d="M 340.5,1727.5 C 342.027,1727.43 343.027,1728.09 343.5,1729.5C 341.973,1729.57 340.973,1728.91 340.5,1727.5 Z"/></g>
<g><path style="opacity:0.859" fill="#adadad" d="M 353.5,1738.5 C 355.027,1738.43 356.027,1739.09 356.5,1740.5C 354.973,1740.57 353.973,1739.91 353.5,1738.5 Z"/></g>
<g><path style="opacity:0.984" fill="#b9b9b9" d="M 373.5,1754.5 C 375.027,1754.43 376.027,1755.09 376.5,1756.5C 374.973,1756.57 373.973,1755.91 373.5,1754.5 Z"/></g>
<g><path style="opacity:0.984" fill="#bbbbbb" d="M 1394.5,1753.5 C 1394.03,1754.91 1393.03,1755.57 1391.5,1755.5C 1391.97,1754.09 1392.97,1753.43 1394.5,1753.5 Z"/></g>
<g><path style="opacity:0.996" fill="#bdbdbd" d="M 377.5,1757.5 C 379.404,1757.74 380.738,1758.74 381.5,1760.5C 379.596,1760.26 378.262,1759.26 377.5,1757.5 Z"/></g>
<g><path style="opacity:0.902" fill="#b5b5b5" d="M 382.5,1761.5 C 384.027,1761.43 385.027,1762.09 385.5,1763.5C 383.973,1763.57 382.973,1762.91 382.5,1761.5 Z"/></g>
<g><path style="opacity:0.937" fill="#bcbcbc" d="M 386.5,1764.5 C 388.027,1764.43 389.027,1765.09 389.5,1766.5C 387.973,1766.57 386.973,1765.91 386.5,1764.5 Z"/></g>
<g><path style="opacity:0.937" fill="#bcbcbc" d="M 390.5,1767.5 C 392.027,1767.43 393.027,1768.09 393.5,1769.5C 391.973,1769.57 390.973,1768.91 390.5,1767.5 Z"/></g>
<g><path style="opacity:0.937" fill="#bcbcbc" d="M 394.5,1770.5 C 396.027,1770.43 397.027,1771.09 397.5,1772.5C 395.973,1772.57 394.973,1771.91 394.5,1770.5 Z"/></g>
<g><path style="opacity:0.902" fill="#b8b8b8" d="M 398.5,1773.5 C 400.027,1773.43 401.027,1774.09 401.5,1775.5C 399.973,1775.57 398.973,1774.91 398.5,1773.5 Z"/></g>
<g><path style="opacity:0.859" fill="#aeaeae" d="M 402.5,1776.5 C 404.027,1776.43 405.027,1777.09 405.5,1778.5C 403.973,1778.57 402.973,1777.91 402.5,1776.5 Z"/></g>
<g><path style="opacity:0.902" fill="#b5b5b5" d="M 409.5,1781.5 C 411.027,1781.43 412.027,1782.09 412.5,1783.5C 410.973,1783.57 409.973,1782.91 409.5,1781.5 Z"/></g>
<g><path style="opacity:0.937" fill="#bebebe" d="M 412.5,1783.5 C 414.027,1783.43 415.027,1784.09 415.5,1785.5C 413.973,1785.57 412.973,1784.91 412.5,1783.5 Z"/></g>
<g><path style="opacity:0.808" fill="#adadad" d="M 416.5,1786.5 C 418.027,1786.43 419.027,1787.09 419.5,1788.5C 417.973,1788.57 416.973,1787.91 416.5,1786.5 Z"/></g>
<g><path style="opacity:0.902" fill="#b8b8b8" d="M 419.5,1788.5 C 421.027,1788.43 422.027,1789.09 422.5,1790.5C 420.973,1790.57 419.973,1789.91 419.5,1788.5 Z"/></g>
<g><path style="opacity:0.937" fill="#bebebe" d="M 422.5,1790.5 C 424.027,1790.43 425.027,1791.09 425.5,1792.5C 423.973,1792.57 422.973,1791.91 422.5,1790.5 Z"/></g>
<g><path style="opacity:0.808" fill="#aaaaaa" d="M 432.5,1797.5 C 434.027,1797.43 435.027,1798.09 435.5,1799.5C 433.973,1799.57 432.973,1798.91 432.5,1797.5 Z"/></g>
<g><path style="opacity:0.808" fill="#aeaeae" d="M 435.5,1799.5 C 437.027,1799.43 438.027,1800.09 438.5,1801.5C 436.973,1801.57 435.973,1800.91 435.5,1799.5 Z"/></g>
<g><path style="opacity:0.937" fill="#bfbfbf" d="M 446.5,1806.5 C 448.027,1806.43 449.027,1807.09 449.5,1808.5C 447.973,1808.57 446.973,1807.91 446.5,1806.5 Z"/></g>
<g><path style="opacity:0.808" fill="#aeaeae" d="M 452.5,1810.5 C 454.027,1810.43 455.027,1811.09 455.5,1812.5C 453.973,1812.57 452.973,1811.91 452.5,1810.5 Z"/></g>
<g><path style="opacity:0.753" fill="#ababab" d="M 468.5,1820.5 C 470.027,1820.43 471.027,1821.09 471.5,1822.5C 469.973,1822.57 468.973,1821.91 468.5,1820.5 Z"/></g>
<g><path style="opacity:0.753" fill="#ababab" d="M 478.5,1826.5 C 480.027,1826.43 481.027,1827.09 481.5,1828.5C 479.973,1828.57 478.973,1827.91 478.5,1826.5 Z"/></g>
<g><path style="opacity:0.753" fill="#acacac" d="M 497.5,1837.5 C 499.027,1837.43 500.027,1838.09 500.5,1839.5C 498.973,1839.57 497.973,1838.91 497.5,1837.5 Z"/></g>
<g><path style="opacity:0.753" fill="#acacac" d="M 506.5,1842.5 C 508.027,1842.43 509.027,1843.09 509.5,1844.5C 507.973,1844.57 506.973,1843.91 506.5,1842.5 Z"/></g>
</svg>
