<?xml version="1.0" encoding="UTF-8"?>
<!DOCTYPE svg PUBLIC "-//W3C//DTD SVG 1.1//EN" "http://www.w3.org/Graphics/SVG/1.1/DTD/svg11.dtd">
<svg xmlns="http://www.w3.org/2000/svg" version="1.1" width="512px" height="512px" style="shape-rendering:geometricPrecision; text-rendering:geometricPrecision; image-rendering:optimizeQuality; fill-rule:evenodd; clip-rule:evenodd" xmlns:xlink="http://www.w3.org/1999/xlink">
<g><path style="opacity:0.961" fill="#b2b2b2" d="M 251.5,-0.5 C 254.167,-0.5 256.833,-0.5 259.5,-0.5C 259.5,-0.166667 259.5,0.166667 259.5,0.5C 256.43,0.367715 253.43,0.701049 250.5,1.5C 250.833,0.833333 251.167,0.166667 251.5,-0.5 Z"/></g>
<g><path style="opacity:1" fill="#f4f4f4" d="M 259.5,0.5 C 260.458,0.952802 261.292,1.61947 262,2.5C 269.935,18.815 277.768,35.1483 285.5,51.5C 285.821,53.0481 286.821,53.7148 288.5,53.5C 304.547,55.2448 320.547,57.4115 336.5,60C 344.99,60.5024 347.823,64.6691 345,72.5C 335.632,82.0356 326.132,91.3689 316.5,100.5C 314.596,100.738 313.262,101.738 312.5,103.5C 310.539,105.963 308.372,108.297 306,110.5C 308.432,129.007 311.266,147.507 314.5,166C 314.486,167.385 314.152,168.551 313.5,169.5C 312.167,170.167 311.167,171.167 310.5,172.5C 308.167,173.833 305.833,173.833 303.5,172.5C 303.027,171.094 302.027,170.427 300.5,170.5C 295.516,168.674 290.849,166.341 286.5,163.5C 286.027,162.094 285.027,161.427 283.5,161.5C 278.516,159.674 273.849,157.341 269.5,154.5C 269.027,153.094 268.027,152.427 266.5,152.5C 262.736,151.119 259.069,149.453 255.5,147.5C 239.167,156 222.833,164.5 206.5,173C 204.735,173.64 203.068,173.473 201.5,172.5C 201.027,171.094 200.027,170.427 198.5,170.5C 197.102,169.223 196.436,167.557 196.5,165.5C 199.287,148.108 202.287,130.775 205.5,113.5C 206.124,113.083 206.457,112.416 206.5,111.5C 206.253,110.287 205.586,109.62 204.5,109.5C 197.5,103.167 190.833,96.5 184.5,89.5C 181.105,85.1024 177.105,81.4357 172.5,78.5C 167.155,75.6868 164.655,71.3535 165,65.5C 165.278,64.5842 165.778,63.9175 166.5,63.5C 167.5,63.1667 168.167,62.5 168.5,61.5C 185.223,57.9187 202.223,55.2521 219.5,53.5C 222.082,53.9746 224.082,53.3079 225.5,51.5C 233.325,34.5157 241.659,17.8491 250.5,1.5C 253.43,0.701049 256.43,0.367715 259.5,0.5 Z M 254.5,25.5 C 255.167,25.5 255.833,25.5 256.5,25.5C 262.325,38.4843 268.659,51.151 275.5,63.5C 276.262,65.2624 277.596,66.2624 279.5,66.5C 293.746,69.0406 308.079,71.0406 322.5,72.5C 317.5,77.8333 312.5,83.1667 307.5,88.5C 304.167,91.1667 301.167,94.1667 298.5,97.5C 295.167,98.8333 292.833,101.167 291.5,104.5C 290.335,105.496 289.668,106.829 289.5,108.5C 291.529,121.028 293.863,133.361 296.5,145.5C 296.795,147.735 296.461,149.735 295.5,151.5C 283.33,144.864 270.997,138.364 258.5,132C 251.129,132.515 244.462,135.015 238.5,139.5C 236.973,139.427 235.973,140.094 235.5,141.5C 228.516,144.325 221.849,147.659 215.5,151.5C 214.539,149.735 214.205,147.735 214.5,145.5C 217.137,133.361 219.471,121.028 221.5,108.5C 221.332,106.829 220.665,105.496 219.5,104.5C 218.167,101.167 215.833,98.8333 212.5,97.5C 204.702,89.2017 196.702,81.035 188.5,73C 203.962,70.8874 219.295,68.2207 234.5,65C 241.832,52.1693 248.499,39.0027 254.5,25.5 Z"/></g>
<g><path style="opacity:0.02" fill="#888888" d="M 256.5,25.5 C 255.833,25.5 255.167,25.5 254.5,25.5C 255.167,22.8333 255.833,22.8333 256.5,25.5 Z"/></g>
<g><path style="opacity:0.737" fill="#a4a4a4" d="M 225.5,51.5 C 224.082,53.3079 222.082,53.9746 219.5,53.5C 221.374,52.7148 223.374,52.0482 225.5,51.5 Z"/></g>
<g><path style="opacity:0.165" fill="#909090" d="M 285.5,51.5 C 286.71,51.9321 287.71,52.5987 288.5,53.5C 286.821,53.7148 285.821,53.0481 285.5,51.5 Z"/></g>
<g><path style="opacity:0.706" fill="#9d9d9d" d="M 168.5,61.5 C 168.167,62.5 167.5,63.1667 166.5,63.5C 166.5,62.1667 167.167,61.5 168.5,61.5 Z"/></g>
<g><path style="opacity:0.996" fill="#b7b7b7" d="M 275.5,63.5 C 277.404,63.7376 278.738,64.7376 279.5,66.5C 277.596,66.2624 276.262,65.2624 275.5,63.5 Z"/></g>
<g><path style="opacity:1" fill="#f4f4f4" d="M 129.5,145.5 C 127.596,145.738 126.262,146.738 125.5,148.5C 122.871,151.631 120.038,154.631 117,157.5C 118.399,172.234 120.566,186.901 123.5,201.5C 122.857,207.648 119.523,210.148 113.5,209C 106.614,205.726 99.9474,202.226 93.5,198.5C 93.0269,197.094 92.0269,196.427 90.5,196.5C 84.823,194.245 79.323,191.578 74,188.5C 60.7548,195.206 47.5881,202.039 34.5,209C 32.735,209.64 31.0683,209.473 29.5,208.5C 29.0269,207.094 28.0269,206.427 26.5,206.5C 25.5657,205.228 24.899,203.728 24.5,202C 27.1104,188.116 29.7771,174.283 32.5,160.5C 33.5735,159.749 33.7401,158.749 33,157.5C 30.8943,154.882 28.3943,152.882 25.5,151.5C 16.8333,143.167 8.16667,134.833 -0.5,126.5C -0.5,124.167 -0.5,121.833 -0.5,119.5C 0.961599,118.542 2.29493,117.376 3.5,116C 18.6025,113.905 33.6025,111.405 48.5,108.5C 54.9411,95.2825 61.6077,82.2825 68.5,69.5C 70.0269,69.573 71.0269,68.9063 71.5,67.5C 74.6555,66.0346 77.4888,66.7013 80,69.5C 86.5,82.5 93,95.5 99.5,108.5C 114.746,111.416 130.079,113.916 145.5,116C 149.249,119.237 150.082,123.07 148,127.5C 141.965,133.703 135.798,139.703 129.5,145.5 Z M 73.5,91.5 C 74.1667,92.1667 74.8333,92.8333 75.5,93.5C 79.655,102.478 83.8217,111.478 88,120.5C 88.8333,121.333 89.6667,122.167 90.5,123C 100.383,125.258 110.383,126.758 120.5,127.5C 121.833,128.167 123.167,128.833 124.5,129.5C 122.167,131.167 120.167,133.167 118.5,135.5C 112.558,139.773 107.224,144.773 102.5,150.5C 101.883,150.611 101.383,150.944 101,151.5C 100.199,154.367 100.366,157.034 101.5,159.5C 102.19,167.641 103.524,175.641 105.5,183.5C 105.843,185.483 105.176,186.817 103.5,187.5C 94.0201,182.259 84.3535,177.259 74.5,172.5C 68.1603,175.003 62.1603,178.003 56.5,181.5C 54.9731,181.427 53.9731,182.094 53.5,183.5C 49.8487,184.659 46.5154,186.326 43.5,188.5C 42.6618,188.158 42.3284,187.492 42.5,186.5C 44.6665,176.499 46.6665,166.332 48.5,156C 48.2568,155.098 47.9234,154.265 47.5,153.5C 47.2624,151.596 46.2624,150.262 44.5,149.5C 44.1667,148.5 43.5,147.833 42.5,147.5C 40.4309,144.427 37.7642,142.094 34.5,140.5C 31.1667,136.5 27.5,132.833 23.5,129.5C 24.8333,128.833 26.1667,128.167 27.5,127.5C 37.6167,126.758 47.6167,125.258 57.5,123C 63.4984,112.836 68.8318,102.336 73.5,91.5 Z"/></g>
<g><path style="opacity:1" fill="#f4f4f4" d="M 507.5,116.5 C 507.833,117.5 508.5,118.167 509.5,118.5C 510.167,118.833 510.833,119.167 511.5,119.5C 511.5,121.833 511.5,124.167 511.5,126.5C 508.194,130.473 504.527,134.14 500.5,137.5C 498.251,138.08 496.585,139.413 495.5,141.5C 490.036,147.465 484.37,153.298 478.5,159C 481.377,173.257 484.044,187.591 486.5,202C 485.413,208.424 481.746,210.757 475.5,209C 471.944,207.392 468.611,205.559 465.5,203.5C 465.027,202.094 464.027,201.427 462.5,201.5C 455.516,198.675 448.849,195.341 442.5,191.5C 442.027,190.094 441.027,189.427 439.5,189.5C 438.127,189.343 436.793,189.51 435.5,190C 423.167,196.333 410.833,202.667 398.5,209C 396.288,209.789 394.288,209.622 392.5,208.5C 392.027,207.094 391.027,206.427 389.5,206.5C 388.359,203.36 388.192,200.027 389,196.5C 390.953,184.113 393.12,171.78 395.5,159.5C 387.145,150.813 378.812,142.146 370.5,133.5C 368.5,130.833 366.167,128.5 363.5,126.5C 362.167,124.167 362.167,121.833 363.5,119.5C 364.833,118.833 365.833,117.833 366.5,116.5C 381.336,113.662 396.336,110.995 411.5,108.5C 417.336,95.4937 423.67,82.827 430.5,70.5C 431.833,69.8333 432.833,68.8333 433.5,67.5C 437.073,65.8005 440.239,66.4672 443,69.5C 449.5,82.5 456,95.5 462.5,108.5C 477.664,110.995 492.664,113.662 507.5,116.5 Z M 435.5,91.5 C 436.167,91.8333 436.833,92.1667 437.5,92.5C 441.738,102.645 446.738,112.312 452.5,121.5C 452.973,122.906 453.973,123.573 455.5,123.5C 464.703,125.477 474.037,126.811 483.5,127.5C 484.609,128.29 485.942,128.79 487.5,129C 486.29,130.039 485.29,131.206 484.5,132.5C 482.833,133.5 481.5,134.833 480.5,136.5C 474.892,140.439 469.892,145.106 465.5,150.5C 463.957,151.736 462.957,153.402 462.5,155.5C 464.396,165.883 466.396,176.216 468.5,186.5C 468.158,187.338 467.492,187.672 466.5,187.5C 457.88,182.187 448.88,177.353 439.5,173C 437.402,172.322 435.402,172.489 433.5,173.5C 431.973,173.427 430.973,174.094 430.5,175.5C 423.516,178.325 416.849,181.659 410.5,185.5C 408.973,185.427 407.973,186.094 407.5,187.5C 407.167,187.5 406.833,187.5 406.5,187.5C 405.549,186.081 405.216,184.415 405.5,182.5C 407.46,173.859 409.127,165.026 410.5,156C 410.693,153.992 410.026,152.492 408.5,151.5C 407.833,148.833 406.167,147.167 403.5,146.5C 398.167,140.5 392.5,134.833 386.5,129.5C 386.833,128.833 387.167,128.167 387.5,127.5C 398.219,126.421 408.885,124.921 419.5,123C 425.875,113.048 431.209,102.548 435.5,91.5 Z"/></g>
<g><path style="opacity:0.976" fill="#b6b6b6" d="M 71.5,67.5 C 71.0269,68.9063 70.0269,69.573 68.5,69.5C 68.9731,68.0937 69.9731,67.427 71.5,67.5 Z"/></g>
<g><path style="opacity:0.655" fill="#999999" d="M 433.5,67.5 C 432.833,68.8333 431.833,69.8333 430.5,70.5C 430.5,68.5 431.5,67.5 433.5,67.5 Z"/></g>
<g><path style="opacity:0.965" fill="#a4a4a4" d="M 172.5,78.5 C 177.105,81.4357 181.105,85.1024 184.5,89.5C 179.895,86.5643 175.895,82.8976 172.5,78.5 Z"/></g>
<g><path style="opacity:0.996" fill="#cacaca" d="M 322.5,72.5 C 323.525,72.8966 323.692,73.5632 323,74.5C 318.241,79.7659 313.075,84.4325 307.5,88.5C 312.5,83.1667 317.5,77.8333 322.5,72.5 Z"/></g>
<g><path style="opacity:1" fill="#bababa" d="M 73.5,91.5 C 73.56,90.9569 73.8933,90.6236 74.5,90.5C 75.3857,91.325 75.719,92.325 75.5,93.5C 74.8333,92.8333 74.1667,92.1667 73.5,91.5 Z"/></g>
<g><path style="opacity:0.2" fill="#949494" d="M 437.5,92.5 C 436.833,92.1667 436.167,91.8333 435.5,91.5C 436.301,89.2071 436.968,89.5404 437.5,92.5 Z"/></g>
<g><path style="opacity:0.008" fill="#9c9c9c" d="M 212.5,97.5 C 215.833,98.8333 218.167,101.167 219.5,104.5C 216.833,102.5 214.5,100.167 212.5,97.5 Z"/></g>
<g><path style="opacity:0.816" fill="#a3a3a3" d="M 298.5,97.5 C 296.5,100.167 294.167,102.5 291.5,104.5C 292.833,101.167 295.167,98.8333 298.5,97.5 Z"/></g>
<g><path style="opacity:0.016" fill="#919191" d="M 316.5,100.5 C 315.738,102.262 314.404,103.262 312.5,103.5C 313.262,101.738 314.596,100.738 316.5,100.5 Z"/></g>
<g><path style="opacity:0.667" fill="#aaaaaa" d="M 204.5,109.5 C 205.586,109.62 206.253,110.287 206.5,111.5C 206.457,112.416 206.124,113.083 205.5,113.5C 205.567,112.041 205.234,110.708 204.5,109.5 Z"/></g>
<g><path style="opacity:0.008" fill="#939393" d="M 507.5,116.5 C 508.833,116.5 509.5,117.167 509.5,118.5C 508.5,118.167 507.833,117.5 507.5,116.5 Z"/></g>
<g><path style="opacity:0.796" fill="#a5a5a5" d="M 366.5,116.5 C 365.833,117.833 364.833,118.833 363.5,119.5C 363.5,117.5 364.5,116.5 366.5,116.5 Z"/></g>
<g><path style="opacity:0.667" fill="#a2a2a2" d="M 452.5,121.5 C 454.027,121.427 455.027,122.094 455.5,123.5C 453.973,123.573 452.973,122.906 452.5,121.5 Z"/></g>
<g><path style="opacity:0.349" fill="#959595" d="M 27.5,127.5 C 26.1667,128.167 24.8333,128.833 23.5,129.5C 22.9569,129.44 22.6236,129.107 22.5,128.5C 24.0453,127.548 25.712,127.215 27.5,127.5 Z"/></g>
<g><path style="opacity:0.773" fill="#a1a1a1" d="M 120.5,127.5 C 122.288,127.215 123.955,127.548 125.5,128.5C 125.376,129.107 125.043,129.44 124.5,129.5C 123.167,128.833 121.833,128.167 120.5,127.5 Z"/></g>
<g><path style="opacity:0.024" fill="#9a9a9a" d="M 363.5,126.5 C 366.167,128.5 368.5,130.833 370.5,133.5C 367.167,132.167 364.833,129.833 363.5,126.5 Z"/></g>
<g><path style="opacity:0.235" fill="#8a8a8a" d="M 387.5,127.5 C 387.167,128.167 386.833,128.833 386.5,129.5C 383.814,128.012 384.147,127.345 387.5,127.5 Z"/></g>
<g><path style="opacity:0.996" fill="#c0c0c0" d="M 483.5,127.5 C 485.167,127.5 486.833,127.5 488.5,127.5C 488.631,130.367 487.297,132.033 484.5,132.5C 485.29,131.206 486.29,130.039 487.5,129C 485.942,128.79 484.609,128.29 483.5,127.5 Z"/></g>
<g><path style="opacity:0.016" fill="#919191" d="M 500.5,137.5 C 499.415,139.587 497.749,140.92 495.5,141.5C 496.585,139.413 498.251,138.08 500.5,137.5 Z"/></g>
<g><path style="opacity:0.008" fill="#9b9b9b" d="M 34.5,140.5 C 37.7642,142.094 40.4309,144.427 42.5,147.5C 39.2358,145.906 36.5691,143.573 34.5,140.5 Z"/></g>
<g><path style="opacity:0.965" fill="#afafaf" d="M 238.5,139.5 C 238.027,140.906 237.027,141.573 235.5,141.5C 235.973,140.094 236.973,139.427 238.5,139.5 Z"/></g>
<g><path style="opacity:0.933" fill="#b1b1b1" d="M 118.5,135.5 C 113.776,141.227 108.442,146.227 102.5,150.5C 107.224,144.773 112.558,139.773 118.5,135.5 Z"/></g>
<g><path style="opacity:0.98" fill="#bcbcbc" d="M 480.5,136.5 C 476.108,141.894 471.108,146.561 465.5,150.5C 469.892,145.106 474.892,140.439 480.5,136.5 Z"/></g>
<g><path style="opacity:0.016" fill="#919191" d="M 129.5,145.5 C 128.738,147.262 127.404,148.262 125.5,148.5C 126.262,146.738 127.596,145.738 129.5,145.5 Z"/></g>
<g><path style="opacity:0.008" fill="#9c9c9c" d="M 403.5,146.5 C 406.167,147.167 407.833,148.833 408.5,151.5C 406.5,150.167 404.833,148.5 403.5,146.5 Z"/></g>
<g><path style="opacity:0.965" fill="#a9a9a9" d="M 44.5,149.5 C 46.2624,150.262 47.2624,151.596 47.5,153.5C 45.7376,152.738 44.7376,151.404 44.5,149.5 Z"/></g>
<g><path style="opacity:0.016" fill="#929292" d="M 214.5,145.5 C 214.205,147.735 214.539,149.735 215.5,151.5C 215.44,152.043 215.107,152.376 214.5,152.5C 213.203,150.027 213.203,147.693 214.5,145.5 Z"/></g>
<g><path style="opacity:0.024" fill="#939393" d="M 296.5,145.5 C 297.797,147.693 297.797,150.027 296.5,152.5C 295.893,152.376 295.56,152.043 295.5,151.5C 296.461,149.735 296.795,147.735 296.5,145.5 Z"/></g>
<g><path style="opacity:0.957" fill="#a9a9a9" d="M 25.5,151.5 C 28.3943,152.882 30.8943,154.882 33,157.5C 33.7401,158.749 33.5735,159.749 32.5,160.5C 30.5727,157.233 28.2394,154.233 25.5,151.5 Z"/></g>
<g><path style="opacity:0.557" fill="#9f9f9f" d="M 266.5,152.5 C 268.027,152.427 269.027,153.094 269.5,154.5C 267.973,154.573 266.973,153.906 266.5,152.5 Z"/></g>
<g><path style="opacity:0.759" fill="#9d9d9d" d="M 102.5,150.5 C 101.701,153.43 101.368,156.43 101.5,159.5C 100.366,157.034 100.199,154.367 101,151.5C 101.383,150.944 101.883,150.611 102.5,150.5 Z"/></g>
<g><path style="opacity:0.514" fill="#9e9e9e" d="M 283.5,161.5 C 285.027,161.427 286.027,162.094 286.5,163.5C 284.973,163.573 283.973,162.906 283.5,161.5 Z"/></g>
<g><path style="opacity:0.741" fill="#a7a7a7" d="M 198.5,170.5 C 200.027,170.427 201.027,171.094 201.5,172.5C 199.973,172.573 198.973,171.906 198.5,170.5 Z"/></g>
<g><path style="opacity:0.545" fill="#9e9e9e" d="M 300.5,170.5 C 302.027,170.427 303.027,171.094 303.5,172.5C 301.973,172.573 300.973,171.906 300.5,170.5 Z"/></g>
<g><path style="opacity:0.024" fill="#919191" d="M 313.5,169.5 C 313.5,171.5 312.5,172.5 310.5,172.5C 311.167,171.167 312.167,170.167 313.5,169.5 Z"/></g>
<g><path style="opacity:0.961" fill="#afafaf" d="M 433.5,173.5 C 433.027,174.906 432.027,175.573 430.5,175.5C 430.973,174.094 431.973,173.427 433.5,173.5 Z"/></g>
<g><path style="opacity:0.961" fill="#aeaeae" d="M 56.5,181.5 C 56.0269,182.906 55.0269,183.573 53.5,183.5C 53.9731,182.094 54.9731,181.427 56.5,181.5 Z"/></g>
<g><path style="opacity:0.561" fill="#a1a1a1" d="M 405.5,182.5 C 405.216,184.415 405.549,186.081 406.5,187.5C 406.44,188.043 406.107,188.376 405.5,188.5C 404.207,186.364 404.207,184.364 405.5,182.5 Z"/></g>
<g><path style="opacity:0.965" fill="#b0b0b0" d="M 410.5,185.5 C 410.027,186.906 409.027,187.573 407.5,187.5C 407.973,186.094 408.973,185.427 410.5,185.5 Z"/></g>
<g><path style="opacity:0.039" fill="#939393" d="M 105.5,183.5 C 106.622,185.288 106.789,187.288 106,189.5C 105.005,188.934 104.172,188.267 103.5,187.5C 105.176,186.817 105.843,185.483 105.5,183.5 Z"/></g>
<g><path style="opacity:0.831" fill="#b2b2b2" d="M 468.5,186.5 C 469.856,190.041 469.189,190.374 466.5,187.5C 467.492,187.672 468.158,187.338 468.5,186.5 Z"/></g>
<g><path style="opacity:0.818" fill="#b9b9b9" d="M 42.5,186.5 C 42.3284,187.492 42.6618,188.158 43.5,188.5C 42.6977,189.885 42.0311,189.718 41.5,188C 41.5699,187.235 41.9033,186.735 42.5,186.5 Z"/></g>
<g><path style="opacity:0.557" fill="#9f9f9f" d="M 439.5,189.5 C 441.027,189.427 442.027,190.094 442.5,191.5C 440.973,191.573 439.973,190.906 439.5,189.5 Z"/></g>
<g><path style="opacity:0.557" fill="#9f9f9f" d="M 90.5,196.5 C 92.0269,196.427 93.0269,197.094 93.5,198.5C 91.9731,198.573 90.9731,197.906 90.5,196.5 Z"/></g>
<g><path style="opacity:1" fill="#f7f7f7" d="M 304.5,223.5 C 305.08,225.749 306.413,227.415 308.5,228.5C 308.738,230.404 309.738,231.738 311.5,232.5C 311.427,234.027 312.094,235.027 313.5,235.5C 318.134,242.4 320.801,250.066 321.5,258.5C 320.857,269.552 321.524,280.219 323.5,290.5C 328.316,291.072 331.983,293.405 334.5,297.5C 334.738,299.404 335.738,300.738 337.5,301.5C 338.338,301.842 338.672,302.508 338.5,303.5C 339.275,308.797 339.608,314.13 339.5,319.5C 337.064,328.269 331.398,333.602 322.5,335.5C 320.167,335.5 317.833,335.5 315.5,335.5C 315.5,336.5 315.5,337.5 315.5,338.5C 314.27,351.616 309.27,362.95 300.5,372.5C 299.094,372.973 298.427,373.973 298.5,375.5C 298.167,376.5 297.5,377.167 296.5,377.5C 293.691,377.958 293.024,379.291 294.5,381.5C 295.493,386.777 296.16,392.11 296.5,397.5C 296.427,399.027 297.094,400.027 298.5,400.5C 302.248,402.273 306.248,403.44 310.5,404C 325.71,404.517 340.71,406.517 355.5,410C 362.114,412.143 367.781,415.643 372.5,420.5C 372.973,421.906 373.973,422.573 375.5,422.5C 376.419,425.089 378.086,427.089 380.5,428.5C 381.167,428.5 381.5,428.833 381.5,429.5C 381.738,431.404 382.738,432.738 384.5,433.5C 384.427,435.027 385.094,436.027 386.5,436.5C 390.987,443.45 393.82,451.117 395,459.5C 395.667,475.5 395.667,491.5 395,507.5C 394.338,508.984 393.504,510.317 392.5,511.5C 301.5,511.5 210.5,511.5 119.5,511.5C 118.878,510.373 118.045,509.373 117,508.5C 116.333,491.5 116.333,474.5 117,457.5C 118.244,450.257 120.744,443.59 124.5,437.5C 125.906,437.027 126.573,436.027 126.5,434.5C 128.262,433.738 129.262,432.404 129.5,430.5C 131.262,429.738 132.262,428.404 132.5,426.5C 132.833,425.5 133.5,424.833 134.5,424.5C 136.749,423.92 138.415,422.587 139.5,420.5C 140.262,418.738 141.596,417.738 143.5,417.5C 145.027,417.573 146.027,416.906 146.5,415.5C 148.849,413.659 151.515,412.326 154.5,411.5C 156.898,411.741 158.898,411.074 160.5,409.5C 165.921,407.782 171.588,406.615 177.5,406C 188.629,405.53 199.629,404.196 210.5,402C 212.049,400.786 213.215,399.286 214,397.5C 215.737,391.269 216.404,384.936 216,378.5C 203.732,367.219 196.899,353.219 195.5,336.5C 190.688,337.035 186.355,336.035 182.5,333.5C 182.027,332.094 181.027,331.427 179.5,331.5C 178.5,329.833 177.167,328.5 175.5,327.5C 171.773,323.49 170.107,318.657 170.5,313C 170.107,308.684 171.107,304.851 173.5,301.5C 175.262,300.738 176.262,299.404 176.5,297.5C 177.585,295.413 179.251,294.08 181.5,293.5C 183.027,293.573 184.027,292.906 184.5,291.5C 185.568,290.566 186.901,290.232 188.5,290.5C 188.139,278.786 188.639,267.119 190,255.5C 191.216,247.75 194.049,240.75 198.5,234.5C 200.262,233.738 201.262,232.404 201.5,230.5C 201.738,228.596 202.738,227.262 204.5,226.5C 207.833,223.833 210.833,220.833 213.5,217.5C 215.296,215.1 217.63,213.433 220.5,212.5C 222.027,212.573 223.027,211.906 223.5,210.5C 246.298,198.27 268.964,198.77 291.5,212C 296.621,214.955 300.955,218.789 304.5,223.5 Z M 282.5,223.5 C 282.973,224.906 283.973,225.573 285.5,225.5C 286.262,227.262 287.596,228.262 289.5,228.5C 301.809,240.127 307.809,254.46 307.5,271.5C 295.162,271.667 282.829,271.5 270.5,271C 266.202,270.733 262.202,269.566 258.5,267.5C 258.027,266.094 257.027,265.427 255.5,265.5C 255.262,263.596 254.262,262.262 252.5,261.5C 252.5,260.833 252.167,260.5 251.5,260.5C 251.573,258.973 250.906,257.973 249.5,257.5C 249.262,255.596 248.262,254.262 246.5,253.5C 246.141,251.629 245.141,250.129 243.5,249C 240.633,248.199 237.966,248.366 235.5,249.5C 234.167,249.5 233.5,250.167 233.5,251.5C 231.738,252.262 230.738,253.596 230.5,255.5C 229.094,255.973 228.427,256.973 228.5,258.5C 227.094,258.973 226.427,259.973 226.5,261.5C 220.2,268.825 212.2,271.825 202.5,270.5C 202.943,258.382 206.61,247.382 213.5,237.5C 214.906,237.027 215.573,236.027 215.5,234.5C 217.5,233.167 219.167,231.5 220.5,229.5C 222.027,229.573 223.027,228.906 223.5,227.5C 242.307,214.466 261.974,213.133 282.5,223.5 Z M 240.5,269.5 C 241.701,271.909 243.367,273.909 245.5,275.5C 246.262,277.262 247.596,278.262 249.5,278.5C 249.973,279.906 250.973,280.573 252.5,280.5C 252.973,281.906 253.973,282.573 255.5,282.5C 257.637,283.787 259.97,284.621 262.5,285C 277.83,285.5 293.163,285.667 308.5,285.5C 308.573,293.854 308.24,302.188 307.5,310.5C 306.087,313.219 305.42,316.219 305.5,319.5C 304.087,322.219 303.42,325.219 303.5,328.5C 302.549,329.919 302.216,331.585 302.5,333.5C 301.388,335.599 300.721,337.933 300.5,340.5C 298.894,346.318 296.894,351.984 294.5,357.5C 293.094,357.973 292.427,358.973 292.5,360.5C 291.094,360.973 290.427,361.973 290.5,363.5C 288.5,364.833 286.833,366.5 285.5,368.5C 283.596,368.738 282.262,369.738 281.5,371.5C 266.646,379.553 251.313,380.553 235.5,374.5C 234.71,373.599 233.71,372.932 232.5,372.5C 229.991,371.079 227.657,369.412 225.5,367.5C 224.5,365.833 223.167,364.5 221.5,363.5C 221.167,362.5 220.5,361.833 219.5,361.5C 219.573,359.973 218.906,358.973 217.5,358.5C 212.589,346.191 208.923,333.524 206.5,320.5C 206.279,317.933 205.612,315.599 204.5,313.5C 203.646,304.195 203.313,294.861 203.5,285.5C 212.841,286.717 221.508,284.884 229.5,280C 230.71,278.961 231.71,277.794 232.5,276.5C 234.833,276.167 236.167,274.833 236.5,272.5C 237.5,272.167 238.167,271.5 238.5,270.5C 239.167,270.167 239.833,269.833 240.5,269.5 Z M 187.5,306.5 C 188.167,307.5 188.833,308.5 189.5,309.5C 189.676,312.727 190.343,315.727 191.5,318.5C 191.5,319.833 190.833,320.5 189.5,320.5C 183.95,316.521 183.284,311.854 187.5,306.5 Z M 323.5,306.5 C 326.588,312.138 325.588,316.805 320.5,320.5C 319.662,320.158 319.328,319.492 319.5,318.5C 320.903,315.091 321.57,311.425 321.5,307.5C 322.167,307.167 322.833,306.833 323.5,306.5 Z M 278.5,388.5 C 279.778,388.782 280.778,389.449 281.5,390.5C 281.12,395.819 282.12,400.819 284.5,405.5C 282.596,405.738 281.262,406.738 280.5,408.5C 278.596,408.738 277.262,409.738 276.5,411.5C 274.596,411.738 273.262,412.738 272.5,414.5C 270.596,414.738 269.262,415.738 268.5,417.5C 266.251,418.08 264.585,419.413 263.5,421.5C 261.596,421.738 260.262,422.738 259.5,424.5C 257.973,424.427 256.973,425.094 256.5,426.5C 255.391,426.443 254.391,426.11 253.5,425.5C 253.027,424.094 252.027,423.427 250.5,423.5C 242.753,416.779 234.753,410.279 226.5,404C 228.766,398.746 230.266,393.246 231,387.5C 246.736,395.142 262.569,395.475 278.5,388.5 Z M 294.5,415.5 C 297.556,416.296 300.556,417.296 303.5,418.5C 299.686,427.95 295.686,437.283 291.5,446.5C 284.009,442.922 276.676,439.088 269.5,435C 278.019,428.636 286.353,422.136 294.5,415.5 Z M 217.5,416.5 C 218.262,418.262 219.596,419.262 221.5,419.5C 223.091,421.633 225.091,423.299 227.5,424.5C 227.973,425.906 228.973,426.573 230.5,426.5C 231.262,428.262 232.596,429.262 234.5,429.5C 235.585,431.587 237.251,432.92 239.5,433.5C 240.562,434.575 240.562,435.575 239.5,436.5C 235.611,438.274 231.945,440.274 228.5,442.5C 226.973,442.427 225.973,443.094 225.5,444.5C 223.181,444.992 221.181,445.992 219.5,447.5C 218.833,446.833 218.167,446.167 217.5,445.5C 214.538,436.931 211.204,428.598 207.5,420.5C 207.782,419.222 208.449,418.222 209.5,417.5C 212.167,417.167 214.833,416.833 217.5,416.5 Z M 186.5,419.5 C 188.886,419.259 190.886,419.925 192.5,421.5C 197.376,434.923 202.543,448.257 208,461.5C 211.139,465.577 214.972,466.41 219.5,464C 230.833,458 242.167,452 253.5,446C 254.833,445.333 256.167,445.333 257.5,446C 260.736,447.786 264.07,449.286 267.5,450.5C 267.973,451.906 268.973,452.573 270.5,452.5C 276.849,456.341 283.516,459.675 290.5,462.5C 290.973,463.906 291.973,464.573 293.5,464.5C 297.344,466.01 300.51,465.01 303,461.5C 308.402,447.793 313.902,434.127 319.5,420.5C 333.845,419.456 347.512,422.123 360.5,428.5C 361.262,430.262 362.596,431.262 364.5,431.5C 365.833,433.5 367.5,435.167 369.5,436.5C 369.427,438.027 370.094,439.027 371.5,439.5C 371.932,440.71 372.599,441.71 373.5,442.5C 373.932,443.71 374.599,444.71 375.5,445.5C 377.566,450.031 379.232,454.697 380.5,459.5C 380.5,471.833 380.5,484.167 380.5,496.5C 297.167,496.5 213.833,496.5 130.5,496.5C 130.5,484.833 130.5,473.167 130.5,461.5C 134.615,441.881 146.282,429.048 165.5,423C 172.513,421.609 179.513,420.442 186.5,419.5 Z"/></g>
<g><path style="opacity:0.557" fill="#a0a0a0" d="M 462.5,201.5 C 464.027,201.427 465.027,202.094 465.5,203.5C 463.973,203.573 462.973,202.906 462.5,201.5 Z"/></g>
<g><path style="opacity:0.576" fill="#9a9a9a" d="M 26.5,206.5 C 28.0269,206.427 29.0269,207.094 29.5,208.5C 27.9731,208.573 26.9731,207.906 26.5,206.5 Z"/></g>
<g><path style="opacity:0.871" fill="#b0b0b0" d="M 389.5,206.5 C 391.027,206.427 392.027,207.094 392.5,208.5C 390.973,208.573 389.973,207.906 389.5,206.5 Z"/></g>
<g><path style="opacity:0.984" fill="#bababa" d="M 223.5,210.5 C 223.027,211.906 222.027,212.573 220.5,212.5C 220.973,211.094 221.973,210.427 223.5,210.5 Z"/></g>
<g><path style="opacity:0.953" fill="#afafaf" d="M 213.5,217.5 C 210.833,220.833 207.833,223.833 204.5,226.5C 206.5,222.5 209.5,219.5 213.5,217.5 Z"/></g>
<g><path style="opacity:0.714" fill="#a6a6a6" d="M 282.5,223.5 C 284.027,223.427 285.027,224.094 285.5,225.5C 283.973,225.573 282.973,224.906 282.5,223.5 Z"/></g>
<g><path style="opacity:0.988" fill="#b1b1b1" d="M 304.5,223.5 C 306.587,224.585 307.92,226.251 308.5,228.5C 306.413,227.415 305.08,225.749 304.5,223.5 Z"/></g>
<g><path style="opacity:0.91" fill="#afafaf" d="M 285.5,225.5 C 287.404,225.738 288.738,226.738 289.5,228.5C 287.596,228.262 286.262,227.262 285.5,225.5 Z"/></g>
<g><path style="opacity:0.008" fill="#909090" d="M 223.5,227.5 C 223.027,228.906 222.027,229.573 220.5,229.5C 220.973,228.094 221.973,227.427 223.5,227.5 Z"/></g>
<g><path style="opacity:0.933" fill="#b4b4b4" d="M 308.5,228.5 C 310.262,229.262 311.262,230.596 311.5,232.5C 309.738,231.738 308.738,230.404 308.5,228.5 Z"/></g>
<g><path style="opacity:0.929" fill="#b4b4b4" d="M 201.5,230.5 C 201.262,232.404 200.262,233.738 198.5,234.5C 198.738,232.596 199.738,231.262 201.5,230.5 Z"/></g>
<g><path style="opacity:0.588" fill="#9d9d9d" d="M 311.5,232.5 C 312.906,232.973 313.573,233.973 313.5,235.5C 312.094,235.027 311.427,234.027 311.5,232.5 Z"/></g>
<g><path style="opacity:0.008" fill="#969696" d="M 215.5,234.5 C 215.573,236.027 214.906,237.027 213.5,237.5C 213.427,235.973 214.094,234.973 215.5,234.5 Z"/></g>
<g><path style="opacity:0.765" fill="#a1a1a1" d="M 235.5,249.5 C 235.167,250.5 234.5,251.167 233.5,251.5C 233.5,250.167 234.167,249.5 235.5,249.5 Z"/></g>
<g><path style="opacity:0.933" fill="#b5b5b5" d="M 233.5,251.5 C 233.262,253.404 232.262,254.738 230.5,255.5C 230.738,253.596 231.738,252.262 233.5,251.5 Z"/></g>
<g><path style="opacity:0.957" fill="#bababa" d="M 246.5,253.5 C 248.262,254.262 249.262,255.596 249.5,257.5C 247.738,256.738 246.738,255.404 246.5,253.5 Z"/></g>
<g><path style="opacity:0.816" fill="#ababab" d="M 230.5,255.5 C 230.573,257.027 229.906,258.027 228.5,258.5C 228.427,256.973 229.094,255.973 230.5,255.5 Z"/></g>
<g><path style="opacity:0.898" fill="#b5b5b5" d="M 249.5,257.5 C 250.906,257.973 251.573,258.973 251.5,260.5C 250.094,260.027 249.427,259.027 249.5,257.5 Z"/></g>
<g><path style="opacity:0.89" fill="#b6b6b6" d="M 228.5,258.5 C 228.573,260.027 227.906,261.027 226.5,261.5C 226.427,259.973 227.094,258.973 228.5,258.5 Z"/></g>
<g><path style="opacity:0.965" fill="#ababab" d="M 252.5,261.5 C 254.262,262.262 255.262,263.596 255.5,265.5C 253.738,264.738 252.738,263.404 252.5,261.5 Z"/></g>
<g><path style="opacity:0.008" fill="#979797" d="M 255.5,265.5 C 257.027,265.427 258.027,266.094 258.5,267.5C 256.973,267.573 255.973,266.906 255.5,265.5 Z"/></g>
<g><path style="opacity:0.96" fill="#cacaca" d="M 321.5,258.5 C 322.188,269.068 322.855,279.735 323.5,290.5C 321.524,280.219 320.857,269.552 321.5,258.5 Z"/></g>
<g><path style="opacity:0.09" fill="#8f8f8f" d="M 240.5,269.5 C 239.833,269.833 239.167,270.167 238.5,270.5C 238.711,268.576 239.377,268.243 240.5,269.5 Z"/></g>
<g><path style="opacity:0.016" fill="#939393" d="M 236.5,272.5 C 236.167,274.833 234.833,276.167 232.5,276.5C 233.5,274.833 234.833,273.5 236.5,272.5 Z"/></g>
<g><path style="opacity:0.969" fill="#afafaf" d="M 245.5,275.5 C 247.404,275.738 248.738,276.738 249.5,278.5C 247.596,278.262 246.262,277.262 245.5,275.5 Z"/></g>
<g><path style="opacity:0.557" fill="#a0a0a0" d="M 252.5,280.5 C 254.027,280.427 255.027,281.094 255.5,282.5C 253.973,282.573 252.973,281.906 252.5,280.5 Z"/></g>
<g><path style="opacity:1" fill="#f3f3f3" d="M 238.5,290.5 C 238.427,292.027 239.094,293.027 240.5,293.5C 244.16,307.025 238.826,313.191 224.5,312C 216.437,307.878 214.104,301.711 217.5,293.5C 218.906,293.027 219.573,292.027 219.5,290.5C 221.958,287.693 225.125,286.359 229,286.5C 232.98,286.207 236.146,287.54 238.5,290.5 Z"/></g>
<g><path style="opacity:1" fill="#f3f3f3" d="M 291.5,290.5 C 291.427,292.027 292.094,293.027 293.5,293.5C 297.147,307.036 291.814,313.203 277.5,312C 269.305,307.904 266.972,301.738 270.5,293.5C 271.906,293.027 272.573,292.027 272.5,290.5C 274.404,290.262 275.738,289.262 276.5,287.5C 282.188,285.532 287.188,286.532 291.5,290.5 Z"/></g>
<g><path style="opacity:0.965" fill="#b6b6b6" d="M 276.5,287.5 C 275.738,289.262 274.404,290.262 272.5,290.5C 273.262,288.738 274.596,287.738 276.5,287.5 Z"/></g>
<g><path style="opacity:0.988" fill="#bababa" d="M 184.5,291.5 C 184.027,292.906 183.027,293.573 181.5,293.5C 181.973,292.094 182.973,291.427 184.5,291.5 Z"/></g>
<g><path style="opacity:0.69" fill="#a2a2a2" d="M 219.5,290.5 C 219.573,292.027 218.906,293.027 217.5,293.5C 217.427,291.973 218.094,290.973 219.5,290.5 Z"/></g>
<g><path style="opacity:0.859" fill="#b2b2b2" d="M 238.5,290.5 C 239.906,290.973 240.573,291.973 240.5,293.5C 239.094,293.027 238.427,292.027 238.5,290.5 Z"/></g>
<g><path style="opacity:0.871" fill="#b4b4b4" d="M 272.5,290.5 C 272.573,292.027 271.906,293.027 270.5,293.5C 270.427,291.973 271.094,290.973 272.5,290.5 Z"/></g>
<g><path style="opacity:0.667" fill="#a1a1a1" d="M 291.5,290.5 C 292.906,290.973 293.573,291.973 293.5,293.5C 292.094,293.027 291.427,292.027 291.5,290.5 Z"/></g>
<g><path style="opacity:1" fill="#bababa" d="M 176.5,297.5 C 176.262,299.404 175.262,300.738 173.5,301.5C 173.738,299.596 174.738,298.262 176.5,297.5 Z"/></g>
<g><path style="opacity:0.949" fill="#b5b5b5" d="M 334.5,297.5 C 336.262,298.262 337.262,299.596 337.5,301.5C 335.738,300.738 334.738,299.404 334.5,297.5 Z"/></g>
<g><path style="opacity:1" fill="#f2f2f2" d="M 257.5,304.5 C 257.833,305.5 258.5,306.167 259.5,306.5C 260.809,307.624 261.475,309.124 261.5,311C 260.784,313.792 260.451,316.626 260.5,319.5C 267.109,320.258 269.276,323.925 267,330.5C 264.521,332.917 261.521,333.917 258,333.5C 255.134,333.7 252.634,333.033 250.5,331.5C 250.027,330.094 249.027,329.427 247.5,329.5C 245.939,327.509 244.939,325.176 244.5,322.5C 245.234,317.312 246.234,312.312 247.5,307.5C 248.833,306.833 249.833,305.833 250.5,304.5C 252.833,303.167 255.167,303.167 257.5,304.5 Z"/></g>
<g><path style="opacity:0.008" fill="#959595" d="M 257.5,304.5 C 258.833,304.5 259.5,305.167 259.5,306.5C 258.5,306.167 257.833,305.5 257.5,304.5 Z"/></g>
<g><path style="opacity:0.58" fill="#959595" d="M 189.5,309.5 C 188.833,308.5 188.167,307.5 187.5,306.5C 187.783,305.711 188.283,305.044 189,304.5C 189.494,306.134 189.66,307.801 189.5,309.5 Z"/></g>
<g><path style="opacity:0.769" fill="#a3a3a3" d="M 250.5,304.5 C 249.833,305.833 248.833,306.833 247.5,307.5C 247.5,305.5 248.5,304.5 250.5,304.5 Z"/></g>
<g><path style="opacity:0.157" fill="#939393" d="M 323.5,306.5 C 322.833,306.833 322.167,307.167 321.5,307.5C 321.711,305.576 322.377,305.243 323.5,306.5 Z"/></g>
<g><path style="opacity:0.937" fill="#b4b4b4" d="M 338.5,303.5 C 340.006,306.356 340.672,309.523 340.5,313C 340.496,315.361 340.163,317.527 339.5,319.5C 339.608,314.13 339.275,308.797 338.5,303.5 Z"/></g>
<g><path style="opacity:0.996" fill="#b8b8b8" d="M 307.5,310.5 C 307.58,313.781 306.913,316.781 305.5,319.5C 305.42,316.219 306.087,313.219 307.5,310.5 Z"/></g>
<g><path style="opacity:0.996" fill="#b6b6b6" d="M 204.5,313.5 C 205.612,315.599 206.279,317.933 206.5,320.5C 204.837,318.562 204.171,316.228 204.5,313.5 Z"/></g>
<g><path style="opacity:0.016" fill="#9b9b9b" d="M 191.5,318.5 C 192.404,319.209 192.737,320.209 192.5,321.5C 191.209,321.737 190.209,321.404 189.5,320.5C 190.833,320.5 191.5,319.833 191.5,318.5 Z"/></g>
<g><path style="opacity:0.641" fill="#a7a7a7" d="M 319.5,318.5 C 319.328,319.492 319.662,320.158 320.5,320.5C 319.698,321.885 319.031,321.718 318.5,320C 318.57,319.235 318.903,318.735 319.5,318.5 Z"/></g>
<g><path style="opacity:1" fill="#bcbcbc" d="M 305.5,319.5 C 305.58,322.781 304.913,325.781 303.5,328.5C 303.42,325.219 304.087,322.219 305.5,319.5 Z"/></g>
<g><path style="opacity:0.008" fill="#989898" d="M 175.5,327.5 C 177.167,328.5 178.5,329.833 179.5,331.5C 177.167,331.167 175.833,329.833 175.5,327.5 Z"/></g>
<g><path style="opacity:0.976" fill="#b5b5b5" d="M 247.5,329.5 C 249.027,329.427 250.027,330.094 250.5,331.5C 248.973,331.573 247.973,330.906 247.5,329.5 Z"/></g>
<g><path style="opacity:0.859" fill="#b4b4b4" d="M 179.5,331.5 C 181.027,331.427 182.027,332.094 182.5,333.5C 180.973,333.573 179.973,332.906 179.5,331.5 Z"/></g>
<g><path style="opacity:0.851" fill="#adadad" d="M 322.5,335.5 C 320.026,336.105 317.693,337.105 315.5,338.5C 315.5,337.5 315.5,336.5 315.5,335.5C 317.833,335.5 320.167,335.5 322.5,335.5 Z"/></g>
<g><path style="opacity:0.929" fill="#b5b5b5" d="M 242.5,337.5 C 239.763,337.401 237.096,337.735 234.5,338.5C 235.492,336.974 236.992,336.307 239,336.5C 240.385,336.514 241.551,336.848 242.5,337.5 Z"/></g>
<g><path style="opacity:1" fill="#f3f3f3" d="M 240.5,353.5 C 240.027,352.094 239.027,351.427 237.5,351.5C 236.738,349.738 235.404,348.738 233.5,348.5C 230.687,344.886 231.021,341.552 234.5,338.5C 237.096,337.735 239.763,337.401 242.5,337.5C 242.973,338.906 243.973,339.573 245.5,339.5C 253.404,343.967 260.737,343.134 267.5,337C 275.122,335.622 278.622,338.789 278,346.5C 273.936,352.123 268.436,355.623 261.5,357C 253.936,358.391 246.936,357.224 240.5,353.5 Z"/></g>
<g><path style="opacity:0.071" fill="#9a9a9a" d="M 242.5,337.5 C 244.027,337.427 245.027,338.094 245.5,339.5C 243.973,339.573 242.973,338.906 242.5,337.5 Z"/></g>
<g><path style="opacity:0.992" fill="#b3b3b3" d="M 302.5,333.5 C 302.829,336.228 302.163,338.562 300.5,340.5C 300.721,337.933 301.388,335.599 302.5,333.5 Z"/></g>
<g><path style="opacity:0.945" fill="#a7a7a7" d="M 233.5,348.5 C 235.404,348.738 236.738,349.738 237.5,351.5C 235.596,351.262 234.262,350.262 233.5,348.5 Z"/></g>
<g><path style="opacity:0.682" fill="#a5a5a5" d="M 237.5,351.5 C 239.027,351.427 240.027,352.094 240.5,353.5C 238.973,353.573 237.973,352.906 237.5,351.5 Z"/></g>
<g><path style="opacity:0.651" fill="#9f9f9f" d="M 294.5,357.5 C 294.573,359.027 293.906,360.027 292.5,360.5C 292.427,358.973 293.094,357.973 294.5,357.5 Z"/></g>
<g><path style="opacity:0.89" fill="#b8b8b8" d="M 217.5,358.5 C 218.906,358.973 219.573,359.973 219.5,361.5C 218.094,361.027 217.427,360.027 217.5,358.5 Z"/></g>
<g><path style="opacity:0.878" fill="#afafaf" d="M 292.5,360.5 C 292.573,362.027 291.906,363.027 290.5,363.5C 290.427,361.973 291.094,360.973 292.5,360.5 Z"/></g>
<g><path style="opacity:0.973" fill="#acacac" d="M 221.5,363.5 C 223.167,364.5 224.5,365.833 225.5,367.5C 223.167,367.167 221.833,365.833 221.5,363.5 Z"/></g>
<g><path style="opacity:0.961" fill="#bababa" d="M 285.5,368.5 C 284.738,370.262 283.404,371.262 281.5,371.5C 282.262,369.738 283.596,368.738 285.5,368.5 Z"/></g>
<g><path style="opacity:0.996" fill="#b7b7b7" d="M 232.5,372.5 C 233.71,372.932 234.71,373.599 235.5,374.5C 233.821,374.715 232.821,374.048 232.5,372.5 Z"/></g>
<g><path style="opacity:0.016" fill="#969696" d="M 300.5,372.5 C 300.573,374.027 299.906,375.027 298.5,375.5C 298.427,373.973 299.094,372.973 300.5,372.5 Z"/></g>
<g><path style="opacity:0.757" fill="#a4a4a4" d="M 296.5,377.5 C 295.4,378.605 294.733,379.938 294.5,381.5C 293.024,379.291 293.691,377.958 296.5,377.5 Z"/></g>
<g><path style="opacity:0.165" fill="#8e8e8e" d="M 278.5,388.5 C 279.209,387.596 280.209,387.263 281.5,387.5C 281.5,388.5 281.5,389.5 281.5,390.5C 280.778,389.449 279.778,388.782 278.5,388.5 Z"/></g>
<g><path style="opacity:0.784" fill="#a7a7a7" d="M 296.5,397.5 C 297.906,397.973 298.573,398.973 298.5,400.5C 297.094,400.027 296.427,399.027 296.5,397.5 Z"/></g>
<g><path style="opacity:0.953" fill="#b8b8b8" d="M 284.5,405.5 C 283.738,407.262 282.404,408.262 280.5,408.5C 281.262,406.738 282.596,405.738 284.5,405.5 Z"/></g>
<g><path style="opacity:0.945" fill="#b5b5b5" d="M 280.5,408.5 C 279.738,410.262 278.404,411.262 276.5,411.5C 277.262,409.738 278.596,408.738 280.5,408.5 Z"/></g>
<g><path style="opacity:1" fill="#bcbcbc" d="M 160.5,409.5 C 158.898,411.074 156.898,411.741 154.5,411.5C 156.214,410.262 158.214,409.595 160.5,409.5 Z"/></g>
<g><path style="opacity:0.933" fill="#b2b2b2" d="M 276.5,411.5 C 275.738,413.262 274.404,414.262 272.5,414.5C 273.262,412.738 274.596,411.738 276.5,411.5 Z"/></g>
<g><path style="opacity:0.922" fill="#b1b1b1" d="M 272.5,414.5 C 271.738,416.262 270.404,417.262 268.5,417.5C 269.262,415.738 270.596,414.738 272.5,414.5 Z"/></g>
<g><path style="opacity:0.98" fill="#b9b9b9" d="M 146.5,415.5 C 146.027,416.906 145.027,417.573 143.5,417.5C 143.973,416.094 144.973,415.427 146.5,415.5 Z"/></g>
<g><path style="opacity:0.992" fill="#b5b5b5" d="M 217.5,416.5 C 219.404,416.738 220.738,417.738 221.5,419.5C 219.596,419.262 218.262,418.262 217.5,416.5 Z"/></g>
<g><path style="opacity:0.596" fill="#9b9b9b" d="M 209.5,417.5 C 208.449,418.222 207.782,419.222 207.5,420.5C 206.596,419.791 206.263,418.791 206.5,417.5C 207.5,417.5 208.5,417.5 209.5,417.5 Z"/></g>
<g><path style="opacity:0.918" fill="#bebebe" d="M 186.5,419.5 C 188.265,418.539 190.265,418.205 192.5,418.5C 192.5,419.5 192.5,420.5 192.5,421.5C 190.886,419.925 188.886,419.259 186.5,419.5 Z"/></g>
<g><path style="opacity:1" fill="#c4c4c4" d="M 268.5,417.5 C 267.415,419.587 265.749,420.92 263.5,421.5C 264.585,419.413 266.251,418.08 268.5,417.5 Z"/></g>
<g><path style="opacity:0.008" fill="#959595" d="M 372.5,420.5 C 374.027,420.427 375.027,421.094 375.5,422.5C 373.973,422.573 372.973,421.906 372.5,420.5 Z"/></g>
<g><path style="opacity:0.992" fill="#bebebe" d="M 139.5,420.5 C 138.415,422.587 136.749,423.92 134.5,424.5C 135.585,422.413 137.251,421.08 139.5,420.5 Z"/></g>
<g><path style="opacity:0.008" fill="#959595" d="M 250.5,423.5 C 252.027,423.427 253.027,424.094 253.5,425.5C 251.973,425.573 250.973,424.906 250.5,423.5 Z"/></g>
<g><path style="opacity:0.965" fill="#ababab" d="M 375.5,422.5 C 377.914,423.911 379.581,425.911 380.5,428.5C 378.086,427.089 376.419,425.089 375.5,422.5 Z"/></g>
<g><path style="opacity:0.714" fill="#a1a1a1" d="M 227.5,424.5 C 229.027,424.427 230.027,425.094 230.5,426.5C 228.973,426.573 227.973,425.906 227.5,424.5 Z"/></g>
<g><path style="opacity:0.969" fill="#b7b7b7" d="M 259.5,424.5 C 259.027,425.906 258.027,426.573 256.5,426.5C 256.973,425.094 257.973,424.427 259.5,424.5 Z"/></g>
<g><path style="opacity:0.992" fill="#b8b8b8" d="M 230.5,426.5 C 232.404,426.738 233.738,427.738 234.5,429.5C 232.596,429.262 231.262,428.262 230.5,426.5 Z"/></g>
<g><path style="opacity:0.969" fill="#adadad" d="M 132.5,426.5 C 132.262,428.404 131.262,429.738 129.5,430.5C 129.738,428.596 130.738,427.262 132.5,426.5 Z"/></g>
<g><path style="opacity:0.953" fill="#bababa" d="M 360.5,428.5 C 362.404,428.738 363.738,429.738 364.5,431.5C 362.596,431.262 361.262,430.262 360.5,428.5 Z"/></g>
<g><path style="opacity:0.949" fill="#b7b7b7" d="M 381.5,429.5 C 383.262,430.262 384.262,431.596 384.5,433.5C 382.738,432.738 381.738,431.404 381.5,429.5 Z"/></g>
<g><path style="opacity:0.941" fill="#b5b5b5" d="M 129.5,430.5 C 129.262,432.404 128.262,433.738 126.5,434.5C 126.738,432.596 127.738,431.262 129.5,430.5 Z"/></g>
<g><path style="opacity:0.698" fill="#acacac" d="M 234.5,429.5 C 236.749,430.08 238.415,431.413 239.5,433.5C 237.251,432.92 235.585,431.587 234.5,429.5 Z"/></g>
<g><path style="opacity:0.702" fill="#a5a5a5" d="M 384.5,433.5 C 385.906,433.973 386.573,434.973 386.5,436.5C 385.094,436.027 384.427,435.027 384.5,433.5 Z"/></g>
<g><path style="opacity:0.576" fill="#9d9d9d" d="M 126.5,434.5 C 126.573,436.027 125.906,437.027 124.5,437.5C 124.427,435.973 125.094,434.973 126.5,434.5 Z"/></g>
<g><path style="opacity:0.008" fill="#949494" d="M 369.5,436.5 C 370.906,436.973 371.573,437.973 371.5,439.5C 370.094,439.027 369.427,438.027 369.5,436.5 Z"/></g>
<g><path style="opacity:1" fill="#bbbbbb" d="M 373.5,442.5 C 375.048,442.821 375.715,443.821 375.5,445.5C 374.599,444.71 373.932,443.71 373.5,442.5 Z"/></g>
<g><path style="opacity:0.973" fill="#b2b2b2" d="M 228.5,442.5 C 228.027,443.906 227.027,444.573 225.5,444.5C 225.973,443.094 226.973,442.427 228.5,442.5 Z"/></g>
<g><path style="opacity:0.816" fill="#aaaaaa" d="M 217.5,445.5 C 218.167,446.167 218.833,446.833 219.5,447.5C 219.44,448.043 219.107,448.376 218.5,448.5C 217.614,447.675 217.281,446.675 217.5,445.5 Z"/></g>
<g><path style="opacity:0.592" fill="#a0a0a0" d="M 267.5,450.5 C 269.027,450.427 270.027,451.094 270.5,452.5C 268.973,452.573 267.973,451.906 267.5,450.5 Z"/></g>
<g><path style="opacity:0.639" fill="#9e9e9e" d="M 380.5,459.5 C 381.495,471.989 381.829,484.656 381.5,497.5C 297.5,497.5 213.5,497.5 129.5,497.5C 129.172,485.322 129.505,473.322 130.5,461.5C 130.5,473.167 130.5,484.833 130.5,496.5C 213.833,496.5 297.167,496.5 380.5,496.5C 380.5,484.167 380.5,471.833 380.5,459.5 Z"/></g>
<g><path style="opacity:0.561" fill="#a0a0a0" d="M 290.5,462.5 C 292.027,462.427 293.027,463.094 293.5,464.5C 291.973,464.573 290.973,463.906 290.5,462.5 Z"/></g>
</svg>
