<?xml version="1.0" encoding="UTF-8"?>
<!DOCTYPE svg PUBLIC "-//W3C//DTD SVG 1.1//EN" "http://www.w3.org/Graphics/SVG/1.1/DTD/svg11.dtd">
<svg xmlns="http://www.w3.org/2000/svg" version="1.1" width="512px" height="512px" style="shape-rendering:geometricPrecision; text-rendering:geometricPrecision; image-rendering:optimizeQuality; fill-rule:evenodd; clip-rule:evenodd" xmlns:xlink="http://www.w3.org/1999/xlink">
<g><path style="opacity:1" fill="#fcfcfc" d="M 216.5,-0.5 C 219.5,-0.5 222.5,-0.5 225.5,-0.5C 227.58,1.57324 229.246,3.90657 230.5,6.5C 230.427,8.02694 231.094,9.02694 232.5,9.5C 232.427,11.0269 233.094,12.0269 234.5,12.5C 238.513,17.337 243.513,20.837 249.5,23C 259.879,25.8446 270.212,28.8446 280.5,32C 284.275,33.6114 287.275,36.1114 289.5,39.5C 289.738,41.4044 290.738,42.7377 292.5,43.5C 292.427,45.0269 293.094,46.0269 294.5,46.5C 300.896,57.8967 302.062,69.8967 298,82.5C 297.292,83.3805 296.458,84.0472 295.5,84.5C 291.833,84.5 288.167,84.5 284.5,84.5C 272.511,85.1687 261.844,89.1687 252.5,96.5C 251.094,96.9731 250.427,97.9731 250.5,99.5C 243.158,107.202 240.991,116.202 244,126.5C 246.409,132.565 248.909,138.565 251.5,144.5C 251.427,146.027 252.094,147.027 253.5,147.5C 255.008,149.181 256.008,151.181 256.5,153.5C 256.427,155.027 257.094,156.027 258.5,156.5C 258.427,158.027 259.094,159.027 260.5,159.5C 260.427,161.027 261.094,162.027 262.5,162.5C 262.427,164.027 263.094,165.027 264.5,165.5C 264.427,167.027 265.094,168.027 266.5,168.5C 266.427,170.027 267.094,171.027 268.5,171.5C 268.738,173.404 269.738,174.738 271.5,175.5C 271.427,177.027 272.094,178.027 273.5,178.5C 273.427,180.027 274.094,181.027 275.5,181.5C 277.633,183.091 279.299,185.091 280.5,187.5C 280.427,189.027 281.094,190.027 282.5,190.5C 282.738,192.404 283.738,193.738 285.5,194.5C 285.738,196.404 286.738,197.738 288.5,198.5C 289.5,198.833 290.167,199.5 290.5,200.5C 290.427,202.027 291.094,203.027 292.5,203.5C 293.167,203.5 293.5,203.833 293.5,204.5C 294.08,206.749 295.413,208.415 297.5,209.5C 298.5,209.833 299.167,210.5 299.5,211.5C 299.427,213.027 300.094,214.027 301.5,214.5C 302.5,214.833 303.167,215.5 303.5,216.5C 303.427,218.027 304.094,219.027 305.5,219.5C 306.167,219.5 306.5,219.833 306.5,220.5C 307.08,222.749 308.413,224.415 310.5,225.5C 311.5,225.833 312.167,226.5 312.5,227.5C 312.427,229.027 313.094,230.027 314.5,230.5C 321.716,238.44 330.05,244.94 339.5,250C 346.919,252.702 354.586,254.036 362.5,254C 364.225,260.96 368.225,266.127 374.5,269.5C 374.821,271.048 375.821,271.715 377.5,271.5C 399.863,281.18 421.197,292.68 441.5,306C 446.002,309.336 450.002,313.169 453.5,317.5C 453.738,319.404 454.738,320.738 456.5,321.5C 457.338,321.842 457.672,322.508 457.5,323.5C 457.427,325.027 458.094,326.027 459.5,326.5C 462.44,331.504 462.106,336.338 458.5,341C 451.989,343.924 445.322,344.258 438.5,342C 430.807,338.486 423.141,334.986 415.5,331.5C 413.562,329.837 411.228,329.171 408.5,329.5C 395.899,328.936 390.399,334.936 392,347.5C 393.229,351.621 394.729,355.621 396.5,359.5C 396.738,361.404 397.738,362.738 399.5,363.5C 401.167,364.5 402.5,365.833 403.5,367.5C 404.08,369.749 405.413,371.415 407.5,372.5C 408.5,372.833 409.167,373.5 409.5,374.5C 409.427,376.027 410.094,377.027 411.5,377.5C 416.991,385.994 416.491,394.327 410,402.5C 405.631,407.037 401.131,411.37 396.5,415.5C 395.094,415.973 394.427,416.973 394.5,418.5C 392.167,421.5 389.5,424.167 386.5,426.5C 384.973,426.427 383.973,427.094 383.5,428.5C 381.263,431.375 378.263,433.042 374.5,433.5C 372.971,433.471 371.804,432.804 371,431.5C 372.322,420.222 372.989,408.889 373,397.5C 370.26,382.447 365.427,368.114 358.5,354.5C 358.715,352.821 358.048,351.821 356.5,351.5C 350.56,341.563 344.227,331.896 337.5,322.5C 337.573,320.973 336.906,319.973 335.5,319.5C 333.833,318.5 332.5,317.167 331.5,315.5C 330.92,313.251 329.587,311.585 327.5,310.5C 326.5,310.167 325.833,309.5 325.5,308.5C 324.089,306.086 322.089,304.419 319.5,303.5C 318.5,303.167 317.833,302.5 317.5,301.5C 316.738,299.738 315.404,298.738 313.5,298.5C 313.027,297.094 312.027,296.427 310.5,296.5C 310.027,295.094 309.027,294.427 307.5,294.5C 285.855,286.013 264.188,277.513 242.5,269C 231.333,264.251 220.666,258.751 210.5,252.5C 210.027,251.094 209.027,250.427 207.5,250.5C 206.508,250.672 205.842,250.338 205.5,249.5C 205.027,248.094 204.027,247.427 202.5,247.5C 201.738,245.738 200.404,244.738 198.5,244.5C 196.251,243.92 194.585,242.587 193.5,240.5C 193.027,239.094 192.027,238.427 190.5,238.5C 188.833,237.5 187.5,236.167 186.5,234.5C 186.573,232.973 185.906,231.973 184.5,231.5C 181.611,228.744 179.444,225.411 178,221.5C 177.079,200.008 170.245,180.674 157.5,163.5C 157.573,161.973 156.906,160.973 155.5,160.5C 152.608,157.729 149.942,154.729 147.5,151.5C 144.5,146.5 140.5,142.5 135.5,139.5C 135.027,138.094 134.027,137.427 132.5,137.5C 127.954,135.018 123.287,134.518 118.5,136C 111.25,142.246 104.25,148.913 97.5,156C 92.7825,160.027 87.4492,163.027 81.5,165C 79.5594,165.743 77.7261,165.576 76,164.5C 74.9278,159.617 73.2612,154.95 71,150.5C 65.6667,142.5 60.3333,134.5 55,126.5C 52.5452,122.469 50.8786,118.136 50,113.5C 49.3333,103.5 49.3333,93.5 50,83.5C 50.6973,77.6793 52.0307,72.0127 54,66.5C 54.6972,64.4156 55.8639,62.7489 57.5,61.5C 58.8333,60.8333 59.8333,59.8333 60.5,58.5C 84.7054,57.0279 109.039,55.1946 133.5,53C 146.262,51.3544 158.595,48.1877 170.5,43.5C 172.749,42.9202 174.415,41.5869 175.5,39.5C 175.5,38.8333 175.833,38.5 176.5,38.5C 179.167,37.8333 180.833,36.1667 181.5,33.5C 183.5,30.8333 185.833,28.5 188.5,26.5C 190.262,25.7377 191.262,24.4044 191.5,22.5C 194.167,19.1667 197.167,16.1667 200.5,13.5C 202.167,12.5 203.5,11.1667 204.5,9.5C 204.5,8.83333 204.833,8.5 205.5,8.5C 208.089,7.58062 210.089,5.91395 211.5,3.5C 212.984,1.92635 214.651,0.593015 216.5,-0.5 Z"/></g>
<g><path style="opacity:0.996" fill="#c6c6c6" d="M 211.5,3.5 C 210.089,5.91395 208.089,7.58062 205.5,8.5C 206.911,6.08605 208.911,4.41938 211.5,3.5 Z"/></g>
<g><path style="opacity:0.8" fill="#ababab" d="M 230.5,6.5 C 231.906,6.97306 232.573,7.97306 232.5,9.5C 231.094,9.02694 230.427,8.02694 230.5,6.5 Z"/></g>
<g><path style="opacity:0.859" fill="#a4a4a4" d="M 204.5,9.5 C 203.5,11.1667 202.167,12.5 200.5,13.5C 200.833,11.1667 202.167,9.83333 204.5,9.5 Z"/></g>
<g><path style="opacity:0.804" fill="#ababab" d="M 232.5,9.5 C 233.906,9.97306 234.573,10.9731 234.5,12.5C 233.094,12.0269 232.427,11.0269 232.5,9.5 Z"/></g>
<g><path style="opacity:0.945" fill="#aaaaaa" d="M 191.5,22.5 C 191.262,24.4044 190.262,25.7377 188.5,26.5C 188.738,24.5956 189.738,23.2623 191.5,22.5 Z"/></g>
<g><path style="opacity:1" fill="#cacaca" d="M 181.5,33.5 C 180.833,36.1667 179.167,37.8333 176.5,38.5C 177.833,36.5 179.5,34.8333 181.5,33.5 Z"/></g>
<g><path style="opacity:0.875" fill="#aeaeae" d="M 175.5,39.5 C 174.415,41.5869 172.749,42.9202 170.5,43.5C 171.585,41.4131 173.251,40.0798 175.5,39.5 Z"/></g>
<g><path style="opacity:0.996" fill="#b9b9b9" d="M 289.5,39.5 C 291.262,40.2623 292.262,41.5956 292.5,43.5C 290.738,42.7377 289.738,41.4044 289.5,39.5 Z"/></g>
<g><path style="opacity:0.678" fill="#a6a6a6" d="M 292.5,43.5 C 293.906,43.9731 294.573,44.9731 294.5,46.5C 293.094,46.0269 292.427,45.0269 292.5,43.5 Z"/></g>
<g><path style="opacity:0.831" fill="#a1a1a1" d="M 60.5,58.5 C 59.8333,59.8333 58.8333,60.8333 57.5,61.5C 57.5,59.5 58.5,58.5 60.5,58.5 Z"/></g>
<g><path style="opacity:1" fill="#b9b9b9" d="M 284.5,84.5 C 288.167,84.5 291.833,84.5 295.5,84.5C 294.469,85.2485 293.302,85.9152 292,86.5C 289.393,85.8767 286.893,85.21 284.5,84.5 Z"/></g>
<g><path style="opacity:0.016" fill="#969696" d="M 252.5,96.5 C 252.573,98.0269 251.906,99.0269 250.5,99.5C 250.427,97.9731 251.094,96.9731 252.5,96.5 Z"/></g>
<g><path style="opacity:0.706" fill="#a4a4a4" d="M 132.5,137.5 C 134.027,137.427 135.027,138.094 135.5,139.5C 133.973,139.573 132.973,138.906 132.5,137.5 Z"/></g>
<g><path style="opacity:0.992" fill="#a5a5a5" d="M 135.5,139.5 C 140.5,142.5 144.5,146.5 147.5,151.5C 143.167,147.833 139.167,143.833 135.5,139.5 Z"/></g>
<g><path style="opacity:0.627" fill="#a3a3a3" d="M 251.5,144.5 C 252.906,144.973 253.573,145.973 253.5,147.5C 252.094,147.027 251.427,146.027 251.5,144.5 Z"/></g>
<g><path style="opacity:0.886" fill="#b8b8b8" d="M 256.5,153.5 C 257.906,153.973 258.573,154.973 258.5,156.5C 257.094,156.027 256.427,155.027 256.5,153.5 Z"/></g>
<g><path style="opacity:0.839" fill="#b1b1b1" d="M 258.5,156.5 C 259.906,156.973 260.573,157.973 260.5,159.5C 259.094,159.027 258.427,158.027 258.5,156.5 Z"/></g>
<g><path style="opacity:0.008" fill="#959595" d="M 155.5,160.5 C 156.906,160.973 157.573,161.973 157.5,163.5C 156.094,163.027 155.427,162.027 155.5,160.5 Z"/></g>
<g><path style="opacity:0.784" fill="#ababab" d="M 260.5,159.5 C 261.906,159.973 262.573,160.973 262.5,162.5C 261.094,162.027 260.427,161.027 260.5,159.5 Z"/></g>
<g><path style="opacity:0.725" fill="#a5a5a5" d="M 262.5,162.5 C 263.906,162.973 264.573,163.973 264.5,165.5C 263.094,165.027 262.427,164.027 262.5,162.5 Z"/></g>
<g><path style="opacity:0.706" fill="#a2a2a2" d="M 264.5,165.5 C 265.906,165.973 266.573,166.973 266.5,168.5C 265.094,168.027 264.427,167.027 264.5,165.5 Z"/></g>
<g><path style="opacity:0.835" fill="#acacac" d="M 266.5,168.5 C 267.906,168.973 268.573,169.973 268.5,171.5C 267.094,171.027 266.427,170.027 266.5,168.5 Z"/></g>
<g><path style="opacity:0.922" fill="#b1b1b1" d="M 268.5,171.5 C 270.262,172.262 271.262,173.596 271.5,175.5C 269.738,174.738 268.738,173.404 268.5,171.5 Z"/></g>
<g><path style="opacity:0.816" fill="#aaaaaa" d="M 271.5,175.5 C 272.906,175.973 273.573,176.973 273.5,178.5C 272.094,178.027 271.427,177.027 271.5,175.5 Z"/></g>
<g><path style="opacity:0.91" fill="#b9b9b9" d="M 273.5,178.5 C 274.906,178.973 275.573,179.973 275.5,181.5C 274.094,181.027 273.427,180.027 273.5,178.5 Z"/></g>
<g><path style="opacity:0.729" fill="#a0a0a0" d="M 280.5,187.5 C 281.906,187.973 282.573,188.973 282.5,190.5C 281.094,190.027 280.427,189.027 280.5,187.5 Z"/></g>
<g><path style="opacity:0.992" fill="#b5b5b5" d="M 282.5,190.5 C 284.262,191.262 285.262,192.596 285.5,194.5C 283.738,193.738 282.738,192.404 282.5,190.5 Z"/></g>
<g><path style="opacity:0.996" fill="#bababa" d="M 285.5,194.5 C 287.262,195.262 288.262,196.596 288.5,198.5C 286.738,197.738 285.738,196.404 285.5,194.5 Z"/></g>
<g><path style="opacity:0.953" fill="#acacac" d="M 290.5,200.5 C 291.906,200.973 292.573,201.973 292.5,203.5C 291.094,203.027 290.427,202.027 290.5,200.5 Z"/></g>
<g><path style="opacity:0.749" fill="#acacac" d="M 293.5,204.5 C 295.587,205.585 296.92,207.251 297.5,209.5C 295.413,208.415 294.08,206.749 293.5,204.5 Z"/></g>
<g><path style="opacity:0.804" fill="#a5a5a5" d="M 299.5,211.5 C 300.906,211.973 301.573,212.973 301.5,214.5C 300.094,214.027 299.427,213.027 299.5,211.5 Z"/></g>
<g><path style="opacity:0.953" fill="#acacac" d="M 303.5,216.5 C 304.906,216.973 305.573,217.973 305.5,219.5C 304.094,219.027 303.427,218.027 303.5,216.5 Z"/></g>
<g><path style="opacity:0.745" fill="#ababab" d="M 306.5,220.5 C 308.587,221.585 309.92,223.251 310.5,225.5C 308.413,224.415 307.08,222.749 306.5,220.5 Z"/></g>
<g><path style="opacity:0.925" fill="#a8a8a8" d="M 312.5,227.5 C 313.906,227.973 314.573,228.973 314.5,230.5C 313.094,230.027 312.427,229.027 312.5,227.5 Z"/></g>
<g><path style="opacity:0.031" fill="#989898" d="M 184.5,231.5 C 185.906,231.973 186.573,232.973 186.5,234.5C 185.094,234.027 184.427,233.027 184.5,231.5 Z"/></g>
<g><path style="opacity:0.941" fill="#ababab" d="M 190.5,238.5 C 192.027,238.427 193.027,239.094 193.5,240.5C 191.973,240.573 190.973,239.906 190.5,238.5 Z"/></g>
<g><path style="opacity:0.945" fill="#b7b7b7" d="M 198.5,244.5 C 200.404,244.738 201.738,245.738 202.5,247.5C 200.596,247.262 199.262,246.262 198.5,244.5 Z"/></g>
<g><path style="opacity:0.788" fill="#a9a9a9" d="M 202.5,247.5 C 204.027,247.427 205.027,248.094 205.5,249.5C 203.973,249.573 202.973,248.906 202.5,247.5 Z"/></g>
<g><path style="opacity:0.8" fill="#afafaf" d="M 207.5,250.5 C 209.027,250.427 210.027,251.094 210.5,252.5C 208.973,252.573 207.973,251.906 207.5,250.5 Z"/></g>
<g><path style="opacity:1" fill="#bbbbbb" d="M 374.5,269.5 C 375.71,269.932 376.71,270.599 377.5,271.5C 375.821,271.715 374.821,271.048 374.5,269.5 Z"/></g>
<g><path style="opacity:1" fill="#fafafa" d="M 140.5,297.5 C 140.738,299.404 141.738,300.738 143.5,301.5C 145.262,304.503 146.428,307.837 147,311.5C 147.886,316.47 148.552,321.47 149,326.5C 149.25,340.013 149.75,353.513 150.5,367C 150.103,372.581 149.269,378.081 148,383.5C 146.939,386.562 145.106,389.062 142.5,391C 132.338,395.289 122.005,395.623 111.5,392C 108.16,390.997 105.16,389.497 102.5,387.5C 102.027,386.094 101.027,385.427 99.5,385.5C 98.8333,385.5 98.5,385.167 98.5,384.5C 98.1667,383.5 97.5,382.833 96.5,382.5C 94.5905,381.025 93.4238,379.025 93,376.5C 92.3333,371.833 92.3333,367.167 93,362.5C 95.9635,350.61 99.1302,338.777 102.5,327C 100.108,320.882 97.4413,314.882 94.5,309C 94.6448,308.228 94.9781,307.561 95.5,307C 100.165,305.389 104.832,303.889 109.5,302.5C 111.027,302.573 112.027,301.906 112.5,300.5C 112.842,299.662 113.508,299.328 114.5,299.5C 116.027,299.573 117.027,298.906 117.5,297.5C 120.851,295.107 124.684,294.107 129,294.5C 133.316,294.107 137.149,295.107 140.5,297.5 Z"/></g>
<g><path style="opacity:0.796" fill="#acacac" d="M 307.5,294.5 C 309.027,294.427 310.027,295.094 310.5,296.5C 308.973,296.573 307.973,295.906 307.5,294.5 Z"/></g>
<g><path style="opacity:0.757" fill="#a7a7a7" d="M 310.5,296.5 C 312.027,296.427 313.027,297.094 313.5,298.5C 311.973,298.573 310.973,297.906 310.5,296.5 Z"/></g>
<g><path style="opacity:0.953" fill="#adadad" d="M 117.5,297.5 C 117.027,298.906 116.027,299.573 114.5,299.5C 114.973,298.094 115.973,297.427 117.5,297.5 Z"/></g>
<g><path style="opacity:0.914" fill="#a4a4a4" d="M 140.5,297.5 C 142.262,298.262 143.262,299.596 143.5,301.5C 141.738,300.738 140.738,299.404 140.5,297.5 Z"/></g>
<g><path style="opacity:0.992" fill="#b7b7b7" d="M 313.5,298.5 C 315.404,298.738 316.738,299.738 317.5,301.5C 315.596,301.262 314.262,300.262 313.5,298.5 Z"/></g>
<g><path style="opacity:0.98" fill="#b6b6b6" d="M 112.5,300.5 C 112.027,301.906 111.027,302.573 109.5,302.5C 109.973,301.094 110.973,300.427 112.5,300.5 Z"/></g>
<g><path style="opacity:0.969" fill="#a8a8a8" d="M 319.5,303.5 C 322.089,304.419 324.089,306.086 325.5,308.5C 322.911,307.581 320.911,305.914 319.5,303.5 Z"/></g>
<g><path style="opacity:0.016" fill="#9c9c9c" d="M 327.5,310.5 C 329.587,311.585 330.92,313.251 331.5,315.5C 329.413,314.415 328.08,312.749 327.5,310.5 Z"/></g>
<g><path style="opacity:0.945" fill="#a8a8a8" d="M 453.5,317.5 C 455.262,318.262 456.262,319.596 456.5,321.5C 454.738,320.738 453.738,319.404 453.5,317.5 Z"/></g>
<g><path style="opacity:0.024" fill="#989898" d="M 335.5,319.5 C 336.906,319.973 337.573,320.973 337.5,322.5C 336.094,322.027 335.427,321.027 335.5,319.5 Z"/></g>
<g><path style="opacity:0.788" fill="#adadad" d="M 457.5,323.5 C 458.906,323.973 459.573,324.973 459.5,326.5C 458.094,326.027 457.427,325.027 457.5,323.5 Z"/></g>
<g><path style="opacity:0.996" fill="#b6b6b6" d="M 408.5,329.5 C 411.228,329.171 413.562,329.837 415.5,331.5C 412.933,331.279 410.599,330.612 408.5,329.5 Z"/></g>
<g><path style="opacity:1" fill="#bbbbbb" d="M 356.5,351.5 C 358.048,351.821 358.715,352.821 358.5,354.5C 357.599,353.71 356.932,352.71 356.5,351.5 Z"/></g>
<g><path style="opacity:0.922" fill="#b1b1b1" d="M 396.5,359.5 C 398.262,360.262 399.262,361.596 399.5,363.5C 397.738,362.738 396.738,361.404 396.5,359.5 Z"/></g>
<g><path style="opacity:0.949" fill="#a6a6a6" d="M 403.5,367.5 C 405.587,368.585 406.92,370.251 407.5,372.5C 405.413,371.415 404.08,369.749 403.5,367.5 Z"/></g>
<g><path style="opacity:0.863" fill="#b4b4b4" d="M 409.5,374.5 C 410.906,374.973 411.573,375.973 411.5,377.5C 410.094,377.027 409.427,376.027 409.5,374.5 Z"/></g>
<g><path style="opacity:0.039" fill="#999999" d="M 96.5,382.5 C 97.5,382.833 98.1667,383.5 98.5,384.5C 97.1667,384.5 96.5,383.833 96.5,382.5 Z"/></g>
<g><path style="opacity:0.925" fill="#bbbbbb" d="M 99.5,385.5 C 101.027,385.427 102.027,386.094 102.5,387.5C 100.973,387.573 99.9731,386.906 99.5,385.5 Z"/></g>
<g><path style="opacity:0.008" fill="#959595" d="M 396.5,415.5 C 396.573,417.027 395.906,418.027 394.5,418.5C 394.427,416.973 395.094,415.973 396.5,415.5 Z"/></g>
<g><path style="opacity:0.008" fill="#919191" d="M 386.5,426.5 C 386.027,427.906 385.027,428.573 383.5,428.5C 383.973,427.094 384.973,426.427 386.5,426.5 Z"/></g>
<g><path style="opacity:1" fill="#fbfbfb" d="M 352.5,440.5 C 352.833,441.5 353.5,442.167 354.5,442.5C 355.833,443.167 356.833,444.167 357.5,445.5C 357.427,447.027 358.094,448.027 359.5,448.5C 359.427,450.027 360.094,451.027 361.5,451.5C 361.427,453.027 362.094,454.027 363.5,454.5C 371.224,467.513 372.39,481.18 367,495.5C 365.533,498.787 363.366,501.454 360.5,503.5C 359.5,503.833 358.833,504.5 358.5,505.5C 355.982,508.256 352.982,510.256 349.5,511.5C 344.5,511.5 339.5,511.5 334.5,511.5C 314.3,505.654 294.967,497.654 276.5,487.5C 276.027,486.094 275.027,485.427 273.5,485.5C 271.847,485.34 270.514,484.674 269.5,483.5C 269.027,482.094 268.027,481.427 266.5,481.5C 266.027,480.094 265.027,479.427 263.5,479.5C 263.027,478.094 262.027,477.427 260.5,477.5C 259.738,475.738 258.404,474.738 256.5,474.5C 256.027,473.094 255.027,472.427 253.5,472.5C 252.833,472.5 252.5,472.167 252.5,471.5C 252.027,470.094 251.027,469.427 249.5,469.5C 239.292,462.407 233.792,452.741 233,440.5C 233.351,436.441 235.185,433.441 238.5,431.5C 240.027,431.573 241.027,430.906 241.5,429.5C 258.936,427.104 275.27,430.604 290.5,440C 296.152,441.936 301.818,441.936 307.5,440C 315.591,436.191 324.091,434.024 333,433.5C 337.662,433.457 342.162,434.291 346.5,436C 349.106,436.792 351.106,438.292 352.5,440.5 Z"/></g>
<g><path style="opacity:0.98" fill="#b5b5b5" d="M 241.5,429.5 C 241.027,430.906 240.027,431.573 238.5,431.5C 238.973,430.094 239.973,429.427 241.5,429.5 Z"/></g>
<g><path style="opacity:0.016" fill="#999999" d="M 352.5,440.5 C 353.833,440.5 354.5,441.167 354.5,442.5C 353.5,442.167 352.833,441.5 352.5,440.5 Z"/></g>
<g><path style="opacity:0.792" fill="#a5a5a5" d="M 357.5,445.5 C 358.906,445.973 359.573,446.973 359.5,448.5C 358.094,448.027 357.427,447.027 357.5,445.5 Z"/></g>
<g><path style="opacity:0.745" fill="#a7a7a7" d="M 359.5,448.5 C 360.906,448.973 361.573,449.973 361.5,451.5C 360.094,451.027 359.427,450.027 359.5,448.5 Z"/></g>
<g><path style="opacity:0.69" fill="#a2a2a2" d="M 361.5,451.5 C 362.906,451.973 363.573,452.973 363.5,454.5C 362.094,454.027 361.427,453.027 361.5,451.5 Z"/></g>
<g><path style="opacity:0.949" fill="#acacac" d="M 249.5,469.5 C 251.027,469.427 252.027,470.094 252.5,471.5C 250.973,471.573 249.973,470.906 249.5,469.5 Z"/></g>
<g><path style="opacity:0.886" fill="#b5b5b5" d="M 253.5,472.5 C 255.027,472.427 256.027,473.094 256.5,474.5C 254.973,474.573 253.973,473.906 253.5,472.5 Z"/></g>
<g><path style="opacity:0.925" fill="#b3b3b3" d="M 256.5,474.5 C 258.404,474.738 259.738,475.738 260.5,477.5C 258.596,477.262 257.262,476.262 256.5,474.5 Z"/></g>
<g><path style="opacity:0.745" fill="#a5a5a5" d="M 260.5,477.5 C 262.027,477.427 263.027,478.094 263.5,479.5C 261.973,479.573 260.973,478.906 260.5,477.5 Z"/></g>
<g><path style="opacity:0.812" fill="#ababab" d="M 263.5,479.5 C 265.027,479.427 266.027,480.094 266.5,481.5C 264.973,481.573 263.973,480.906 263.5,479.5 Z"/></g>
<g><path style="opacity:0.702" fill="#a7a7a7" d="M 266.5,481.5 C 268.027,481.427 269.027,482.094 269.5,483.5C 267.973,483.573 266.973,482.906 266.5,481.5 Z"/></g>
<g><path style="opacity:0.592" fill="#a0a0a0" d="M 273.5,485.5 C 275.027,485.427 276.027,486.094 276.5,487.5C 274.973,487.573 273.973,486.906 273.5,485.5 Z"/></g>
<g><path style="opacity:0.008" fill="#979797" d="M 360.5,503.5 C 360.5,504.833 359.833,505.5 358.5,505.5C 358.833,504.5 359.5,503.833 360.5,503.5 Z"/></g>
</svg>
