<?xml version="1.0" standalone="no"?>
<!DOCTYPE svg PUBLIC "-//W3C//DTD SVG 20010904//EN"
 "http://www.w3.org/TR/2001/REC-SVG-20010904/DTD/svg10.dtd">
<svg version="1.0" xmlns="http://www.w3.org/2000/svg"
 width="500.000000pt" height="500.000000pt" viewBox="0 0 500.000000 500.000000"
 preserveAspectRatio="xMidYMid meet">

<g transform="translate(0.000000,500.000000) scale(0.100000,-0.100000)"
fill="#000000" stroke="none">
<path d="M1028 2806 c-48 -28 -88 -54 -88 -57 0 -4 43 -31 95 -60 l95 -54 1
-75 c0 -41 4 -94 7 -117 l7 -42 90 53 90 52 3 121 3 122 -99 55 c-54 31 -102
56 -108 55 -5 -1 -48 -24 -96 -53z"/>
<path d="M1680 2480 c0 -233 4 -360 10 -360 6 0 10 127 10 360 0 233 -4 360
-10 360 -6 0 -10 -127 -10 -360z"/>
<path d="M788 2663 l-98 -57 0 -117 0 -117 96 -56 c52 -31 97 -56 99 -56 3 0
6 53 7 117 l3 117 93 55 c50 31 92 58 92 61 0 6 -178 110 -189 110 -3 0 -50
-26 -103 -57z"/>
<path d="M1995 2661 c-75 -35 -105 -85 -105 -178 0 -77 33 -133 97 -164 44
-21 62 -23 198 -24 l150 0 3 43 c3 39 1 42 -21 42 -34 0 -38 9 -19 38 24 37
20 120 -8 171 -47 82 -194 119 -295 72z m150 -75 c61 -26 73 -136 20 -186 -30
-28 -96 -31 -125 -5 -58 53 -44 167 25 196 29 11 42 11 80 -5z"/>
<path d="M2951 2661 c-57 -30 -76 -85 -45 -130 15 -21 15 -25 2 -32 -50 -28
-63 -47 -63 -94 0 -39 5 -51 28 -71 32 -27 99 -48 130 -39 12 3 38 13 58 22
33 13 39 13 67 -1 38 -20 132 -22 132 -3 0 7 -18 30 -40 52 l-40 39 21 22 21
23 -25 25 c-30 30 -44 32 -69 9 -18 -16 -21 -14 -68 32 -53 52 -60 69 -34 79
18 7 29 2 60 -26 31 -27 108 -22 112 8 4 27 -34 73 -74 90 -46 19 -132 17
-173 -5z m64 -241 c14 -15 16 -23 7 -32 -16 -16 -62 -1 -62 21 0 36 27 42 55
11z"/>
<path d="M3995 2661 c-75 -35 -105 -85 -105 -178 0 -117 77 -185 209 -187 114
-1 185 47 211 143 24 89 -15 177 -94 216 -63 31 -160 34 -221 6z m149 -75 c84
-35 69 -185 -20 -202 -56 -10 -100 15 -114 65 -17 64 5 121 55 142 29 11 42
11 79 -5z"/>
<path d="M2400 2538 c0 -144 10 -178 63 -212 70 -47 211 -38 272 16 46 39 56
84 53 215 l-3 108 -55 0 -55 0 -2 -110 c-4 -137 -6 -149 -38 -163 -40 -19 -74
-14 -100 13 -24 23 -25 30 -25 145 l0 120 -55 0 -55 0 0 -132z"/>
<path d="M3310 2491 l0 -181 24 -6 c13 -3 37 -4 52 -2 l29 3 3 93 c1 50 6 92
11 92 4 0 22 -37 41 -82 37 -93 50 -108 95 -108 45 0 58 15 95 108 19 45 37
79 41 75 5 -5 9 -46 11 -93 l3 -85 29 -3 c15 -2 39 -1 52 2 l24 6 -2 178 -3
177 -74 0 -74 0 -50 -118 c-27 -65 -52 -115 -55 -112 -4 3 -28 57 -53 118
l-47 112 -76 3 -76 3 0 -180z"/>
<path d="M930 2348 l0 -113 100 -59 100 -58 100 59 100 58 0 113 c0 61 -2 112
-4 112 -3 0 -48 -25 -101 -56 l-96 -55 -92 53 c-50 29 -95 55 -99 56 -4 2 -8
-47 -8 -110z"/>
</g>
</svg>
