<?xml version="1.0" encoding="UTF-8"?>
<!DOCTYPE svg PUBLIC "-//W3C//DTD SVG 1.1//EN" "http://www.w3.org/Graphics/SVG/1.1/DTD/svg11.dtd">
<svg xmlns="http://www.w3.org/2000/svg" version="1.1" width="2129px" height="2129px" style="shape-rendering:geometricPrecision; text-rendering:geometricPrecision; image-rendering:optimizeQuality; fill-rule:evenodd; clip-rule:evenodd" xmlns:xlink="http://www.w3.org/1999/xlink">
<g><path style="opacity:1" fill="#fefefe" d="M 799.5,-0.5 C 977.5,-0.5 1155.5,-0.5 1333.5,-0.5C 1399.71,0.867054 1466.05,3.36705 1532.5,7C 1625.39,11.2429 1714.39,31.9095 1799.5,69C 1814.84,76.3361 1829.84,84.1695 1844.5,92.5C 1844.82,94.0481 1845.82,94.7148 1847.5,94.5C 1913.58,133.59 1968.91,184.59 2013.5,247.5C 2013.43,249.027 2014.09,250.027 2015.5,250.5C 2015.43,252.027 2016.09,253.027 2017.5,253.5C 2021.99,259.148 2025.99,265.148 2029.5,271.5C 2029.43,273.027 2030.09,274.027 2031.5,274.5C 2056.95,315.083 2076.79,358.416 2091,404.5C 2109.77,465.457 2121.1,527.791 2125,591.5C 2126.12,611.328 2127.29,630.994 2128.5,650.5C 2128.5,919.833 2128.5,1189.17 2128.5,1458.5C 2127.1,1513.98 2122.26,1569.31 2114,1624.5C 2099.85,1714.65 2067.85,1797.65 2018,1873.5C 1936.28,1988.78 1826.44,2063.61 1688.5,2098C 1643.45,2109.12 1597.78,2116.45 1551.5,2120C 1479.4,2124.33 1407.4,2127.16 1335.5,2128.5C 1156.83,2128.5 978.167,2128.5 799.5,2128.5C 732.285,2127.18 664.952,2124.68 597.5,2121C 506.295,2116.36 418.961,2095.69 335.5,2059C 316.637,2050.41 298.637,2040.58 281.5,2029.5C 281.027,2028.09 280.027,2027.43 278.5,2027.5C 275.489,2026.33 272.822,2024.66 270.5,2022.5C 270.027,2021.09 269.027,2020.43 267.5,2020.5C 267.027,2019.09 266.027,2018.43 264.5,2018.5C 264.027,2017.09 263.027,2016.43 261.5,2016.5C 261.027,2015.09 260.027,2014.43 258.5,2014.5C 258.027,2013.09 257.027,2012.43 255.5,2012.5C 253.77,2011.97 252.436,2010.97 251.5,2009.5C 251.027,2008.09 250.027,2007.43 248.5,2007.5C 233.21,1997.02 218.876,1985.35 205.5,1972.5C 205.027,1971.09 204.027,1970.43 202.5,1970.5C 197.5,1966.17 192.833,1961.5 188.5,1956.5C 188.027,1955.09 187.027,1954.43 185.5,1954.5C 129.392,1900.35 87.2252,1836.68 59,1763.5C 27.7066,1679.7 11.0399,1593.03 9,1503.5C 6.52166,1452.53 4.85499,1401.53 4,1350.5C 1.75415,1145.16 2.08748,939.828 5,734.5C 6.43663,683.791 8.76996,633.124 12,582.5C 17.5305,497.047 37.1971,415.047 71,336.5C 81.7372,312.678 94.2372,290.011 108.5,268.5C 109.906,268.027 110.573,267.027 110.5,265.5C 110.427,263.973 111.094,262.973 112.5,262.5C 113.906,262.027 114.573,261.027 114.5,259.5C 115.906,259.027 116.573,258.027 116.5,256.5C 117.906,256.027 118.573,255.027 118.5,253.5C 120.445,249.264 123.112,245.597 126.5,242.5C 127.906,242.027 128.573,241.027 128.5,239.5C 129.124,237.246 130.457,235.579 132.5,234.5C 133.906,234.027 134.573,233.027 134.5,231.5C 137.152,227.518 140.152,223.851 143.5,220.5C 144.906,220.027 145.573,219.027 145.5,217.5C 146.167,216.167 147.167,215.167 148.5,214.5C 149.906,214.027 150.573,213.027 150.5,211.5C 156.158,204.509 162.158,197.843 168.5,191.5C 171.167,190.833 172.833,189.167 173.5,186.5C 179.5,179.833 185.833,173.5 192.5,167.5C 196.436,165.234 199.769,162.234 202.5,158.5C 203.5,156.833 204.833,155.5 206.5,154.5C 209.089,153.581 211.089,151.914 212.5,149.5C 212.833,148.5 213.5,147.833 214.5,147.5C 216.749,146.92 218.415,145.587 219.5,143.5C 219.5,142.833 219.833,142.5 220.5,142.5C 222.749,141.92 224.415,140.587 225.5,138.5C 231.522,133.15 237.855,128.15 244.5,123.5C 246.027,123.573 247.027,122.906 247.5,121.5C 294.589,86.9537 346.256,60.787 402.5,43C 465.985,22.9033 530.985,10.9033 597.5,7C 664.953,3.35311 732.286,0.853106 799.5,-0.5 Z M 1761.5,268.5 C 1761.97,269.906 1762.97,270.573 1764.5,270.5C 1764.97,271.906 1765.97,272.573 1767.5,272.5C 1767.97,273.906 1768.97,274.573 1770.5,274.5C 1771.44,275.974 1772.77,276.974 1774.5,277.5C 1774.97,278.906 1775.97,279.573 1777.5,279.5C 1843.21,329.178 1887.37,393.844 1910,473.5C 1922.78,519.315 1930.45,565.981 1933,613.5C 1935.91,667.467 1937.91,721.467 1939,775.5C 1941,968.5 1941,1161.5 1939,1354.5C 1937.91,1408.53 1935.91,1462.53 1933,1516.5C 1930.27,1581.16 1916.94,1643.49 1893,1703.5C 1884.76,1722.31 1875.26,1740.31 1864.5,1757.5C 1863.09,1757.97 1862.43,1758.97 1862.5,1760.5C 1861.09,1760.97 1860.43,1761.97 1860.5,1763.5C 1859.09,1763.97 1858.43,1764.97 1858.5,1766.5C 1857.03,1767.44 1856.03,1768.77 1855.5,1770.5C 1854.09,1770.97 1853.43,1771.97 1853.5,1773.5C 1847.15,1780.52 1841.15,1787.85 1835.5,1795.5C 1834.09,1795.97 1833.43,1796.97 1833.5,1798.5C 1831.17,1800.17 1829.17,1802.17 1827.5,1804.5C 1825.17,1806.17 1823.17,1808.17 1821.5,1810.5C 1819.5,1812.83 1817.5,1815.17 1815.5,1817.5C 1811.56,1819.77 1808.23,1822.77 1805.5,1826.5C 1804.17,1827.17 1803.17,1828.17 1802.5,1829.5C 1800.25,1830.08 1798.58,1831.41 1797.5,1833.5C 1790.52,1838.48 1783.85,1843.82 1777.5,1849.5C 1775.97,1849.43 1774.97,1850.09 1774.5,1851.5C 1770.78,1853.35 1767.45,1855.69 1764.5,1858.5C 1762.97,1858.43 1761.97,1859.09 1761.5,1860.5C 1710.07,1891.82 1654.4,1911.98 1594.5,1921C 1565.33,1925.58 1536,1928.58 1506.5,1930C 1438.21,1933.49 1369.88,1935.49 1301.5,1936C 1145.83,1936.67 990.167,1936.67 834.5,1936C 760.775,1935.5 687.108,1933.17 613.5,1929C 539.929,1925.94 469.929,1908.77 403.5,1877.5C 402.71,1876.6 401.71,1875.93 400.5,1875.5C 365.163,1856.52 333.83,1832.18 306.5,1802.5C 306.573,1800.97 305.906,1799.97 304.5,1799.5C 302.833,1797.17 300.833,1795.17 298.5,1793.5C 298.573,1791.97 297.906,1790.97 296.5,1790.5C 292.156,1785.13 287.823,1779.79 283.5,1774.5C 283.573,1772.97 282.906,1771.97 281.5,1771.5C 281.5,1770.83 281.167,1770.5 280.5,1770.5C 280.573,1768.97 279.906,1767.97 278.5,1767.5C 278.573,1765.97 277.906,1764.97 276.5,1764.5C 244.775,1714.18 223.942,1659.52 214,1600.5C 209.851,1576.64 206.851,1552.64 205,1528.5C 199.408,1431.25 196.741,1333.92 197,1236.5C 195.968,1070.49 196.635,904.492 199,738.5C 200.25,685.424 202.916,632.424 207,579.5C 212.368,514.404 229.702,452.738 259,394.5C 307.743,309.447 379.243,252.947 473.5,225C 519.586,211.708 566.586,203.708 614.5,201C 690.774,196.738 767.107,194.404 843.5,194C 993.5,193.333 1143.5,193.333 1293.5,194C 1369.89,194.358 1446.23,196.692 1522.5,201C 1586.81,203.86 1648.81,217.194 1708.5,241C 1726.82,249.157 1744.48,258.323 1761.5,268.5 Z M 1257.5,764.5 C 1257.97,765.906 1258.97,766.573 1260.5,766.5C 1260.97,767.906 1261.97,768.573 1263.5,768.5C 1263.97,769.906 1264.97,770.573 1266.5,770.5C 1266.97,771.906 1267.97,772.573 1269.5,772.5C 1376.92,852.032 1427.42,959.032 1421,1093.5C 1415.87,1152.05 1397.7,1206.05 1366.5,1255.5C 1365.09,1255.97 1364.43,1256.97 1364.5,1258.5C 1363.09,1258.97 1362.43,1259.97 1362.5,1261.5C 1361.09,1261.97 1360.43,1262.97 1360.5,1264.5C 1359.09,1264.97 1358.43,1265.97 1358.5,1267.5C 1357.03,1268.44 1356.03,1269.77 1355.5,1271.5C 1354.09,1271.97 1353.43,1272.97 1353.5,1274.5C 1352.83,1274.5 1352.5,1274.83 1352.5,1275.5C 1351.09,1275.97 1350.43,1276.97 1350.5,1278.5C 1346.82,1282.18 1343.49,1286.18 1340.5,1290.5C 1339.09,1290.97 1338.43,1291.97 1338.5,1293.5C 1334.48,1296.56 1331.14,1300.22 1328.5,1304.5C 1326.5,1305.83 1324.83,1307.5 1323.5,1309.5C 1318.17,1314.17 1313.17,1319.17 1308.5,1324.5C 1306.83,1325.5 1305.5,1326.83 1304.5,1328.5C 1301.91,1329.42 1299.91,1331.09 1298.5,1333.5C 1289.28,1340.27 1280.28,1347.27 1271.5,1354.5C 1269.97,1354.43 1268.97,1355.09 1268.5,1356.5C 1166.77,1422.42 1058.43,1435.59 943.5,1396C 876.777,1369.82 822.11,1327.98 779.5,1270.5C 779.573,1268.97 778.906,1267.97 777.5,1267.5C 713.112,1170.62 697.612,1066.29 731,954.5C 771.912,839.921 850.079,763.421 965.5,725C 1068.65,696.094 1165.99,709.261 1257.5,764.5 Z"/></g>
<g><path style="opacity:1" fill="#c9aeae" d="M 1844.5,92.5 C 1845.71,92.9321 1846.71,93.5987 1847.5,94.5C 1845.82,94.7148 1844.82,94.0481 1844.5,92.5 Z"/></g>
<g><path style="opacity:0.992" fill="#cfb3b3" d="M 247.5,121.5 C 247.027,122.906 246.027,123.573 244.5,123.5C 244.973,122.094 245.973,121.427 247.5,121.5 Z"/></g>
<g><path style="opacity:1" fill="#dbc5c5" d="M 225.5,138.5 C 224.415,140.587 222.749,141.92 220.5,142.5C 221.585,140.413 223.251,139.08 225.5,138.5 Z"/></g>
<g><path style="opacity:1" fill="#dac4c4" d="M 219.5,143.5 C 218.415,145.587 216.749,146.92 214.5,147.5C 215.585,145.413 217.251,144.08 219.5,143.5 Z"/></g>
<g><path style="opacity:1" fill="#d8c2c2" d="M 212.5,149.5 C 211.089,151.914 209.089,153.581 206.5,154.5C 207.911,152.086 209.911,150.419 212.5,149.5 Z"/></g>
<g><path style="opacity:1" fill="#dac6c6" d="M 202.5,158.5 C 199.769,162.234 196.436,165.234 192.5,167.5C 195.231,163.766 198.564,160.766 202.5,158.5 Z"/></g>
<g><path style="opacity:1" fill="#dcc9c9" d="M 173.5,186.5 C 172.833,189.167 171.167,190.833 168.5,191.5C 169.833,189.5 171.5,187.833 173.5,186.5 Z"/></g>
<g><path style="opacity:0.933" fill="#c6a7a7" d="M 150.5,211.5 C 150.573,213.027 149.906,214.027 148.5,214.5C 148.427,212.973 149.094,211.973 150.5,211.5 Z"/></g>
<g><path style="opacity:0.933" fill="#c6a7a7" d="M 145.5,217.5 C 145.573,219.027 144.906,220.027 143.5,220.5C 143.427,218.973 144.094,217.973 145.5,217.5 Z"/></g>
<g><path style="opacity:0.965" fill="#cdb1b1" d="M 134.5,231.5 C 134.573,233.027 133.906,234.027 132.5,234.5C 132.427,232.973 133.094,231.973 134.5,231.5 Z"/></g>
<g><path style="opacity:0.965" fill="#cdb1b1" d="M 128.5,239.5 C 128.573,241.027 127.906,242.027 126.5,242.5C 126.427,240.973 127.094,239.973 128.5,239.5 Z"/></g>
<g><path style="opacity:0.933" fill="#c9abab" d="M 2013.5,247.5 C 2014.91,247.973 2015.57,248.973 2015.5,250.5C 2014.09,250.027 2013.43,249.027 2013.5,247.5 Z"/></g>
<g><path style="opacity:0.965" fill="#cfb4b4" d="M 2015.5,250.5 C 2016.91,250.973 2017.57,251.973 2017.5,253.5C 2016.09,253.027 2015.43,252.027 2015.5,250.5 Z"/></g>
<g><path style="opacity:0.898" fill="#c6a7a7" d="M 118.5,253.5 C 118.573,255.027 117.906,256.027 116.5,256.5C 116.427,254.973 117.094,253.973 118.5,253.5 Z"/></g>
<g><path style="opacity:0.965" fill="#cfb3b3" d="M 116.5,256.5 C 116.573,258.027 115.906,259.027 114.5,259.5C 114.427,257.973 115.094,256.973 116.5,256.5 Z"/></g>
<g><path style="opacity:0.965" fill="#cfb4b4" d="M 114.5,259.5 C 114.573,261.027 113.906,262.027 112.5,262.5C 112.427,260.973 113.094,259.973 114.5,259.5 Z"/></g>
<g><path style="opacity:0.898" fill="#c6a7a7" d="M 110.5,265.5 C 110.573,267.027 109.906,268.027 108.5,268.5C 108.427,266.973 109.094,265.973 110.5,265.5 Z"/></g>
<g><path style="opacity:0.898" fill="#c6a7a7" d="M 1761.5,268.5 C 1763.03,268.427 1764.03,269.094 1764.5,270.5C 1762.97,270.573 1761.97,269.906 1761.5,268.5 Z"/></g>
<g><path style="opacity:0.898" fill="#c6a7a7" d="M 1764.5,270.5 C 1766.03,270.427 1767.03,271.094 1767.5,272.5C 1765.97,272.573 1764.97,271.906 1764.5,270.5 Z"/></g>
<g><path style="opacity:0.933" fill="#caacac" d="M 1767.5,272.5 C 1769.03,272.427 1770.03,273.094 1770.5,274.5C 1768.97,274.573 1767.97,273.906 1767.5,272.5 Z"/></g>
<g><path style="opacity:0.898" fill="#c7a8a8" d="M 2029.5,271.5 C 2030.91,271.973 2031.57,272.973 2031.5,274.5C 2030.09,274.027 2029.43,273.027 2029.5,271.5 Z"/></g>
<g><path style="opacity:0.898" fill="#c4a4a4" d="M 1774.5,277.5 C 1776.03,277.427 1777.03,278.094 1777.5,279.5C 1775.97,279.573 1774.97,278.906 1774.5,277.5 Z"/></g>
<g><path style="opacity:1" fill="#fefdfd" d="M 1731.5,409.5 C 1731.43,411.027 1732.09,412.027 1733.5,412.5C 1736.64,415.429 1739.3,418.762 1741.5,422.5C 1741.43,424.027 1742.09,425.027 1743.5,425.5C 1765.65,460.397 1770.48,497.73 1758,537.5C 1736.13,592.363 1695.63,621.03 1636.5,623.5C 1605.71,623.907 1578.71,614.241 1555.5,594.5C 1555.03,593.094 1554.03,592.427 1552.5,592.5C 1515.94,559.003 1502.11,517.669 1511,468.5C 1514.38,452.827 1520.55,438.494 1529.5,425.5C 1530.91,425.027 1531.57,424.027 1531.5,422.5C 1534.43,417.235 1538.1,412.568 1542.5,408.5C 1546.77,405.899 1550.44,402.566 1553.5,398.5C 1580.66,375.06 1612.33,364.893 1648.5,368C 1681.66,371.245 1709.32,385.078 1731.5,409.5 Z"/></g>
<g><path style="opacity:1" fill="#dac6c6" d="M 1553.5,398.5 C 1550.44,402.566 1546.77,405.899 1542.5,408.5C 1545.56,404.434 1549.23,401.101 1553.5,398.5 Z"/></g>
<g><path style="opacity:0.937" fill="#c7a9a9" d="M 1731.5,409.5 C 1732.91,409.973 1733.57,410.973 1733.5,412.5C 1732.09,412.027 1731.43,411.027 1731.5,409.5 Z"/></g>
<g><path style="opacity:0.898" fill="#c7a8a8" d="M 1531.5,422.5 C 1531.57,424.027 1530.91,425.027 1529.5,425.5C 1529.43,423.973 1530.09,422.973 1531.5,422.5 Z"/></g>
<g><path style="opacity:0.898" fill="#c6a8a8" d="M 1741.5,422.5 C 1742.91,422.973 1743.57,423.973 1743.5,425.5C 1742.09,425.027 1741.43,424.027 1741.5,422.5 Z"/></g>
<g><path style="opacity:1" fill="#fefefe" d="M 1330.5,583.5 C 1330.82,585.048 1331.82,585.715 1333.5,585.5C 1337.33,587.246 1340.99,589.246 1344.5,591.5C 1344.82,593.048 1345.82,593.715 1347.5,593.5C 1394.76,621.166 1436.76,655.5 1473.5,696.5C 1473.43,698.027 1474.09,699.027 1475.5,699.5C 1477.5,700.833 1479.17,702.5 1480.5,704.5C 1480.43,706.027 1481.09,707.027 1482.5,707.5C 1484.17,708.5 1485.5,709.833 1486.5,711.5C 1486.43,713.027 1487.09,714.027 1488.5,714.5C 1491.78,717.043 1494.61,720.043 1497,723.5C 1502.72,731.045 1508.22,738.712 1513.5,746.5C 1513.43,748.027 1514.09,749.027 1515.5,749.5C 1581.56,843.527 1614.89,948.36 1615.5,1064C 1613.1,1222.32 1555.1,1355.99 1441.5,1465C 1312.45,1580.67 1161.45,1627.67 988.5,1606C 909.484,1594.51 836.817,1567.01 770.5,1523.5C 770.027,1522.09 769.027,1521.43 767.5,1521.5C 767.027,1520.09 766.027,1519.43 764.5,1519.5C 764.027,1518.09 763.027,1517.43 761.5,1517.5C 761.027,1516.09 760.027,1515.43 758.5,1515.5C 755.865,1514.19 753.531,1512.52 751.5,1510.5C 751.027,1509.09 750.027,1508.43 748.5,1508.5C 738.918,1502.21 729.918,1495.21 721.5,1487.5C 721.027,1486.09 720.027,1485.43 718.5,1485.5C 717.167,1484.83 716.167,1483.83 715.5,1482.5C 715.027,1481.09 714.027,1480.43 712.5,1480.5C 666.085,1440.77 627.418,1394.77 596.5,1342.5C 596.715,1340.82 596.048,1339.82 594.5,1339.5C 527.539,1221.41 506.039,1095.41 530,961.5C 543.546,890.646 570.046,825.313 609.5,765.5C 610.906,765.027 611.573,764.027 611.5,762.5C 612.906,762.027 613.573,761.027 613.5,759.5C 614.906,759.027 615.573,758.027 615.5,756.5C 616.906,756.027 617.573,755.027 617.5,753.5C 618.026,751.77 619.026,750.436 620.5,749.5C 621.906,749.027 622.573,748.027 622.5,746.5C 623.026,744.77 624.026,743.436 625.5,742.5C 626.906,742.027 627.573,741.027 627.5,739.5C 628.124,737.246 629.457,735.579 631.5,734.5C 632.906,734.027 633.573,733.027 633.5,731.5C 639.128,723.241 645.461,715.574 652.5,708.5C 653.906,708.027 654.573,707.027 654.5,705.5C 660.158,698.509 666.158,691.843 672.5,685.5C 679.11,680.559 685.11,674.892 690.5,668.5C 692.5,665.833 694.833,663.5 697.5,661.5C 700.427,660.243 702.761,658.243 704.5,655.5C 705.167,654.167 706.167,653.167 707.5,652.5C 709.749,651.92 711.415,650.587 712.5,648.5C 810.034,565.351 923.368,521.518 1052.5,517C 1151.14,514.661 1243.81,536.828 1330.5,583.5 Z M 1257.5,764.5 C 1257.97,765.906 1258.97,766.573 1260.5,766.5C 1260.97,767.906 1261.97,768.573 1263.5,768.5C 1263.97,769.906 1264.97,770.573 1266.5,770.5C 1266.97,771.906 1267.97,772.573 1269.5,772.5C 1376.92,852.032 1427.42,959.032 1421,1093.5C 1415.87,1152.05 1397.7,1206.05 1366.5,1255.5C 1365.09,1255.97 1364.43,1256.97 1364.5,1258.5C 1363.09,1258.97 1362.43,1259.97 1362.5,1261.5C 1361.09,1261.97 1360.43,1262.97 1360.5,1264.5C 1359.09,1264.97 1358.43,1265.97 1358.5,1267.5C 1357.03,1268.44 1356.03,1269.77 1355.5,1271.5C 1354.09,1271.97 1353.43,1272.97 1353.5,1274.5C 1352.83,1274.5 1352.5,1274.83 1352.5,1275.5C 1351.09,1275.97 1350.43,1276.97 1350.5,1278.5C 1346.82,1282.18 1343.49,1286.18 1340.5,1290.5C 1339.09,1290.97 1338.43,1291.97 1338.5,1293.5C 1334.48,1296.56 1331.14,1300.22 1328.5,1304.5C 1326.5,1305.83 1324.83,1307.5 1323.5,1309.5C 1318.17,1314.17 1313.17,1319.17 1308.5,1324.5C 1306.83,1325.5 1305.5,1326.83 1304.5,1328.5C 1301.91,1329.42 1299.91,1331.09 1298.5,1333.5C 1289.28,1340.27 1280.28,1347.27 1271.5,1354.5C 1269.97,1354.43 1268.97,1355.09 1268.5,1356.5C 1166.77,1422.42 1058.43,1435.59 943.5,1396C 876.777,1369.82 822.11,1327.98 779.5,1270.5C 779.573,1268.97 778.906,1267.97 777.5,1267.5C 713.112,1170.62 697.612,1066.29 731,954.5C 771.912,839.921 850.079,763.421 965.5,725C 1068.65,696.094 1165.99,709.261 1257.5,764.5 Z"/></g>
<g><path style="opacity:1" fill="#c8aeae" d="M 1330.5,583.5 C 1331.71,583.932 1332.71,584.599 1333.5,585.5C 1331.82,585.715 1330.82,585.048 1330.5,583.5 Z"/></g>
<g><path style="opacity:1" fill="#cab0b0" d="M 1344.5,591.5 C 1345.71,591.932 1346.71,592.599 1347.5,593.5C 1345.82,593.715 1344.82,593.048 1344.5,591.5 Z"/></g>
<g><path style="opacity:0.992" fill="#c9adad" d="M 1552.5,592.5 C 1554.03,592.427 1555.03,593.094 1555.5,594.5C 1553.97,594.573 1552.97,593.906 1552.5,592.5 Z"/></g>
<g><path style="opacity:1" fill="#d8c2c2" d="M 712.5,648.5 C 711.415,650.587 709.749,651.92 707.5,652.5C 708.585,650.413 710.251,649.08 712.5,648.5 Z"/></g>
<g><path style="opacity:1" fill="#dac5c5" d="M 704.5,655.5 C 702.761,658.243 700.427,660.243 697.5,661.5C 699.239,658.757 701.573,656.757 704.5,655.5 Z"/></g>
<g><path style="opacity:0.992" fill="#d3baba" d="M 690.5,668.5 C 685.11,674.892 679.11,680.559 672.5,685.5C 677.89,679.108 683.89,673.441 690.5,668.5 Z"/></g>
<g><path style="opacity:0.992" fill="#c9adad" d="M 1473.5,696.5 C 1474.91,696.973 1475.57,697.973 1475.5,699.5C 1474.09,699.027 1473.43,698.027 1473.5,696.5 Z"/></g>
<g><path style="opacity:0.992" fill="#ccb1b1" d="M 1480.5,704.5 C 1481.91,704.973 1482.57,705.973 1482.5,707.5C 1481.09,707.027 1480.43,706.027 1480.5,704.5 Z"/></g>
<g><path style="opacity:0.992" fill="#c9adad" d="M 654.5,705.5 C 654.573,707.027 653.906,708.027 652.5,708.5C 652.427,706.973 653.094,705.973 654.5,705.5 Z"/></g>
<g><path style="opacity:0.992" fill="#cbafae" d="M 1486.5,711.5 C 1487.91,711.973 1488.57,712.973 1488.5,714.5C 1487.09,714.027 1486.43,713.027 1486.5,711.5 Z"/></g>
<g><path style="opacity:0.965" fill="#ceb2b2" d="M 633.5,731.5 C 633.573,733.027 632.906,734.027 631.5,734.5C 631.427,732.973 632.094,731.973 633.5,731.5 Z"/></g>
<g><path style="opacity:0.965" fill="#ceb2b2" d="M 627.5,739.5 C 627.573,741.027 626.906,742.027 625.5,742.5C 625.427,740.973 626.094,739.973 627.5,739.5 Z"/></g>
<g><path style="opacity:0.965" fill="#d0b5b5" d="M 622.5,746.5 C 622.573,748.027 621.906,749.027 620.5,749.5C 620.427,747.973 621.094,746.973 622.5,746.5 Z"/></g>
<g><path style="opacity:0.898" fill="#c5a6a6" d="M 1513.5,746.5 C 1514.91,746.973 1515.57,747.973 1515.5,749.5C 1514.09,749.027 1513.43,748.027 1513.5,746.5 Z"/></g>
<g><path style="opacity:0.898" fill="#c5a6a6" d="M 617.5,753.5 C 617.573,755.027 616.906,756.027 615.5,756.5C 615.427,754.973 616.094,753.973 617.5,753.5 Z"/></g>
<g><path style="opacity:0.898" fill="#c7a9a9" d="M 615.5,756.5 C 615.573,758.027 614.906,759.027 613.5,759.5C 613.427,757.973 614.094,756.973 615.5,756.5 Z"/></g>
<g><path style="opacity:0.898" fill="#c7a9a9" d="M 613.5,759.5 C 613.573,761.027 612.906,762.027 611.5,762.5C 611.427,760.973 612.094,759.973 613.5,759.5 Z"/></g>
<g><path style="opacity:0.898" fill="#c7a9a9" d="M 611.5,762.5 C 611.573,764.027 610.906,765.027 609.5,765.5C 609.427,763.973 610.094,762.973 611.5,762.5 Z"/></g>
<g><path style="opacity:0.898" fill="#c8aaaa" d="M 1257.5,764.5 C 1259.03,764.427 1260.03,765.094 1260.5,766.5C 1258.97,766.573 1257.97,765.906 1257.5,764.5 Z"/></g>
<g><path style="opacity:0.898" fill="#c7a9a9" d="M 1260.5,766.5 C 1262.03,766.427 1263.03,767.094 1263.5,768.5C 1261.97,768.573 1260.97,767.906 1260.5,766.5 Z"/></g>
<g><path style="opacity:0.898" fill="#c7a9a9" d="M 1263.5,768.5 C 1265.03,768.427 1266.03,769.094 1266.5,770.5C 1264.97,770.573 1263.97,769.906 1263.5,768.5 Z"/></g>
<g><path style="opacity:0.898" fill="#c7a9a9" d="M 1266.5,770.5 C 1268.03,770.427 1269.03,771.094 1269.5,772.5C 1267.97,772.573 1266.97,771.906 1266.5,770.5 Z"/></g>
<g><path style="opacity:0.898" fill="#c7a9a9" d="M 1366.5,1255.5 C 1366.57,1257.03 1365.91,1258.03 1364.5,1258.5C 1364.43,1256.97 1365.09,1255.97 1366.5,1255.5 Z"/></g>
<g><path style="opacity:0.898" fill="#c7a9a9" d="M 1364.5,1258.5 C 1364.57,1260.03 1363.91,1261.03 1362.5,1261.5C 1362.43,1259.97 1363.09,1258.97 1364.5,1258.5 Z"/></g>
<g><path style="opacity:0.898" fill="#c7a9a9" d="M 1362.5,1261.5 C 1362.57,1263.03 1361.91,1264.03 1360.5,1264.5C 1360.43,1262.97 1361.09,1261.97 1362.5,1261.5 Z"/></g>
<g><path style="opacity:0.965" fill="#cfb3b3" d="M 1360.5,1264.5 C 1360.57,1266.03 1359.91,1267.03 1358.5,1267.5C 1358.43,1265.97 1359.09,1264.97 1360.5,1264.5 Z"/></g>
<g><path style="opacity:0.965" fill="#cfb3b3" d="M 777.5,1267.5 C 778.906,1267.97 779.573,1268.97 779.5,1270.5C 778.094,1270.03 777.427,1269.03 777.5,1267.5 Z"/></g>
<g><path style="opacity:0.965" fill="#ceb2b2" d="M 1355.5,1271.5 C 1355.57,1273.03 1354.91,1274.03 1353.5,1274.5C 1353.43,1272.97 1354.09,1271.97 1355.5,1271.5 Z"/></g>
<g><path style="opacity:0.937" fill="#c8aaaa" d="M 1352.5,1275.5 C 1352.57,1277.03 1351.91,1278.03 1350.5,1278.5C 1350.43,1276.97 1351.09,1275.97 1352.5,1275.5 Z"/></g>
<g><path style="opacity:0.937" fill="#c7a9a9" d="M 1340.5,1290.5 C 1340.57,1292.03 1339.91,1293.03 1338.5,1293.5C 1338.43,1291.97 1339.09,1290.97 1340.5,1290.5 Z"/></g>
<g><path style="opacity:1" fill="#ddcaca" d="M 1328.5,1304.5 C 1327.83,1307.17 1326.17,1308.83 1323.5,1309.5C 1324.83,1307.5 1326.5,1305.83 1328.5,1304.5 Z"/></g>
<g><path style="opacity:0.992" fill="#d5bebe" d="M 1323.5,1309.5 C 1319.5,1315.5 1314.5,1320.5 1308.5,1324.5C 1313.17,1319.17 1318.17,1314.17 1323.5,1309.5 Z"/></g>
<g><path style="opacity:1" fill="#dcc7c7" d="M 1304.5,1328.5 C 1303.09,1330.91 1301.09,1332.58 1298.5,1333.5C 1299.91,1331.09 1301.91,1329.42 1304.5,1328.5 Z"/></g>
<g><path style="opacity:1" fill="#cab0b0" d="M 594.5,1339.5 C 596.048,1339.82 596.715,1340.82 596.5,1342.5C 595.599,1341.71 594.932,1340.71 594.5,1339.5 Z"/></g>
<g><path style="opacity:0.992" fill="#ceb2b2" d="M 1271.5,1354.5 C 1271.03,1355.91 1270.03,1356.57 1268.5,1356.5C 1268.97,1355.09 1269.97,1354.43 1271.5,1354.5 Z"/></g>
<g><path style="opacity:0.937" fill="#c7a9a9" d="M 712.5,1480.5 C 714.027,1480.43 715.027,1481.09 715.5,1482.5C 713.973,1482.57 712.973,1481.91 712.5,1480.5 Z"/></g>
<g><path style="opacity:0.937" fill="#c7a9a9" d="M 718.5,1485.5 C 720.027,1485.43 721.027,1486.09 721.5,1487.5C 719.973,1487.57 718.973,1486.91 718.5,1485.5 Z"/></g>
<g><path style="opacity:0.937" fill="#caadac" d="M 748.5,1508.5 C 750.027,1508.43 751.027,1509.09 751.5,1510.5C 749.973,1510.57 748.973,1509.91 748.5,1508.5 Z"/></g>
<g><path style="opacity:0.898" fill="#c6a8a8" d="M 758.5,1515.5 C 760.027,1515.43 761.027,1516.09 761.5,1517.5C 759.973,1517.57 758.973,1516.91 758.5,1515.5 Z"/></g>
<g><path style="opacity:0.898" fill="#c7a9a9" d="M 761.5,1517.5 C 763.027,1517.43 764.027,1518.09 764.5,1519.5C 762.973,1519.57 761.973,1518.91 761.5,1517.5 Z"/></g>
<g><path style="opacity:0.898" fill="#c7a9a9" d="M 764.5,1519.5 C 766.027,1519.43 767.027,1520.09 767.5,1521.5C 765.973,1521.57 764.973,1520.91 764.5,1519.5 Z"/></g>
<g><path style="opacity:0.898" fill="#c7a9a9" d="M 767.5,1521.5 C 769.027,1521.43 770.027,1522.09 770.5,1523.5C 768.973,1523.57 767.973,1522.91 767.5,1521.5 Z"/></g>
<g><path style="opacity:0.965" fill="#cfb4b4" d="M 1864.5,1757.5 C 1864.57,1759.03 1863.91,1760.03 1862.5,1760.5C 1862.43,1758.97 1863.09,1757.97 1864.5,1757.5 Z"/></g>
<g><path style="opacity:0.965" fill="#cfb4b4" d="M 1862.5,1760.5 C 1862.57,1762.03 1861.91,1763.03 1860.5,1763.5C 1860.43,1761.97 1861.09,1760.97 1862.5,1760.5 Z"/></g>
<g><path style="opacity:0.965" fill="#cfb4b4" d="M 1860.5,1763.5 C 1860.57,1765.03 1859.91,1766.03 1858.5,1766.5C 1858.43,1764.97 1859.09,1763.97 1860.5,1763.5 Z"/></g>
<g><path style="opacity:0.898" fill="#c5a6a6" d="M 276.5,1764.5 C 277.906,1764.97 278.573,1765.97 278.5,1767.5C 277.094,1767.03 276.427,1766.03 276.5,1764.5 Z"/></g>
<g><path style="opacity:0.965" fill="#cfb4b4" d="M 278.5,1767.5 C 279.906,1767.97 280.573,1768.97 280.5,1770.5C 279.094,1770.03 278.427,1769.03 278.5,1767.5 Z"/></g>
<g><path style="opacity:0.965" fill="#ceb2b1" d="M 1855.5,1770.5 C 1855.57,1772.03 1854.91,1773.03 1853.5,1773.5C 1853.43,1771.97 1854.09,1770.97 1855.5,1770.5 Z"/></g>
<g><path style="opacity:0.933" fill="#c8a9a9" d="M 281.5,1771.5 C 282.906,1771.97 283.573,1772.97 283.5,1774.5C 282.094,1774.03 281.427,1773.03 281.5,1771.5 Z"/></g>
<g><path style="opacity:0.992" fill="#c8acac" d="M 296.5,1790.5 C 297.906,1790.97 298.573,1791.97 298.5,1793.5C 297.094,1793.03 296.427,1792.03 296.5,1790.5 Z"/></g>
<g><path style="opacity:0.992" fill="#c8acac" d="M 1835.5,1795.5 C 1835.57,1797.03 1834.91,1798.03 1833.5,1798.5C 1833.43,1796.97 1834.09,1795.97 1835.5,1795.5 Z"/></g>
<g><path style="opacity:0.933" fill="#c6a7a7" d="M 304.5,1799.5 C 305.906,1799.97 306.573,1800.97 306.5,1802.5C 305.094,1802.03 304.427,1801.03 304.5,1799.5 Z"/></g>
<g><path style="opacity:0.992" fill="#d1b8b8" d="M 1827.5,1804.5 C 1826.5,1807.5 1824.5,1809.5 1821.5,1810.5C 1823.17,1808.17 1825.17,1806.17 1827.5,1804.5 Z"/></g>
<g><path style="opacity:0.992" fill="#d5bebe" d="M 1815.5,1817.5 C 1812.77,1821.23 1809.44,1824.23 1805.5,1826.5C 1808.23,1822.77 1811.56,1819.77 1815.5,1817.5 Z"/></g>
<g><path style="opacity:1" fill="#d7c1c1" d="M 1802.5,1829.5 C 1801.42,1831.59 1799.75,1832.92 1797.5,1833.5C 1798.58,1831.41 1800.25,1830.08 1802.5,1829.5 Z"/></g>
<g><path style="opacity:0.992" fill="#cfb3b3" d="M 1777.5,1849.5 C 1777.03,1850.91 1776.03,1851.57 1774.5,1851.5C 1774.97,1850.09 1775.97,1849.43 1777.5,1849.5 Z"/></g>
<g><path style="opacity:0.996" fill="#d0b5b5" d="M 1764.5,1858.5 C 1764.03,1859.91 1763.03,1860.57 1761.5,1860.5C 1761.97,1859.09 1762.97,1858.43 1764.5,1858.5 Z"/></g>
<g><path style="opacity:1" fill="#c7adad" d="M 400.5,1875.5 C 401.71,1875.93 402.71,1876.6 403.5,1877.5C 401.821,1877.71 400.821,1877.05 400.5,1875.5 Z"/></g>
<g><path style="opacity:0.992" fill="#c8acac" d="M 185.5,1954.5 C 187.027,1954.43 188.027,1955.09 188.5,1956.5C 186.973,1956.57 185.973,1955.91 185.5,1954.5 Z"/></g>
<g><path style="opacity:0.992" fill="#c8acac" d="M 202.5,1970.5 C 204.027,1970.43 205.027,1971.09 205.5,1972.5C 203.973,1972.57 202.973,1971.91 202.5,1970.5 Z"/></g>
<g><path style="opacity:0.965" fill="#cdb1b1" d="M 248.5,2007.5 C 250.027,2007.43 251.027,2008.09 251.5,2009.5C 249.973,2009.57 248.973,2008.91 248.5,2007.5 Z"/></g>
<g><path style="opacity:0.898" fill="#c4a4a4" d="M 255.5,2012.5 C 257.027,2012.43 258.027,2013.09 258.5,2014.5C 256.973,2014.57 255.973,2013.91 255.5,2012.5 Z"/></g>
<g><path style="opacity:0.898" fill="#c6a7a7" d="M 258.5,2014.5 C 260.027,2014.43 261.027,2015.09 261.5,2016.5C 259.973,2016.57 258.973,2015.91 258.5,2014.5 Z"/></g>
<g><path style="opacity:0.965" fill="#cfb4b4" d="M 261.5,2016.5 C 263.027,2016.43 264.027,2017.09 264.5,2018.5C 262.973,2018.57 261.973,2017.91 261.5,2016.5 Z"/></g>
<g><path style="opacity:0.965" fill="#cfb4b4" d="M 264.5,2018.5 C 266.027,2018.43 267.027,2019.09 267.5,2020.5C 265.973,2020.57 264.973,2019.91 264.5,2018.5 Z"/></g>
<g><path style="opacity:0.898" fill="#c6a7a7" d="M 267.5,2020.5 C 269.027,2020.43 270.027,2021.09 270.5,2022.5C 268.973,2022.57 267.973,2021.91 267.5,2020.5 Z"/></g>
<g><path style="opacity:0.898" fill="#c7a8a8" d="M 278.5,2027.5 C 280.027,2027.43 281.027,2028.09 281.5,2029.5C 279.973,2029.57 278.973,2028.91 278.5,2027.5 Z"/></g>
</svg>
