<?xml version="1.0" encoding="UTF-8"?>
<!DOCTYPE svg PUBLIC "-//W3C//DTD SVG 1.1//EN" "http://www.w3.org/Graphics/SVG/1.1/DTD/svg11.dtd">
<svg xmlns="http://www.w3.org/2000/svg" version="1.1" width="512px" height="512px" style="shape-rendering:geometricPrecision; text-rendering:geometricPrecision; image-rendering:optimizeQuality; fill-rule:evenodd; clip-rule:evenodd" xmlns:xlink="http://www.w3.org/1999/xlink">
<g><path style="opacity:1" fill="#fefffe" d="M 23.5,-0.5 C 148.833,-0.5 274.167,-0.5 399.5,-0.5C 412.15,3.31807 420.317,11.6514 424,24.5C 424.5,103.166 424.667,181.833 424.5,260.5C 445.169,260.333 465.836,260.5 486.5,261C 498.92,264.589 507.253,272.423 511.5,284.5C 511.5,346.5 511.5,408.5 511.5,470.5C 504.475,492.856 489.475,506.523 466.5,511.5C 318.833,511.5 171.167,511.5 23.5,511.5C 11.8333,507.167 3.83333,499.167 -0.5,487.5C -0.5,332.833 -0.5,178.167 -0.5,23.5C 3.83333,11.8333 11.8333,3.83333 23.5,-0.5 Z M 26.5,15.5 C 150.167,15.3333 273.834,15.5 397.5,16C 402.333,18.1667 405.833,21.6667 408,26.5C 408.5,75.4989 408.667,124.499 408.5,173.5C 293.166,173.333 177.833,173.5 62.5,174C 55.0453,178.561 54.712,183.561 61.5,189C 177.166,189.5 292.833,189.667 408.5,189.5C 408.333,281.167 408.5,372.834 409,464.5C 409.642,476.443 414.142,486.61 422.5,495C 290.5,495.667 158.5,495.667 26.5,495C 19.5996,492.101 15.7663,486.934 15,479.5C 14.5,382.834 14.3333,286.167 14.5,189.5C 20.8421,189.666 27.1754,189.5 33.5,189C 37.2765,186.045 38.4432,182.212 37,177.5C 35.786,175.951 34.286,174.785 32.5,174C 26.5092,173.501 20.5092,173.334 14.5,173.5C 14.3333,126.165 14.5,78.8322 15,31.5C 15.9704,24.0406 19.8037,18.7072 26.5,15.5 Z M 193.5,60.5 C 217.197,59.3623 230.864,70.529 234.5,94C 230.889,117.619 217.222,128.619 193.5,127C 174.443,121.266 165.609,108.433 167,88.5C 170.274,73.7299 179.107,64.3965 193.5,60.5 Z M 293.5,60.5 C 300.175,60.3337 306.842,60.5004 313.5,61C 320.414,64.7697 322.247,70.2697 319,77.5C 317.457,79.3783 315.624,80.8783 313.5,82C 306.842,82.4996 300.175,82.6663 293.5,82.5C 293.5,75.1667 293.5,67.8333 293.5,60.5 Z M 293.5,98.5 C 302.25,98.0901 310.916,98.5901 319.5,100C 328.458,105.088 330.624,112.255 326,121.5C 324.457,123.378 322.624,124.878 320.5,126C 311.582,127.414 302.582,127.914 293.5,127.5C 293.5,117.833 293.5,108.167 293.5,98.5 Z M 55.5,256.5 C 97.5,256.5 139.5,256.5 181.5,256.5C 181.5,265.833 181.5,275.167 181.5,284.5C 139.5,284.5 97.5,284.5 55.5,284.5C 55.5,275.167 55.5,265.833 55.5,256.5 Z M 424.5,276.5 C 444.169,276.333 463.836,276.5 483.5,277C 488.91,278.743 492.744,282.243 495,287.5C 496.143,317.3 496.643,347.134 496.5,377C 496.635,407.526 496.135,438.026 495,468.5C 488.027,488.798 473.86,497.631 452.5,495C 438.796,491.564 429.963,483.064 426,469.5C 424.522,405.198 424.022,340.865 424.5,276.5 Z"/></g>
<g><path style="opacity:1" fill="#fefffe" d="M 102.5,44.5 C 107.223,43.5531 111.056,44.8864 114,48.5C 114.667,73.8333 114.667,99.1667 114,124.5C 109.612,139.12 99.7789,145.287 84.5,143C 79.4676,141.402 74.9676,138.902 71,135.5C 67.5483,128.074 69.715,123.408 77.5,121.5C 81.7293,123.782 86.0627,125.782 90.5,127.5C 94.1036,127.451 96.6036,125.784 98,122.5C 98.3333,98.1667 98.6667,73.8333 99,49.5C 99.9973,47.6769 101.164,46.0103 102.5,44.5 Z"/></g>
<g><path style="opacity:1" fill="#fefffe" d="M 191.5,44.5 C 226.266,43.105 245.933,59.605 250.5,94C 245.965,128.533 226.299,144.867 191.5,143C 168.917,138.083 155.417,124.25 151,101.5C 149.246,71.4513 162.746,52.4513 191.5,44.5 Z M 193.5,60.5 C 179.107,64.3965 170.274,73.7299 167,88.5C 165.609,108.433 174.443,121.266 193.5,127C 217.222,128.619 230.889,117.619 234.5,94C 230.864,70.529 217.197,59.3623 193.5,60.5 Z"/></g>
<g><path style="opacity:1" fill="#fefffe" d="M 281.5,44.5 C 293.171,44.3335 304.838,44.5001 316.5,45C 332.978,50.7842 339.478,62.2842 336,79.5C 335.063,82.656 333.563,85.4894 331.5,88C 341.917,95.9009 346.084,106.401 344,119.5C 341.437,130.397 334.937,137.897 324.5,142C 310.222,143.597 295.889,143.93 281.5,143C 279.951,141.786 278.785,140.286 278,138.5C 277.333,108.833 277.333,79.1667 278,49.5C 278.997,47.6769 280.164,46.0103 281.5,44.5 Z M 293.5,60.5 C 293.5,67.8333 293.5,75.1667 293.5,82.5C 300.175,82.6663 306.842,82.4996 313.5,82C 315.624,80.8783 317.457,79.3783 319,77.5C 322.247,70.2697 320.414,64.7697 313.5,61C 306.842,60.5004 300.175,60.3337 293.5,60.5 Z M 293.5,98.5 C 293.5,108.167 293.5,117.833 293.5,127.5C 302.582,127.914 311.582,127.414 320.5,126C 322.624,124.878 324.457,123.378 326,121.5C 330.624,112.255 328.458,105.088 319.5,100C 310.916,98.5901 302.25,98.0901 293.5,98.5 Z"/></g>
<g><path style="opacity:1" fill="#fefffe" d="M 50.5,240.5 C 96.8933,240.015 143.227,240.515 189.5,242C 193.058,243.892 195.558,246.725 197,250.5C 197.667,264.167 197.667,277.833 197,291.5C 195.5,295.667 192.667,298.5 188.5,300C 141.833,300.667 95.1667,300.667 48.5,300C 43.9378,298.373 41.1045,295.206 40,290.5C 39.3333,277.167 39.3333,263.833 40,250.5C 42.1059,245.557 45.6059,242.224 50.5,240.5 Z M 55.5,256.5 C 55.5,265.833 55.5,275.167 55.5,284.5C 97.5,284.5 139.5,284.5 181.5,284.5C 181.5,275.167 181.5,265.833 181.5,256.5C 139.5,256.5 97.5,256.5 55.5,256.5 Z"/></g>
<g><path style="opacity:1" fill="#fefffe" d="M 237.5,240.5 C 283.893,240.015 330.227,240.515 376.5,242C 380.49,243.99 382.99,247.157 384,251.5C 384.667,264.167 384.667,276.833 384,289.5C 383.036,293.468 380.869,296.635 377.5,299C 347.228,300.643 316.895,300.977 286.5,300C 284.667,299.5 283.5,298.333 283,296.5C 281.008,290.663 282.842,286.829 288.5,285C 315.165,284.5 341.831,284.333 368.5,284.5C 368.5,275.167 368.5,265.833 368.5,256.5C 326.167,256.5 283.833,256.5 241.5,256.5C 241.5,265.833 241.5,275.167 241.5,284.5C 247.593,284.139 253.593,284.639 259.5,286C 263.122,290.002 263.456,294.335 260.5,299C 233.948,307.416 222.281,297.916 225.5,270.5C 225.439,263.448 225.939,256.448 227,249.5C 229.463,245.198 232.963,242.198 237.5,240.5 Z"/></g>
<g><path style="opacity:1" fill="#fefffe" d="M 44.5,346.5 C 93.8345,346.333 143.168,346.5 192.5,347C 197.224,349.435 198.724,353.269 197,358.5C 195.833,359.667 194.667,360.833 193.5,362C 143.5,362.667 93.5,362.667 43.5,362C 38.0344,356.434 38.3678,351.267 44.5,346.5 Z"/></g>
<g><path style="opacity:1" fill="#fefffe" d="M 231.5,346.5 C 280.501,346.333 329.501,346.5 378.5,347C 384.448,349.433 385.948,353.6 383,359.5C 382.097,360.701 380.931,361.535 379.5,362C 329.833,362.667 280.167,362.667 230.5,362C 224.277,356.631 224.61,351.465 231.5,346.5 Z"/></g>
<g><path style="opacity:1" fill="#fefffe" d="M 45.5,390.5 C 94.1678,390.333 142.834,390.5 191.5,391C 195.666,391.985 197.666,394.652 197.5,399C 197.699,402.274 196.366,404.607 193.5,406C 143.5,406.667 93.5,406.667 43.5,406C 39.2468,402.58 38.4135,398.413 41,393.5C 42.4087,392.219 43.9087,391.219 45.5,390.5 Z"/></g>
<g><path style="opacity:1" fill="#fefffe" d="M 232.5,390.5 C 281.168,390.333 329.834,390.5 378.5,391C 385.527,395.138 386.194,400.138 380.5,406C 330.5,406.667 280.5,406.667 230.5,406C 226.277,403.005 225.111,399.171 227,394.5C 228.5,392.531 230.333,391.198 232.5,390.5 Z"/></g>
<g><path style="opacity:1" fill="#fefffe" d="M 43.5,435.5 C 93.5011,435.333 143.501,435.5 193.5,436C 196.366,437.393 197.699,439.726 197.5,443C 197.699,446.274 196.366,448.607 193.5,450C 143.5,450.667 93.5,450.667 43.5,450C 40.6339,448.607 39.3006,446.274 39.5,443C 39.4302,439.634 40.7635,437.134 43.5,435.5 Z"/></g>
<g><path style="opacity:1" fill="#fefffe" d="M 229.5,435.5 C 279.834,435.333 330.168,435.5 380.5,436C 385.833,440.667 385.833,445.333 380.5,450C 330.167,450.667 279.833,450.667 229.5,450C 224.402,445.226 224.402,440.393 229.5,435.5 Z"/></g>
</svg>
