<?xml version="1.0" encoding="UTF-8"?>
<!DOCTYPE svg PUBLIC "-//W3C//DTD SVG 1.1//EN" "http://www.w3.org/Graphics/SVG/1.1/DTD/svg11.dtd">
<svg xmlns="http://www.w3.org/2000/svg" version="1.1" width="7485px" height="2670px" style="shape-rendering:geometricPrecision; text-rendering:geometricPrecision; image-rendering:optimizeQuality; fill-rule:evenodd; clip-rule:evenodd" xmlns:xlink="http://www.w3.org/1999/xlink">
<g><path style="opacity:1" fill="#db0f0f" d="M 4097.5,447.5 C 4175.36,446.133 4249.02,462.466 4318.5,496.5C 4423.05,553.066 4486.38,637.232 4508.5,749C 4510.15,751.247 4510.49,753.58 4509.5,756C 4510.37,759.366 4511.37,762.7 4512.5,766C 4511.79,767.343 4512.12,768.676 4513.5,770C 4512.91,772.562 4512.58,775.228 4512.5,778C 4513.17,779 4513.83,780 4514.5,781C 4515.27,787.438 4515.27,793.771 4514.5,800C 4515.17,802 4515.83,804 4516.5,806C 4515.21,819.399 4515.21,832.733 4516.5,846C 4515.79,849.131 4515.13,852.298 4514.5,855.5C 4515.11,857.64 4514.77,859.807 4513.5,862C 4513.5,867.667 4513.5,873.333 4513.5,879C 4511.85,881.247 4511.51,883.58 4512.5,886C 4510.39,898.312 4507.89,910.812 4505,923.5C 4386.18,1356.77 4267.68,1790.1 4149.5,2223.5C 3765.83,2222.16 3382.16,2220.32 2998.5,2218C 2921.02,2215.97 2849.02,2195.64 2782.5,2157C 2687.79,2098.07 2631.46,2015.9 2613.5,1910.5C 2611.95,1900.37 2610.28,1890.2 2608.5,1880C 2608.79,1877.02 2609.12,1874.02 2609.5,1871C 2608.83,1869 2608.17,1867 2607.5,1865C 2608.77,1853.1 2608.77,1840.93 2607.5,1828.5C 2608.19,1823.68 2608.86,1818.85 2609.5,1814C 2611.12,1785.53 2616.12,1756.7 2624.5,1727.5C 2623.53,1726.04 2623.86,1724.7 2625.5,1723.5C 2624.15,1722.32 2624.31,1721.32 2626,1720.5C 2628.7,1710.99 2630.54,1701.82 2631.5,1693C 2633.39,1691.92 2633.73,1690.59 2632.5,1689C 2633,1688.5 2633.5,1688 2634,1687.5C 2641.67,1655.19 2649.33,1623.52 2657,1592.5C 2666.29,1553.76 2675.79,1514.76 2685.5,1475.5C 2685.29,1474.91 2684.96,1474.41 2684.5,1474C 2685.59,1471.8 2686.59,1469.64 2687.5,1467.5C 2686.15,1466.32 2686.31,1465.32 2688,1464.5C 2695.03,1434.8 2702.19,1405.47 2709.5,1376.5C 2708.53,1375.04 2708.86,1373.7 2710.5,1372.5C 2709.15,1371.32 2709.31,1370.32 2711,1369.5C 2712.84,1362.16 2714.67,1354.82 2716.5,1347.5C 2716.29,1346.91 2715.96,1346.41 2715.5,1346C 2716.59,1343.8 2717.59,1341.64 2718.5,1339.5C 2717.15,1338.32 2717.31,1337.32 2719,1336.5C 2723.17,1319.5 2727.33,1302.5 2731.5,1285.5C 2730.53,1284.04 2730.86,1282.7 2732.5,1281.5C 2731.53,1280.04 2731.86,1278.7 2733.5,1277.5C 2732.15,1276.32 2732.31,1275.32 2734,1274.5C 2743.29,1235.76 2752.79,1196.76 2762.5,1157.5C 2762.29,1156.91 2761.96,1156.41 2761.5,1156C 2762.59,1153.8 2763.59,1151.64 2764.5,1149.5C 2763.15,1148.32 2763.31,1147.32 2765,1146.5C 2771.77,1118.47 2778.6,1090.47 2785.5,1062.5C 2785.29,1061.91 2784.96,1061.41 2784.5,1061C 2785.59,1058.8 2786.59,1056.64 2787.5,1054.5C 2786.15,1053.32 2786.31,1052.32 2788,1051.5C 2798.35,1008.4 2809.02,964.738 2820,920.5C 2841.99,852.524 2874.49,790.19 2917.5,733.5C 3004.79,621.374 3114.79,540.208 3247.5,490C 3283.11,477.359 3319.45,467.359 3356.5,460C 3382.31,455.357 3408.31,452.357 3434.5,451C 3655.66,449.716 3876.66,448.549 4097.5,447.5 Z"/></g>
<g><path style="opacity:1" fill="#fefefe" d="M 3614.5,806.5 C 3645.92,805.662 3677.26,806.829 3708.5,810C 3749.82,814.216 3787.82,827.549 3822.5,850C 3858.56,877.914 3883.39,913.747 3897,957.5C 3904.59,986.252 3904.26,1014.92 3896,1043.5C 3881.15,1088.57 3857.15,1127.9 3824,1161.5C 3792.92,1191.26 3760.09,1218.76 3725.5,1244C 3691.18,1268.83 3656.52,1293.16 3621.5,1317C 3619.53,1318.46 3617.87,1320.13 3616.5,1322C 3661.41,1383.26 3708.24,1443.09 3757,1501.5C 3760.4,1505.24 3764.07,1508.58 3768,1511.5C 3780.34,1505.41 3792.51,1498.91 3804.5,1492C 3848.08,1466.29 3891.58,1440.46 3935,1414.5C 3970.45,1460.29 4006.29,1505.79 4042.5,1551C 3991,1583.58 3939.33,1615.92 3887.5,1648C 3886.33,1649.87 3886.49,1651.7 3888,1653.5C 3938.83,1711.67 3989.67,1769.83 4040.5,1828C 3944.17,1828.67 3847.83,1828.67 3751.5,1828C 3729.99,1805.82 3709.15,1782.98 3689,1759.5C 3687.88,1757.88 3686.38,1756.88 3684.5,1756.5C 3608.01,1790.07 3529.01,1816.24 3447.5,1835C 3377.27,1851.2 3306.27,1856.2 3234.5,1850C 3183.4,1845.75 3136.74,1829.41 3094.5,1801C 3035.73,1756.59 3011.89,1697.75 3023,1624.5C 3032.42,1573.35 3052.42,1527.02 3083,1485.5C 3117.32,1440.51 3157.49,1401.67 3203.5,1369C 3244.57,1340.04 3287.07,1313.21 3331,1288.5C 3331.26,1285.98 3330.59,1283.65 3329,1281.5C 3299.93,1237.01 3279.93,1188.67 3269,1136.5C 3258.59,1079.95 3268.92,1027.61 3300,979.5C 3333.13,933.361 3373.63,895.194 3421.5,865C 3481,829.443 3545.33,809.943 3614.5,806.5 Z"/></g>
<g><path style="opacity:1" fill="#fefffe" d="M 1079.5,896.5 C 1154.09,892.962 1227.42,900.795 1299.5,920C 1391.69,947.719 1466.86,998.886 1525,1073.5C 1541.53,1096.87 1555.53,1121.21 1567,1146.5C 1575.21,1167.48 1581.71,1188.31 1586.5,1209C 1585.79,1210.34 1586.12,1211.68 1587.5,1213C 1587.5,1216.33 1587.5,1219.67 1587.5,1223C 1589.25,1226.13 1589.91,1229.3 1589.5,1232.5C 1591.13,1237.09 1591.47,1241.43 1590.5,1245.5C 1591.39,1250.97 1592.39,1256.47 1593.5,1262C 1594.12,1387.72 1552.79,1499.56 1469.5,1597.5C 1438.24,1632.49 1403.91,1664.33 1366.5,1693C 1351.29,1703.77 1336.29,1714.77 1321.5,1726C 1360.82,1780.04 1400.32,1834.2 1440,1888.5C 1441.01,1890.02 1441.51,1891.69 1441.5,1893.5C 1397.15,1893.76 1352.82,1893.1 1308.5,1891.5C 1281.36,1853.33 1253.7,1815.66 1225.5,1778.5C 1128.91,1822.63 1027.41,1844.29 921,1843.5C 836.884,1845.35 756.384,1830.18 679.5,1798C 590.329,1757.15 522.662,1693.81 476.5,1608C 476.833,1607.67 477.167,1607.33 477.5,1607C 461.556,1575.75 451.556,1542.58 447.5,1507.5C 446.614,1501.37 445.614,1495.2 444.5,1489C 444.923,1485.21 445.256,1481.37 445.5,1477.5C 444.885,1474.96 444.218,1472.46 443.5,1470C 445.114,1362.05 478.614,1263.88 544,1175.5C 625.472,1068.75 729.306,991.588 855.5,944C 927.631,916.074 1002.3,900.241 1079.5,896.5 Z M 1356.5,1066.5 C 1430.39,1120.33 1470.72,1192.33 1477.5,1282.5C 1478.27,1361.03 1458.1,1434.7 1417,1503.5C 1392.13,1541.7 1362.96,1576.2 1329.5,1607C 1313.05,1621.39 1296.05,1635.05 1278.5,1648C 1275.37,1649.63 1272.37,1651.47 1269.5,1653.5C 1220.48,1587.14 1171.81,1520.47 1123.5,1453.5C 1090.51,1452.5 1057.51,1451.83 1024.5,1451.5C 1013.01,1451.34 1001.68,1451.84 990.5,1453C 1051.26,1537.21 1112.26,1621.21 1173.5,1705C 1085.72,1744.29 993.717,1760.95 897.5,1755C 824.31,1751.22 756.977,1729.89 695.5,1691C 588.793,1617.36 544.627,1518.53 563,1394.5C 575.83,1317.28 607.497,1248.61 658,1188.5C 733.231,1102.09 826.398,1042.93 937.5,1011C 1008.49,989.541 1081.16,982.541 1155.5,990C 1219.19,997.898 1278.86,1018.23 1334.5,1051C 1342.3,1055.65 1349.63,1060.82 1356.5,1066.5 Z"/></g>
<g><path style="opacity:1" fill="#fefffe" d="M 5099.5,1146.5 C 5098.96,1146.56 5098.62,1146.89 5098.5,1147.5C 5105.48,1166.64 5111.81,1186.8 5117.5,1208C 5140.34,1279.35 5162.67,1351.02 5184.5,1423C 5209.91,1503.92 5235.41,1585.75 5261,1668.5C 5485.64,1416.44 5710.14,1164.27 5934.5,912C 5940.82,911.5 5947.16,911.334 5953.5,911.5C 5953.32,916.151 5953.32,920.651 5953.5,925C 5951.96,927.085 5951.62,929.252 5952.5,931.5C 5951.14,933.674 5950.8,935.841 5951.5,938C 5949.86,946.478 5948.53,954.812 5947.5,963C 5948.29,965.024 5947.96,967.024 5946.5,969C 5946.57,971.867 5946.57,974.7 5946.5,977.5C 5945.14,979.674 5944.8,981.841 5945.5,984C 5944.14,992.467 5942.8,1000.97 5941.5,1009.5C 5941.71,1010.09 5942.04,1010.59 5942.5,1011C 5941.83,1014.59 5940.83,1018.26 5939.5,1022C 5939.96,1022.41 5940.29,1022.91 5940.5,1023.5C 5939.39,1029.13 5938.39,1034.8 5937.5,1040.5C 5937.57,1041.77 5937.9,1042.94 5938.5,1044C 5936.83,1049.97 5935.5,1055.81 5934.5,1061.5C 5934.83,1062.17 5935.17,1062.83 5935.5,1063.5C 5934.17,1070.83 5932.83,1078.17 5931.5,1085.5C 5931.72,1086.97 5932.06,1088.47 5932.5,1090C 5931.09,1095.79 5929.76,1101.62 5928.5,1107.5C 5929.38,1109.75 5929.04,1111.91 5927.5,1114C 5928.02,1114.56 5928.36,1115.23 5928.5,1116C 5927.68,1122.2 5926.68,1128.37 5925.5,1134.5C 5926.1,1136.45 5925.77,1138.45 5924.5,1140.5C 5924.83,1141.17 5925.17,1141.83 5925.5,1142.5C 5924.29,1146.23 5923.29,1149.9 5922.5,1153.5C 5923.38,1155.75 5923.04,1157.91 5921.5,1160C 5921.3,1163.18 5921.63,1166.18 5922.5,1169C 5920.78,1175.15 5919.45,1181.15 5918.5,1187C 5918.96,1187.41 5919.29,1187.91 5919.5,1188.5C 5918.07,1195.82 5916.74,1203.15 5915.5,1210.5C 5915.72,1211.97 5916.06,1213.47 5916.5,1215C 5915.09,1218.7 5914.09,1222.54 5913.5,1226.5C 5914.1,1228.45 5913.77,1230.45 5912.5,1232.5C 5912.83,1233.17 5913.17,1233.83 5913.5,1234.5C 5911.32,1243.35 5910.32,1252.18 5910.5,1261C 5909.74,1262.44 5909.07,1263.94 5908.5,1265.5C 5908.43,1268.3 5908.43,1271.13 5908.5,1274C 5907.04,1275.98 5906.71,1277.98 5907.5,1280C 5906.29,1286.21 5905.29,1292.38 5904.5,1298.5C 5904.71,1299.09 5905.04,1299.59 5905.5,1300C 5904.43,1303.62 5903.43,1307.29 5902.5,1311C 5902.57,1313.87 5902.57,1316.7 5902.5,1319.5C 5901.93,1321.06 5901.26,1322.56 5900.5,1324C 5900.57,1328.06 5900.57,1332.06 5900.5,1336C 5898.79,1348.74 5896.79,1361.91 5894.5,1375.5C 5895.76,1377.79 5895.42,1379.62 5893.5,1381C 5893.62,1382.27 5893.95,1383.6 5894.5,1385C 5893.23,1387.19 5892.89,1389.36 5893.5,1391.5C 5892.23,1393.55 5891.9,1395.55 5892.5,1397.5C 5891.46,1403.02 5890.46,1408.52 5889.5,1414C 5889.83,1414.33 5890.17,1414.67 5890.5,1415C 5889.83,1416.67 5889.17,1418.33 5888.5,1420C 5888.94,1421.53 5889.28,1423.03 5889.5,1424.5C 5888.07,1430.29 5886.74,1436.12 5885.5,1442C 5884.65,1460.41 5882.32,1479.24 5878.5,1498.5C 5878.72,1499.97 5879.06,1501.47 5879.5,1503C 5878.57,1506.71 5877.57,1510.38 5876.5,1514C 5876.5,1518 5876.5,1522 5876.5,1526C 5874.82,1532.17 5873.48,1538.17 5872.5,1544C 5872.94,1545.53 5873.28,1547.03 5873.5,1548.5C 5872.23,1550.55 5871.9,1552.55 5872.5,1554.5C 5869.97,1566.19 5868.64,1577.36 5868.5,1588C 5865.51,1601.04 5863.85,1613.88 5863.5,1626.5C 5862.05,1634.05 5860.72,1641.38 5859.5,1648.5C 5859.71,1649.09 5860.04,1649.59 5860.5,1650C 5859.39,1653.53 5858.39,1657.03 5857.5,1660.5C 5857.95,1662.37 5858.28,1664.2 5858.5,1666C 5857.08,1672.95 5855.74,1679.95 5854.5,1687C 5855.21,1689.14 5854.87,1691.31 5853.5,1693.5C 5853.1,1704.26 5851.77,1715.09 5849.5,1726C 5849.64,1726.77 5849.98,1727.44 5850.5,1728C 5849.57,1731.71 5848.57,1735.38 5847.5,1739C 5847.83,1740.67 5848.17,1742.33 5848.5,1744C 5847.36,1748.78 5846.36,1753.61 5845.5,1758.5C 5845.71,1759.09 5846.04,1759.59 5846.5,1760C 5845.26,1765.88 5843.93,1771.71 5842.5,1777.5C 5842.83,1778.17 5843.17,1778.83 5843.5,1779.5C 5842.65,1785.52 5841.65,1791.52 5840.5,1797.5C 5840.71,1798.09 5841.04,1798.59 5841.5,1799C 5840.5,1802.67 5839.5,1806.33 5838.5,1810C 5838.96,1810.41 5839.29,1810.91 5839.5,1811.5C 5837.63,1819.38 5836.63,1827.38 5836.5,1835.5C 5799.17,1835.5 5761.83,1835.5 5724.5,1835.5C 5727.02,1811.32 5730.35,1786.32 5734.5,1760.5C 5734.43,1759.23 5734.1,1758.06 5733.5,1757C 5735.17,1751.03 5736.5,1745.19 5737.5,1739.5C 5737.17,1738.83 5736.83,1738.17 5736.5,1737.5C 5737.29,1733.9 5738.29,1730.23 5739.5,1726.5C 5738.62,1724.25 5738.96,1722.09 5740.5,1720C 5739.82,1717.66 5740.16,1715.32 5741.5,1713C 5741.17,1711.33 5740.83,1709.67 5740.5,1708C 5741.97,1700.88 5743.3,1693.72 5744.5,1686.5C 5744.29,1685.91 5743.96,1685.41 5743.5,1685C 5744.83,1679 5746.17,1673 5747.5,1667C 5747.17,1665.33 5746.83,1663.67 5746.5,1662C 5747.83,1656.33 5749.17,1650.67 5750.5,1645C 5750.04,1644.59 5749.71,1644.09 5749.5,1643.5C 5750.54,1637.98 5751.54,1632.48 5752.5,1627C 5752.17,1626.67 5751.83,1626.33 5751.5,1626C 5752.17,1624.33 5752.83,1622.67 5753.5,1621C 5753.58,1617.4 5753.58,1613.73 5753.5,1610C 5755.54,1601.74 5757.2,1593.4 5758.5,1585C 5758.17,1583.33 5757.83,1581.67 5757.5,1580C 5761.47,1559.93 5764.13,1540.27 5765.5,1521C 5767.04,1518.91 5767.38,1516.75 5766.5,1514.5C 5767.07,1512.94 5767.74,1511.44 5768.5,1510C 5768.43,1507.13 5768.43,1504.3 5768.5,1501.5C 5769.87,1499.31 5770.21,1497.14 5769.5,1495C 5771.22,1482.02 5773.22,1469.35 5775.5,1457C 5774.27,1453.8 5774.6,1450.64 5776.5,1447.5C 5776.29,1446.91 5775.96,1446.41 5775.5,1446C 5776.44,1442.25 5777.44,1438.41 5778.5,1434.5C 5777.71,1432.13 5778.04,1429.8 5779.5,1427.5C 5779.29,1426.91 5778.96,1426.41 5778.5,1426C 5779.57,1422.38 5780.57,1418.71 5781.5,1415C 5780.98,1412.97 5780.65,1410.97 5780.5,1409C 5782.57,1397.29 5784.57,1385.79 5786.5,1374.5C 5787.29,1370.81 5787.29,1366.97 5786.5,1363C 5787.17,1362.33 5787.83,1361.67 5788.5,1361C 5788.38,1359.73 5788.05,1358.4 5787.5,1357C 5788.81,1351.04 5790.15,1345.04 5791.5,1339C 5790.98,1338.44 5790.64,1337.77 5790.5,1337C 5792.31,1330.34 5792.98,1323.67 5792.5,1317C 5794.84,1306.36 5796.84,1295.86 5798.5,1285.5C 5798.54,1281.7 5798.54,1277.86 5798.5,1274C 5801.87,1257.09 5804.54,1240.09 5806.5,1223C 5806.36,1222.23 5806.02,1221.56 5805.5,1221C 5807.57,1210.54 5809.57,1200.04 5811.5,1189.5C 5811.64,1187.74 5811.14,1186.08 5810,1184.5C 5615.58,1400.9 5421.41,1617.06 5227.5,1833C 5222.5,1833.17 5217.5,1833.33 5212.5,1833.5C 5207,1833.65 5201.66,1833.15 5196.5,1832C 5156.92,1703.27 5116.59,1574.94 5075.5,1447C 5059.94,1395.04 5043.94,1344.37 5027.5,1295C 5027.83,1294.67 5028.17,1294.33 5028.5,1294C 5026.38,1290.22 5024.72,1286.22 5023.5,1282C 5013,1247.46 5002.16,1212.63 4991,1177.5C 4908.85,1361.85 4826.52,1545.85 4744,1729.5C 4729.29,1763.81 4714.13,1797.81 4698.5,1831.5C 4662.83,1832.76 4627.16,1832.76 4591.5,1831.5C 4595.36,1821.08 4599.53,1810.75 4604,1800.5C 4739,1504.17 4873,1208.83 5006,914.5C 5009.42,913.852 5012.92,913.518 5016.5,913.5C 5020.27,913.547 5023.77,914.214 5027,915.5C 5050.43,990.905 5073.93,1067.07 5097.5,1144C 5098.38,1144.71 5099.05,1145.54 5099.5,1146.5 Z"/></g>
<g><path style="opacity:1" fill="#db0f0f" d="M 3585.5,993.5 C 3601.84,992.519 3617.84,994.353 3633.5,999C 3656.78,1009.4 3666.62,1027.23 3663,1052.5C 3658.42,1069.33 3650.42,1084.33 3639,1097.5C 3608.01,1129.84 3573.01,1156.84 3534,1178.5C 3519.49,1160.14 3509.15,1139.47 3503,1116.5C 3488.95,1063.26 3506.79,1025.09 3556.5,1002C 3566.06,998.365 3575.73,995.532 3585.5,993.5 Z"/></g>
<g><path style="opacity:1" fill="#fefffe" d="M 6615.5,1137.5 C 6663.94,1135.27 6711.94,1138.77 6759.5,1148C 6833.63,1163.21 6893.46,1200.71 6939,1260.5C 6976.94,1316.32 6991.44,1374.99 6982.5,1436.5C 6979.82,1462.92 6973.65,1489.25 6964,1515.5C 6940.8,1574.02 6907.13,1625.69 6863,1670.5C 6719.33,1812.18 6546.5,1872.01 6344.5,1850C 6296.59,1843.36 6251.59,1828.36 6209.5,1805C 6127.88,1749.84 6086.54,1675.84 6085.5,1583C 6086.17,1579.33 6086.83,1575.67 6087.5,1572C 6087.17,1570.33 6086.83,1568.67 6086.5,1567C 6087.17,1565.33 6087.83,1563.67 6088.5,1562C 6088.17,1561.67 6087.83,1561.33 6087.5,1561C 6098.19,1487.3 6127.19,1420.8 6174.5,1361.5C 6243.46,1280.79 6326.46,1220.29 6423.5,1180C 6485.36,1155.66 6549.36,1141.5 6615.5,1137.5 Z M 6612.5,1225.5 C 6647.82,1225.1 6682.49,1229.6 6716.5,1239C 6784.06,1259.94 6831.72,1302.27 6859.5,1366C 6858.54,1367.15 6858.88,1368.15 6860.5,1369C 6860.17,1369.33 6859.83,1369.67 6859.5,1370C 6863.04,1378.15 6865.04,1386.15 6865.5,1394C 6866.17,1395.67 6866.83,1397.33 6867.5,1399C 6868.09,1402.52 6868.09,1405.85 6867.5,1409C 6868.22,1411.46 6868.88,1413.96 6869.5,1416.5C 6869.52,1475.04 6852.36,1530.04 6818,1581.5C 6756.87,1665.97 6676.04,1723.14 6575.5,1753C 6510.63,1771.08 6444.97,1774.75 6378.5,1764C 6328.43,1755.8 6285.43,1734.13 6249.5,1699C 6224.26,1671.42 6209.26,1640.42 6204.5,1606C 6203.58,1603.17 6202.58,1600.33 6201.5,1597.5C 6201.71,1596.91 6202.04,1596.41 6202.5,1596C 6201.8,1592.53 6201.13,1589.03 6200.5,1585.5C 6201.14,1574.33 6201.14,1563.5 6200.5,1553C 6206.57,1507.46 6221.73,1465.29 6246,1426.5C 6274.36,1383.48 6309.52,1346.98 6351.5,1317C 6385.61,1293.11 6421.95,1273.11 6460.5,1257C 6509.49,1237.78 6560.16,1227.28 6612.5,1225.5 Z"/></g>
<g><path style="opacity:1" fill="#fefffe" d="M 5099.5,1146.5 C 5100.83,1147.17 5100.83,1147.17 5099.5,1146.5 Z"/></g>
<g><path style="opacity:1" fill="#fefffe" d="M 1815.5,1156.5 C 1850.83,1156.33 1886.17,1156.5 1921.5,1157C 1892.32,1283.02 1863.99,1409.02 1836.5,1535C 1836.64,1535.77 1836.98,1536.44 1837.5,1537C 1836.24,1540.74 1835.24,1544.58 1834.5,1548.5C 1834.71,1549.09 1835.04,1549.59 1835.5,1550C 1833.65,1559.41 1831.99,1568.91 1830.5,1578.5C 1819.45,1654.33 1850.78,1708.17 1924.5,1740C 1957.08,1751.29 1990.58,1757.46 2025,1758.5C 2097.18,1759.44 2163.01,1739.61 2222.5,1699C 2253.58,1676.33 2277.75,1647.83 2295,1613.5C 2308.24,1580.13 2318.74,1546.3 2326.5,1512C 2328,1510.51 2328.84,1508.68 2329,1506.5C 2356.35,1390.12 2383.85,1273.79 2411.5,1157.5C 2447.5,1156.33 2483.5,1156.17 2519.5,1157C 2489.77,1280.41 2460.27,1403.91 2431,1527.5C 2425.41,1547.45 2419.08,1567.11 2412,1586.5C 2379.63,1677.75 2320.8,1746.25 2235.5,1792C 2184.63,1818.22 2130.63,1833.89 2073.5,1839C 2012.28,1845.3 1951.62,1841.97 1891.5,1829C 1834.19,1815.92 1788.35,1785.42 1754,1737.5C 1739.44,1713.07 1729.94,1687.57 1725.5,1661C 1725.88,1656.34 1725.88,1651.51 1725.5,1646.5C 1724.89,1644.29 1724.23,1642.12 1723.5,1640C 1723.59,1628.42 1723.59,1616.75 1723.5,1605C 1724.22,1600.05 1724.88,1595.05 1725.5,1590C 1724.74,1587.15 1725.07,1584.31 1726.5,1581.5C 1726.17,1580.83 1725.83,1580.17 1725.5,1579.5C 1726.9,1566.76 1728.9,1553.76 1731.5,1540.5C 1731.29,1539.91 1730.96,1539.41 1730.5,1539C 1758.16,1411.94 1786.49,1284.44 1815.5,1156.5 Z"/></g>
<g><path style="opacity:1" fill="#db0f0f" d="M 3421.5,1436.5 C 3447.75,1471.61 3473.91,1506.94 3500,1542.5C 3519.88,1568.05 3540.88,1592.72 3563,1616.5C 3563.48,1617.45 3563.65,1618.45 3563.5,1619.5C 3525.68,1635.27 3487.01,1648.77 3447.5,1660C 3411.87,1670.33 3375.53,1674.66 3338.5,1673C 3309.51,1671.25 3285.35,1659.75 3266,1638.5C 3251.3,1620.5 3248.64,1600.83 3258,1579.5C 3268.76,1558.74 3282.59,1540.24 3299.5,1524C 3319.3,1506.52 3339.97,1490.19 3361.5,1475C 3381.39,1461.89 3401.39,1449.06 3421.5,1436.5 Z"/></g>
</svg>
