<?xml version="1.0" encoding="UTF-8"?>
<!DOCTYPE svg PUBLIC "-//W3C//DTD SVG 1.1//EN" "http://www.w3.org/Graphics/SVG/1.1/DTD/svg11.dtd">
<svg xmlns="http://www.w3.org/2000/svg" version="1.1" width="415px" height="455px" style="shape-rendering:geometricPrecision; text-rendering:geometricPrecision; image-rendering:optimizeQuality; fill-rule:evenodd; clip-rule:evenodd" xmlns:xlink="http://www.w3.org/1999/xlink">
<g><path style="opacity:1" fill="#e86780" d="M 72.5,-0.5 C 183.5,-0.5 294.5,-0.5 405.5,-0.5C 408.129,9.05186 411.129,18.3852 414.5,27.5C 414.5,29.8333 414.5,32.1667 414.5,34.5C 409.855,36.339 405.688,35.6723 402,32.5C 399.524,25.5726 397.357,18.5726 395.5,11.5C 290.833,11.3333 186.166,11.5 81.5,12C 57.9583,58.0834 34.9583,104.417 12.5,151C 42.8619,248.12 73.5286,345.12 104.5,442C 198.835,442.833 293.168,442.667 387.5,441.5C 392.128,433.742 397.128,426.242 402.5,419C 406.587,418.238 410.587,418.404 414.5,419.5C 414.5,420.833 414.5,422.167 414.5,423.5C 407.598,433.627 400.931,443.96 394.5,454.5C 294.5,454.5 194.5,454.5 94.5,454.5C 63.209,354.964 31.5424,255.63 -0.5,156.5C -0.5,152.833 -0.5,149.167 -0.5,145.5C 24.3412,97.1509 48.6745,48.4843 72.5,-0.5 Z"/></g>
</svg>
