<?xml version="1.0" encoding="UTF-8"?>
<!DOCTYPE svg PUBLIC "-//W3C//DTD SVG 1.1//EN" "http://www.w3.org/Graphics/SVG/1.1/DTD/svg11.dtd">
<svg xmlns="http://www.w3.org/2000/svg" version="1.1" width="415px" height="455px" style="shape-rendering:geometricPrecision; text-rendering:geometricPrecision; image-rendering:optimizeQuality; fill-rule:evenodd; clip-rule:evenodd" xmlns:xlink="http://www.w3.org/1999/xlink">
<g><path style="opacity:0.98" fill="#fefefe" d="M 73.5,-0.5 C 183.833,-0.5 294.167,-0.5 404.5,-0.5C 407.463,10.0521 410.796,20.3854 414.5,30.5C 414.5,31.5 414.5,32.5 414.5,33.5C 410.443,35.1037 406.61,34.7703 403,32.5C 400.692,25.2416 398.192,18.0749 395.5,11C 290.498,10.1667 185.498,10.3333 80.5,11.5C 57.0861,57.8276 34.0861,104.328 11.5,151C 41.935,248.24 72.6017,345.407 103.5,442.5C 198.167,443.833 292.833,443.833 387.5,442.5C 392.128,434.742 397.128,427.242 402.5,420C 406.587,419.238 410.587,419.404 414.5,420.5C 414.5,421.167 414.5,421.833 414.5,422.5C 407.016,432.788 400.016,443.454 393.5,454.5C 294.167,454.5 194.833,454.5 95.5,454.5C 63.8757,353.964 31.8757,253.63 -0.5,153.5C -0.5,151.5 -0.5,149.5 -0.5,147.5C 24.6745,98.4843 49.3412,49.1509 73.5,-0.5 Z"/></g>
</svg>
