<?xml version="1.0" encoding="UTF-8"?>
<!DOCTYPE svg PUBLIC "-//W3C//DTD SVG 1.1//EN" "http://www.w3.org/Graphics/SVG/1.1/DTD/svg11.dtd">
<svg xmlns="http://www.w3.org/2000/svg" version="1.1" width="512px" height="512px" style="shape-rendering:geometricPrecision; text-rendering:geometricPrecision; image-rendering:optimizeQuality; fill-rule:evenodd; clip-rule:evenodd" xmlns:xlink="http://www.w3.org/1999/xlink">
<g><path style="opacity:1" fill="#da0023" d="M 422.5,-0.5 C 435.167,-0.5 447.833,-0.5 460.5,-0.5C 472.892,1.01199 485.225,3.51199 497.5,7C 502.824,9.79855 505.49,14.2986 505.5,20.5C 505.171,23.2282 505.837,25.5615 507.5,27.5C 509.033,35.2561 510.366,42.9228 511.5,50.5C 511.5,63.1667 511.5,75.8333 511.5,88.5C 505.976,137.427 487.976,181.093 457.5,219.5C 456.094,219.973 455.427,220.973 455.5,222.5C 454.833,223.833 453.833,224.833 452.5,225.5C 451.094,225.973 450.427,226.973 450.5,228.5C 448.167,231.5 445.5,234.167 442.5,236.5C 441.094,236.973 440.427,237.973 440.5,239.5C 428.869,251.632 417.035,263.632 405,275.5C 398.225,317.815 391.559,360.148 385,402.5C 384.75,405.754 383.75,408.754 382,411.5C 353.833,439.667 325.667,467.833 297.5,496C 294.342,498.324 291.009,499.157 287.5,498.5C 286.07,497.463 284.403,496.796 282.5,496.5C 281.833,495.167 280.833,494.167 279.5,493.5C 278.073,491.852 277.24,489.852 277,487.5C 275.834,463.843 275,440.176 274.5,416.5C 274.823,412.774 274.489,409.107 273.5,405.5C 272.702,405.957 272.369,406.624 272.5,407.5C 266.004,414.829 259.004,421.662 251.5,428C 247.278,430.13 243.278,429.964 239.5,427.5C 239.027,426.094 238.027,425.427 236.5,425.5C 232.536,422.037 228.702,418.37 225,414.5C 207.5,426 190,437.5 172.5,449C 169.361,450.728 166.028,451.894 162.5,452.5C 160.974,452.006 159.641,451.339 158.5,450.5C 158.027,449.094 157.027,448.427 155.5,448.5C 123.868,417.368 92.368,386.035 61,354.5C 58.1925,349.713 58.3592,345.047 61.5,340.5C 62.9063,340.027 63.573,339.027 63.5,337.5C 64.9063,337.027 65.573,336.027 65.5,334.5C 66.9063,334.027 67.573,333.027 67.5,331.5C 68.9063,331.027 69.573,330.027 69.5,328.5C 70.9063,328.027 71.573,327.027 71.5,325.5C 72.9063,325.027 73.573,324.027 73.5,322.5C 73.3284,321.508 73.6618,320.842 74.5,320.5C 75.9063,320.027 76.573,319.027 76.5,317.5C 77.9063,317.027 78.573,316.027 78.5,314.5C 79.9063,314.027 80.573,313.027 80.5,311.5C 81.9063,311.027 82.573,310.027 82.5,308.5C 83.9063,308.027 84.573,307.027 84.5,305.5C 85.9063,305.027 86.573,304.027 86.5,302.5C 87.9063,302.027 88.573,301.027 88.5,299.5C 88.3284,298.508 88.6618,297.842 89.5,297.5C 90.9063,297.027 91.573,296.027 91.5,294.5C 92.9063,294.027 93.573,293.027 93.5,291.5C 94.9063,291.027 95.573,290.027 95.5,288.5C 97.3818,287.779 97.7152,286.779 96.5,285.5C 90.7933,280.96 85.96,275.627 82,269.5C 81.1993,266.633 81.3659,263.966 82.5,261.5C 83.9063,261.027 84.573,260.027 84.5,258.5C 91.8123,251.854 98.8123,244.854 105.5,237.5C 101.893,236.511 98.226,236.177 94.5,236.5C 70.824,236 47.1573,235.166 23.5,234C 21.1484,233.76 19.1484,232.927 17.5,231.5C 16.8333,230.167 15.8333,229.167 14.5,228.5C 12.9137,226.919 11.9137,224.919 11.5,222.5C 11.8875,219.762 12.8875,217.428 14.5,215.5C 15.9063,215.027 16.573,214.027 16.5,212.5C 45.4503,185.217 73.7836,157.217 101.5,128.5C 105.48,126.529 109.813,125.362 114.5,125C 154.822,118.692 195.156,112.525 235.5,106.5C 249.115,94.553 262.115,81.8863 274.5,68.5C 275.5,66.8333 276.833,65.5 278.5,64.5C 281.427,63.2427 283.761,61.2427 285.5,58.5C 288.089,57.5806 290.089,55.914 291.5,53.5C 293.404,53.2624 294.738,52.2624 295.5,50.5C 297.404,50.2624 298.738,49.2624 299.5,47.5C 301.404,47.2624 302.738,46.2624 303.5,44.5C 305.027,44.573 306.027,43.9063 306.5,42.5C 308.027,42.573 309.027,41.9063 309.5,40.5C 310.899,39.1103 312.566,38.1103 314.5,37.5C 316.027,37.573 317.027,36.9063 317.5,35.5C 317.842,34.6618 318.508,34.3284 319.5,34.5C 321.027,34.573 322.027,33.9063 322.5,32.5C 323.514,31.3263 324.847,30.6596 326.5,30.5C 328.027,30.573 329.027,29.9063 329.5,28.5C 346.115,19.0324 363.782,12.0324 382.5,7.5C 388.17,7.08263 393.503,5.74929 398.5,3.5C 406.588,1.92981 414.588,0.59648 422.5,-0.5 Z M 482.5,27.5 C 483.048,29.6264 483.715,31.6264 484.5,33.5C 488.734,59.8893 488.4,86.2226 483.5,112.5C 482.388,114.599 481.721,116.933 481.5,119.5C 476.113,138.608 468.78,156.941 459.5,174.5C 458.094,174.973 457.427,175.973 457.5,177.5C 456.326,178.514 455.66,179.847 455.5,181.5C 454.094,181.973 453.427,182.973 453.5,184.5C 452.094,184.973 451.427,185.973 451.5,187.5C 450.094,187.973 449.427,188.973 449.5,190.5C 448.094,190.973 447.427,191.973 447.5,193.5C 446.094,193.973 445.427,194.973 445.5,196.5C 444.094,196.973 443.427,197.973 443.5,199.5C 441.413,200.585 440.08,202.251 439.5,204.5C 437.738,205.262 436.738,206.596 436.5,208.5C 434.5,209.833 432.833,211.5 431.5,213.5C 429.738,214.262 428.738,215.596 428.5,217.5C 426.833,218.5 425.5,219.833 424.5,221.5C 397.833,247.5 371.5,273.833 345.5,300.5C 344.094,300.973 343.427,301.973 343.5,303.5C 342.883,303.611 342.383,303.944 342,304.5C 341.192,308.027 341.359,311.36 342.5,314.5C 342.932,315.71 343.599,316.71 344.5,317.5C 344.973,318.906 345.973,319.573 347.5,319.5C 351.248,321.966 355.248,322.133 359.5,320C 365.003,315.663 370.003,310.83 374.5,305.5C 375.338,305.842 375.672,306.508 375.5,307.5C 370.555,337.446 365.889,367.446 361.5,397.5C 340.833,417.833 320.167,438.167 299.5,458.5C 298.859,433.454 298.026,408.454 297,383.5C 307.369,373.298 317.535,362.965 327.5,352.5C 328.906,352.027 329.573,351.027 329.5,349.5C 333.473,344.219 333.306,338.886 329,333.5C 324.236,330.043 319.403,329.71 314.5,332.5C 313.761,332.369 313.094,332.536 312.5,333C 289.965,355.702 267.299,378.202 244.5,400.5C 225.368,380.868 206.035,361.368 186.5,342C 233,295.5 279.5,249 326,202.5C 329.895,197.698 330.395,192.698 327.5,187.5C 327.573,185.973 326.906,184.973 325.5,184.5C 322.022,181.723 318.022,180.89 313.5,182C 312.058,182.377 311.058,183.21 310.5,184.5C 309.761,184.369 309.094,184.536 308.5,185C 261.965,231.701 215.299,278.201 168.5,324.5C 149.368,304.868 130.035,285.368 110.5,266C 133,243.5 155.5,221 178,198.5C 181.019,193.78 181.186,189.113 178.5,184.5C 178.573,182.973 177.906,181.973 176.5,181.5C 172.851,178.67 168.851,178.003 164.5,179.5C 162.973,179.427 161.973,180.094 161.5,181.5C 149.552,191.78 138.219,202.78 127.5,214.5C 102.52,213.14 77.5196,211.973 52.5,211C 72.8333,190.667 93.1667,170.333 113.5,150C 143.22,145.208 172.886,140.374 202.5,135.5C 203.552,135.351 204.552,135.517 205.5,136C 200.985,140.348 196.651,144.848 192.5,149.5C 197.652,155.152 202.985,160.652 208.5,166C 209.998,166.585 210.998,166.085 211.5,164.5C 238.965,137.535 266.299,110.368 293.5,83C 335.199,45.4951 384.199,25.6618 440.5,23.5C 454.652,23.382 468.652,24.7153 482.5,27.5 Z M 410.5,91.5 C 411.262,93.2624 412.596,94.2624 414.5,94.5C 425.095,106.733 426.762,120.067 419.5,134.5C 417.738,135.262 416.738,136.596 416.5,138.5C 415.5,138.833 414.833,139.5 414.5,140.5C 412.596,140.738 411.262,141.738 410.5,143.5C 396.067,150.762 382.733,149.095 370.5,138.5C 370.262,136.596 369.262,135.262 367.5,134.5C 358.406,114.615 363.406,99.4486 382.5,89C 392.157,85.7735 401.491,86.6068 410.5,91.5 Z M 151.5,340.5 C 150.925,342.411 149.925,344.078 148.5,345.5C 147.662,345.842 147.328,346.508 147.5,347.5C 146.094,347.973 145.427,348.973 145.5,350.5C 143.913,354.651 144.58,358.317 147.5,361.5C 147.5,362.833 148.167,363.5 149.5,363.5C 149.973,364.906 150.973,365.573 152.5,365.5C 154.738,366.537 157.071,366.703 159.5,366C 163.475,364.186 167.142,362.186 170.5,360C 182.833,372.333 195.167,384.667 207.5,397C 205.654,398.03 203.987,399.196 202.5,400.5C 200.973,400.427 199.973,401.094 199.5,402.5C 197.973,402.427 196.973,403.094 196.5,404.5C 194.973,404.427 193.973,405.094 193.5,406.5C 191.973,406.427 190.973,407.094 190.5,408.5C 186.561,410.446 182.894,412.779 179.5,415.5C 177.973,415.427 176.973,416.094 176.5,417.5C 174.973,417.427 173.973,418.094 173.5,419.5C 171.973,419.427 170.973,420.094 170.5,421.5C 168.973,421.427 167.973,422.094 167.5,423.5C 166.504,423.414 165.671,423.748 165,424.5C 138.833,398.333 112.667,372.167 86.5,346C 95.7912,331.918 104.958,317.752 114,303.5C 126.368,316.035 138.868,328.369 151.5,340.5 Z"/></g>
<g><path style="opacity:1" fill="#a9001b" d="M 398.5,3.5 C 393.503,5.74929 388.17,7.08263 382.5,7.5C 387.573,5.56504 392.906,4.2317 398.5,3.5 Z"/></g>
<g><path style="opacity:1" fill="#a1001a" d="M 505.5,20.5 C 506.612,22.5994 507.279,24.9327 507.5,27.5C 505.837,25.5615 505.171,23.2282 505.5,20.5 Z"/></g>
<g><path style="opacity:0.969" fill="#9c0019" d="M 329.5,28.5 C 329.027,29.9063 328.027,30.573 326.5,30.5C 326.973,29.0937 327.973,28.427 329.5,28.5 Z"/></g>
<g><path style="opacity:0.631" fill="#930017" d="M 482.5,27.5 C 484.308,28.9179 484.975,30.9179 484.5,33.5C 483.715,31.6264 483.048,29.6264 482.5,27.5 Z"/></g>
<g><path style="opacity:0.973" fill="#9c0019" d="M 322.5,32.5 C 322.027,33.9063 321.027,34.573 319.5,34.5C 319.973,33.0937 320.973,32.427 322.5,32.5 Z"/></g>
<g><path style="opacity:0.984" fill="#a2001a" d="M 317.5,35.5 C 317.027,36.9063 316.027,37.573 314.5,37.5C 314.973,36.0937 315.973,35.427 317.5,35.5 Z"/></g>
<g><path style="opacity:0.941" fill="#950018" d="M 309.5,40.5 C 309.027,41.9063 308.027,42.573 306.5,42.5C 306.973,41.0937 307.973,40.427 309.5,40.5 Z"/></g>
<g><path style="opacity:0.949" fill="#970018" d="M 306.5,42.5 C 306.027,43.9063 305.027,44.573 303.5,44.5C 303.973,43.0937 304.973,42.427 306.5,42.5 Z"/></g>
<g><path style="opacity:0.933" fill="#9c0019" d="M 303.5,44.5 C 302.738,46.2624 301.404,47.2624 299.5,47.5C 300.262,45.7376 301.596,44.7376 303.5,44.5 Z"/></g>
<g><path style="opacity:0.945" fill="#9e0019" d="M 299.5,47.5 C 298.738,49.2624 297.404,50.2624 295.5,50.5C 296.262,48.7376 297.596,47.7376 299.5,47.5 Z"/></g>
<g><path style="opacity:0.953" fill="#a1001a" d="M 295.5,50.5 C 294.738,52.2624 293.404,53.2624 291.5,53.5C 292.262,51.7376 293.596,50.7376 295.5,50.5 Z"/></g>
<g><path style="opacity:0.992" fill="#a7001b" d="M 291.5,53.5 C 290.089,55.914 288.089,57.5806 285.5,58.5C 286.911,56.086 288.911,54.4194 291.5,53.5 Z"/></g>
<g><path style="opacity:0.992" fill="#aa001b" d="M 285.5,58.5 C 283.761,61.2427 281.427,63.2427 278.5,64.5C 280.239,61.7573 282.573,59.7573 285.5,58.5 Z"/></g>
<g><path style="opacity:1" fill="#d90023" d="M 435.5,82.5 C 435.427,84.0269 436.094,85.0269 437.5,85.5C 438.906,85.9731 439.573,86.9731 439.5,88.5C 439.427,90.0269 440.094,91.0269 441.5,91.5C 453.713,117.934 449.046,141.101 427.5,161C 411.832,171.916 394.832,174.75 376.5,169.5C 375.365,167.787 373.698,167.12 371.5,167.5C 369.847,167.34 368.514,166.674 367.5,165.5C 367.027,164.094 366.027,163.427 364.5,163.5C 364.027,162.094 363.027,161.427 361.5,161.5C 360.738,159.738 359.404,158.738 357.5,158.5C 340.686,142.931 335.186,123.931 341,101.5C 341.844,97.7708 343.344,94.4374 345.5,91.5C 346.906,91.0269 347.573,90.0269 347.5,88.5C 348.906,88.0269 349.573,87.0269 349.5,85.5C 350.906,85.0269 351.573,84.0269 351.5,82.5C 352.833,80.5 354.5,78.8333 356.5,77.5C 358.749,76.9202 360.415,75.5869 361.5,73.5C 361.973,72.0937 362.973,71.427 364.5,71.5C 366.027,71.573 367.027,70.9063 367.5,69.5C 388.248,59.4215 408.248,60.9215 427.5,74C 430.371,76.7028 433.038,79.5361 435.5,82.5 Z M 410.5,91.5 C 411.262,93.2624 412.596,94.2624 414.5,94.5C 425.095,106.733 426.762,120.067 419.5,134.5C 417.738,135.262 416.738,136.596 416.5,138.5C 415.5,138.833 414.833,139.5 414.5,140.5C 412.596,140.738 411.262,141.738 410.5,143.5C 396.067,150.762 382.733,149.095 370.5,138.5C 370.262,136.596 369.262,135.262 367.5,134.5C 358.406,114.615 363.406,99.4486 382.5,89C 392.157,85.7735 401.491,86.6068 410.5,91.5 Z"/></g>
<g><path style="opacity:0.976" fill="#9e0019" d="M 367.5,69.5 C 367.027,70.9063 366.027,71.573 364.5,71.5C 364.973,70.0937 365.973,69.427 367.5,69.5 Z"/></g>
<g><path style="opacity:0.996" fill="#ac001b" d="M 361.5,73.5 C 360.415,75.5869 358.749,76.9202 356.5,77.5C 357.585,75.4131 359.251,74.0798 361.5,73.5 Z"/></g>
<g><path style="opacity:0.788" fill="#920017" d="M 351.5,82.5 C 351.573,84.0269 350.906,85.0269 349.5,85.5C 349.427,83.9731 350.094,82.9731 351.5,82.5 Z"/></g>
<g><path style="opacity:0.843" fill="#970018" d="M 435.5,82.5 C 436.906,82.9731 437.573,83.9731 437.5,85.5C 436.094,85.0269 435.427,84.0269 435.5,82.5 Z"/></g>
<g><path style="opacity:0.89" fill="#9f0019" d="M 349.5,85.5 C 349.573,87.0269 348.906,88.0269 347.5,88.5C 347.427,86.9731 348.094,85.9731 349.5,85.5 Z"/></g>
<g><path style="opacity:0.722" fill="#920017" d="M 347.5,88.5 C 347.573,90.0269 346.906,91.0269 345.5,91.5C 345.427,89.9731 346.094,88.9731 347.5,88.5 Z"/></g>
<g><path style="opacity:0.761" fill="#960018" d="M 439.5,88.5 C 440.906,88.9731 441.573,89.9731 441.5,91.5C 440.094,91.0269 439.427,90.0269 439.5,88.5 Z"/></g>
<g><path style="opacity:0.984" fill="#9d0019" d="M 410.5,91.5 C 412.404,91.7376 413.738,92.7376 414.5,94.5C 412.596,94.2624 411.262,93.2624 410.5,91.5 Z"/></g>
<g><path style="opacity:0.89" fill="#940017" d="M 274.5,68.5 C 262.115,81.8863 249.115,94.553 235.5,106.5C 247.885,93.1137 260.885,80.447 274.5,68.5 Z"/></g>
<g><path style="opacity:1" fill="#a2001a" d="M 483.5,112.5 C 483.829,115.228 483.163,117.562 481.5,119.5C 481.721,116.933 482.388,114.599 483.5,112.5 Z"/></g>
<g><path style="opacity:0.992" fill="#a2001a" d="M 367.5,134.5 C 369.262,135.262 370.262,136.596 370.5,138.5C 368.738,137.738 367.738,136.404 367.5,134.5 Z"/></g>
<g><path style="opacity:0.984" fill="#9e0019" d="M 419.5,134.5 C 419.262,136.404 418.262,137.738 416.5,138.5C 416.738,136.596 417.738,135.262 419.5,134.5 Z"/></g>
<g><path style="opacity:0.957" fill="#a1001a" d="M 414.5,140.5 C 413.738,142.262 412.404,143.262 410.5,143.5C 411.262,141.738 412.596,140.738 414.5,140.5 Z"/></g>
<g><path style="opacity:0.953" fill="#940018" d="M 202.5,135.5 C 204.288,134.378 206.288,134.211 208.5,135C 203.651,139.681 198.985,144.515 194.5,149.5C 199.322,155.668 204.989,160.668 211.5,164.5C 210.998,166.085 209.998,166.585 208.5,166C 202.985,160.652 197.652,155.152 192.5,149.5C 196.651,144.848 200.985,140.348 205.5,136C 204.552,135.517 203.552,135.351 202.5,135.5 Z"/></g>
<g><path style="opacity:0.984" fill="#9b0019" d="M 357.5,158.5 C 359.404,158.738 360.738,159.738 361.5,161.5C 359.596,161.262 358.262,160.262 357.5,158.5 Z"/></g>
<g><path style="opacity:0.875" fill="#9c0019" d="M 361.5,161.5 C 363.027,161.427 364.027,162.094 364.5,163.5C 362.973,163.573 361.973,162.906 361.5,161.5 Z"/></g>
<g><path style="opacity:0.651" fill="#8e0017" d="M 364.5,163.5 C 366.027,163.427 367.027,164.094 367.5,165.5C 365.973,165.573 364.973,164.906 364.5,163.5 Z"/></g>
<g><path style="opacity:1" fill="#a4001a" d="M 371.5,167.5 C 373.698,167.12 375.365,167.787 376.5,169.5C 374.597,169.204 372.93,168.537 371.5,167.5 Z"/></g>
<g><path style="opacity:0.655" fill="#8f0017" d="M 459.5,174.5 C 459.573,176.027 458.906,177.027 457.5,177.5C 457.427,175.973 458.094,174.973 459.5,174.5 Z"/></g>
<g><path style="opacity:0.969" fill="#9c0019" d="M 164.5,179.5 C 164.027,180.906 163.027,181.573 161.5,181.5C 161.973,180.094 162.973,179.427 164.5,179.5 Z"/></g>
<g><path style="opacity:0.702" fill="#8e0016" d="M 176.5,181.5 C 177.906,181.973 178.573,182.973 178.5,184.5C 177.094,184.027 176.427,183.027 176.5,181.5 Z"/></g>
<g><path style="opacity:0.839" fill="#9b0019" d="M 455.5,181.5 C 455.573,183.027 454.906,184.027 453.5,184.5C 453.427,182.973 454.094,181.973 455.5,181.5 Z"/></g>
<g><path style="opacity:0.757" fill="#920017" d="M 325.5,184.5 C 326.906,184.973 327.573,185.973 327.5,187.5C 326.094,187.027 325.427,186.027 325.5,184.5 Z"/></g>
<g><path style="opacity:0.745" fill="#920017" d="M 453.5,184.5 C 453.573,186.027 452.906,187.027 451.5,187.5C 451.427,185.973 452.094,184.973 453.5,184.5 Z"/></g>
<g><path style="opacity:0.631" fill="#8b0016" d="M 451.5,187.5 C 451.573,189.027 450.906,190.027 449.5,190.5C 449.427,188.973 450.094,187.973 451.5,187.5 Z"/></g>
<g><path style="opacity:0.706" fill="#8e0016" d="M 449.5,190.5 C 449.573,192.027 448.906,193.027 447.5,193.5C 447.427,191.973 448.094,190.973 449.5,190.5 Z"/></g>
<g><path style="opacity:0.808" fill="#950018" d="M 447.5,193.5 C 447.573,195.027 446.906,196.027 445.5,196.5C 445.427,194.973 446.094,193.973 447.5,193.5 Z"/></g>
<g><path style="opacity:0.89" fill="#940017" d="M 161.5,181.5 C 150.781,193.22 139.448,204.22 127.5,214.5C 138.219,202.78 149.552,191.78 161.5,181.5 Z"/></g>
<g><path style="opacity:0.984" fill="#aa001b" d="M 101.5,128.5 C 73.7836,157.217 45.4503,185.217 16.5,212.5C 44.2164,183.783 72.5497,155.783 101.5,128.5 Z"/></g>
<g><path style="opacity:0.882" fill="#9d0019" d="M 445.5,196.5 C 445.573,198.027 444.906,199.027 443.5,199.5C 443.427,197.973 444.094,196.973 445.5,196.5 Z"/></g>
<g><path style="opacity:0.722" fill="#970018" d="M 443.5,199.5 C 442.92,201.749 441.587,203.415 439.5,204.5C 440.08,202.251 441.413,200.585 443.5,199.5 Z"/></g>
<g><path style="opacity:0.992" fill="#a0001a" d="M 439.5,204.5 C 439.262,206.404 438.262,207.738 436.5,208.5C 436.738,206.596 437.738,205.262 439.5,204.5 Z"/></g>
<g><path style="opacity:0.886" fill="#9b0019" d="M 16.5,212.5 C 16.573,214.027 15.9063,215.027 14.5,215.5C 14.427,213.973 15.0937,212.973 16.5,212.5 Z"/></g>
<g><path style="opacity:0.953" fill="#960018" d="M 431.5,213.5 C 431.262,215.404 430.262,216.738 428.5,217.5C 428.738,215.596 429.738,214.262 431.5,213.5 Z"/></g>
<g><path style="opacity:0.008" fill="#820015" d="M 457.5,219.5 C 457.573,221.027 456.906,222.027 455.5,222.5C 455.427,220.973 456.094,219.973 457.5,219.5 Z"/></g>
<g><path style="opacity:0.016" fill="#840015" d="M 452.5,225.5 C 452.573,227.027 451.906,228.027 450.5,228.5C 450.427,226.973 451.094,225.973 452.5,225.5 Z"/></g>
<g><path style="opacity:0.024" fill="#880016" d="M 14.5,228.5 C 15.8333,229.167 16.8333,230.167 17.5,231.5C 15.5,231.5 14.5,230.5 14.5,228.5 Z"/></g>
<g><path style="opacity:0.008" fill="#830015" d="M 442.5,236.5 C 442.573,238.027 441.906,239.027 440.5,239.5C 440.427,237.973 441.094,236.973 442.5,236.5 Z"/></g>
<g><path style="opacity:0.902" fill="#930017" d="M 94.5,236.5 C 98.226,236.177 101.893,236.511 105.5,237.5C 98.8123,244.854 91.8123,251.854 84.5,258.5C 90.2383,251.256 96.5716,244.423 103.5,238C 100.305,237.819 97.3054,237.319 94.5,236.5 Z"/></g>
<g><path style="opacity:0.804" fill="#960018" d="M 84.5,258.5 C 84.573,260.027 83.9063,261.027 82.5,261.5C 82.427,259.973 83.0937,258.973 84.5,258.5 Z"/></g>
<g><path style="opacity:0.992" fill="#af001c" d="M 424.5,221.5 C 399.419,248.082 373.752,274.249 347.5,300C 346.906,300.464 346.239,300.631 345.5,300.5C 371.5,273.833 397.833,247.5 424.5,221.5 Z"/></g>
<g><path style="opacity:0.965" fill="#a3001a" d="M 310.5,184.5 C 264.035,231.465 217.368,278.299 170.5,325C 169.563,325.692 168.897,325.525 168.5,324.5C 215.299,278.201 261.965,231.701 308.5,185C 309.094,184.536 309.761,184.369 310.5,184.5 Z"/></g>
<g><path style="opacity:0.78" fill="#970018" d="M 96.5,285.5 C 97.7152,286.779 97.3818,287.779 95.5,288.5C 95.5569,287.391 95.8902,286.391 96.5,285.5 Z"/></g>
<g><path style="opacity:0.741" fill="#910017" d="M 95.5,288.5 C 95.573,290.027 94.9063,291.027 93.5,291.5C 93.427,289.973 94.0937,288.973 95.5,288.5 Z"/></g>
<g><path style="opacity:0.698" fill="#8e0017" d="M 93.5,291.5 C 93.573,293.027 92.9063,294.027 91.5,294.5C 91.427,292.973 92.0937,291.973 93.5,291.5 Z"/></g>
<g><path style="opacity:0.651" fill="#8b0016" d="M 91.5,294.5 C 91.573,296.027 90.9063,297.027 89.5,297.5C 89.427,295.973 90.0937,294.973 91.5,294.5 Z"/></g>
<g><path style="opacity:0.89" fill="#a1001a" d="M 88.5,299.5 C 88.573,301.027 87.9063,302.027 86.5,302.5C 86.427,300.973 87.0937,299.973 88.5,299.5 Z"/></g>
<g><path style="opacity:0.773" fill="#920017" d="M 345.5,300.5 C 345.573,302.027 344.906,303.027 343.5,303.5C 343.427,301.973 344.094,300.973 345.5,300.5 Z"/></g>
<g><path style="opacity:0.863" fill="#9d0019" d="M 86.5,302.5 C 86.573,304.027 85.9063,305.027 84.5,305.5C 84.427,303.973 85.0937,302.973 86.5,302.5 Z"/></g>
<g><path style="opacity:0.831" fill="#8c0016" d="M 375.5,307.5 C 375.672,306.508 375.338,305.842 374.5,305.5C 374.783,304.711 375.283,304.044 376,303.5C 376.765,305.066 376.598,306.399 375.5,307.5 Z"/></g>
<g><path style="opacity:0.827" fill="#990018" d="M 84.5,305.5 C 84.573,307.027 83.9063,308.027 82.5,308.5C 82.427,306.973 83.0937,305.973 84.5,305.5 Z"/></g>
<g><path style="opacity:0.935" fill="#940018" d="M 343.5,303.5 C 342.656,307.099 342.323,310.766 342.5,314.5C 341.359,311.36 341.192,308.027 342,304.5C 342.383,303.944 342.883,303.611 343.5,303.5 Z"/></g>
<g><path style="opacity:0.788" fill="#950018" d="M 82.5,308.5 C 82.573,310.027 81.9063,311.027 80.5,311.5C 80.427,309.973 81.0937,308.973 82.5,308.5 Z"/></g>
<g><path style="opacity:0.749" fill="#920017" d="M 80.5,311.5 C 80.573,313.027 79.9063,314.027 78.5,314.5C 78.427,312.973 79.0937,311.973 80.5,311.5 Z"/></g>
<g><path style="opacity:0.702" fill="#8f0017" d="M 78.5,314.5 C 78.573,316.027 77.9063,317.027 76.5,317.5C 76.427,315.973 77.0937,314.973 78.5,314.5 Z"/></g>
<g><path style="opacity:0.816" fill="#970018" d="M 344.5,317.5 C 346.027,317.427 347.027,318.094 347.5,319.5C 345.973,319.573 344.973,318.906 344.5,317.5 Z"/></g>
<g><path style="opacity:0.659" fill="#8c0016" d="M 76.5,317.5 C 76.573,319.027 75.9063,320.027 74.5,320.5C 74.427,318.973 75.0937,317.973 76.5,317.5 Z"/></g>
<g><path style="opacity:0.898" fill="#a1001a" d="M 73.5,322.5 C 73.573,324.027 72.9063,325.027 71.5,325.5C 71.427,323.973 72.0937,322.973 73.5,322.5 Z"/></g>
<g><path style="opacity:0.867" fill="#9e0019" d="M 71.5,325.5 C 71.573,327.027 70.9063,328.027 69.5,328.5C 69.427,326.973 70.0937,325.973 71.5,325.5 Z"/></g>
<g><path style="opacity:0.835" fill="#9a0019" d="M 69.5,328.5 C 69.573,330.027 68.9063,331.027 67.5,331.5C 67.427,329.973 68.0937,328.973 69.5,328.5 Z"/></g>
<g><path style="opacity:0.796" fill="#960018" d="M 67.5,331.5 C 67.573,333.027 66.9063,334.027 65.5,334.5C 65.427,332.973 66.0937,331.973 67.5,331.5 Z"/></g>
<g><path style="opacity:0.757" fill="#920017" d="M 65.5,334.5 C 65.573,336.027 64.9063,337.027 63.5,337.5C 63.427,335.973 64.0937,334.973 65.5,334.5 Z"/></g>
<g><path style="opacity:0.71" fill="#8f0017" d="M 63.5,337.5 C 63.573,339.027 62.9063,340.027 61.5,340.5C 61.427,338.973 62.0937,337.973 63.5,337.5 Z"/></g>
<g><path style="opacity:0.969" fill="#9a0018" d="M 151.5,340.5 C 152.821,343.235 151.821,344.902 148.5,345.5C 149.925,344.078 150.925,342.411 151.5,340.5 Z"/></g>
<g><path style="opacity:0.851" fill="#9c0019" d="M 147.5,347.5 C 147.573,349.027 146.906,350.027 145.5,350.5C 145.427,348.973 146.094,347.973 147.5,347.5 Z"/></g>
<g><path style="opacity:0.031" fill="#820015" d="M 329.5,349.5 C 329.573,351.027 328.906,352.027 327.5,352.5C 327.427,350.973 328.094,349.973 329.5,349.5 Z"/></g>
<g><path style="opacity:0.078" fill="#860015" d="M 147.5,361.5 C 148.5,361.833 149.167,362.5 149.5,363.5C 148.167,363.5 147.5,362.833 147.5,361.5 Z"/></g>
<g><path style="opacity:0.788" fill="#960018" d="M 149.5,363.5 C 151.027,363.427 152.027,364.094 152.5,365.5C 150.973,365.573 149.973,364.906 149.5,363.5 Z"/></g>
<g><path style="opacity:1" fill="#d90023" d="M 62.5,371.5 C 62.7376,373.404 63.7376,374.738 65.5,375.5C 68.1017,379.773 67.9351,384.107 65,388.5C 49.8333,403.667 34.6667,418.833 19.5,434C 11.7515,438.895 5.08479,437.728 -0.5,430.5C -0.5,427.167 -0.5,423.833 -0.5,420.5C -0.166667,420.5 0.166667,420.5 0.5,420.5C 1.90632,420.027 2.57298,419.027 2.5,417.5C 17.8333,402.833 32.8333,387.833 47.5,372.5C 52.2399,367.957 57.2399,367.624 62.5,371.5 Z"/></g>
<g><path style="opacity:0.996" fill="#9f0019" d="M 62.5,371.5 C 64.2624,372.262 65.2624,373.596 65.5,375.5C 63.7376,374.738 62.7376,373.404 62.5,371.5 Z"/></g>
<g><path style="opacity:0.992" fill="#af001c" d="M 314.5,332.5 C 292.035,355.465 269.368,378.299 246.5,401C 245.563,401.692 244.897,401.525 244.5,400.5C 267.299,378.202 289.965,355.702 312.5,333C 313.094,332.536 313.761,332.369 314.5,332.5 Z"/></g>
<g><path style="opacity:0.941" fill="#960018" d="M 202.5,400.5 C 202.027,401.906 201.027,402.573 199.5,402.5C 199.973,401.094 200.973,400.427 202.5,400.5 Z"/></g>
<g><path style="opacity:0.957" fill="#990018" d="M 199.5,402.5 C 199.027,403.906 198.027,404.573 196.5,404.5C 196.973,403.094 197.973,402.427 199.5,402.5 Z"/></g>
<g><path style="opacity:0.835" fill="#8f0017" d="M 47.5,372.5 C 32.8333,387.833 17.8333,402.833 2.5,417.5C 16.2451,402.252 30.5784,387.419 45.5,373C 46.0944,372.536 46.7611,372.369 47.5,372.5 Z"/></g>
<g><path style="opacity:0.969" fill="#9d0019" d="M 196.5,404.5 C 196.027,405.906 195.027,406.573 193.5,406.5C 193.973,405.094 194.973,404.427 196.5,404.5 Z"/></g>
<g><path style="opacity:1" fill="#d80023" d="M 99.5,408.5 C 99.427,410.027 100.094,411.027 101.5,411.5C 102.117,411.611 102.617,411.944 103,412.5C 104.102,417.184 103.436,421.517 101,425.5C 79.8333,446.667 58.6667,467.833 37.5,489C 33.7004,491.52 29.7004,492.02 25.5,490.5C 25.0269,489.094 24.0269,488.427 22.5,488.5C 17.7174,484.519 16.7174,479.852 19.5,474.5C 20.9063,474.027 21.573,473.027 21.5,471.5C 42.1667,450.167 63.1667,429.167 84.5,408.5C 86.0269,408.573 87.0269,407.906 87.5,406.5C 91.9402,404.847 95.9402,405.514 99.5,408.5 Z"/></g>
<g><path style="opacity:0.933" fill="#940018" d="M 87.5,406.5 C 87.0269,407.906 86.0269,408.573 84.5,408.5C 84.9731,407.094 85.9731,406.427 87.5,406.5 Z"/></g>
<g><path style="opacity:0.98" fill="#a00019" d="M 193.5,406.5 C 193.027,407.906 192.027,408.573 190.5,408.5C 190.973,407.094 191.973,406.427 193.5,406.5 Z"/></g>
<g><path style="opacity:0.875" fill="#9d0019" d="M 99.5,408.5 C 100.906,408.973 101.573,409.973 101.5,411.5C 100.094,411.027 99.427,410.027 99.5,408.5 Z"/></g>
<g><path style="opacity:0.292" fill="#7d0014" d="M 274.5,416.5 C 273.833,413.5 273.167,410.5 272.5,407.5C 272.369,406.624 272.702,405.957 273.5,405.5C 274.489,409.107 274.823,412.774 274.5,416.5 Z"/></g>
<g><path style="opacity:0.937" fill="#950018" d="M 179.5,415.5 C 179.027,416.906 178.027,417.573 176.5,417.5C 176.973,416.094 177.973,415.427 179.5,415.5 Z"/></g>
<g><path style="opacity:0.957" fill="#980018" d="M 176.5,417.5 C 176.027,418.906 175.027,419.573 173.5,419.5C 173.973,418.094 174.973,417.427 176.5,417.5 Z"/></g>
<g><path style="opacity:0.835" fill="#9a0019" d="M 2.5,417.5 C 2.57298,419.027 1.90632,420.027 0.5,420.5C 0.427017,418.973 1.09368,417.973 2.5,417.5 Z"/></g>
<g><path style="opacity:0.969" fill="#9c0019" d="M 173.5,419.5 C 173.027,420.906 172.027,421.573 170.5,421.5C 170.973,420.094 171.973,419.427 173.5,419.5 Z"/></g>
<g><path style="opacity:0.976" fill="#9f0019" d="M 170.5,421.5 C 170.027,422.906 169.027,423.573 167.5,423.5C 167.973,422.094 168.973,421.427 170.5,421.5 Z"/></g>
<g><path style="opacity:0.855" fill="#9c0019" d="M 236.5,425.5 C 238.027,425.427 239.027,426.094 239.5,427.5C 237.973,427.573 236.973,426.906 236.5,425.5 Z"/></g>
<g><path style="opacity:0.941" fill="#9c0019" d="M 361.5,397.5 C 341.587,418.915 321.087,439.915 300,460.5C 299.536,459.906 299.369,459.239 299.5,458.5C 320.167,438.167 340.833,417.833 361.5,397.5 Z"/></g>
<g><path style="opacity:1" fill="#dc0023" d="M 137.5,446.5 C 137.427,448.027 138.094,449.027 139.5,449.5C 141.086,451.081 142.086,453.081 142.5,455.5C 142.05,458.714 140.717,461.381 138.5,463.5C 123.167,478.167 108.167,493.167 93.5,508.5C 92.6935,509.728 91.6935,510.728 90.5,511.5C 88.5,511.5 86.5,511.5 84.5,511.5C 83.0697,510.463 81.403,509.796 79.5,509.5C 77.3763,508.969 75.8763,507.635 75,505.5C 72.891,501.053 73.391,497.053 76.5,493.5C 77.9063,493.027 78.573,492.027 78.5,490.5C 94.4488,476.219 109.782,461.219 124.5,445.5C 129.008,442.796 133.342,443.129 137.5,446.5 Z"/></g>
<g><path style="opacity:0.914" fill="#a2001a" d="M 137.5,446.5 C 138.906,446.973 139.573,447.973 139.5,449.5C 138.094,449.027 137.427,448.027 137.5,446.5 Z"/></g>
<g><path style="opacity:0.843" fill="#980018" d="M 155.5,448.5 C 157.027,448.427 158.027,449.094 158.5,450.5C 156.973,450.573 155.973,449.906 155.5,448.5 Z"/></g>
<g><path style="opacity:0.859" fill="#9c0019" d="M 21.5,471.5 C 21.573,473.027 20.9063,474.027 19.5,474.5C 19.427,472.973 20.0937,471.973 21.5,471.5 Z"/></g>
<g><path style="opacity:0.996" fill="#b4001d" d="M 124.5,445.5 C 109.782,461.219 94.4488,476.219 78.5,490.5C 93.2179,474.781 108.551,459.781 124.5,445.5 Z"/></g>
<g><path style="opacity:0.714" fill="#8f0017" d="M 22.5,488.5 C 24.0269,488.427 25.0269,489.094 25.5,490.5C 23.9731,490.573 22.9731,489.906 22.5,488.5 Z"/></g>
<g><path style="opacity:0.925" fill="#a4001a" d="M 78.5,490.5 C 78.573,492.027 77.9063,493.027 76.5,493.5C 76.427,491.973 77.0937,490.973 78.5,490.5 Z"/></g>
<g><path style="opacity:0.016" fill="#880016" d="M 279.5,493.5 C 280.833,494.167 281.833,495.167 282.5,496.5C 280.5,496.5 279.5,495.5 279.5,493.5 Z"/></g>
<g><path style="opacity:0.008" fill="#7f0014" d="M 138.5,463.5 C 124.755,478.748 110.422,493.581 95.5,508C 94.9056,508.464 94.2389,508.631 93.5,508.5C 108.167,493.167 123.167,478.167 138.5,463.5 Z"/></g>
<g><path style="opacity:0.518" fill="#900017" d="M 282.5,496.5 C 284.403,496.796 286.07,497.463 287.5,498.5C 285.302,498.88 283.635,498.213 282.5,496.5 Z"/></g>
<g><path style="opacity:0.455" fill="#8f0017" d="M 79.5,509.5 C 81.403,509.796 83.0697,510.463 84.5,511.5C 83.1667,511.5 81.8333,511.5 80.5,511.5C 80.1667,510.833 79.8333,510.167 79.5,509.5 Z"/></g>
</svg>
