<?xml version="1.0" encoding="UTF-8"?>
<!DOCTYPE svg PUBLIC "-//W3C//DTD SVG 1.1//EN" "http://www.w3.org/Graphics/SVG/1.1/DTD/svg11.dtd">
<svg xmlns="http://www.w3.org/2000/svg" version="1.1" width="512px" height="512px" style="shape-rendering:geometricPrecision; text-rendering:geometricPrecision; image-rendering:optimizeQuality; fill-rule:evenodd; clip-rule:evenodd" xmlns:xlink="http://www.w3.org/1999/xlink">
<g><path style="opacity:1" fill="#dc0023" d="M 93.5,-0.5 C 201.5,-0.5 309.5,-0.5 417.5,-0.5C 435.639,2.73611 450.639,11.4028 462.5,25.5C 462.738,27.4044 463.738,28.7377 465.5,29.5C 465.738,31.4044 466.738,32.7377 468.5,33.5C 469.338,33.8417 469.672,34.5084 469.5,35.5C 469.427,37.0269 470.094,38.0269 471.5,38.5C 479.776,53.3923 482.609,69.3923 480,86.5C 473.033,118.968 453.533,139.634 421.5,148.5C 420.976,167.248 420.142,185.914 419,204.5C 414.441,211.077 408.274,213.243 400.5,211C 398.119,210.777 396.453,209.61 395.5,207.5C 394.167,205.5 392.5,203.833 390.5,202.5C 382.5,195.167 374.833,187.5 367.5,179.5C 365.906,176.236 363.573,173.569 360.5,171.5C 353.035,164.536 345.702,157.369 338.5,150C 327.167,149.333 315.833,149.333 304.5,150C 292.362,169.283 279.695,188.117 266.5,206.5C 265.5,206.833 264.833,207.5 264.5,208.5C 263.653,209.966 262.32,210.8 260.5,211C 256.745,211.755 253.078,211.589 249.5,210.5C 249.027,209.094 248.027,208.427 246.5,208.5C 246.167,207.5 245.5,206.833 244.5,206.5C 238.177,199.196 232.844,191.196 228.5,182.5C 228.446,180.368 227.446,179.035 225.5,178.5C 219.066,169.151 212.733,159.651 206.5,150C 195.167,149.333 183.833,149.333 172.5,150C 165.298,157.369 157.965,164.536 150.5,171.5C 148.738,172.262 147.738,173.596 147.5,175.5C 138.833,184.833 129.833,193.833 120.5,202.5C 118.738,203.262 117.738,204.596 117.5,206.5C 112.288,211.338 106.288,212.672 99.5,210.5C 99.0269,209.094 98.0269,208.427 96.5,208.5C 94.1644,206.996 92.331,204.996 91,202.5C 90.833,184.491 90.333,166.491 89.5,148.5C 82.3459,146.788 75.6792,144.121 69.5,140.5C 69.0269,139.094 68.0269,138.427 66.5,138.5C 66.0269,137.094 65.0269,136.427 63.5,136.5C 63.0269,135.094 62.0269,134.427 60.5,134.5C 59.7377,132.738 58.4044,131.738 56.5,131.5C 35.8845,113.17 27.3845,90.17 31,62.5C 32.3741,53.8714 35.2074,45.8714 39.5,38.5C 40.9063,38.0269 41.573,37.0269 41.5,35.5C 41.3284,34.5084 41.6618,33.8417 42.5,33.5C 44.2624,32.7377 45.2624,31.4044 45.5,29.5C 47.2624,28.7377 48.2624,27.4044 48.5,25.5C 50.1667,23.1667 52.1667,21.1667 54.5,19.5C 57.0892,18.5806 59.0892,16.914 60.5,14.5C 62.4044,14.2624 63.7377,13.2624 64.5,11.5C 64.8417,10.6618 65.5084,10.3284 66.5,10.5C 68.0269,10.573 69.0269,9.90632 69.5,8.5C 77.0731,4.30968 85.0731,1.30968 93.5,-0.5 Z M 429.5,36.5 C 430.262,38.2624 431.596,39.2624 433.5,39.5C 450.963,56.6741 454.296,76.3408 443.5,98.5C 441.738,99.2623 440.738,100.596 440.5,102.5C 439.833,102.5 439.5,102.833 439.5,103.5C 437.5,104.833 435.833,106.5 434.5,108.5C 433.833,108.5 433.5,108.833 433.5,109.5C 431.596,109.738 430.262,110.738 429.5,112.5C 424.639,114.621 419.639,116.455 414.5,118C 409.272,118.296 404.272,119.129 399.5,120.5C 397.973,120.427 396.973,121.094 396.5,122.5C 394.5,122.5 393.5,123.5 393.5,125.5C 392.21,126.058 391.377,127.058 391,128.5C 390.5,138.161 390.334,147.828 390.5,157.5C 387.167,154.5 383.833,151.5 380.5,148.5C 374.167,141.5 367.5,134.833 360.5,128.5C 359.5,125.5 357.5,123.5 354.5,122.5C 353.942,121.21 352.942,120.377 351.5,120C 330.76,119.179 310.094,119.346 289.5,120.5C 287.973,120.427 286.973,121.094 286.5,122.5C 285.167,122.5 284.5,123.167 284.5,124.5C 283.833,124.5 283.5,124.833 283.5,125.5C 282.094,125.973 281.427,126.973 281.5,128.5C 280.094,128.973 279.427,129.973 279.5,131.5C 278.094,131.973 277.427,132.973 277.5,134.5C 276.094,134.973 275.427,135.973 275.5,137.5C 274.662,137.842 274.328,138.508 274.5,139.5C 273.094,139.973 272.427,140.973 272.5,142.5C 271.094,142.973 270.427,143.973 270.5,145.5C 269.094,145.973 268.427,146.973 268.5,148.5C 267.094,148.973 266.427,149.973 266.5,151.5C 265.094,151.973 264.427,152.973 264.5,154.5C 263.662,154.842 263.328,155.508 263.5,156.5C 262.094,156.973 261.427,157.973 261.5,159.5C 260.094,159.973 259.427,160.973 259.5,162.5C 258.094,162.973 257.427,163.973 257.5,165.5C 256.167,166.833 254.833,166.833 253.5,165.5C 253.573,163.973 252.906,162.973 251.5,162.5C 251.573,160.973 250.906,159.973 249.5,159.5C 249.573,157.973 248.906,156.973 247.5,156.5C 247.672,155.508 247.338,154.842 246.5,154.5C 246.573,152.973 245.906,151.973 244.5,151.5C 244.573,149.973 243.906,148.973 242.5,148.5C 242.573,146.973 241.906,145.973 240.5,145.5C 240.573,143.973 239.906,142.973 238.5,142.5C 238.573,140.973 237.906,139.973 236.5,139.5C 236.672,138.508 236.338,137.842 235.5,137.5C 235.573,135.973 234.906,134.973 233.5,134.5C 233.573,132.973 232.906,131.973 231.5,131.5C 231.573,129.973 230.906,128.973 229.5,128.5C 229.573,126.973 228.906,125.973 227.5,125.5C 227.5,124.833 227.167,124.5 226.5,124.5C 226.5,123.167 225.833,122.5 224.5,122.5C 223.653,121.034 222.32,120.2 220.5,120C 199.996,119.171 179.663,119.337 159.5,120.5C 157.973,120.427 156.973,121.094 156.5,122.5C 153.5,123.5 151.5,125.5 150.5,128.5C 144.167,134.167 138.167,140.167 132.5,146.5C 128.5,150.167 124.5,153.833 120.5,157.5C 120.666,147.828 120.5,138.161 120,128.5C 119.623,127.058 118.79,126.058 117.5,125.5C 117.5,123.5 116.5,122.5 114.5,122.5C 113.942,121.21 112.942,120.377 111.5,120C 95.2662,119.876 81.5996,114.043 70.5,102.5C 70.2624,100.596 69.2624,99.2623 67.5,98.5C 56.687,76.4968 60.0204,56.9968 77.5,40C 83.166,35.6678 89.4993,32.6678 96.5,31C 199.479,29.3534 302.479,29.0201 405.5,30C 413.927,30.6433 421.927,32.81 429.5,36.5 Z"/></g>
<g><path style="opacity:0.973" fill="#9e0019" d="M 69.5,8.5 C 69.0269,9.90632 68.0269,10.573 66.5,10.5C 66.9731,9.09368 67.9731,8.42702 69.5,8.5 Z"/></g>
<g><path style="opacity:0.929" fill="#9b0019" d="M 64.5,11.5 C 63.7377,13.2624 62.4044,14.2624 60.5,14.5C 61.2623,12.7376 62.5956,11.7376 64.5,11.5 Z"/></g>
<g><path style="opacity:0.996" fill="#ab001b" d="M 60.5,14.5 C 59.0892,16.914 57.0892,18.5806 54.5,19.5C 55.9108,17.086 57.9108,15.4194 60.5,14.5 Z"/></g>
<g><path style="opacity:0.988" fill="#9b0019" d="M 48.5,25.5 C 48.2624,27.4044 47.2624,28.7377 45.5,29.5C 45.7376,27.5956 46.7376,26.2623 48.5,25.5 Z"/></g>
<g><path style="opacity:0.988" fill="#9b0019" d="M 462.5,25.5 C 464.262,26.2623 465.262,27.5956 465.5,29.5C 463.738,28.7377 462.738,27.4044 462.5,25.5 Z"/></g>
<g><path style="opacity:0.929" fill="#9b0019" d="M 45.5,29.5 C 45.2624,31.4044 44.2624,32.7377 42.5,33.5C 42.7376,31.5956 43.7376,30.2623 45.5,29.5 Z"/></g>
<g><path style="opacity:0.929" fill="#9b0019" d="M 465.5,29.5 C 467.262,30.2623 468.262,31.5956 468.5,33.5C 466.738,32.7377 465.738,31.4044 465.5,29.5 Z"/></g>
<g><path style="opacity:0.988" fill="#a00019" d="M 429.5,36.5 C 431.404,36.7376 432.738,37.7376 433.5,39.5C 431.596,39.2624 430.262,38.2624 429.5,36.5 Z"/></g>
<g><path style="opacity:0.71" fill="#910017" d="M 41.5,35.5 C 41.573,37.0269 40.9063,38.0269 39.5,38.5C 39.427,36.9731 40.0937,35.9731 41.5,35.5 Z"/></g>
<g><path style="opacity:0.71" fill="#910017" d="M 469.5,35.5 C 470.906,35.9731 471.573,36.9731 471.5,38.5C 470.094,38.0269 469.427,37.0269 469.5,35.5 Z"/></g>
<g><path style="opacity:1" fill="#de0023" d="M 384.5,62.5 C 385.167,63.8333 386.167,64.8333 387.5,65.5C 388.79,66.0577 389.623,67.0577 390,68.5C 390.667,72.5 390.667,76.5 390,80.5C 389.623,81.9423 388.79,82.9423 387.5,83.5C 386.167,84.1667 385.167,85.1667 384.5,86.5C 383.942,87.7899 382.942,88.6232 381.5,89C 297.5,89.6667 213.5,89.6667 129.5,89C 128.058,88.6232 127.058,87.7899 126.5,86.5C 125.833,85.1667 124.833,84.1667 123.5,83.5C 122.21,82.9423 121.377,81.9423 121,80.5C 120.333,76.5 120.333,72.5 121,68.5C 121.377,67.0577 122.21,66.0577 123.5,65.5C 124.833,64.8333 125.833,63.8333 126.5,62.5C 128.027,62.573 129.027,61.9063 129.5,60.5C 213.332,59.3343 297.332,59.1677 381.5,60C 382.942,60.3768 383.942,61.2101 384.5,62.5 Z"/></g>
<g><path style="opacity:0.984" fill="#a20019" d="M 129.5,60.5 C 129.027,61.9063 128.027,62.573 126.5,62.5C 126.973,61.0937 127.973,60.427 129.5,60.5 Z"/></g>
<g><path style="opacity:0.008" fill="#840015" d="M 384.5,62.5 C 386.5,62.5 387.5,63.5 387.5,65.5C 386.167,64.8333 385.167,63.8333 384.5,62.5 Z"/></g>
<g><path style="opacity:0.753" fill="#8b0016" d="M 126.5,62.5 C 125.833,63.8333 124.833,64.8333 123.5,65.5C 123.5,63.5 124.5,62.5 126.5,62.5 Z"/></g>
<g><path style="opacity:0.008" fill="#840015" d="M 123.5,83.5 C 124.833,84.1667 125.833,85.1667 126.5,86.5C 124.5,86.5 123.5,85.5 123.5,83.5 Z"/></g>
<g><path style="opacity:0.008" fill="#7f0014" d="M 387.5,83.5 C 387.5,85.5 386.5,86.5 384.5,86.5C 385.167,85.1667 386.167,84.1667 387.5,83.5 Z"/></g>
<g><path style="opacity:0.988" fill="#a00019" d="M 67.5,98.5 C 69.2624,99.2623 70.2624,100.596 70.5,102.5C 68.7376,101.738 67.7376,100.404 67.5,98.5 Z"/></g>
<g><path style="opacity:0.988" fill="#a00019" d="M 443.5,98.5 C 443.262,100.404 442.262,101.738 440.5,102.5C 440.738,100.596 441.738,99.2623 443.5,98.5 Z"/></g>
<g><path style="opacity:0.98" fill="#ab001b" d="M 439.5,103.5 C 438.833,106.167 437.167,107.833 434.5,108.5C 435.833,106.5 437.5,104.833 439.5,103.5 Z"/></g>
<g><path style="opacity:0.949" fill="#a00019" d="M 433.5,109.5 C 432.738,111.262 431.404,112.262 429.5,112.5C 430.262,110.738 431.596,109.738 433.5,109.5 Z"/></g>
<g><path style="opacity:0.984" fill="#a10019" d="M 159.5,120.5 C 159.027,121.906 158.027,122.573 156.5,122.5C 156.973,121.094 157.973,120.427 159.5,120.5 Z"/></g>
<g><path style="opacity:0.984" fill="#a00019" d="M 289.5,120.5 C 289.027,121.906 288.027,122.573 286.5,122.5C 286.973,121.094 287.973,120.427 289.5,120.5 Z"/></g>
<g><path style="opacity:0.984" fill="#a20019" d="M 399.5,120.5 C 399.027,121.906 398.027,122.573 396.5,122.5C 396.973,121.094 397.973,120.427 399.5,120.5 Z"/></g>
<g><path style="opacity:0.008" fill="#840015" d="M 114.5,122.5 C 116.5,122.5 117.5,123.5 117.5,125.5C 116.167,124.833 115.167,123.833 114.5,122.5 Z"/></g>
<g><path style="opacity:0.024" fill="#840015" d="M 224.5,122.5 C 225.833,122.5 226.5,123.167 226.5,124.5C 225.5,124.167 224.833,123.5 224.5,122.5 Z"/></g>
<g><path style="opacity:0.745" fill="#8d0017" d="M 286.5,122.5 C 286.167,123.5 285.5,124.167 284.5,124.5C 284.5,123.167 285.167,122.5 286.5,122.5 Z"/></g>
<g><path style="opacity:0.008" fill="#880016" d="M 354.5,122.5 C 357.5,123.5 359.5,125.5 360.5,128.5C 358.167,126.833 356.167,124.833 354.5,122.5 Z"/></g>
<g><path style="opacity:0.753" fill="#8b0016" d="M 396.5,122.5 C 395.833,123.833 394.833,124.833 393.5,125.5C 393.5,123.5 394.5,122.5 396.5,122.5 Z"/></g>
<g><path style="opacity:0.831" fill="#910017" d="M 156.5,122.5 C 154.833,124.833 152.833,126.833 150.5,128.5C 151.5,125.5 153.5,123.5 156.5,122.5 Z"/></g>
<g><path style="opacity:0.875" fill="#9e0019" d="M 227.5,125.5 C 228.906,125.973 229.573,126.973 229.5,128.5C 228.094,128.027 227.427,127.027 227.5,125.5 Z"/></g>
<g><path style="opacity:0.875" fill="#9e0019" d="M 283.5,125.5 C 283.573,127.027 282.906,128.027 281.5,128.5C 281.427,126.973 282.094,125.973 283.5,125.5 Z"/></g>
<g><path style="opacity:0.824" fill="#990018" d="M 229.5,128.5 C 230.906,128.973 231.573,129.973 231.5,131.5C 230.094,131.027 229.427,130.027 229.5,128.5 Z"/></g>
<g><path style="opacity:0.824" fill="#990018" d="M 281.5,128.5 C 281.573,130.027 280.906,131.027 279.5,131.5C 279.427,129.973 280.094,128.973 281.5,128.5 Z"/></g>
<g><path style="opacity:0.98" fill="#990018" d="M 56.5,131.5 C 58.4044,131.738 59.7377,132.738 60.5,134.5C 58.5956,134.262 57.2623,133.262 56.5,131.5 Z"/></g>
<g><path style="opacity:0.765" fill="#930017" d="M 231.5,131.5 C 232.906,131.973 233.573,132.973 233.5,134.5C 232.094,134.027 231.427,133.027 231.5,131.5 Z"/></g>
<g><path style="opacity:0.765" fill="#930017" d="M 279.5,131.5 C 279.573,133.027 278.906,134.027 277.5,134.5C 277.427,132.973 278.094,131.973 279.5,131.5 Z"/></g>
<g><path style="opacity:0.91" fill="#a2001a" d="M 60.5,134.5 C 62.0269,134.427 63.0269,135.094 63.5,136.5C 61.9731,136.573 60.9731,135.906 60.5,134.5 Z"/></g>
<g><path style="opacity:0.698" fill="#8f0017" d="M 233.5,134.5 C 234.906,134.973 235.573,135.973 235.5,137.5C 234.094,137.027 233.427,136.027 233.5,134.5 Z"/></g>
<g><path style="opacity:0.698" fill="#8f0017" d="M 277.5,134.5 C 277.573,136.027 276.906,137.027 275.5,137.5C 275.427,135.973 276.094,134.973 277.5,134.5 Z"/></g>
<g><path style="opacity:0.91" fill="#a2001a" d="M 63.5,136.5 C 65.0269,136.427 66.0269,137.094 66.5,138.5C 64.9731,138.573 63.9731,137.906 63.5,136.5 Z"/></g>
<g><path style="opacity:0.667" fill="#910017" d="M 66.5,138.5 C 68.0269,138.427 69.0269,139.094 69.5,140.5C 67.9731,140.573 66.9731,139.906 66.5,138.5 Z"/></g>
<g><path style="opacity:0.898" fill="#a2001a" d="M 236.5,139.5 C 237.906,139.973 238.573,140.973 238.5,142.5C 237.094,142.027 236.427,141.027 236.5,139.5 Z"/></g>
<g><path style="opacity:0.898" fill="#a2001a" d="M 274.5,139.5 C 274.573,141.027 273.906,142.027 272.5,142.5C 272.427,140.973 273.094,139.973 274.5,139.5 Z"/></g>
<g><path style="opacity:0.851" fill="#9c0019" d="M 238.5,142.5 C 239.906,142.973 240.573,143.973 240.5,145.5C 239.094,145.027 238.427,144.027 238.5,142.5 Z"/></g>
<g><path style="opacity:0.851" fill="#9c0019" d="M 272.5,142.5 C 272.573,144.027 271.906,145.027 270.5,145.5C 270.427,143.973 271.094,142.973 272.5,142.5 Z"/></g>
<g><path style="opacity:0.796" fill="#960018" d="M 240.5,145.5 C 241.906,145.973 242.573,146.973 242.5,148.5C 241.094,148.027 240.427,147.027 240.5,145.5 Z"/></g>
<g><path style="opacity:0.796" fill="#960018" d="M 270.5,145.5 C 270.573,147.027 269.906,148.027 268.5,148.5C 268.427,146.973 269.094,145.973 270.5,145.5 Z"/></g>
<g><path style="opacity:0.965" fill="#900017" d="M 380.5,148.5 C 383.833,151.5 387.167,154.5 390.5,157.5C 390.631,158.239 390.464,158.906 390,159.5C 386.227,156.236 383.06,152.57 380.5,148.5 Z"/></g>
<g><path style="opacity:0.737" fill="#910017" d="M 242.5,148.5 C 243.906,148.973 244.573,149.973 244.5,151.5C 243.094,151.027 242.427,150.027 242.5,148.5 Z"/></g>
<g><path style="opacity:0.737" fill="#910017" d="M 268.5,148.5 C 268.573,150.027 267.906,151.027 266.5,151.5C 266.427,149.973 267.094,148.973 268.5,148.5 Z"/></g>
<g><path style="opacity:0.918" fill="#970018" d="M 132.5,146.5 C 129.269,151.239 125.436,155.572 121,159.5C 120.536,158.906 120.369,158.239 120.5,157.5C 124.5,153.833 128.5,150.167 132.5,146.5 Z"/></g>
<g><path style="opacity:0.663" fill="#8c0016" d="M 244.5,151.5 C 245.906,151.973 246.573,152.973 246.5,154.5C 245.094,154.027 244.427,153.027 244.5,151.5 Z"/></g>
<g><path style="opacity:0.663" fill="#8c0016" d="M 266.5,151.5 C 266.573,153.027 265.906,154.027 264.5,154.5C 264.427,152.973 265.094,151.973 266.5,151.5 Z"/></g>
<g><path style="opacity:0.875" fill="#9f0019" d="M 247.5,156.5 C 248.906,156.973 249.573,157.973 249.5,159.5C 248.094,159.027 247.427,158.027 247.5,156.5 Z"/></g>
<g><path style="opacity:0.875" fill="#9f0019" d="M 263.5,156.5 C 263.573,158.027 262.906,159.027 261.5,159.5C 261.427,157.973 262.094,156.973 263.5,156.5 Z"/></g>
<g><path style="opacity:0.827" fill="#990018" d="M 249.5,159.5 C 250.906,159.973 251.573,160.973 251.5,162.5C 250.094,162.027 249.427,161.027 249.5,159.5 Z"/></g>
<g><path style="opacity:0.827" fill="#990018" d="M 261.5,159.5 C 261.573,161.027 260.906,162.027 259.5,162.5C 259.427,160.973 260.094,159.973 261.5,159.5 Z"/></g>
<g><path style="opacity:0.769" fill="#930017" d="M 251.5,162.5 C 252.906,162.973 253.573,163.973 253.5,165.5C 252.094,165.027 251.427,164.027 251.5,162.5 Z"/></g>
<g><path style="opacity:0.769" fill="#930017" d="M 259.5,162.5 C 259.573,164.027 258.906,165.027 257.5,165.5C 257.427,163.973 258.094,162.973 259.5,162.5 Z"/></g>
<g><path style="opacity:0.024" fill="#8a0016" d="M 253.5,165.5 C 254.833,166.833 256.167,166.833 257.5,165.5C 256.167,169.5 254.833,169.5 253.5,165.5 Z"/></g>
<g><path style="opacity:0.008" fill="#890016" d="M 360.5,171.5 C 363.573,173.569 365.906,176.236 367.5,179.5C 364.427,177.431 362.094,174.764 360.5,171.5 Z"/></g>
<g><path style="opacity:0.016" fill="#800014" d="M 150.5,171.5 C 150.262,173.404 149.262,174.738 147.5,175.5C 147.738,173.596 148.738,172.262 150.5,171.5 Z"/></g>
<g><path style="opacity:1" fill="#a0001a" d="M 225.5,178.5 C 227.446,179.035 228.446,180.368 228.5,182.5C 227.026,181.564 226.026,180.23 225.5,178.5 Z"/></g>
<g><path style="opacity:0.008" fill="#890016" d="M 390.5,202.5 C 392.5,203.833 394.167,205.5 395.5,207.5C 392.833,206.833 391.167,205.167 390.5,202.5 Z"/></g>
<g><path style="opacity:0.016" fill="#800014" d="M 120.5,202.5 C 120.262,204.404 119.262,205.738 117.5,206.5C 117.738,204.596 118.738,203.262 120.5,202.5 Z"/></g>
<g><path style="opacity:0.024" fill="#840015" d="M 244.5,206.5 C 245.5,206.833 246.167,207.5 246.5,208.5C 245.167,208.5 244.5,207.833 244.5,206.5 Z"/></g>
<g><path style="opacity:0.024" fill="#840015" d="M 266.5,206.5 C 266.5,207.833 265.833,208.5 264.5,208.5C 264.833,207.5 265.5,206.833 266.5,206.5 Z"/></g>
<g><path style="opacity:0.627" fill="#8c0016" d="M 96.5,208.5 C 98.0269,208.427 99.0269,209.094 99.5,210.5C 97.9731,210.573 96.9731,209.906 96.5,208.5 Z"/></g>
<g><path style="opacity:0.671" fill="#930017" d="M 246.5,208.5 C 248.027,208.427 249.027,209.094 249.5,210.5C 247.973,210.573 246.973,209.906 246.5,208.5 Z"/></g>
<g><path style="opacity:1" fill="#dc0023" d="M 312.5,267.5 C 312.738,269.404 313.738,270.738 315.5,271.5C 315.738,273.404 316.738,274.738 318.5,275.5C 319.338,275.842 319.672,276.508 319.5,277.5C 319.427,279.027 320.094,280.027 321.5,280.5C 329.776,295.392 332.609,311.392 330,328.5C 327.945,340.87 323.112,351.87 315.5,361.5C 314.094,361.973 313.427,362.973 313.5,364.5C 311.167,367.5 308.5,370.167 305.5,372.5C 304.243,373.623 304.576,374.289 306.5,374.5C 311.527,376.683 316.193,379.517 320.5,383C 322.041,384.371 323.375,385.871 324.5,387.5C 325.911,389.914 327.911,391.581 330.5,392.5C 331.08,394.749 332.413,396.415 334.5,397.5C 335.833,398.167 336.833,399.167 337.5,400.5C 337.427,402.027 338.094,403.027 339.5,403.5C 339.427,405.027 340.094,406.027 341.5,406.5C 341.738,408.404 342.738,409.738 344.5,410.5C 345.338,410.842 345.672,411.508 345.5,412.5C 345.427,414.027 346.094,415.027 347.5,415.5C 348.976,417.769 350.476,420.102 352,422.5C 353.039,421.29 354.206,420.29 355.5,419.5C 357.167,418.5 358.5,417.167 359.5,415.5C 359.833,414.5 360.5,413.833 361.5,413.5C 363.749,412.92 365.415,411.587 366.5,409.5C 368.404,409.262 369.738,408.262 370.5,406.5C 370.842,405.662 371.508,405.328 372.5,405.5C 374.027,405.573 375.027,404.906 375.5,403.5C 368.547,394.255 363.713,383.922 361,372.5C 358.314,356.936 361.148,342.602 369.5,329.5C 371.262,328.738 372.262,327.404 372.5,325.5C 374.262,324.738 375.262,323.404 375.5,321.5C 375.833,320.5 376.5,319.833 377.5,319.5C 380.427,318.243 382.761,316.243 384.5,313.5C 386.404,313.262 387.738,312.262 388.5,310.5C 401.602,302.148 415.936,299.314 431.5,302C 445.678,304.749 457.345,311.582 466.5,322.5C 466.427,324.027 467.094,325.027 468.5,325.5C 468.738,327.404 469.738,328.738 471.5,329.5C 479.852,342.602 482.686,356.936 480,372.5C 477.565,383.703 472.731,393.703 465.5,402.5C 470.443,405.127 474.777,408.461 478.5,412.5C 478.973,413.906 479.973,414.573 481.5,414.5C 483.833,416.167 485.833,418.167 487.5,420.5C 488.419,423.089 490.086,425.089 492.5,426.5C 492.427,428.027 493.094,429.027 494.5,429.5C 494.427,431.027 495.094,432.027 496.5,432.5C 496.738,434.404 497.738,435.738 499.5,436.5C 505.285,446.523 509.285,457.19 511.5,468.5C 511.5,479.833 511.5,491.167 511.5,502.5C 510.728,503.694 509.728,504.694 508.5,505.5C 507.167,506.167 506.167,507.167 505.5,508.5C 504.694,509.728 503.694,510.728 502.5,511.5C 337.833,511.5 173.167,511.5 8.5,511.5C 7.30646,510.728 6.30646,509.728 5.5,508.5C 4.83333,507.167 3.83333,506.167 2.5,505.5C 1.27187,504.694 0.271873,503.694 -0.5,502.5C -0.5,491.167 -0.5,479.833 -0.5,468.5C 0.166667,466.833 0.833333,465.167 1.5,463.5C 2.7682,461.095 3.43487,458.428 3.5,455.5C 4.82128,448.533 7.48795,442.2 11.5,436.5C 13.2624,435.738 14.2624,434.404 14.5,432.5C 15.9063,432.027 16.573,431.027 16.5,429.5C 17.9063,429.027 18.573,428.027 18.5,426.5C 20.914,425.089 22.5806,423.089 23.5,420.5C 24.5,418.833 25.8333,417.5 27.5,416.5C 29.7488,415.92 31.4154,414.587 32.5,412.5C 34.7488,411.92 36.4154,410.587 37.5,408.5C 39.0269,408.573 40.0269,407.906 40.5,406.5C 42.0269,406.573 43.0269,405.906 43.5,404.5C 44.0906,403.849 44.7573,403.182 45.5,402.5C 30.0536,383.697 26.2203,362.697 34,339.5C 35.6076,335.944 37.4409,332.611 39.5,329.5C 41.2624,328.738 42.2624,327.404 42.5,325.5C 44.2624,324.738 45.2624,323.404 45.5,321.5C 45.8333,320.5 46.5,319.833 47.5,319.5C 50.4274,318.243 52.7607,316.243 54.5,313.5C 56.4044,313.262 57.7377,312.262 58.5,310.5C 71.6024,302.148 85.9357,299.314 101.5,302C 115.678,304.749 127.345,311.582 136.5,322.5C 136.427,324.027 137.094,325.027 138.5,325.5C 138.738,327.404 139.738,328.738 141.5,329.5C 149.852,342.602 152.686,356.936 150,372.5C 147.565,383.703 142.731,393.703 135.5,402.5C 141.457,406.129 146.79,410.463 151.5,415.5C 152.5,417.167 153.833,418.5 155.5,419.5C 156.794,420.29 157.961,421.29 159,422.5C 160.524,420.102 162.024,417.769 163.5,415.5C 164.906,415.027 165.573,414.027 165.5,412.5C 165.328,411.508 165.662,410.842 166.5,410.5C 168.262,409.738 169.262,408.404 169.5,406.5C 170.906,406.027 171.573,405.027 171.5,403.5C 172.906,403.027 173.573,402.027 173.5,400.5C 174.167,399.167 175.167,398.167 176.5,397.5C 180.167,394.5 183.5,391.167 186.5,387.5C 186.5,386.833 186.833,386.5 187.5,386.5C 189.749,385.92 191.415,384.587 192.5,382.5C 192.973,381.094 193.973,380.427 195.5,380.5C 197.404,380.262 198.738,379.262 199.5,377.5C 199.842,376.662 200.508,376.328 201.5,376.5C 203.027,376.573 204.027,375.906 204.5,374.5C 206.424,374.289 206.757,373.623 205.5,372.5C 202.5,370.167 199.833,367.5 197.5,364.5C 197.573,362.973 196.906,361.973 195.5,361.5C 182.719,344.714 177.886,325.714 181,304.5C 182.374,295.871 185.207,287.871 189.5,280.5C 190.906,280.027 191.573,279.027 191.5,277.5C 191.328,276.508 191.662,275.842 192.5,275.5C 194.262,274.738 195.262,273.404 195.5,271.5C 197.262,270.738 198.262,269.404 198.5,267.5C 200.167,265.167 202.167,263.167 204.5,261.5C 207.089,260.581 209.089,258.914 210.5,256.5C 212.404,256.262 213.738,255.262 214.5,253.5C 214.842,252.662 215.508,252.328 216.5,252.5C 218.027,252.573 219.027,251.906 219.5,250.5C 234.392,242.224 250.392,239.391 267.5,242C 285.844,244.833 300.844,253.333 312.5,267.5 Z M 279.5,278.5 C 280.262,280.262 281.596,281.262 283.5,281.5C 300.963,298.674 304.296,318.341 293.5,340.5C 291.738,341.262 290.738,342.596 290.5,344.5C 289.833,344.5 289.5,344.833 289.5,345.5C 287.5,346.833 285.833,348.5 284.5,350.5C 283.833,350.5 283.5,350.833 283.5,351.5C 281.596,351.738 280.262,352.738 279.5,354.5C 257.341,365.296 237.674,361.963 220.5,344.5C 220.262,342.596 219.262,341.262 217.5,340.5C 205.782,316.175 210.449,295.675 231.5,279C 247.418,270.504 263.418,270.338 279.5,278.5 Z M 106.5,336.5 C 106.973,337.906 107.973,338.573 109.5,338.5C 111.196,340.525 112.863,342.525 114.5,344.5C 114.932,345.71 115.599,346.71 116.5,347.5C 120.727,357.653 120.394,367.653 115.5,377.5C 114.094,377.973 113.427,378.973 113.5,380.5C 111.833,381.5 110.5,382.833 109.5,384.5C 107.973,384.427 106.973,385.094 106.5,386.5C 96.6528,391.394 86.6528,391.727 76.5,387.5C 75.7095,386.599 74.7095,385.932 73.5,385.5C 71.5248,383.863 69.5248,382.196 67.5,380.5C 67.573,378.973 66.9063,377.973 65.5,377.5C 57.7385,361.512 60.7385,348.012 74.5,337C 85.0835,331.172 95.7502,331.006 106.5,336.5 Z M 436.5,336.5 C 436.973,337.906 437.973,338.573 439.5,338.5C 441.196,340.525 442.863,342.525 444.5,344.5C 444.932,345.71 445.599,346.71 446.5,347.5C 450.727,357.653 450.394,367.653 445.5,377.5C 444.094,377.973 443.427,378.973 443.5,380.5C 441.833,381.5 440.5,382.833 439.5,384.5C 437.973,384.427 436.973,385.094 436.5,386.5C 426.653,391.394 416.653,391.727 406.5,387.5C 405.71,386.599 404.71,385.932 403.5,385.5C 401.525,383.863 399.525,382.196 397.5,380.5C 397.573,378.973 396.906,377.973 395.5,377.5C 387.739,361.512 390.739,348.012 404.5,337C 415.084,331.172 425.75,331.006 436.5,336.5 Z M 294.5,402.5 C 294.973,403.906 295.973,404.573 297.5,404.5C 298.262,406.262 299.596,407.262 301.5,407.5C 303.239,410.243 305.573,412.243 308.5,413.5C 308.738,415.404 309.738,416.738 311.5,417.5C 326.269,436.155 332.602,457.488 330.5,481.5C 280.5,481.5 230.5,481.5 180.5,481.5C 178.358,456.936 185.025,435.27 200.5,416.5C 201.906,416.027 202.573,415.027 202.5,413.5C 204.027,413.573 205.027,412.906 205.5,411.5C 224.853,394.78 247.186,388.946 272.5,394C 280.121,396.15 287.454,398.984 294.5,402.5 Z M 118.5,428.5 C 118.973,429.906 119.973,430.573 121.5,430.5C 121.842,431.338 122.508,431.672 123.5,431.5C 124.262,433.262 125.596,434.262 127.5,434.5C 127.833,435.5 128.5,436.167 129.5,436.5C 130.833,438.5 132.5,440.167 134.5,441.5C 144.613,452.829 149.613,466.163 149.5,481.5C 109.833,481.5 70.1667,481.5 30.5,481.5C 31.9915,453.841 45.6582,435.007 71.5,425C 87.5932,420.837 103.26,422.004 118.5,428.5 Z M 452.5,430.5 C 452.973,431.906 453.973,432.573 455.5,432.5C 456.262,434.262 457.596,435.262 459.5,435.5C 472.998,447.831 479.998,463.164 480.5,481.5C 440.833,481.5 401.167,481.5 361.5,481.5C 363.015,452.316 377.682,433.15 405.5,424C 422.02,420.378 437.686,422.544 452.5,430.5 Z"/></g>
<g><path style="opacity:0.973" fill="#9e0019" d="M 219.5,250.5 C 219.027,251.906 218.027,252.573 216.5,252.5C 216.973,251.094 217.973,250.427 219.5,250.5 Z"/></g>
<g><path style="opacity:0.929" fill="#9b0019" d="M 214.5,253.5 C 213.738,255.262 212.404,256.262 210.5,256.5C 211.262,254.738 212.596,253.738 214.5,253.5 Z"/></g>
<g><path style="opacity:0.996" fill="#ab001b" d="M 210.5,256.5 C 209.089,258.914 207.089,260.581 204.5,261.5C 205.911,259.086 207.911,257.419 210.5,256.5 Z"/></g>
<g><path style="opacity:0.988" fill="#9b0019" d="M 198.5,267.5 C 198.262,269.404 197.262,270.738 195.5,271.5C 195.738,269.596 196.738,268.262 198.5,267.5 Z"/></g>
<g><path style="opacity:0.988" fill="#9b0019" d="M 312.5,267.5 C 314.262,268.262 315.262,269.596 315.5,271.5C 313.738,270.738 312.738,269.404 312.5,267.5 Z"/></g>
<g><path style="opacity:0.929" fill="#9b0019" d="M 195.5,271.5 C 195.262,273.404 194.262,274.738 192.5,275.5C 192.738,273.596 193.738,272.262 195.5,271.5 Z"/></g>
<g><path style="opacity:0.929" fill="#9b0019" d="M 315.5,271.5 C 317.262,272.262 318.262,273.596 318.5,275.5C 316.738,274.738 315.738,273.404 315.5,271.5 Z"/></g>
<g><path style="opacity:0.988" fill="#a00019" d="M 279.5,278.5 C 281.404,278.738 282.738,279.738 283.5,281.5C 281.596,281.262 280.262,280.262 279.5,278.5 Z"/></g>
<g><path style="opacity:0.71" fill="#910017" d="M 191.5,277.5 C 191.573,279.027 190.906,280.027 189.5,280.5C 189.427,278.973 190.094,277.973 191.5,277.5 Z"/></g>
<g><path style="opacity:0.71" fill="#910017" d="M 319.5,277.5 C 320.906,277.973 321.573,278.973 321.5,280.5C 320.094,280.027 319.427,279.027 319.5,277.5 Z"/></g>
<g><path style="opacity:0.937" fill="#9b0019" d="M 58.5,310.5 C 57.7377,312.262 56.4044,313.262 54.5,313.5C 55.2623,311.738 56.5956,310.738 58.5,310.5 Z"/></g>
<g><path style="opacity:0.937" fill="#9b0019" d="M 388.5,310.5 C 387.738,312.262 386.404,313.262 384.5,313.5C 385.262,311.738 386.596,310.738 388.5,310.5 Z"/></g>
<g><path style="opacity:0.992" fill="#ac001b" d="M 54.5,313.5 C 52.7607,316.243 50.4274,318.243 47.5,319.5C 49.2393,316.757 51.5726,314.757 54.5,313.5 Z"/></g>
<g><path style="opacity:0.992" fill="#ac001b" d="M 384.5,313.5 C 382.761,316.243 380.427,318.243 377.5,319.5C 379.239,316.757 381.573,314.757 384.5,313.5 Z"/></g>
<g><path style="opacity:0.984" fill="#9b0019" d="M 45.5,321.5 C 45.2624,323.404 44.2624,324.738 42.5,325.5C 42.7376,323.596 43.7376,322.262 45.5,321.5 Z"/></g>
<g><path style="opacity:0.984" fill="#9b0019" d="M 375.5,321.5 C 375.262,323.404 374.262,324.738 372.5,325.5C 372.738,323.596 373.738,322.262 375.5,321.5 Z"/></g>
<g><path style="opacity:0.776" fill="#900017" d="M 136.5,322.5 C 137.906,322.973 138.573,323.973 138.5,325.5C 137.094,325.027 136.427,324.027 136.5,322.5 Z"/></g>
<g><path style="opacity:0.776" fill="#900017" d="M 466.5,322.5 C 467.906,322.973 468.573,323.973 468.5,325.5C 467.094,325.027 466.427,324.027 466.5,322.5 Z"/></g>
<g><path style="opacity:0.937" fill="#9b0019" d="M 42.5,325.5 C 42.2624,327.404 41.2624,328.738 39.5,329.5C 39.7376,327.596 40.7376,326.262 42.5,325.5 Z"/></g>
<g><path style="opacity:0.937" fill="#9b0019" d="M 138.5,325.5 C 140.262,326.262 141.262,327.596 141.5,329.5C 139.738,328.738 138.738,327.404 138.5,325.5 Z"/></g>
<g><path style="opacity:0.937" fill="#9b0019" d="M 372.5,325.5 C 372.262,327.404 371.262,328.738 369.5,329.5C 369.738,327.596 370.738,326.262 372.5,325.5 Z"/></g>
<g><path style="opacity:0.937" fill="#9b0019" d="M 468.5,325.5 C 470.262,326.262 471.262,327.596 471.5,329.5C 469.738,328.738 468.738,327.404 468.5,325.5 Z"/></g>
<g><path style="opacity:0.925" fill="#910017" d="M 106.5,336.5 C 108.027,336.427 109.027,337.094 109.5,338.5C 107.973,338.573 106.973,337.906 106.5,336.5 Z"/></g>
<g><path style="opacity:0.925" fill="#910017" d="M 436.5,336.5 C 438.027,336.427 439.027,337.094 439.5,338.5C 437.973,338.573 436.973,337.906 436.5,336.5 Z"/></g>
<g><path style="opacity:0.988" fill="#a00019" d="M 217.5,340.5 C 219.262,341.262 220.262,342.596 220.5,344.5C 218.738,343.738 217.738,342.404 217.5,340.5 Z"/></g>
<g><path style="opacity:0.988" fill="#a00019" d="M 293.5,340.5 C 293.262,342.404 292.262,343.738 290.5,344.5C 290.738,342.596 291.738,341.262 293.5,340.5 Z"/></g>
<g><path style="opacity:0.996" fill="#9c0019" d="M 114.5,344.5 C 116.048,344.821 116.715,345.821 116.5,347.5C 115.599,346.71 114.932,345.71 114.5,344.5 Z"/></g>
<g><path style="opacity:0.996" fill="#9c0019" d="M 444.5,344.5 C 446.048,344.821 446.715,345.821 446.5,347.5C 445.599,346.71 444.932,345.71 444.5,344.5 Z"/></g>
<g><path style="opacity:0.98" fill="#ab001b" d="M 289.5,345.5 C 288.833,348.167 287.167,349.833 284.5,350.5C 285.833,348.5 287.5,346.833 289.5,345.5 Z"/></g>
<g><path style="opacity:0.949" fill="#a00019" d="M 283.5,351.5 C 282.738,353.262 281.404,354.262 279.5,354.5C 280.262,352.738 281.596,351.738 283.5,351.5 Z"/></g>
<g><path style="opacity:0.024" fill="#840015" d="M 195.5,361.5 C 196.906,361.973 197.573,362.973 197.5,364.5C 196.094,364.027 195.427,363.027 195.5,361.5 Z"/></g>
<g><path style="opacity:0.024" fill="#840015" d="M 315.5,361.5 C 315.573,363.027 314.906,364.027 313.5,364.5C 313.427,362.973 314.094,361.973 315.5,361.5 Z"/></g>
<g><path style="opacity:0.78" fill="#880016" d="M 205.5,372.5 C 206.757,373.623 206.424,374.289 204.5,374.5C 204.833,373.833 205.167,373.167 205.5,372.5 Z"/></g>
<g><path style="opacity:0.78" fill="#880016" d="M 305.5,372.5 C 305.833,373.167 306.167,373.833 306.5,374.5C 304.576,374.289 304.243,373.623 305.5,372.5 Z"/></g>
<g><path style="opacity:0.957" fill="#980018" d="M 204.5,374.5 C 204.027,375.906 203.027,376.573 201.5,376.5C 201.973,375.094 202.973,374.427 204.5,374.5 Z"/></g>
<g><path style="opacity:0.925" fill="#910017" d="M 65.5,377.5 C 66.9063,377.973 67.573,378.973 67.5,380.5C 66.0937,380.027 65.427,379.027 65.5,377.5 Z"/></g>
<g><path style="opacity:0.925" fill="#910017" d="M 115.5,377.5 C 115.573,379.027 114.906,380.027 113.5,380.5C 113.427,378.973 114.094,377.973 115.5,377.5 Z"/></g>
<g><path style="opacity:0.937" fill="#9e0019" d="M 199.5,377.5 C 198.738,379.262 197.404,380.262 195.5,380.5C 196.262,378.738 197.596,377.738 199.5,377.5 Z"/></g>
<g><path style="opacity:0.925" fill="#910017" d="M 395.5,377.5 C 396.906,377.973 397.573,378.973 397.5,380.5C 396.094,380.027 395.427,379.027 395.5,377.5 Z"/></g>
<g><path style="opacity:0.925" fill="#910017" d="M 445.5,377.5 C 445.573,379.027 444.906,380.027 443.5,380.5C 443.427,378.973 444.094,377.973 445.5,377.5 Z"/></g>
<g><path style="opacity:0.925" fill="#950017" d="M 109.5,384.5 C 109.027,385.906 108.027,386.573 106.5,386.5C 106.973,385.094 107.973,384.427 109.5,384.5 Z"/></g>
<g><path style="opacity:0.996" fill="#a7001b" d="M 192.5,382.5 C 191.415,384.587 189.749,385.92 187.5,386.5C 188.585,384.413 190.251,383.08 192.5,382.5 Z"/></g>
<g><path style="opacity:0.925" fill="#950017" d="M 439.5,384.5 C 439.027,385.906 438.027,386.573 436.5,386.5C 436.973,385.094 437.973,384.427 439.5,384.5 Z"/></g>
<g><path style="opacity:0.996" fill="#9c0019" d="M 73.5,385.5 C 74.7095,385.932 75.7095,386.599 76.5,387.5C 74.8212,387.715 73.8212,387.048 73.5,385.5 Z"/></g>
<g><path style="opacity:0.996" fill="#9c0019" d="M 403.5,385.5 C 404.71,385.932 405.71,386.599 406.5,387.5C 404.821,387.715 403.821,387.048 403.5,385.5 Z"/></g>
<g><path style="opacity:0.031" fill="#8a0016" d="M 324.5,387.5 C 327.089,388.419 329.089,390.086 330.5,392.5C 327.911,391.581 325.911,389.914 324.5,387.5 Z"/></g>
<g><path style="opacity:0.949" fill="#910017" d="M 330.5,392.5 C 332.587,393.585 333.92,395.251 334.5,397.5C 332.413,396.415 331.08,394.749 330.5,392.5 Z"/></g>
<g><path style="opacity:0.945" fill="#980018" d="M 186.5,387.5 C 183.5,391.167 180.167,394.5 176.5,397.5C 178.833,393.167 182.167,389.833 186.5,387.5 Z"/></g>
<g><path style="opacity:0.729" fill="#8d0017" d="M 173.5,400.5 C 173.573,402.027 172.906,403.027 171.5,403.5C 171.427,401.973 172.094,400.973 173.5,400.5 Z"/></g>
<g><path style="opacity:0.729" fill="#8d0017" d="M 337.5,400.5 C 338.906,400.973 339.573,401.973 339.5,403.5C 338.094,403.027 337.427,402.027 337.5,400.5 Z"/></g>
<g><path style="opacity:0.816" fill="#9a0019" d="M 294.5,402.5 C 296.027,402.427 297.027,403.094 297.5,404.5C 295.973,404.573 294.973,403.906 294.5,402.5 Z"/></g>
<g><path style="opacity:0.984" fill="#a3001a" d="M 375.5,403.5 C 375.027,404.906 374.027,405.573 372.5,405.5C 372.973,404.094 373.973,403.427 375.5,403.5 Z"/></g>
<g><path style="opacity:0.953" fill="#980018" d="M 43.5,404.5 C 43.0269,405.906 42.0269,406.573 40.5,406.5C 40.9731,405.094 41.9731,404.427 43.5,404.5 Z"/></g>
<g><path style="opacity:0.882" fill="#9c0019" d="M 171.5,403.5 C 171.573,405.027 170.906,406.027 169.5,406.5C 169.427,404.973 170.094,403.973 171.5,403.5 Z"/></g>
<g><path style="opacity:0.937" fill="#9d0019" d="M 297.5,404.5 C 299.404,404.738 300.738,405.738 301.5,407.5C 299.596,407.262 298.262,406.262 297.5,404.5 Z"/></g>
<g><path style="opacity:0.882" fill="#9c0019" d="M 339.5,403.5 C 340.906,403.973 341.573,404.973 341.5,406.5C 340.094,406.027 339.427,405.027 339.5,403.5 Z"/></g>
<g><path style="opacity:0.98" fill="#a1001a" d="M 40.5,406.5 C 40.0269,407.906 39.0269,408.573 37.5,408.5C 37.9731,407.094 38.9731,406.427 40.5,406.5 Z"/></g>
<g><path style="opacity:0.992" fill="#980018" d="M 301.5,407.5 C 304.427,408.757 306.761,410.757 308.5,413.5C 305.573,412.243 303.239,410.243 301.5,407.5 Z"/></g>
<g><path style="opacity:0.918" fill="#990018" d="M 370.5,406.5 C 369.738,408.262 368.404,409.262 366.5,409.5C 367.262,407.738 368.596,406.738 370.5,406.5 Z"/></g>
<g><path style="opacity:0.945" fill="#9e0019" d="M 169.5,406.5 C 169.262,408.404 168.262,409.738 166.5,410.5C 166.738,408.596 167.738,407.262 169.5,406.5 Z"/></g>
<g><path style="opacity:0.945" fill="#9e0019" d="M 341.5,406.5 C 343.262,407.262 344.262,408.596 344.5,410.5C 342.738,409.738 341.738,408.404 341.5,406.5 Z"/></g>
<g><path style="opacity:1" fill="#ae001c" d="M 37.5,408.5 C 36.4154,410.587 34.7488,411.92 32.5,412.5C 33.5846,410.413 35.2512,409.08 37.5,408.5 Z"/></g>
<g><path style="opacity:0.008" fill="#7e0014" d="M 205.5,411.5 C 205.027,412.906 204.027,413.573 202.5,413.5C 202.973,412.094 203.973,411.427 205.5,411.5 Z"/></g>
<g><path style="opacity:1" fill="#a9001b" d="M 366.5,409.5 C 365.415,411.587 363.749,412.92 361.5,413.5C 362.585,411.413 364.251,410.08 366.5,409.5 Z"/></g>
<g><path style="opacity:0.008" fill="#820015" d="M 478.5,412.5 C 480.027,412.427 481.027,413.094 481.5,414.5C 479.973,414.573 478.973,413.906 478.5,412.5 Z"/></g>
<g><path style="opacity:0.671" fill="#8f0017" d="M 165.5,412.5 C 165.573,414.027 164.906,415.027 163.5,415.5C 163.427,413.973 164.094,412.973 165.5,412.5 Z"/></g>
<g><path style="opacity:0.008" fill="#810015" d="M 202.5,413.5 C 202.573,415.027 201.906,416.027 200.5,416.5C 200.427,414.973 201.094,413.973 202.5,413.5 Z"/></g>
<g><path style="opacity:0.008" fill="#850015" d="M 308.5,413.5 C 310.262,414.262 311.262,415.596 311.5,417.5C 309.738,416.738 308.738,415.404 308.5,413.5 Z"/></g>
<g><path style="opacity:0.671" fill="#8f0017" d="M 345.5,412.5 C 346.906,412.973 347.573,413.973 347.5,415.5C 346.094,415.027 345.427,414.027 345.5,412.5 Z"/></g>
<g><path style="opacity:0.992" fill="#a4001a" d="M 32.5,412.5 C 31.4154,414.587 29.7488,415.92 27.5,416.5C 28.5846,414.413 30.2512,413.08 32.5,412.5 Z"/></g>
<g><path style="opacity:0.008" fill="#880016" d="M 151.5,415.5 C 153.833,415.833 155.167,417.167 155.5,419.5C 153.833,418.5 152.5,417.167 151.5,415.5 Z"/></g>
<g><path style="opacity:0.863" fill="#920017" d="M 359.5,415.5 C 358.5,417.167 357.167,418.5 355.5,419.5C 355.833,417.167 357.167,415.833 359.5,415.5 Z"/></g>
<g><path style="opacity:0.965" fill="#920017" d="M 487.5,420.5 C 489.914,421.911 491.581,423.911 492.5,426.5C 490.086,425.089 488.419,423.089 487.5,420.5 Z"/></g>
<g><path style="opacity:0.922" fill="#940018" d="M 23.5,420.5 C 22.5806,423.089 20.914,425.089 18.5,426.5C 19.4194,423.911 21.086,421.911 23.5,420.5 Z"/></g>
<g><path style="opacity:0.804" fill="#940018" d="M 18.5,426.5 C 18.573,428.027 17.9063,429.027 16.5,429.5C 16.427,427.973 17.0937,426.973 18.5,426.5 Z"/></g>
<g><path style="opacity:0.827" fill="#960018" d="M 492.5,426.5 C 493.906,426.973 494.573,427.973 494.5,429.5C 493.094,429.027 492.427,428.027 492.5,426.5 Z"/></g>
<g><path style="opacity:0.663" fill="#8e0017" d="M 118.5,428.5 C 120.027,428.427 121.027,429.094 121.5,430.5C 119.973,430.573 118.973,429.906 118.5,428.5 Z"/></g>
<g><path style="opacity:0.902" fill="#9f0019" d="M 16.5,429.5 C 16.573,431.027 15.9063,432.027 14.5,432.5C 14.427,430.973 15.0937,429.973 16.5,429.5 Z"/></g>
<g><path style="opacity:0.8" fill="#970018" d="M 452.5,430.5 C 454.027,430.427 455.027,431.094 455.5,432.5C 453.973,432.573 452.973,431.906 452.5,430.5 Z"/></g>
<g><path style="opacity:0.91" fill="#a2001a" d="M 494.5,429.5 C 495.906,429.973 496.573,430.973 496.5,432.5C 495.094,432.027 494.427,431.027 494.5,429.5 Z"/></g>
<g><path style="opacity:0.922" fill="#9b0019" d="M 123.5,431.5 C 125.404,431.738 126.738,432.738 127.5,434.5C 125.596,434.262 124.262,433.262 123.5,431.5 Z"/></g>
<g><path style="opacity:0.941" fill="#9e0019" d="M 455.5,432.5 C 457.404,432.738 458.738,433.738 459.5,435.5C 457.596,435.262 456.262,434.262 455.5,432.5 Z"/></g>
<g><path style="opacity:0.953" fill="#9f0019" d="M 14.5,432.5 C 14.2624,434.404 13.2624,435.738 11.5,436.5C 11.7376,434.596 12.7376,433.262 14.5,432.5 Z"/></g>
<g><path style="opacity:0.961" fill="#a1001a" d="M 496.5,432.5 C 498.262,433.262 499.262,434.596 499.5,436.5C 497.738,435.738 496.738,434.404 496.5,432.5 Z"/></g>
<g><path style="opacity:0.961" fill="#920017" d="M 129.5,436.5 C 132.167,437.167 133.833,438.833 134.5,441.5C 132.5,440.167 130.833,438.5 129.5,436.5 Z"/></g>
<g><path style="opacity:0.976" fill="#a8001b" d="M 3.5,455.5 C 3.43487,458.428 2.7682,461.095 1.5,463.5C 1.29379,460.505 1.96046,457.838 3.5,455.5 Z"/></g>
<g><path style="opacity:0.008" fill="#840015" d="M 2.5,505.5 C 3.83333,506.167 4.83333,507.167 5.5,508.5C 3.5,508.5 2.5,507.5 2.5,505.5 Z"/></g>
<g><path style="opacity:0.008" fill="#7f0014" d="M 508.5,505.5 C 508.5,507.5 507.5,508.5 505.5,508.5C 506.167,507.167 507.167,506.167 508.5,505.5 Z"/></g>
</svg>
