<?xml version="1.0" encoding="UTF-8"?>
<!DOCTYPE svg PUBLIC "-//W3C//DTD SVG 1.1//EN" "http://www.w3.org/Graphics/SVG/1.1/DTD/svg11.dtd">
<svg xmlns="http://www.w3.org/2000/svg" version="1.1" width="512px" height="512px" style="shape-rendering:geometricPrecision; text-rendering:geometricPrecision; image-rendering:optimizeQuality; fill-rule:evenodd; clip-rule:evenodd" xmlns:xlink="http://www.w3.org/1999/xlink">
<g><path style="opacity:1" fill="#d90023" d="M 54.5,56.5 C 55.1667,57.8333 56.1667,58.8333 57.5,59.5C 59.8804,66.39 57.3804,70.39 50,71.5C 38.6087,69.9104 27.2754,68.2438 16,66.5C 15.5,115.166 15.3333,163.832 15.5,212.5C 175.5,233.833 335.5,233.833 495.5,212.5C 495.667,163.832 495.5,115.166 495,66.5C 355.841,85.2999 216.341,87.7999 76.5,74C 70.9483,72.3873 68.9483,68.8873 70.5,63.5C 71.9063,63.0269 72.573,62.0269 72.5,60.5C 74.0269,60.573 75.0269,59.9063 75.5,58.5C 218.185,71.7444 360.518,68.7444 502.5,49.5C 506.139,49.4876 509.139,50.821 511.5,53.5C 511.5,109.833 511.5,166.167 511.5,222.5C 510.254,224.901 508.254,226.401 505.5,227C 500.863,227.829 496.196,228.329 491.5,228.5C 490.167,228.5 488.833,228.5 487.5,228.5C 487.5,304.5 487.5,380.5 487.5,456.5C 487.167,458.833 485.833,460.167 483.5,460.5C 470.784,460.795 458.117,460.462 445.5,459.5C 444.542,459.047 443.708,458.381 443,457.5C 442.169,412.665 442.335,367.998 443.5,323.5C 444.5,323.167 445.167,322.5 445.5,321.5C 446.492,319.974 447.992,319.307 450,319.5C 452.221,319.393 454.054,320.06 455.5,321.5C 455.427,323.027 456.094,324.027 457.5,324.5C 457.5,324.833 457.5,325.167 457.5,325.5C 457.5,365.833 457.5,406.167 457.5,446.5C 462.833,446.5 468.167,446.5 473.5,446.5C 473.5,374.5 473.5,302.5 473.5,230.5C 471.585,230.216 469.919,230.549 468.5,231.5C 465.609,232.403 462.609,232.736 459.5,232.5C 457.51,255.81 456.843,279.476 457.5,303.5C 456.81,307.688 454.31,310.022 450,310.5C 446.92,309.801 444.586,308.134 443,305.5C 442.667,281.833 442.333,258.167 442,234.5C 317.667,247.833 193.333,247.833 69,234.5C 68.6667,308.833 68.3333,383.167 68,457.5C 66.8333,458.667 65.6667,459.833 64.5,461C 52.1667,461.667 39.8333,461.667 27.5,461C 25.6763,460.34 24.343,459.173 23.5,457.5C 23.5,381.167 23.5,304.833 23.5,228.5C 22.1667,228.5 20.8333,228.5 19.5,228.5C 14.3858,228.388 9.38582,227.721 4.5,226.5C 3.73769,224.738 2.40435,223.738 0.5,223.5C 0.5,222.833 0.166667,222.5 -0.5,222.5C -0.5,166.167 -0.5,109.833 -0.5,53.5C 1.86138,50.821 4.86138,49.4876 8.5,49.5C 24.102,51.1083 39.4353,53.4417 54.5,56.5 Z M 318.5,129.5 C 321.28,130.195 323.947,131.195 326.5,132.5C 326.796,134.403 327.463,136.07 328.5,137.5C 328.27,141.694 326.603,145.194 323.5,148C 318.586,149.226 313.586,150.059 308.5,150.5C 308.5,143.833 308.5,137.167 308.5,130.5C 312.042,130.813 315.375,130.479 318.5,129.5 Z M 253.5,132.5 C 254.167,133.833 255.167,134.833 256.5,135.5C 258.151,140.324 258.817,145.324 258.5,150.5C 252.167,150.5 245.833,150.5 239.5,150.5C 239.5,146.5 239.5,142.5 239.5,138.5C 242.501,132.827 247.168,130.827 253.5,132.5 Z M 40.5,231.5 C 44.1185,232.244 47.7852,232.577 51.5,232.5C 52.4965,303.429 52.8299,374.429 52.5,445.5C 47.8333,445.5 43.1667,445.5 38.5,445.5C 37.8365,373.826 38.5032,302.492 40.5,231.5 Z"/></g>
<g><path style="opacity:0.016" fill="#870016" d="M 54.5,56.5 C 56.5,56.5 57.5,57.5 57.5,59.5C 56.1667,58.8333 55.1667,57.8333 54.5,56.5 Z"/></g>
<g><path style="opacity:0.965" fill="#990018" d="M 75.5,58.5 C 75.0269,59.9063 74.0269,60.573 72.5,60.5C 72.9731,59.0937 73.9731,58.427 75.5,58.5 Z"/></g>
<g><path style="opacity:0.784" fill="#970018" d="M 72.5,60.5 C 72.573,62.0269 71.9063,63.0269 70.5,63.5C 70.427,61.9731 71.0937,60.9731 72.5,60.5 Z"/></g>
<g><path style="opacity:1" fill="#d90023" d="M 422.5,106.5 C 422.427,108.027 423.094,109.027 424.5,109.5C 426.081,113.094 425.414,116.261 422.5,119C 417.692,120.893 412.692,121.727 407.5,121.5C 405.167,121.5 402.833,121.5 400.5,121.5C 400.5,141.833 400.5,162.167 400.5,182.5C 400.737,183.791 400.404,184.791 399.5,185.5C 398.5,185.833 397.833,186.5 397.5,187.5C 393.225,190.416 389.392,189.749 386,185.5C 385.5,165.169 385.333,144.836 385.5,124.5C 380.341,125.133 375.174,125.8 370,126.5C 363.06,125.751 360.226,122.084 361.5,115.5C 362.906,115.027 363.573,114.027 363.5,112.5C 365.153,112.34 366.486,111.674 367.5,110.5C 383.764,108.359 400.098,106.359 416.5,104.5C 418.883,104.361 420.883,105.028 422.5,106.5 Z"/></g>
<g><path style="opacity:1" fill="#d60022" d="M 130.5,109.5 C 131.514,110.674 132.847,111.34 134.5,111.5C 137.484,116.102 136.818,120.268 132.5,124C 123.774,124.324 115.108,123.991 106.5,123C 102.285,125.486 100.952,128.986 102.5,133.5C 102.427,135.027 103.094,136.027 104.5,136.5C 105.492,136.328 106.158,136.662 106.5,137.5C 106.821,139.048 107.821,139.715 109.5,139.5C 116.978,139.747 123.311,142.413 128.5,147.5C 128.738,149.404 129.738,150.738 131.5,151.5C 131.427,153.027 132.094,154.027 133.5,154.5C 138.669,165.428 137.003,175.261 128.5,184C 123.794,187.623 118.461,189.123 112.5,188.5C 105.022,188.241 97.6885,187.241 90.5,185.5C 90.0269,184.094 89.0269,183.427 87.5,183.5C 85.3605,181.119 85.0271,178.452 86.5,175.5C 87.9063,175.027 88.573,174.027 88.5,172.5C 90.4621,170.983 92.7954,170.316 95.5,170.5C 103.182,171.924 110.849,172.257 118.5,171.5C 119.906,171.027 120.573,170.027 120.5,168.5C 120.44,165.659 119.774,162.993 118.5,160.5C 118.167,158.167 116.833,156.833 114.5,156.5C 112.784,156.371 111.117,156.038 109.5,155.5C 107.485,154.076 105.152,153.41 102.5,153.5C 101.508,153.672 100.842,153.338 100.5,152.5C 100.027,151.094 99.0269,150.427 97.5,150.5C 89.5271,145.736 85.5271,138.569 85.5,129C 85.6234,125.143 86.6234,121.643 88.5,118.5C 89.9063,118.027 90.573,117.027 90.5,115.5C 90.8333,114.5 91.5,113.833 92.5,113.5C 93.5,113.167 94.1667,112.5 94.5,111.5C 96.0269,111.573 97.0269,110.906 97.5,109.5C 100.912,107.354 104.745,106.354 109,106.5C 116.371,107.065 123.537,108.065 130.5,109.5 Z"/></g>
<g><path style="opacity:0.655" fill="#880016" d="M 422.5,106.5 C 423.906,106.973 424.573,107.973 424.5,109.5C 423.094,109.027 422.427,108.027 422.5,106.5 Z"/></g>
<g><path style="opacity:0.612" fill="#8b0016" d="M 130.5,109.5 C 132.38,109.229 133.713,109.896 134.5,111.5C 132.847,111.34 131.514,110.674 130.5,109.5 Z"/></g>
<g><path style="opacity:0.976" fill="#9f0019" d="M 97.5,109.5 C 97.0269,110.906 96.0269,111.573 94.5,111.5C 94.9731,110.094 95.9731,109.427 97.5,109.5 Z"/></g>
<g><path style="opacity:0.725" fill="#8c0017" d="M 94.5,111.5 C 94.1667,112.5 93.5,113.167 92.5,113.5C 92.5,112.167 93.1667,111.5 94.5,111.5 Z"/></g>
<g><path style="opacity:0.592" fill="#880016" d="M 166.5,112.5 C 161.77,112.283 157.103,112.617 152.5,113.5C 152.611,112.883 152.944,112.383 153.5,112C 158.02,111.186 162.354,111.353 166.5,112.5 Z"/></g>
<g><path style="opacity:0.937" fill="#920017" d="M 367.5,110.5 C 366.486,111.674 365.153,112.34 363.5,112.5C 364.287,110.896 365.62,110.229 367.5,110.5 Z"/></g>
<g><path style="opacity:1" fill="#d60022" d="M 166.5,112.5 C 177.515,112.628 188.515,113.128 199.5,114C 209.629,112.469 214.129,116.635 213,126.5C 209.778,129.931 205.778,131.265 201,130.5C 197.142,130.321 193.309,129.987 189.5,129.5C 189.667,149.503 189.5,169.503 189,189.5C 184.394,196.987 179.394,197.321 174,190.5C 173.5,169.836 173.333,149.169 173.5,128.5C 169.486,128.666 165.486,128.499 161.5,128C 158.149,127.943 155.149,127.109 152.5,125.5C 152.167,124.5 151.5,123.833 150.5,123.5C 149.366,121.034 149.199,118.367 150,115.5C 150.708,114.619 151.542,113.953 152.5,113.5C 157.103,112.617 161.77,112.283 166.5,112.5 Z"/></g>
<g><path style="opacity:1" fill="#d80023" d="M 339.5,193.5 C 336.763,193.599 334.096,193.265 331.5,192.5C 330.542,192.047 329.708,191.381 329,190.5C 328.475,184.329 326.641,178.662 323.5,173.5C 323.167,171.167 321.833,169.833 319.5,169.5C 316.828,168.499 314.162,167.499 311.5,166.5C 310.432,165.566 309.099,165.232 307.5,165.5C 307.5,173.833 307.5,182.167 307.5,190.5C 305.387,196.487 301.387,197.987 295.5,195C 294.667,194.167 293.833,193.333 293,192.5C 292.5,168.502 292.333,144.502 292.5,120.5C 293.906,120.027 294.573,119.027 294.5,117.5C 296.027,117.573 297.027,116.906 297.5,115.5C 306.319,114.221 315.319,113.721 324.5,114C 339.06,117.947 345.56,127.447 344,142.5C 343.069,149.863 339.902,156.03 334.5,161C 342.438,169.804 345.271,179.971 343,191.5C 342.184,192.823 341.017,193.489 339.5,193.5 Z M 318.5,129.5 C 321.28,130.195 323.947,131.195 326.5,132.5C 326.796,134.403 327.463,136.07 328.5,137.5C 328.27,141.694 326.603,145.194 323.5,148C 318.586,149.226 313.586,150.059 308.5,150.5C 308.5,143.833 308.5,137.167 308.5,130.5C 312.042,130.813 315.375,130.479 318.5,129.5 Z"/></g>
<g><path style="opacity:0.561" fill="#8a0016" d="M 363.5,112.5 C 363.573,114.027 362.906,115.027 361.5,115.5C 361.427,113.973 362.094,112.973 363.5,112.5 Z"/></g>
<g><path style="opacity:1" fill="#d80022" d="M 264.5,121.5 C 265.5,123.167 266.833,124.5 268.5,125.5C 269.906,125.973 270.573,126.973 270.5,128.5C 270.427,130.027 271.094,131.027 272.5,131.5C 273.148,133.086 273.648,134.753 274,136.5C 274.667,154.833 274.667,173.167 274,191.5C 273.722,192.416 273.222,193.082 272.5,193.5C 271.5,193.833 270.833,194.5 270.5,195.5C 268.458,197.591 266.125,197.924 263.5,196.5C 263.027,195.094 262.027,194.427 260.5,194.5C 259.778,194.082 259.278,193.416 259,192.5C 258.5,183.84 258.334,175.173 258.5,166.5C 252.167,166.5 245.833,166.5 239.5,166.5C 239.666,174.84 239.5,183.173 239,191.5C 238.722,192.416 238.222,193.082 237.5,193.5C 236.5,193.833 235.833,194.5 235.5,195.5C 232.279,197.808 228.946,197.642 225.5,195C 224.874,194.25 224.374,193.416 224,192.5C 223.333,173.167 223.333,153.833 224,134.5C 224.67,131.826 225.837,129.493 227.5,127.5C 229.262,126.738 230.262,125.404 230.5,123.5C 232.749,122.92 234.415,121.587 235.5,119.5C 243.447,114.826 251.781,114.326 260.5,118C 262.093,118.949 263.426,120.115 264.5,121.5 Z M 253.5,132.5 C 254.167,133.833 255.167,134.833 256.5,135.5C 258.151,140.324 258.817,145.324 258.5,150.5C 252.167,150.5 245.833,150.5 239.5,150.5C 239.5,146.5 239.5,142.5 239.5,138.5C 242.501,132.827 247.168,130.827 253.5,132.5 Z"/></g>
<g><path style="opacity:0.984" fill="#a4001a" d="M 297.5,115.5 C 297.027,116.906 296.027,117.573 294.5,117.5C 294.973,116.094 295.973,115.427 297.5,115.5 Z"/></g>
<g><path style="opacity:0.678" fill="#900017" d="M 90.5,115.5 C 90.573,117.027 89.9063,118.027 88.5,118.5C 88.427,116.973 89.0937,115.973 90.5,115.5 Z"/></g>
<g><path style="opacity:0.502" fill="#870015" d="M 294.5,117.5 C 294.573,119.027 293.906,120.027 292.5,120.5C 292.427,118.973 293.094,117.973 294.5,117.5 Z"/></g>
<g><path style="opacity:0.016" fill="#870015" d="M 264.5,121.5 C 266.833,121.833 268.167,123.167 268.5,125.5C 266.833,124.5 265.5,123.167 264.5,121.5 Z"/></g>
<g><path style="opacity:0.996" fill="#a8001b" d="M 235.5,119.5 C 234.415,121.587 232.749,122.92 230.5,123.5C 231.585,121.413 233.251,120.08 235.5,119.5 Z"/></g>
<g><path style="opacity:0.392" fill="#7f0014" d="M 407.5,121.5 C 405.735,122.461 403.735,122.795 401.5,122.5C 401.83,142.674 401.497,162.674 400.5,182.5C 400.5,162.167 400.5,141.833 400.5,121.5C 402.833,121.5 405.167,121.5 407.5,121.5 Z"/></g>
<g><path style="opacity:0.008" fill="#800014" d="M 150.5,123.5 C 151.5,123.833 152.167,124.5 152.5,125.5C 151.167,125.5 150.5,124.833 150.5,123.5 Z"/></g>
<g><path style="opacity:0.984" fill="#9d0019" d="M 230.5,123.5 C 230.262,125.404 229.262,126.738 227.5,127.5C 227.738,125.596 228.738,124.262 230.5,123.5 Z"/></g>
<g><path style="opacity:0.588" fill="#8d0016" d="M 270.5,128.5 C 271.906,128.973 272.573,129.973 272.5,131.5C 271.094,131.027 270.427,130.027 270.5,128.5 Z"/></g>
<g><path style="opacity:0.612" fill="#860015" d="M 318.5,129.5 C 315.375,130.479 312.042,130.813 308.5,130.5C 308.5,137.167 308.5,143.833 308.5,150.5C 307.509,143.687 307.175,136.687 307.5,129.5C 311.167,129.5 314.833,129.5 318.5,129.5 Z"/></g>
<g><path style="opacity:0.925" fill="#9a0018" d="M 253.5,132.5 C 255.5,132.5 256.5,133.5 256.5,135.5C 255.167,134.833 254.167,133.833 253.5,132.5 Z"/></g>
<g><path style="opacity:0.639" fill="#880016" d="M 326.5,132.5 C 328.213,133.635 328.88,135.302 328.5,137.5C 327.463,136.07 326.796,134.403 326.5,132.5 Z"/></g>
<g><path style="opacity:0.804" fill="#970018" d="M 102.5,133.5 C 103.906,133.973 104.573,134.973 104.5,136.5C 103.094,136.027 102.427,135.027 102.5,133.5 Z"/></g>
<g><path style="opacity:0.22" fill="#8d0016" d="M 106.5,137.5 C 107.71,137.932 108.71,138.599 109.5,139.5C 107.821,139.715 106.821,139.048 106.5,137.5 Z"/></g>
<g><path style="opacity:0.984" fill="#990018" d="M 128.5,147.5 C 130.262,148.262 131.262,149.596 131.5,151.5C 129.738,150.738 128.738,149.404 128.5,147.5 Z"/></g>
<g><path style="opacity:0.568" fill="#890016" d="M 239.5,138.5 C 239.5,142.5 239.5,146.5 239.5,150.5C 245.833,150.5 252.167,150.5 258.5,150.5C 252.021,151.491 245.354,151.824 238.5,151.5C 238.182,146.968 238.515,142.634 239.5,138.5 Z"/></g>
<g><path style="opacity:0.878" fill="#9f0019" d="M 97.5,150.5 C 99.0269,150.427 100.027,151.094 100.5,152.5C 98.9731,152.573 97.9731,151.906 97.5,150.5 Z"/></g>
<g><path style="opacity:0.627" fill="#8f0016" d="M 131.5,151.5 C 132.906,151.973 133.573,152.973 133.5,154.5C 132.094,154.027 131.427,153.027 131.5,151.5 Z"/></g>
<g><path style="opacity:0.851" fill="#990018" d="M 102.5,153.5 C 105.152,153.41 107.485,154.076 109.5,155.5C 106.848,155.59 104.515,154.924 102.5,153.5 Z"/></g>
<g><path style="opacity:0.984" fill="#9a0019" d="M 114.5,156.5 C 116.833,156.833 118.167,158.167 118.5,160.5C 116.833,159.5 115.5,158.167 114.5,156.5 Z"/></g>
<g><path style="opacity:0.612" fill="#8b0016" d="M 311.5,166.5 C 310.5,166.5 309.5,166.5 308.5,166.5C 308.826,174.684 308.492,182.684 307.5,190.5C 307.5,182.167 307.5,173.833 307.5,165.5C 309.099,165.232 310.432,165.566 311.5,166.5 Z"/></g>
<g><path style="opacity:0.996" fill="#9e0019" d="M 319.5,169.5 C 321.833,169.833 323.167,171.167 323.5,173.5C 321.833,172.5 320.5,171.167 319.5,169.5 Z"/></g>
<g><path style="opacity:0.69" fill="#8c0016" d="M 120.5,168.5 C 120.573,170.027 119.906,171.027 118.5,171.5C 118.427,169.973 119.094,168.973 120.5,168.5 Z"/></g>
<g><path style="opacity:0.765" fill="#930017" d="M 88.5,172.5 C 88.573,174.027 87.9063,175.027 86.5,175.5C 86.427,173.973 87.0937,172.973 88.5,172.5 Z"/></g>
<g><path style="opacity:0.671" fill="#890016" d="M 87.5,183.5 C 89.0269,183.427 90.0269,184.094 90.5,185.5C 88.9731,185.573 87.9731,184.906 87.5,183.5 Z"/></g>
<g><path style="opacity:0.039" fill="#840015" d="M 399.5,185.5 C 399.5,186.833 398.833,187.5 397.5,187.5C 397.833,186.5 398.5,185.833 399.5,185.5 Z"/></g>
<g><path style="opacity:0.373" fill="#890016" d="M 331.5,192.5 C 334.096,193.265 336.763,193.599 339.5,193.5C 338.551,194.152 337.385,194.486 336,194.5C 333.992,194.693 332.492,194.026 331.5,192.5 Z"/></g>
<g><path style="opacity:0.008" fill="#800014" d="M 237.5,193.5 C 237.5,194.833 236.833,195.5 235.5,195.5C 235.833,194.5 236.5,193.833 237.5,193.5 Z"/></g>
<g><path style="opacity:0.078" fill="#870015" d="M 272.5,193.5 C 272.5,194.833 271.833,195.5 270.5,195.5C 270.833,194.5 271.5,193.833 272.5,193.5 Z"/></g>
<g><path style="opacity:0.694" fill="#8d0016" d="M 260.5,194.5 C 262.027,194.427 263.027,195.094 263.5,196.5C 261.973,196.573 260.973,195.906 260.5,194.5 Z"/></g>
<g><path style="opacity:0.996" fill="#a0001a" d="M 0.5,223.5 C 2.40435,223.738 3.73769,224.738 4.5,226.5C 2.59565,226.262 1.26231,225.262 0.5,223.5 Z"/></g>
<g><path style="opacity:0.906" fill="#a8001a" d="M 19.5,228.5 C 20.8333,228.5 22.1667,228.5 23.5,228.5C 23.5,304.833 23.5,381.167 23.5,457.5C 22.5007,381.668 22.1674,305.668 22.5,229.5C 21.209,229.737 20.209,229.404 19.5,228.5 Z"/></g>
<g><path style="opacity:0.906" fill="#a8001a" d="M 491.5,228.5 C 490.791,229.404 489.791,229.737 488.5,229.5C 488.833,305.335 488.499,381.002 487.5,456.5C 487.5,380.5 487.5,304.5 487.5,228.5C 488.833,228.5 490.167,228.5 491.5,228.5 Z"/></g>
<g><path style="opacity:0.753" fill="#950018" d="M 40.5,231.5 C 38.5032,302.492 37.8365,373.826 38.5,445.5C 43.1667,445.5 47.8333,445.5 52.5,445.5C 52.8333,445.5 53.1667,445.5 53.5,445.5C 48.3595,446.488 43.0262,446.821 37.5,446.5C 37.5,374.5 37.5,302.5 37.5,230.5C 38.791,230.263 39.791,230.596 40.5,231.5 Z"/></g>
<g><path style="opacity:0.753" fill="#900017" d="M 468.5,231.5 C 469.919,230.549 471.585,230.216 473.5,230.5C 473.5,302.5 473.5,374.5 473.5,446.5C 468.167,446.5 462.833,446.5 457.5,446.5C 457.5,406.167 457.5,365.833 457.5,325.5C 458.499,365.33 458.832,405.33 458.5,445.5C 463.167,445.5 467.833,445.5 472.5,445.5C 472.5,374.167 472.5,302.833 472.5,231.5C 471.167,231.5 469.833,231.5 468.5,231.5 Z"/></g>
<g><path style="opacity:0.439" fill="#7f0014" d="M 51.5,232.5 C 53.4968,303.159 54.1635,374.159 53.5,445.5C 53.1667,445.5 52.8333,445.5 52.5,445.5C 52.8299,374.429 52.4965,303.429 51.5,232.5 Z"/></g>
<g><path style="opacity:0.439" fill="#7f0014" d="M 459.5,232.5 C 458.843,256.264 458.176,279.931 457.5,303.5C 456.843,279.476 457.51,255.81 459.5,232.5 Z"/></g>
<g><path style="opacity:0.682" fill="#8d0016" d="M 445.5,321.5 C 445.167,322.5 444.5,323.167 443.5,323.5C 443.5,322.167 444.167,321.5 445.5,321.5 Z"/></g>
<g><path style="opacity:0.663" fill="#8b0016" d="M 455.5,321.5 C 456.906,321.973 457.573,322.973 457.5,324.5C 456.094,324.027 455.427,323.027 455.5,321.5 Z"/></g>
<g><path style="opacity:0.835" fill="#9a0019" d="M 445.5,459.5 C 458.117,460.462 470.784,460.795 483.5,460.5C 471.34,461.66 459.007,461.827 446.5,461C 445.944,460.617 445.611,460.117 445.5,459.5 Z"/></g>
</svg>
