<?xml version="1.0" encoding="UTF-8"?>
<!DOCTYPE svg PUBLIC "-//W3C//DTD SVG 1.1//EN" "http://www.w3.org/Graphics/SVG/1.1/DTD/svg11.dtd">
<svg xmlns="http://www.w3.org/2000/svg" version="1.1" width="512px" height="512px" style="shape-rendering:geometricPrecision; text-rendering:geometricPrecision; image-rendering:optimizeQuality; fill-rule:evenodd; clip-rule:evenodd" xmlns:xlink="http://www.w3.org/1999/xlink">
<g><path style="opacity:1" fill="#eb1111" d="M 409.5,31.5 C 408.094,31.9731 407.427,32.9731 407.5,34.5C 395.86,57.7802 384.193,81.1136 372.5,104.5C 370.189,105.575 367.856,105.575 365.5,104.5C 361.881,104.119 358.548,103.119 355.5,101.5C 367.737,75.3585 380.737,49.6918 394.5,24.5C 396.262,23.7377 397.262,22.4044 397.5,20.5C 402.89,13.7984 409.89,9.6317 418.5,8C 446.831,7.50002 475.165,7.33336 503.5,7.5C 503.5,12.8333 503.5,18.1667 503.5,23.5C 478.164,23.3334 452.831,23.5 427.5,24C 420.669,24.5841 414.669,27.0841 409.5,31.5 Z"/></g>
<g><path style="opacity:0.992" fill="#ae0d0d" d="M 397.5,20.5 C 397.262,22.4044 396.262,23.7377 394.5,24.5C 394.738,22.5956 395.738,21.2623 397.5,20.5 Z"/></g>
<g><path style="opacity:1" fill="#f01111" d="M 279.5,24.5 C 280.287,26.1042 281.62,26.7709 283.5,26.5C 286.427,27.7573 288.761,29.7573 290.5,32.5C 290.427,34.0269 291.094,35.0269 292.5,35.5C 293.793,36.842 294.626,38.5087 295,40.5C 295.5,50.828 295.666,61.1613 295.5,71.5C 204.833,71.5 114.167,71.5 23.5,71.5C 23.3335,61.1613 23.5002,50.828 24,40.5C 24.3736,38.5087 25.207,36.842 26.5,35.5C 28.2624,34.7377 29.2624,33.4044 29.5,31.5C 29.5,30.8333 29.8333,30.5 30.5,30.5C 33.117,29.2141 35.4504,27.5475 37.5,25.5C 38.2625,24.7321 39.2625,24.2321 40.5,24C 120.237,23.1699 199.903,23.3366 279.5,24.5 Z M 111.5,39.5 C 132.833,39.5 154.167,39.5 175.5,39.5C 175.5,44.8333 175.5,50.1667 175.5,55.5C 154.167,55.5 132.833,55.5 111.5,55.5C 111.5,50.1667 111.5,44.8333 111.5,39.5 Z M 191.5,39.5 C 196.833,39.5 202.167,39.5 207.5,39.5C 207.5,44.8333 207.5,50.1667 207.5,55.5C 202.167,55.5 196.833,55.5 191.5,55.5C 191.5,50.1667 191.5,44.8333 191.5,39.5 Z"/></g>
<g><path style="opacity:0.996" fill="#af0d0d" d="M 279.5,24.5 C 281.153,24.6596 282.486,25.3263 283.5,26.5C 281.62,26.7709 280.287,26.1042 279.5,24.5 Z"/></g>
<g><path style="opacity:0.996" fill="#bb0e0e" d="M 37.5,25.5 C 35.4504,27.5475 33.117,29.2141 30.5,30.5C 31.9923,27.6769 34.3257,26.0102 37.5,25.5 Z"/></g>
<g><path style="opacity:0.996" fill="#ae0d0d" d="M 29.5,31.5 C 29.2624,33.4044 28.2624,34.7377 26.5,35.5C 26.7376,33.5956 27.7376,32.2623 29.5,31.5 Z"/></g>
<g><path style="opacity:0.016" fill="#8d0a0b" d="M 409.5,31.5 C 409.573,33.0269 408.906,34.0269 407.5,34.5C 407.427,32.9731 408.094,31.9731 409.5,31.5 Z"/></g>
<g><path style="opacity:0.031" fill="#910b0b" d="M 290.5,32.5 C 291.906,32.9731 292.573,33.9731 292.5,35.5C 291.094,35.0269 290.427,34.0269 290.5,32.5 Z"/></g>
<g><path style="opacity:1" fill="#f01211" d="M 423.5,39.5 C 428.833,39.5 434.167,39.5 439.5,39.5C 439.5,44.8333 439.5,50.1667 439.5,55.5C 434.167,55.5 428.833,55.5 423.5,55.5C 423.5,50.1667 423.5,44.8333 423.5,39.5 Z"/></g>
<g><path style="opacity:1" fill="#f01211" d="M 455.5,39.5 C 460.833,39.5 466.167,39.5 471.5,39.5C 471.5,44.8333 471.5,50.1667 471.5,55.5C 466.167,55.5 460.833,55.5 455.5,55.5C 455.5,50.1667 455.5,44.8333 455.5,39.5 Z"/></g>
<g><path style="opacity:1" fill="#f01211" d="M 487.5,39.5 C 492.833,39.5 498.167,39.5 503.5,39.5C 503.5,44.8333 503.5,50.1667 503.5,55.5C 498.167,55.5 492.833,55.5 487.5,55.5C 487.5,50.1667 487.5,44.8333 487.5,39.5 Z"/></g>
<g><path style="opacity:1" fill="#f01211" d="M 423.5,71.5 C 450.167,71.5 476.833,71.5 503.5,71.5C 503.5,76.8333 503.5,82.1667 503.5,87.5C 476.833,87.5 450.167,87.5 423.5,87.5C 423.5,82.1667 423.5,76.8333 423.5,71.5 Z"/></g>
<g><path style="opacity:1" fill="#f01111" d="M 23.5,87.5 C 114.167,87.5 204.833,87.5 295.5,87.5C 295.5,199.5 295.5,311.5 295.5,423.5C 204.833,423.5 114.167,423.5 23.5,423.5C 23.5,311.5 23.5,199.5 23.5,87.5 Z M 268.5,104.5 C 269.514,105.674 270.847,106.34 272.5,106.5C 272.5,107.167 272.833,107.5 273.5,107.5C 273.833,108.5 274.5,109.167 275.5,109.5C 275.5,110.167 275.833,110.5 276.5,110.5C 276.66,112.153 277.326,113.486 278.5,114.5C 279.833,208.5 279.833,302.5 278.5,396.5C 277.326,397.514 276.66,398.847 276.5,400.5C 274.833,401.5 273.5,402.833 272.5,404.5C 270.847,404.66 269.514,405.326 268.5,406.5C 195.833,407.833 123.167,407.833 50.5,406.5C 49.4863,405.326 48.153,404.66 46.5,404.5C 46.5,403.833 46.1667,403.5 45.5,403.5C 45.1667,402.5 44.5,401.833 43.5,401.5C 43.5,400.833 43.1667,400.5 42.5,400.5C 42.3404,398.847 41.6737,397.514 40.5,396.5C 39.3457,304.184 39.179,211.851 40,119.5C 41.1667,110.333 46.3333,105.167 55.5,104C 126.518,103.183 197.518,103.349 268.5,104.5 Z M 71.5,135.5 C 87.5,135.5 103.5,135.5 119.5,135.5C 119.5,151.5 119.5,167.5 119.5,183.5C 103.5,183.5 87.5,183.5 71.5,183.5C 71.5,167.5 71.5,151.5 71.5,135.5 Z M 135.5,135.5 C 151.5,135.5 167.5,135.5 183.5,135.5C 183.5,151.5 183.5,167.5 183.5,183.5C 167.5,183.5 151.5,183.5 135.5,183.5C 135.5,167.5 135.5,151.5 135.5,135.5 Z M 199.5,135.5 C 215.5,135.5 231.5,135.5 247.5,135.5C 247.5,151.5 247.5,167.5 247.5,183.5C 231.5,183.5 215.5,183.5 199.5,183.5C 199.5,167.5 199.5,151.5 199.5,135.5 Z M 71.5,199.5 C 87.5,199.5 103.5,199.5 119.5,199.5C 119.5,215.5 119.5,231.5 119.5,247.5C 103.5,247.5 87.5,247.5 71.5,247.5C 71.5,231.5 71.5,215.5 71.5,199.5 Z M 135.5,199.5 C 151.5,199.5 167.5,199.5 183.5,199.5C 183.5,215.5 183.5,231.5 183.5,247.5C 167.5,247.5 151.5,247.5 135.5,247.5C 135.5,231.5 135.5,215.5 135.5,199.5 Z M 199.5,199.5 C 215.5,199.5 231.5,199.5 247.5,199.5C 247.5,215.5 247.5,231.5 247.5,247.5C 231.5,247.5 215.5,247.5 199.5,247.5C 199.5,231.5 199.5,215.5 199.5,199.5 Z M 71.5,263.5 C 87.5,263.5 103.5,263.5 119.5,263.5C 119.5,279.5 119.5,295.5 119.5,311.5C 103.5,311.5 87.5,311.5 71.5,311.5C 71.5,295.5 71.5,279.5 71.5,263.5 Z M 135.5,263.5 C 151.5,263.5 167.5,263.5 183.5,263.5C 183.5,279.5 183.5,295.5 183.5,311.5C 167.5,311.5 151.5,311.5 135.5,311.5C 135.5,295.5 135.5,279.5 135.5,263.5 Z M 231.5,295.5 C 236.833,295.5 242.167,295.5 247.5,295.5C 247.5,300.833 247.5,306.167 247.5,311.5C 242.167,311.5 236.833,311.5 231.5,311.5C 231.5,306.167 231.5,300.833 231.5,295.5 Z M 71.5,327.5 C 87.5,327.5 103.5,327.5 119.5,327.5C 119.5,343.5 119.5,359.5 119.5,375.5C 103.5,375.5 87.5,375.5 71.5,375.5C 71.5,359.5 71.5,343.5 71.5,327.5 Z M 135.5,327.5 C 151.5,327.5 167.5,327.5 183.5,327.5C 183.5,343.5 183.5,359.5 183.5,375.5C 167.5,375.5 151.5,375.5 135.5,375.5C 135.5,359.5 135.5,343.5 135.5,327.5 Z M 231.5,327.5 C 236.833,327.5 242.167,327.5 247.5,327.5C 247.5,332.833 247.5,338.167 247.5,343.5C 242.167,343.5 236.833,343.5 231.5,343.5C 231.5,338.167 231.5,332.833 231.5,327.5 Z M 231.5,359.5 C 236.833,359.5 242.167,359.5 247.5,359.5C 247.5,364.833 247.5,370.167 247.5,375.5C 242.167,375.5 236.833,375.5 231.5,375.5C 231.5,370.167 231.5,364.833 231.5,359.5 Z"/></g>
<g><path style="opacity:0.463" fill="#940b0b" d="M 355.5,101.5 C 358.548,103.119 361.881,104.119 365.5,104.5C 361.833,104.5 358.167,104.5 354.5,104.5C 354.263,103.209 354.596,102.209 355.5,101.5 Z"/></g>
<g><path style="opacity:0.98" fill="#ab0d0d" d="M 268.5,104.5 C 270.38,104.229 271.713,104.896 272.5,106.5C 270.847,106.34 269.514,105.674 268.5,104.5 Z"/></g>
<g><path style="opacity:0.22" fill="#940b0b" d="M 273.5,107.5 C 274.833,107.5 275.5,108.167 275.5,109.5C 274.5,109.167 273.833,108.5 273.5,107.5 Z"/></g>
<g><path style="opacity:0.98" fill="#a40c0c" d="M 276.5,110.5 C 278.104,111.287 278.771,112.62 278.5,114.5C 277.326,113.486 276.66,112.153 276.5,110.5 Z"/></g>
<g><path style="opacity:1" fill="#f01111" d="M 55.5,119.5 C 124.833,119.5 194.167,119.5 263.5,119.5C 263.833,210.167 264.167,300.833 264.5,391.5C 194.833,391.5 125.167,391.5 55.5,391.5C 55.5,300.833 55.5,210.167 55.5,119.5 Z M 71.5,135.5 C 71.5,151.5 71.5,167.5 71.5,183.5C 87.5,183.5 103.5,183.5 119.5,183.5C 119.5,167.5 119.5,151.5 119.5,135.5C 103.5,135.5 87.5,135.5 71.5,135.5 Z M 135.5,135.5 C 135.5,151.5 135.5,167.5 135.5,183.5C 151.5,183.5 167.5,183.5 183.5,183.5C 183.5,167.5 183.5,151.5 183.5,135.5C 167.5,135.5 151.5,135.5 135.5,135.5 Z M 199.5,135.5 C 199.5,151.5 199.5,167.5 199.5,183.5C 215.5,183.5 231.5,183.5 247.5,183.5C 247.5,167.5 247.5,151.5 247.5,135.5C 231.5,135.5 215.5,135.5 199.5,135.5 Z M 71.5,199.5 C 71.5,215.5 71.5,231.5 71.5,247.5C 87.5,247.5 103.5,247.5 119.5,247.5C 119.5,231.5 119.5,215.5 119.5,199.5C 103.5,199.5 87.5,199.5 71.5,199.5 Z M 135.5,199.5 C 135.5,215.5 135.5,231.5 135.5,247.5C 151.5,247.5 167.5,247.5 183.5,247.5C 183.5,231.5 183.5,215.5 183.5,199.5C 167.5,199.5 151.5,199.5 135.5,199.5 Z M 199.5,199.5 C 199.5,215.5 199.5,231.5 199.5,247.5C 215.5,247.5 231.5,247.5 247.5,247.5C 247.5,231.5 247.5,215.5 247.5,199.5C 231.5,199.5 215.5,199.5 199.5,199.5 Z M 71.5,263.5 C 71.5,279.5 71.5,295.5 71.5,311.5C 87.5,311.5 103.5,311.5 119.5,311.5C 119.5,295.5 119.5,279.5 119.5,263.5C 103.5,263.5 87.5,263.5 71.5,263.5 Z M 135.5,263.5 C 135.5,279.5 135.5,295.5 135.5,311.5C 151.5,311.5 167.5,311.5 183.5,311.5C 183.5,295.5 183.5,279.5 183.5,263.5C 167.5,263.5 151.5,263.5 135.5,263.5 Z M 231.5,295.5 C 231.5,300.833 231.5,306.167 231.5,311.5C 236.833,311.5 242.167,311.5 247.5,311.5C 247.5,306.167 247.5,300.833 247.5,295.5C 242.167,295.5 236.833,295.5 231.5,295.5 Z M 71.5,327.5 C 71.5,343.5 71.5,359.5 71.5,375.5C 87.5,375.5 103.5,375.5 119.5,375.5C 119.5,359.5 119.5,343.5 119.5,327.5C 103.5,327.5 87.5,327.5 71.5,327.5 Z M 135.5,327.5 C 135.5,343.5 135.5,359.5 135.5,375.5C 151.5,375.5 167.5,375.5 183.5,375.5C 183.5,359.5 183.5,343.5 183.5,327.5C 167.5,327.5 151.5,327.5 135.5,327.5 Z M 231.5,327.5 C 231.5,332.833 231.5,338.167 231.5,343.5C 236.833,343.5 242.167,343.5 247.5,343.5C 247.5,338.167 247.5,332.833 247.5,327.5C 242.167,327.5 236.833,327.5 231.5,327.5 Z M 231.5,359.5 C 231.5,364.833 231.5,370.167 231.5,375.5C 236.833,375.5 242.167,375.5 247.5,375.5C 247.5,370.167 247.5,364.833 247.5,359.5C 242.167,359.5 236.833,359.5 231.5,359.5 Z"/></g>
<g><path style="opacity:1" fill="#ee1111" d="M 403.5,129.5 C 404.287,131.104 405.62,131.771 407.5,131.5C 415.087,134.293 422.087,138.126 428.5,143C 410.833,143.333 393.167,143.667 375.5,144C 369.851,144.162 364.851,145.995 360.5,149.5C 358.5,149.5 357.5,150.5 357.5,152.5C 352.551,159.81 351.218,167.81 353.5,176.5C 353.229,178.38 353.896,179.713 355.5,180.5C 356.167,180.5 356.5,180.833 356.5,181.5C 357.167,184.167 358.833,185.833 361.5,186.5C 362.71,186.932 363.71,187.599 364.5,188.5C 365.635,190.213 367.302,190.88 369.5,190.5C 386.322,191.077 402.989,191.743 419.5,192.5C 420.167,193.833 421.167,194.833 422.5,195.5C 423.634,197.966 423.801,200.633 423,203.5C 422.5,205.333 421.333,206.5 419.5,207C 396.833,207.333 374.167,207.667 351.5,208C 345.851,208.162 340.851,209.995 336.5,213.5C 334.5,213.5 333.5,214.5 333.5,216.5C 328.551,223.81 327.218,231.81 329.5,240.5C 329.229,242.38 329.896,243.713 331.5,244.5C 332.167,244.5 332.5,244.833 332.5,245.5C 333.167,248.167 334.833,249.833 337.5,250.5C 338.71,250.932 339.71,251.599 340.5,252.5C 341.635,254.213 343.302,254.88 345.5,254.5C 371.481,255.444 397.481,255.778 423.5,255.5C 423.5,250.167 423.5,244.833 423.5,239.5C 397.995,239.831 372.661,239.498 347.5,238.5C 346.833,237.167 345.833,236.167 344.5,235.5C 343.167,232.833 343.167,230.167 344.5,227.5C 345.833,226.833 346.833,225.833 347.5,224.5C 369.996,223.668 392.663,223.168 415.5,223C 420.049,222.538 424.383,221.371 428.5,219.5C 431.833,218.167 434.167,215.833 435.5,212.5C 438.09,206.464 439.09,200.13 438.5,193.5C 438.88,191.302 438.213,189.635 436.5,188.5C 435.599,187.71 434.932,186.71 434.5,185.5C 433.833,182.833 432.167,181.167 429.5,180.5C 428.833,180.5 428.5,180.167 428.5,179.5C 427.713,177.896 426.38,177.229 424.5,177.5C 406.735,175.972 389.069,174.972 371.5,174.5C 370.833,173.167 369.833,172.167 368.5,171.5C 367.167,168.833 367.167,166.167 368.5,163.5C 369.833,162.833 370.833,161.833 371.5,160.5C 396.995,159.502 422.661,159.169 448.5,159.5C 449.08,161.749 450.413,163.415 452.5,164.5C 453.833,165.167 454.833,166.167 455.5,167.5C 455.427,169.027 456.094,170.027 457.5,170.5C 458.5,170.833 459.167,171.5 459.5,172.5C 459.427,174.027 460.094,175.027 461.5,175.5C 464.313,178.446 466.646,181.779 468.5,185.5C 468.229,187.38 468.896,188.713 470.5,189.5C 473.622,194.081 475.956,199.081 477.5,204.5C 477.402,206.553 478.069,208.22 479.5,209.5C 483.599,218.978 485.932,228.978 486.5,239.5C 481.5,239.5 476.5,239.5 471.5,239.5C 471.5,244.833 471.5,250.167 471.5,255.5C 476.833,255.5 482.167,255.5 487.5,255.5C 487.834,291.192 475.834,321.859 451.5,347.5C 450.094,347.973 449.427,348.973 449.5,350.5C 448.833,351.833 447.833,352.833 446.5,353.5C 444.973,353.427 443.973,354.094 443.5,355.5C 415.443,381.524 382.11,393.524 343.5,391.5C 343.172,379.322 343.505,367.322 344.5,355.5C 345.833,354.833 346.833,353.833 347.5,352.5C 367.329,351.668 387.329,351.168 407.5,351C 412.049,350.538 416.383,349.371 420.5,347.5C 423.833,346.167 426.167,343.833 427.5,340.5C 430.09,334.464 431.09,328.13 430.5,321.5C 430.88,319.302 430.213,317.635 428.5,316.5C 427.599,315.71 426.932,314.71 426.5,313.5C 425.833,310.833 424.167,309.167 421.5,308.5C 420.833,308.5 420.5,308.167 420.5,307.5C 419.713,305.896 418.38,305.229 416.5,305.5C 404.071,304.05 391.737,303.05 379.5,302.5C 378.833,301.167 377.833,300.167 376.5,299.5C 374.989,296.456 374.322,293.122 374.5,289.5C 374.88,287.302 374.213,285.635 372.5,284.5C 371.599,283.71 370.932,282.71 370.5,281.5C 369.833,278.833 368.167,277.167 365.5,276.5C 364.833,276.5 364.5,276.167 364.5,275.5C 363.713,273.896 362.38,273.229 360.5,273.5C 344.247,271.651 327.913,270.985 311.5,271.5C 311.333,222.832 311.5,174.166 312,125.5C 315.637,123.799 319.47,122.799 323.5,122.5C 327.425,122.57 331.091,121.903 334.5,120.5C 358.335,117.084 381.335,120.084 403.5,129.5 Z M 439.5,239.5 C 444.833,239.5 450.167,239.5 455.5,239.5C 455.5,244.833 455.5,250.167 455.5,255.5C 450.167,255.5 444.833,255.5 439.5,255.5C 439.5,250.167 439.5,244.833 439.5,239.5 Z"/></g>
<g><path style="opacity:1" fill="#b80d0d" d="M 334.5,120.5 C 331.091,121.903 327.425,122.57 323.5,122.5C 326.909,121.097 330.575,120.43 334.5,120.5 Z"/></g>
<g><path style="opacity:0.996" fill="#ad0d0d" d="M 403.5,129.5 C 405.153,129.66 406.486,130.326 407.5,131.5C 405.62,131.771 404.287,131.104 403.5,129.5 Z"/></g>
<g><path style="opacity:0.008" fill="#860a0a" d="M 360.5,149.5 C 359.833,150.833 358.833,151.833 357.5,152.5C 357.5,150.5 358.5,149.5 360.5,149.5 Z"/></g>
<g><path style="opacity:1" fill="#f01211" d="M 87.5,151.5 C 92.8333,151.5 98.1667,151.5 103.5,151.5C 103.5,156.833 103.5,162.167 103.5,167.5C 98.1667,167.5 92.8333,167.5 87.5,167.5C 87.5,162.167 87.5,156.833 87.5,151.5 Z"/></g>
<g><path style="opacity:1" fill="#f01211" d="M 151.5,151.5 C 156.833,151.5 162.167,151.5 167.5,151.5C 167.5,156.833 167.5,162.167 167.5,167.5C 162.167,167.5 156.833,167.5 151.5,167.5C 151.5,162.167 151.5,156.833 151.5,151.5 Z"/></g>
<g><path style="opacity:1" fill="#f01211" d="M 215.5,151.5 C 220.833,151.5 226.167,151.5 231.5,151.5C 231.5,156.833 231.5,162.167 231.5,167.5C 226.167,167.5 220.833,167.5 215.5,167.5C 215.5,162.167 215.5,156.833 215.5,151.5 Z"/></g>
<g><path style="opacity:0.024" fill="#8f0a0b" d="M 448.5,159.5 C 450.587,160.585 451.92,162.251 452.5,164.5C 450.413,163.415 449.08,161.749 448.5,159.5 Z"/></g>
<g><path style="opacity:0.929" fill="#a80c0c" d="M 371.5,160.5 C 370.833,161.833 369.833,162.833 368.5,163.5C 368.5,161.5 369.5,160.5 371.5,160.5 Z"/></g>
<g><path style="opacity:0.071" fill="#950b0b" d="M 455.5,167.5 C 456.906,167.973 457.573,168.973 457.5,170.5C 456.094,170.027 455.427,169.027 455.5,167.5 Z"/></g>
<g><path style="opacity:0.929" fill="#a00c0c" d="M 368.5,171.5 C 369.833,172.167 370.833,173.167 371.5,174.5C 369.5,174.5 368.5,173.5 368.5,171.5 Z"/></g>
<g><path style="opacity:0.024" fill="#900a0b" d="M 459.5,172.5 C 460.906,172.973 461.573,173.973 461.5,175.5C 460.094,175.027 459.427,174.027 459.5,172.5 Z"/></g>
<g><path style="opacity:0.992" fill="#b20d0d" d="M 424.5,177.5 C 426.38,177.229 427.713,177.896 428.5,179.5C 426.847,179.34 425.514,178.674 424.5,177.5 Z"/></g>
<g><path style="opacity:0.992" fill="#b10d0d" d="M 353.5,176.5 C 354.674,177.514 355.34,178.847 355.5,180.5C 353.896,179.713 353.229,178.38 353.5,176.5 Z"/></g>
<g><path style="opacity:0.024" fill="#910a0b" d="M 429.5,180.5 C 432.167,181.167 433.833,182.833 434.5,185.5C 432.5,184.167 430.833,182.5 429.5,180.5 Z"/></g>
<g><path style="opacity:0.031" fill="#910a0b" d="M 356.5,181.5 C 358.5,182.833 360.167,184.5 361.5,186.5C 358.833,185.833 357.167,184.167 356.5,181.5 Z"/></g>
<g><path style="opacity:0.992" fill="#b10d0d" d="M 468.5,185.5 C 469.674,186.514 470.34,187.847 470.5,189.5C 468.896,188.713 468.229,187.38 468.5,185.5 Z"/></g>
<g><path style="opacity:0.996" fill="#a90d0d" d="M 364.5,188.5 C 366.403,188.796 368.07,189.463 369.5,190.5C 367.302,190.88 365.635,190.213 364.5,188.5 Z"/></g>
<g><path style="opacity:0.996" fill="#a90d0d" d="M 436.5,188.5 C 438.213,189.635 438.88,191.302 438.5,193.5C 437.463,192.07 436.796,190.403 436.5,188.5 Z"/></g>
<g><path style="opacity:0.929" fill="#a00c0c" d="M 419.5,192.5 C 421.5,192.5 422.5,193.5 422.5,195.5C 421.167,194.833 420.167,193.833 419.5,192.5 Z"/></g>
<g><path style="opacity:0.914" fill="#b10d0d" d="M 477.5,204.5 C 478.931,205.78 479.598,207.447 479.5,209.5C 478.069,208.22 477.402,206.553 477.5,204.5 Z"/></g>
<g><path style="opacity:0.008" fill="#860a0a" d="M 336.5,213.5 C 335.833,214.833 334.833,215.833 333.5,216.5C 333.5,214.5 334.5,213.5 336.5,213.5 Z"/></g>
<g><path style="opacity:0.918" fill="#a40c0c" d="M 435.5,212.5 C 434.167,215.833 431.833,218.167 428.5,219.5C 430.5,216.833 432.833,214.5 435.5,212.5 Z"/></g>
<g><path style="opacity:1" fill="#f01211" d="M 87.5,215.5 C 92.8333,215.5 98.1667,215.5 103.5,215.5C 103.5,220.833 103.5,226.167 103.5,231.5C 98.1667,231.5 92.8333,231.5 87.5,231.5C 87.5,226.167 87.5,220.833 87.5,215.5 Z"/></g>
<g><path style="opacity:1" fill="#f01211" d="M 151.5,215.5 C 156.833,215.5 162.167,215.5 167.5,215.5C 167.5,220.833 167.5,226.167 167.5,231.5C 162.167,231.5 156.833,231.5 151.5,231.5C 151.5,226.167 151.5,220.833 151.5,215.5 Z"/></g>
<g><path style="opacity:1" fill="#f01211" d="M 215.5,215.5 C 220.833,215.5 226.167,215.5 231.5,215.5C 231.5,220.833 231.5,226.167 231.5,231.5C 226.167,231.5 220.833,231.5 215.5,231.5C 215.5,226.167 215.5,220.833 215.5,215.5 Z"/></g>
<g><path style="opacity:0.929" fill="#a80c0c" d="M 347.5,224.5 C 346.833,225.833 345.833,226.833 344.5,227.5C 344.5,225.5 345.5,224.5 347.5,224.5 Z"/></g>
<g><path style="opacity:0.929" fill="#a00c0c" d="M 344.5,235.5 C 345.833,236.167 346.833,237.167 347.5,238.5C 345.5,238.5 344.5,237.5 344.5,235.5 Z"/></g>
<g><path style="opacity:0.992" fill="#b10d0d" d="M 329.5,240.5 C 330.674,241.514 331.34,242.847 331.5,244.5C 329.896,243.713 329.229,242.38 329.5,240.5 Z"/></g>
<g><path style="opacity:0.031" fill="#910a0b" d="M 332.5,245.5 C 334.5,246.833 336.167,248.5 337.5,250.5C 334.833,249.833 333.167,248.167 332.5,245.5 Z"/></g>
<g><path style="opacity:0.996" fill="#a90d0d" d="M 340.5,252.5 C 342.403,252.796 344.07,253.463 345.5,254.5C 343.302,254.88 341.635,254.213 340.5,252.5 Z"/></g>
<g><path style="opacity:0.992" fill="#b00d0d" d="M 360.5,273.5 C 362.38,273.229 363.713,273.896 364.5,275.5C 362.847,275.34 361.514,274.674 360.5,273.5 Z"/></g>
<g><path style="opacity:0.024" fill="#910a0b" d="M 365.5,276.5 C 368.167,277.167 369.833,278.833 370.5,281.5C 368.5,280.167 366.833,278.5 365.5,276.5 Z"/></g>
<g><path style="opacity:1" fill="#f01211" d="M 87.5,279.5 C 92.8333,279.5 98.1667,279.5 103.5,279.5C 103.5,284.833 103.5,290.167 103.5,295.5C 98.1667,295.5 92.8333,295.5 87.5,295.5C 87.5,290.167 87.5,284.833 87.5,279.5 Z"/></g>
<g><path style="opacity:1" fill="#f01211" d="M 151.5,279.5 C 156.833,279.5 162.167,279.5 167.5,279.5C 167.5,284.833 167.5,290.167 167.5,295.5C 162.167,295.5 156.833,295.5 151.5,295.5C 151.5,290.167 151.5,284.833 151.5,279.5 Z"/></g>
<g><path style="opacity:0.996" fill="#a90d0d" d="M 372.5,284.5 C 374.213,285.635 374.88,287.302 374.5,289.5C 373.463,288.07 372.796,286.403 372.5,284.5 Z"/></g>
<g><path style="opacity:1" fill="#ee1111" d="M 355.5,288.5 C 356.167,289.833 357.167,290.833 358.5,291.5C 360.023,295.596 361.023,299.929 361.5,304.5C 361.229,306.38 361.896,307.713 363.5,308.5C 364.167,308.5 364.5,308.833 364.5,309.5C 365.167,312.167 366.833,313.833 369.5,314.5C 370.71,314.932 371.71,315.599 372.5,316.5C 373.635,318.213 375.302,318.88 377.5,318.5C 388.992,319.026 400.325,319.693 411.5,320.5C 412.167,321.833 413.167,322.833 414.5,323.5C 415.634,325.966 415.801,328.633 415,331.5C 414.5,333.333 413.333,334.5 411.5,335C 391.5,335.333 371.5,335.667 351.5,336C 345.851,336.162 340.851,337.995 336.5,341.5C 334.5,341.5 333.5,342.5 333.5,344.5C 330.196,348.907 328.363,353.907 328,359.5C 327.5,369.494 327.334,379.494 327.5,389.5C 322.138,388.868 316.971,387.535 312,385.5C 311.5,352.835 311.333,320.168 311.5,287.5C 326.343,287.171 341.01,287.504 355.5,288.5 Z"/></g>
<g><path style="opacity:0.929" fill="#a00c0c" d="M 355.5,288.5 C 357.5,288.5 358.5,289.5 358.5,291.5C 357.167,290.833 356.167,289.833 355.5,288.5 Z"/></g>
<g><path style="opacity:0.929" fill="#a00c0c" d="M 376.5,299.5 C 377.833,300.167 378.833,301.167 379.5,302.5C 377.5,302.5 376.5,301.5 376.5,299.5 Z"/></g>
<g><path style="opacity:0.992" fill="#b00d0d" d="M 416.5,305.5 C 418.38,305.229 419.713,305.896 420.5,307.5C 418.847,307.34 417.514,306.674 416.5,305.5 Z"/></g>
<g><path style="opacity:0.992" fill="#b10d0d" d="M 361.5,304.5 C 362.674,305.514 363.34,306.847 363.5,308.5C 361.896,307.713 361.229,306.38 361.5,304.5 Z"/></g>
<g><path style="opacity:0.024" fill="#910a0b" d="M 421.5,308.5 C 424.167,309.167 425.833,310.833 426.5,313.5C 424.5,312.167 422.833,310.5 421.5,308.5 Z"/></g>
<g><path style="opacity:0.031" fill="#910a0b" d="M 364.5,309.5 C 366.5,310.833 368.167,312.5 369.5,314.5C 366.833,313.833 365.167,312.167 364.5,309.5 Z"/></g>
<g><path style="opacity:0.996" fill="#a90d0d" d="M 372.5,316.5 C 374.403,316.796 376.07,317.463 377.5,318.5C 375.302,318.88 373.635,318.213 372.5,316.5 Z"/></g>
<g><path style="opacity:0.996" fill="#a90d0d" d="M 428.5,316.5 C 430.213,317.635 430.88,319.302 430.5,321.5C 429.463,320.07 428.796,318.403 428.5,316.5 Z"/></g>
<g><path style="opacity:0.929" fill="#a00c0c" d="M 411.5,320.5 C 413.5,320.5 414.5,321.5 414.5,323.5C 413.167,322.833 412.167,321.833 411.5,320.5 Z"/></g>
<g><path style="opacity:0.008" fill="#860a0a" d="M 336.5,341.5 C 335.833,342.833 334.833,343.833 333.5,344.5C 333.5,342.5 334.5,341.5 336.5,341.5 Z"/></g>
<g><path style="opacity:1" fill="#f01211" d="M 87.5,343.5 C 92.8333,343.5 98.1667,343.5 103.5,343.5C 103.5,348.833 103.5,354.167 103.5,359.5C 98.1667,359.5 92.8333,359.5 87.5,359.5C 87.5,354.167 87.5,348.833 87.5,343.5 Z"/></g>
<g><path style="opacity:1" fill="#f01211" d="M 151.5,343.5 C 156.833,343.5 162.167,343.5 167.5,343.5C 167.5,348.833 167.5,354.167 167.5,359.5C 162.167,359.5 156.833,359.5 151.5,359.5C 151.5,354.167 151.5,348.833 151.5,343.5 Z"/></g>
<g><path style="opacity:0.847" fill="#a10c0c" d="M 427.5,340.5 C 426.167,343.833 423.833,346.167 420.5,347.5C 422.5,344.833 424.833,342.5 427.5,340.5 Z"/></g>
<g><path style="opacity:0.008" fill="#8c0a0b" d="M 451.5,347.5 C 451.573,349.027 450.906,350.027 449.5,350.5C 449.427,348.973 450.094,347.973 451.5,347.5 Z"/></g>
<g><path style="opacity:0.929" fill="#a90c0c" d="M 347.5,352.5 C 346.833,353.833 345.833,354.833 344.5,355.5C 344.5,353.5 345.5,352.5 347.5,352.5 Z"/></g>
<g><path style="opacity:0.008" fill="#870a0a" d="M 446.5,353.5 C 446.027,354.906 445.027,355.573 443.5,355.5C 443.973,354.094 444.973,353.427 446.5,353.5 Z"/></g>
<g><path style="opacity:0.98" fill="#ab0d0d" d="M 40.5,396.5 C 41.6737,397.514 42.3404,398.847 42.5,400.5C 40.8958,399.713 40.2291,398.38 40.5,396.5 Z"/></g>
<g><path style="opacity:0.984" fill="#ac0d0d" d="M 278.5,396.5 C 278.771,398.38 278.104,399.713 276.5,400.5C 276.66,398.847 277.326,397.514 278.5,396.5 Z"/></g>
<g><path style="opacity:0.216" fill="#930a0b" d="M 43.5,401.5 C 44.5,401.833 45.1667,402.5 45.5,403.5C 44.1667,403.5 43.5,402.833 43.5,401.5 Z"/></g>
<g><path style="opacity:0.98" fill="#a40c0c" d="M 46.5,404.5 C 48.153,404.66 49.4863,405.326 50.5,406.5C 48.6203,406.771 47.287,406.104 46.5,404.5 Z"/></g>
<g><path style="opacity:0.984" fill="#ad0d0d" d="M 272.5,404.5 C 271.713,406.104 270.38,406.771 268.5,406.5C 269.514,405.326 270.847,404.66 272.5,404.5 Z"/></g>
<g><path style="opacity:0.392" fill="#8d0a0a" d="M 366.5,406.5 C 367.274,405.853 368.274,405.52 369.5,405.5C 371.03,405.64 372.03,406.307 372.5,407.5C 370.621,406.659 368.621,406.325 366.5,406.5 Z"/></g>
<g><path style="opacity:0.835" fill="#a30c0c" d="M 365.5,406.5 C 361.881,406.881 358.548,407.881 355.5,409.5C 354.596,408.791 354.263,407.791 354.5,406.5C 358.167,406.5 361.833,406.5 365.5,406.5 Z"/></g>
<g><path style="opacity:1" fill="#ec1111" d="M 365.5,406.5 C 365.833,406.5 366.167,406.5 366.5,406.5C 368.621,406.325 370.621,406.659 372.5,407.5C 384.008,429.182 395.008,451.182 405.5,473.5C 405.427,475.027 406.094,476.027 407.5,476.5C 407.427,478.027 408.094,479.027 409.5,479.5C 411.389,480.604 413.055,481.937 414.5,483.5C 415.287,485.104 416.62,485.771 418.5,485.5C 421.456,486.137 424.456,486.637 427.5,487C 452.831,487.5 478.164,487.667 503.5,487.5C 503.5,492.833 503.5,498.167 503.5,503.5C 475.165,503.667 446.831,503.5 418.5,503C 413.12,502.14 408.453,499.974 404.5,496.5C 404.027,495.094 403.027,494.427 401.5,494.5C 398.168,492 395.334,489 393,485.5C 380.217,460.268 367.717,434.935 355.5,409.5C 358.548,407.881 361.881,406.881 365.5,406.5 Z"/></g>
<g><path style="opacity:1" fill="#f01211" d="M 423.5,423.5 C 450.167,423.5 476.833,423.5 503.5,423.5C 503.5,428.833 503.5,434.167 503.5,439.5C 476.833,439.5 450.167,439.5 423.5,439.5C 423.5,434.167 423.5,428.833 423.5,423.5 Z"/></g>
<g><path style="opacity:1" fill="#f01111" d="M 35.5,484.5 C 35.0269,483.094 34.0269,482.427 32.5,482.5C 29.7573,480.761 27.7573,478.427 26.5,475.5C 26.7709,473.62 26.1042,472.287 24.5,471.5C 23.5242,460.915 23.1909,450.248 23.5,439.5C 114.167,439.5 204.833,439.5 295.5,439.5C 295.933,450.91 295.433,462.244 294,473.5C 290.686,480.149 285.519,484.649 278.5,487C 199.167,487.667 119.833,487.667 40.5,487C 38.5087,486.626 36.842,485.793 35.5,484.5 Z M 55.5,455.5 C 60.8333,455.5 66.1667,455.5 71.5,455.5C 71.5,460.833 71.5,466.167 71.5,471.5C 66.1667,471.5 60.8333,471.5 55.5,471.5C 55.5,466.167 55.5,460.833 55.5,455.5 Z M 119.5,455.5 C 146.167,455.5 172.833,455.5 199.5,455.5C 199.5,460.833 199.5,466.167 199.5,471.5C 172.833,471.5 146.167,471.5 119.5,471.5C 119.5,466.167 119.5,460.833 119.5,455.5 Z M 247.5,455.5 C 252.833,455.5 258.167,455.5 263.5,455.5C 263.5,460.833 263.5,466.167 263.5,471.5C 258.167,471.5 252.833,471.5 247.5,471.5C 247.5,466.167 247.5,460.833 247.5,455.5 Z"/></g>
<g><path style="opacity:1" fill="#f01211" d="M 423.5,455.5 C 428.833,455.5 434.167,455.5 439.5,455.5C 439.5,460.833 439.5,466.167 439.5,471.5C 434.167,471.5 428.833,471.5 423.5,471.5C 423.5,466.167 423.5,460.833 423.5,455.5 Z"/></g>
<g><path style="opacity:1" fill="#f01211" d="M 455.5,455.5 C 460.833,455.5 466.167,455.5 471.5,455.5C 471.5,460.833 471.5,466.167 471.5,471.5C 466.167,471.5 460.833,471.5 455.5,471.5C 455.5,466.167 455.5,460.833 455.5,455.5 Z"/></g>
<g><path style="opacity:1" fill="#f01211" d="M 487.5,455.5 C 492.833,455.5 498.167,455.5 503.5,455.5C 503.5,460.833 503.5,466.167 503.5,471.5C 498.167,471.5 492.833,471.5 487.5,471.5C 487.5,466.167 487.5,460.833 487.5,455.5 Z"/></g>
<g><path style="opacity:1" fill="#af0d0d" d="M 24.5,471.5 C 26.1042,472.287 26.7709,473.62 26.5,475.5C 25.3263,474.486 24.6596,473.153 24.5,471.5 Z"/></g>
<g><path style="opacity:0.008" fill="#8e0a0b" d="M 405.5,473.5 C 406.906,473.973 407.573,474.973 407.5,476.5C 406.094,476.027 405.427,475.027 405.5,473.5 Z"/></g>
<g><path style="opacity:0.024" fill="#8f0a0b" d="M 407.5,476.5 C 408.906,476.973 409.573,477.973 409.5,479.5C 408.094,479.027 407.427,478.027 407.5,476.5 Z"/></g>
<g><path style="opacity:0.031" fill="#900b0b" d="M 32.5,482.5 C 34.0269,482.427 35.0269,483.094 35.5,484.5C 33.9731,484.573 32.9731,483.906 32.5,482.5 Z"/></g>
<g><path style="opacity:0.976" fill="#a20c0c" d="M 414.5,483.5 C 416.153,483.66 417.486,484.326 418.5,485.5C 416.62,485.771 415.287,485.104 414.5,483.5 Z"/></g>
<g><path style="opacity:0.047" fill="#920b0b" d="M 401.5,494.5 C 403.027,494.427 404.027,495.094 404.5,496.5C 402.973,496.573 401.973,495.906 401.5,494.5 Z"/></g>
</svg>
