<?xml version="1.0" encoding="UTF-8"?>
<!DOCTYPE svg PUBLIC "-//W3C//DTD SVG 1.1//EN" "http://www.w3.org/Graphics/SVG/1.1/DTD/svg11.dtd">
<svg xmlns="http://www.w3.org/2000/svg" version="1.1" width="512px" height="512px" style="shape-rendering:geometricPrecision; text-rendering:geometricPrecision; image-rendering:optimizeQuality; fill-rule:evenodd; clip-rule:evenodd" xmlns:xlink="http://www.w3.org/1999/xlink">
<g><path style="opacity:1" fill="#ed1111" d="M 230.5,-0.5 C 234.5,-0.5 238.5,-0.5 242.5,-0.5C 259.105,15.6044 275.605,31.9377 292,48.5C 295.662,54.9857 295.162,60.9857 290.5,66.5C 289.094,66.9731 288.427,67.9731 288.5,69.5C 286.205,72.2971 283.705,74.9638 281,77.5C 280.333,78.1667 280.333,78.8333 281,79.5C 315.75,114.752 350.917,149.418 386.5,183.5C 391.44,180.23 395.773,176.23 399.5,171.5C 404.806,168.729 410.14,168.896 415.5,172C 431,187.5 446.5,203 462,218.5C 464.374,222.894 465.041,227.56 464,232.5C 463.303,234.584 462.136,236.251 460.5,237.5C 417.167,280.167 374.167,323.167 331.5,366.5C 328.908,369.456 325.574,370.789 321.5,370.5C 318.205,370.705 315.205,369.872 312.5,368C 297,352.5 281.5,337 266,321.5C 262.98,316.11 262.814,310.776 265.5,305.5C 267.262,304.738 268.262,303.404 268.5,301.5C 272.82,299.18 276.153,295.847 278.5,291.5C 278.253,290.287 277.586,289.62 276.5,289.5C 270.369,283.87 264.369,278.036 258.5,272C 257.833,271.333 257.167,271.333 256.5,272C 195.5,333 134.5,394 73.5,455C 61.7692,463.683 48.7692,466.516 34.5,463.5C 32.8984,461.926 30.8984,461.259 28.5,461.5C 25.279,461.104 22.6123,459.771 20.5,457.5C 19.7377,455.738 18.4044,454.738 16.5,454.5C 15.4154,452.413 13.7488,451.08 11.5,450.5C 11.573,448.973 10.9063,447.973 9.5,447.5C 7.54914,446.284 6.04914,444.618 5,442.5C 2.84209,437.841 1.00876,433.175 -0.5,428.5C -0.5,422.167 -0.5,415.833 -0.5,409.5C 0.723393,404.84 2.72339,400.506 5.5,396.5C 6.90632,396.027 7.57298,395.027 7.5,393.5C 8.90632,393.027 9.57298,392.027 9.5,390.5C 70.1667,329.167 131.167,268.167 192.5,207.5C 193.885,206.053 193.552,205.053 191.5,204.5C 185.187,198.522 178.854,192.522 172.5,186.5C 167.938,191.232 162.938,195.398 157.5,199C 152.348,201.122 147.348,200.789 142.5,198C 126.667,182.167 110.833,166.333 95,150.5C 92.854,144.932 93.0206,139.598 95.5,134.5C 140.167,90.5 184.5,46.1667 228.5,1.5C 229.167,0.833333 229.833,0.166667 230.5,-0.5 Z M 235.5,36.5 C 240.167,40.8333 244.833,45.1667 249.5,49.5C 249.833,50.5 250.5,51.1667 251.5,51.5C 252.167,52.8333 253.167,53.8333 254.5,54.5C 254.833,55.5 255.5,56.1667 256.5,56.5C 221.535,91.9654 186.368,127.299 151,162.5C 150.617,161.944 150.117,161.611 149.5,161.5C 143.369,154.869 137.036,148.369 130.5,142C 165.701,106.965 200.701,71.7987 235.5,36.5 Z M 363.5,205.5 C 342.5,227.167 321.167,248.5 299.5,269.5C 264.701,234.201 229.701,199.035 194.5,164C 215.667,142.833 236.833,121.667 258,100.5C 293.035,135.701 328.201,170.701 363.5,205.5 Z M 421.5,221.5 C 422.5,223.167 423.833,224.5 425.5,225.5C 426.303,226.423 426.47,227.423 426,228.5C 391.25,263.752 356.083,298.418 320.5,332.5C 314.536,326.035 308.369,319.702 302,313.5C 301.333,312.833 301.333,312.167 302,311.5C 336.5,277 371,242.5 405.5,208C 406.167,207.333 406.833,207.333 407.5,208C 412.035,212.703 416.702,217.203 421.5,221.5 Z M 216.5,229.5 C 217.5,231.167 218.833,232.5 220.5,233.5C 221.5,235.167 222.833,236.5 224.5,237.5C 226.5,240.167 228.833,242.5 231.5,244.5C 232.5,246.167 233.833,247.5 235.5,248.5C 228.833,255.5 222.167,262.5 215.5,269.5C 208.167,276.167 201.167,283.167 194.5,290.5C 189.833,294.5 185.5,298.833 181.5,303.5C 174.833,309.5 168.5,315.833 162.5,322.5C 158.5,325.833 154.833,329.5 151.5,333.5C 139.167,345.167 127.167,357.167 115.5,369.5C 109.5,374.833 103.833,380.5 98.5,386.5C 83.5,400.833 68.8333,415.5 54.5,430.5C 52.9731,430.427 51.9731,431.094 51.5,432.5C 44.9661,434.406 38.9661,433.406 33.5,429.5C 33.573,427.973 32.9063,426.973 31.5,426.5C 29.8217,420.95 30.3217,415.617 33,410.5C 93.6667,349.833 154.333,289.167 215,228.5C 215.383,229.056 215.883,229.389 216.5,229.5 Z"/></g>
<g><path style="opacity:0.965" fill="#a30c0c" d="M 235.5,36.5 C 235.897,35.475 236.563,35.3083 237.5,36C 242.102,40.0937 246.102,44.5937 249.5,49.5C 244.833,45.1667 240.167,40.8333 235.5,36.5 Z"/></g>
<g><path style="opacity:0.957" fill="#a10c0c" d="M 251.5,51.5 C 253.5,51.5 254.5,52.5 254.5,54.5C 253.167,53.8333 252.167,52.8333 251.5,51.5 Z"/></g>
<g><path style="opacity:0.055" fill="#910a0b" d="M 290.5,66.5 C 290.573,68.0269 289.906,69.0269 288.5,69.5C 288.427,67.9731 289.094,66.9731 290.5,66.5 Z"/></g>
<g><path style="opacity:0.957" fill="#ad0d0d" d="M 228.5,1.5 C 184.5,46.1667 140.167,90.5 95.5,134.5C 138.582,89.9169 182.249,45.7502 226.5,2C 227.094,1.53566 227.761,1.36899 228.5,1.5 Z"/></g>
<g><path style="opacity:0.875" fill="#9e0b0c" d="M 256.5,56.5 C 257.525,56.8966 257.692,57.5632 257,58.5C 221.96,93.8737 186.627,128.874 151,163.5C 149.97,163.164 149.47,162.497 149.5,161.5C 150.117,161.611 150.617,161.944 151,162.5C 186.368,127.299 221.535,91.9654 256.5,56.5 Z"/></g>
<g><path style="opacity:0.988" fill="#b90e0e" d="M 399.5,171.5 C 395.773,176.23 391.44,180.23 386.5,183.5C 390.227,178.77 394.56,174.77 399.5,171.5 Z"/></g>
<g><path style="opacity:0.702" fill="#9c0b0c" d="M 191.5,204.5 C 193.552,205.053 193.885,206.053 192.5,207.5C 192.443,206.391 192.11,205.391 191.5,204.5 Z"/></g>
<g><path style="opacity:0.965" fill="#a20c0c" d="M 421.5,221.5 C 423.833,221.833 425.167,223.167 425.5,225.5C 423.833,224.5 422.5,223.167 421.5,221.5 Z"/></g>
<g><path style="opacity:0.969" fill="#a20c0c" d="M 216.5,229.5 C 218.833,229.833 220.167,231.167 220.5,233.5C 218.833,232.5 217.5,231.167 216.5,229.5 Z"/></g>
<g><path style="opacity:0.969" fill="#a10c0c" d="M 224.5,237.5 C 227.833,238.833 230.167,241.167 231.5,244.5C 228.833,242.5 226.5,240.167 224.5,237.5 Z"/></g>
<g><path style="opacity:0.988" fill="#bc0e0e" d="M 363.5,205.5 C 364.525,205.897 364.692,206.563 364,207.5C 343.167,228.333 322.333,249.167 301.5,270C 300.563,270.692 299.897,270.525 299.5,269.5C 321.167,248.5 342.5,227.167 363.5,205.5 Z"/></g>
<g><path style="opacity:0.953" fill="#ac0d0d" d="M 425.5,225.5 C 427.344,226.204 427.844,227.537 427,229.5C 392.167,264.333 357.333,299.167 322.5,334C 321.184,334.528 320.517,334.028 320.5,332.5C 356.083,298.418 391.25,263.752 426,228.5C 426.47,227.423 426.303,226.423 425.5,225.5 Z"/></g>
<g><path style="opacity:1" fill="#c80e0e" d="M 235.5,248.5 C 236.525,248.897 236.692,249.563 236,250.5C 229.577,257.428 222.744,263.762 215.5,269.5C 222.167,262.5 228.833,255.5 235.5,248.5 Z"/></g>
<g><path style="opacity:1" fill="#c80e0e" d="M 215.5,269.5 C 215.631,270.239 215.464,270.906 215,271.5C 208.577,278.428 201.744,284.762 194.5,290.5C 201.167,283.167 208.167,276.167 215.5,269.5 Z"/></g>
<g><path style="opacity:1" fill="#c80e0e" d="M 194.5,290.5 C 191.167,295.833 186.833,300.167 181.5,303.5C 185.5,298.833 189.833,294.5 194.5,290.5 Z"/></g>
<g><path style="opacity:0.988" fill="#b80d0e" d="M 276.5,289.5 C 277.586,289.62 278.253,290.287 278.5,291.5C 276.153,295.847 272.82,299.18 268.5,301.5C 271.129,298.369 273.962,295.369 277,292.5C 277.47,291.423 277.303,290.423 276.5,289.5 Z"/></g>
<g><path style="opacity:0.984" fill="#a60c0c" d="M 268.5,301.5 C 268.262,303.404 267.262,304.738 265.5,305.5C 265.738,303.596 266.738,302.262 268.5,301.5 Z"/></g>
<g><path style="opacity:1" fill="#c70e0e" d="M 162.5,322.5 C 159.833,327.167 156.167,330.833 151.5,333.5C 154.833,329.5 158.5,325.833 162.5,322.5 Z"/></g>
<g><path style="opacity:0.008" fill="#890a0a" d="M 460.5,237.5 C 418.751,280.75 376.418,323.583 333.5,366C 332.906,366.464 332.239,366.631 331.5,366.5C 374.167,323.167 417.167,280.167 460.5,237.5 Z"/></g>
<g><path style="opacity:1" fill="#c80e0e" d="M 151.5,333.5 C 140.756,345.747 129.423,357.58 117.5,369C 116.906,369.464 116.239,369.631 115.5,369.5C 127.167,357.167 139.167,345.167 151.5,333.5 Z"/></g>
<g><path style="opacity:1" fill="#c80e0e" d="M 115.5,369.5 C 110.833,376.167 105.167,381.833 98.5,386.5C 103.833,380.5 109.5,374.833 115.5,369.5 Z"/></g>
<g><path style="opacity:0.796" fill="#9e0b0c" d="M 9.5,390.5 C 9.57298,392.027 8.90632,393.027 7.5,393.5C 7.42702,391.973 8.09368,390.973 9.5,390.5 Z"/></g>
<g><path style="opacity:0.773" fill="#a20c0c" d="M 7.5,393.5 C 7.57298,395.027 6.90632,396.027 5.5,396.5C 5.42702,394.973 6.09368,393.973 7.5,393.5 Z"/></g>
<g><path style="opacity:1" fill="#ee1111" d="M 506.5,424.5 C 506.738,426.404 507.738,427.738 509.5,428.5C 510.167,429.167 510.833,429.833 511.5,430.5C 511.5,454.5 511.5,478.5 511.5,502.5C 510.728,503.694 509.728,504.694 508.5,505.5C 507.167,506.167 506.167,507.167 505.5,508.5C 504.694,509.728 503.694,510.728 502.5,511.5C 418.167,511.5 333.833,511.5 249.5,511.5C 248.306,510.728 247.306,509.728 246.5,508.5C 245.833,507.167 244.833,506.167 243.5,505.5C 242.21,504.942 241.377,503.942 241,502.5C 240.667,500.5 240.333,498.5 240,496.5C 239.333,476.167 239.333,455.833 240,435.5C 240.156,432.809 240.989,430.476 242.5,428.5C 243.906,428.027 244.573,427.027 244.5,425.5C 246.027,425.573 247.027,424.906 247.5,423.5C 248.842,422.207 250.509,421.374 252.5,421C 334.833,420.333 417.167,420.333 499.5,421C 502.174,421.67 504.507,422.837 506.5,424.5 Z M 270.5,451.5 C 340.5,451.5 410.5,451.5 480.5,451.5C 480.5,461.5 480.5,471.5 480.5,481.5C 410.5,481.5 340.5,481.5 270.5,481.5C 270.5,471.5 270.5,461.5 270.5,451.5 Z"/></g>
<g><path style="opacity:0.937" fill="#a40c0c" d="M 247.5,423.5 C 247.027,424.906 246.027,425.573 244.5,425.5C 244.973,424.094 245.973,423.427 247.5,423.5 Z"/></g>
<g><path style="opacity:0.973" fill="#a30c0c" d="M 506.5,424.5 C 508.262,425.262 509.262,426.596 509.5,428.5C 507.738,427.738 506.738,426.404 506.5,424.5 Z"/></g>
<g><path style="opacity:0.769" fill="#9a0b0b" d="M 244.5,425.5 C 244.573,427.027 243.906,428.027 242.5,428.5C 242.427,426.973 243.094,425.973 244.5,425.5 Z"/></g>
<g><path style="opacity:0.827" fill="#a00c0c" d="M 31.5,426.5 C 32.9063,426.973 33.573,427.973 33.5,429.5C 32.0937,429.027 31.427,428.027 31.5,426.5 Z"/></g>
<g><path style="opacity:0.918" fill="#9f0c0c" d="M 54.5,430.5 C 54.0269,431.906 53.0269,432.573 51.5,432.5C 51.9731,431.094 52.9731,430.427 54.5,430.5 Z"/></g>
<g><path style="opacity:0.024" fill="#8f0a0b" d="M 9.5,447.5 C 10.9063,447.973 11.573,448.973 11.5,450.5C 10.0937,450.027 9.42702,449.027 9.5,447.5 Z"/></g>
<g><path style="opacity:0.969" fill="#a00c0c" d="M 11.5,450.5 C 13.7488,451.08 15.4154,452.413 16.5,454.5C 14.2512,453.92 12.5846,452.587 11.5,450.5 Z"/></g>
<g><path style="opacity:0.965" fill="#b00d0d" d="M 16.5,454.5 C 18.4044,454.738 19.7377,455.738 20.5,457.5C 18.5956,457.262 17.2623,456.262 16.5,454.5 Z"/></g>
<g><path style="opacity:1" fill="#ae0d0d" d="M 28.5,461.5 C 30.8984,461.259 32.8984,461.926 34.5,463.5C 32.2143,463.405 30.2143,462.738 28.5,461.5 Z"/></g>
<g><path style="opacity:0.016" fill="#900a0b" d="M 243.5,505.5 C 244.833,506.167 245.833,507.167 246.5,508.5C 244.5,508.5 243.5,507.5 243.5,505.5 Z"/></g>
<g><path style="opacity:0.016" fill="#8a0a0a" d="M 508.5,505.5 C 508.5,507.5 507.5,508.5 505.5,508.5C 506.167,507.167 507.167,506.167 508.5,505.5 Z"/></g>
</svg>
